G04 #@! TF.GenerationSoftware,KiCad,Pcbnew,5.1.5-1.fc31*
G04 #@! TF.CreationDate,2020-02-11T17:57:21+01:00*
G04 #@! TF.ProjectId,mimu3000,6d696d75-3330-4303-902e-6b696361645f,rev?*
G04 #@! TF.SameCoordinates,Original*
G04 #@! TF.FileFunction,Copper,L1,Top*
G04 #@! TF.FilePolarity,Positive*
%FSLAX46Y46*%
G04 Gerber Fmt 4.6, Leading zero omitted, Abs format (unit mm)*
G04 Created by KiCad (PCBNEW 5.1.5-1.fc31) date 2020-02-11 17:57:21*
%MOMM*%
%LPD*%
G04 APERTURE LIST*
%ADD10C,0.100000*%
%ADD11R,1.000000X1.500000*%
%ADD12R,0.550000X1.600000*%
%ADD13R,1.600000X0.550000*%
%ADD14O,1.350000X1.350000*%
%ADD15R,1.350000X1.350000*%
%ADD16C,2.000000*%
%ADD17R,2.000000X2.000000*%
%ADD18C,2.340000*%
%ADD19R,1.000000X1.000000*%
%ADD20O,1.000000X1.000000*%
%ADD21R,1.700000X1.700000*%
%ADD22O,1.700000X1.700000*%
%ADD23O,1.600000X1.600000*%
%ADD24R,1.600000X1.600000*%
%ADD25C,1.800000*%
%ADD26R,1.800000X1.800000*%
%ADD27C,1.600000*%
%ADD28C,0.800000*%
%ADD29C,0.250000*%
%ADD30C,0.400000*%
G04 APERTURE END LIST*
D10*
G36*
X202400000Y-119100000D02*
G01*
X202900000Y-119100000D01*
X202900000Y-119700000D01*
X202400000Y-119700000D01*
X202400000Y-119100000D01*
G37*
G04 #@! TA.AperFunction,SMDPad,CuDef*
G36*
X202550000Y-120150000D02*
G01*
X202000000Y-120150000D01*
X202000000Y-120149398D01*
X201975466Y-120149398D01*
X201926635Y-120144588D01*
X201878510Y-120135016D01*
X201831555Y-120120772D01*
X201786222Y-120101995D01*
X201742949Y-120078864D01*
X201702150Y-120051604D01*
X201664221Y-120020476D01*
X201629524Y-119985779D01*
X201598396Y-119947850D01*
X201571136Y-119907051D01*
X201548005Y-119863778D01*
X201529228Y-119818445D01*
X201514984Y-119771490D01*
X201505412Y-119723365D01*
X201500602Y-119674534D01*
X201500602Y-119650000D01*
X201500000Y-119650000D01*
X201500000Y-119150000D01*
X201500602Y-119150000D01*
X201500602Y-119125466D01*
X201505412Y-119076635D01*
X201514984Y-119028510D01*
X201529228Y-118981555D01*
X201548005Y-118936222D01*
X201571136Y-118892949D01*
X201598396Y-118852150D01*
X201629524Y-118814221D01*
X201664221Y-118779524D01*
X201702150Y-118748396D01*
X201742949Y-118721136D01*
X201786222Y-118698005D01*
X201831555Y-118679228D01*
X201878510Y-118664984D01*
X201926635Y-118655412D01*
X201975466Y-118650602D01*
X202000000Y-118650602D01*
X202000000Y-118650000D01*
X202550000Y-118650000D01*
X202550000Y-120150000D01*
G37*
G04 #@! TD.AperFunction*
D11*
X203300000Y-119400000D03*
G04 #@! TA.AperFunction,SMDPad,CuDef*
D10*
G36*
X204600000Y-118650602D02*
G01*
X204624534Y-118650602D01*
X204673365Y-118655412D01*
X204721490Y-118664984D01*
X204768445Y-118679228D01*
X204813778Y-118698005D01*
X204857051Y-118721136D01*
X204897850Y-118748396D01*
X204935779Y-118779524D01*
X204970476Y-118814221D01*
X205001604Y-118852150D01*
X205028864Y-118892949D01*
X205051995Y-118936222D01*
X205070772Y-118981555D01*
X205085016Y-119028510D01*
X205094588Y-119076635D01*
X205099398Y-119125466D01*
X205099398Y-119150000D01*
X205100000Y-119150000D01*
X205100000Y-119650000D01*
X205099398Y-119650000D01*
X205099398Y-119674534D01*
X205094588Y-119723365D01*
X205085016Y-119771490D01*
X205070772Y-119818445D01*
X205051995Y-119863778D01*
X205028864Y-119907051D01*
X205001604Y-119947850D01*
X204970476Y-119985779D01*
X204935779Y-120020476D01*
X204897850Y-120051604D01*
X204857051Y-120078864D01*
X204813778Y-120101995D01*
X204768445Y-120120772D01*
X204721490Y-120135016D01*
X204673365Y-120144588D01*
X204624534Y-120149398D01*
X204600000Y-120149398D01*
X204600000Y-120150000D01*
X204050000Y-120150000D01*
X204050000Y-118650000D01*
X204600000Y-118650000D01*
X204600000Y-118650602D01*
G37*
G04 #@! TD.AperFunction*
G04 #@! TA.AperFunction,SMDPad,CuDef*
G36*
X216549504Y-117351204D02*
G01*
X216573773Y-117354804D01*
X216597571Y-117360765D01*
X216620671Y-117369030D01*
X216642849Y-117379520D01*
X216663893Y-117392133D01*
X216683598Y-117406747D01*
X216701777Y-117423223D01*
X216718253Y-117441402D01*
X216732867Y-117461107D01*
X216745480Y-117482151D01*
X216755970Y-117504329D01*
X216764235Y-117527429D01*
X216770196Y-117551227D01*
X216773796Y-117575496D01*
X216775000Y-117600000D01*
X216775000Y-119175000D01*
X216773796Y-119199504D01*
X216770196Y-119223773D01*
X216764235Y-119247571D01*
X216755970Y-119270671D01*
X216745480Y-119292849D01*
X216732867Y-119313893D01*
X216718253Y-119333598D01*
X216701777Y-119351777D01*
X216683598Y-119368253D01*
X216663893Y-119382867D01*
X216642849Y-119395480D01*
X216620671Y-119405970D01*
X216597571Y-119414235D01*
X216573773Y-119420196D01*
X216549504Y-119423796D01*
X216525000Y-119425000D01*
X214475000Y-119425000D01*
X214450496Y-119423796D01*
X214426227Y-119420196D01*
X214402429Y-119414235D01*
X214379329Y-119405970D01*
X214357151Y-119395480D01*
X214336107Y-119382867D01*
X214316402Y-119368253D01*
X214298223Y-119351777D01*
X214281747Y-119333598D01*
X214267133Y-119313893D01*
X214254520Y-119292849D01*
X214244030Y-119270671D01*
X214235765Y-119247571D01*
X214229804Y-119223773D01*
X214226204Y-119199504D01*
X214225000Y-119175000D01*
X214225000Y-117600000D01*
X214226204Y-117575496D01*
X214229804Y-117551227D01*
X214235765Y-117527429D01*
X214244030Y-117504329D01*
X214254520Y-117482151D01*
X214267133Y-117461107D01*
X214281747Y-117441402D01*
X214298223Y-117423223D01*
X214316402Y-117406747D01*
X214336107Y-117392133D01*
X214357151Y-117379520D01*
X214379329Y-117369030D01*
X214402429Y-117360765D01*
X214426227Y-117354804D01*
X214450496Y-117351204D01*
X214475000Y-117350000D01*
X216525000Y-117350000D01*
X216549504Y-117351204D01*
G37*
G04 #@! TD.AperFunction*
G04 #@! TA.AperFunction,SMDPad,CuDef*
G36*
X216549504Y-123576204D02*
G01*
X216573773Y-123579804D01*
X216597571Y-123585765D01*
X216620671Y-123594030D01*
X216642849Y-123604520D01*
X216663893Y-123617133D01*
X216683598Y-123631747D01*
X216701777Y-123648223D01*
X216718253Y-123666402D01*
X216732867Y-123686107D01*
X216745480Y-123707151D01*
X216755970Y-123729329D01*
X216764235Y-123752429D01*
X216770196Y-123776227D01*
X216773796Y-123800496D01*
X216775000Y-123825000D01*
X216775000Y-125400000D01*
X216773796Y-125424504D01*
X216770196Y-125448773D01*
X216764235Y-125472571D01*
X216755970Y-125495671D01*
X216745480Y-125517849D01*
X216732867Y-125538893D01*
X216718253Y-125558598D01*
X216701777Y-125576777D01*
X216683598Y-125593253D01*
X216663893Y-125607867D01*
X216642849Y-125620480D01*
X216620671Y-125630970D01*
X216597571Y-125639235D01*
X216573773Y-125645196D01*
X216549504Y-125648796D01*
X216525000Y-125650000D01*
X214475000Y-125650000D01*
X214450496Y-125648796D01*
X214426227Y-125645196D01*
X214402429Y-125639235D01*
X214379329Y-125630970D01*
X214357151Y-125620480D01*
X214336107Y-125607867D01*
X214316402Y-125593253D01*
X214298223Y-125576777D01*
X214281747Y-125558598D01*
X214267133Y-125538893D01*
X214254520Y-125517849D01*
X214244030Y-125495671D01*
X214235765Y-125472571D01*
X214229804Y-125448773D01*
X214226204Y-125424504D01*
X214225000Y-125400000D01*
X214225000Y-123825000D01*
X214226204Y-123800496D01*
X214229804Y-123776227D01*
X214235765Y-123752429D01*
X214244030Y-123729329D01*
X214254520Y-123707151D01*
X214267133Y-123686107D01*
X214281747Y-123666402D01*
X214298223Y-123648223D01*
X214316402Y-123631747D01*
X214336107Y-123617133D01*
X214357151Y-123604520D01*
X214379329Y-123594030D01*
X214402429Y-123585765D01*
X214426227Y-123579804D01*
X214450496Y-123576204D01*
X214475000Y-123575000D01*
X216525000Y-123575000D01*
X216549504Y-123576204D01*
G37*
G04 #@! TD.AperFunction*
D12*
X188100000Y-110850000D03*
X187300000Y-110850000D03*
X186500000Y-110850000D03*
X185700000Y-110850000D03*
X184900000Y-110850000D03*
X184100000Y-110850000D03*
X183300000Y-110850000D03*
X182500000Y-110850000D03*
D13*
X181050000Y-109400000D03*
X181050000Y-108600000D03*
X181050000Y-107800000D03*
X181050000Y-107000000D03*
X181050000Y-106200000D03*
X181050000Y-105400000D03*
X181050000Y-104600000D03*
X181050000Y-103800000D03*
D12*
X182500000Y-102350000D03*
X183300000Y-102350000D03*
X184100000Y-102350000D03*
X184900000Y-102350000D03*
X185700000Y-102350000D03*
X186500000Y-102350000D03*
X187300000Y-102350000D03*
X188100000Y-102350000D03*
D13*
X189550000Y-103800000D03*
X189550000Y-104600000D03*
X189550000Y-105400000D03*
X189550000Y-106200000D03*
X189550000Y-107000000D03*
X189550000Y-107800000D03*
X189550000Y-108600000D03*
X189550000Y-109400000D03*
D14*
X211300000Y-110700000D03*
X211300000Y-108700000D03*
X211300000Y-106700000D03*
D15*
X211300000Y-104700000D03*
D16*
X167640000Y-107315000D03*
D17*
X167640000Y-120015000D03*
D18*
X180700000Y-91100000D03*
X175700000Y-91100000D03*
X170700000Y-91100000D03*
D19*
X185674000Y-123952000D03*
D20*
X184404000Y-123952000D03*
X183134000Y-123952000D03*
X181864000Y-123952000D03*
X180594000Y-123952000D03*
G04 #@! TA.AperFunction,SMDPad,CuDef*
D10*
G36*
X179074505Y-106526204D02*
G01*
X179098773Y-106529804D01*
X179122572Y-106535765D01*
X179145671Y-106544030D01*
X179167850Y-106554520D01*
X179188893Y-106567132D01*
X179208599Y-106581747D01*
X179226777Y-106598223D01*
X179243253Y-106616401D01*
X179257868Y-106636107D01*
X179270480Y-106657150D01*
X179280970Y-106679329D01*
X179289235Y-106702428D01*
X179295196Y-106726227D01*
X179298796Y-106750495D01*
X179300000Y-106774999D01*
X179300000Y-107425001D01*
X179298796Y-107449505D01*
X179295196Y-107473773D01*
X179289235Y-107497572D01*
X179280970Y-107520671D01*
X179270480Y-107542850D01*
X179257868Y-107563893D01*
X179243253Y-107583599D01*
X179226777Y-107601777D01*
X179208599Y-107618253D01*
X179188893Y-107632868D01*
X179167850Y-107645480D01*
X179145671Y-107655970D01*
X179122572Y-107664235D01*
X179098773Y-107670196D01*
X179074505Y-107673796D01*
X179050001Y-107675000D01*
X178149999Y-107675000D01*
X178125495Y-107673796D01*
X178101227Y-107670196D01*
X178077428Y-107664235D01*
X178054329Y-107655970D01*
X178032150Y-107645480D01*
X178011107Y-107632868D01*
X177991401Y-107618253D01*
X177973223Y-107601777D01*
X177956747Y-107583599D01*
X177942132Y-107563893D01*
X177929520Y-107542850D01*
X177919030Y-107520671D01*
X177910765Y-107497572D01*
X177904804Y-107473773D01*
X177901204Y-107449505D01*
X177900000Y-107425001D01*
X177900000Y-106774999D01*
X177901204Y-106750495D01*
X177904804Y-106726227D01*
X177910765Y-106702428D01*
X177919030Y-106679329D01*
X177929520Y-106657150D01*
X177942132Y-106636107D01*
X177956747Y-106616401D01*
X177973223Y-106598223D01*
X177991401Y-106581747D01*
X178011107Y-106567132D01*
X178032150Y-106554520D01*
X178054329Y-106544030D01*
X178077428Y-106535765D01*
X178101227Y-106529804D01*
X178125495Y-106526204D01*
X178149999Y-106525000D01*
X179050001Y-106525000D01*
X179074505Y-106526204D01*
G37*
G04 #@! TD.AperFunction*
G04 #@! TA.AperFunction,SMDPad,CuDef*
G36*
X179074505Y-104476204D02*
G01*
X179098773Y-104479804D01*
X179122572Y-104485765D01*
X179145671Y-104494030D01*
X179167850Y-104504520D01*
X179188893Y-104517132D01*
X179208599Y-104531747D01*
X179226777Y-104548223D01*
X179243253Y-104566401D01*
X179257868Y-104586107D01*
X179270480Y-104607150D01*
X179280970Y-104629329D01*
X179289235Y-104652428D01*
X179295196Y-104676227D01*
X179298796Y-104700495D01*
X179300000Y-104724999D01*
X179300000Y-105375001D01*
X179298796Y-105399505D01*
X179295196Y-105423773D01*
X179289235Y-105447572D01*
X179280970Y-105470671D01*
X179270480Y-105492850D01*
X179257868Y-105513893D01*
X179243253Y-105533599D01*
X179226777Y-105551777D01*
X179208599Y-105568253D01*
X179188893Y-105582868D01*
X179167850Y-105595480D01*
X179145671Y-105605970D01*
X179122572Y-105614235D01*
X179098773Y-105620196D01*
X179074505Y-105623796D01*
X179050001Y-105625000D01*
X178149999Y-105625000D01*
X178125495Y-105623796D01*
X178101227Y-105620196D01*
X178077428Y-105614235D01*
X178054329Y-105605970D01*
X178032150Y-105595480D01*
X178011107Y-105582868D01*
X177991401Y-105568253D01*
X177973223Y-105551777D01*
X177956747Y-105533599D01*
X177942132Y-105513893D01*
X177929520Y-105492850D01*
X177919030Y-105470671D01*
X177910765Y-105447572D01*
X177904804Y-105423773D01*
X177901204Y-105399505D01*
X177900000Y-105375001D01*
X177900000Y-104724999D01*
X177901204Y-104700495D01*
X177904804Y-104676227D01*
X177910765Y-104652428D01*
X177919030Y-104629329D01*
X177929520Y-104607150D01*
X177942132Y-104586107D01*
X177956747Y-104566401D01*
X177973223Y-104548223D01*
X177991401Y-104531747D01*
X178011107Y-104517132D01*
X178032150Y-104504520D01*
X178054329Y-104494030D01*
X178077428Y-104485765D01*
X178101227Y-104479804D01*
X178125495Y-104476204D01*
X178149999Y-104475000D01*
X179050001Y-104475000D01*
X179074505Y-104476204D01*
G37*
G04 #@! TD.AperFunction*
G04 #@! TA.AperFunction,SMDPad,CuDef*
G36*
X193260505Y-104775204D02*
G01*
X193284773Y-104778804D01*
X193308572Y-104784765D01*
X193331671Y-104793030D01*
X193353850Y-104803520D01*
X193374893Y-104816132D01*
X193394599Y-104830747D01*
X193412777Y-104847223D01*
X193429253Y-104865401D01*
X193443868Y-104885107D01*
X193456480Y-104906150D01*
X193466970Y-104928329D01*
X193475235Y-104951428D01*
X193481196Y-104975227D01*
X193484796Y-104999495D01*
X193486000Y-105023999D01*
X193486000Y-105674001D01*
X193484796Y-105698505D01*
X193481196Y-105722773D01*
X193475235Y-105746572D01*
X193466970Y-105769671D01*
X193456480Y-105791850D01*
X193443868Y-105812893D01*
X193429253Y-105832599D01*
X193412777Y-105850777D01*
X193394599Y-105867253D01*
X193374893Y-105881868D01*
X193353850Y-105894480D01*
X193331671Y-105904970D01*
X193308572Y-105913235D01*
X193284773Y-105919196D01*
X193260505Y-105922796D01*
X193236001Y-105924000D01*
X192335999Y-105924000D01*
X192311495Y-105922796D01*
X192287227Y-105919196D01*
X192263428Y-105913235D01*
X192240329Y-105904970D01*
X192218150Y-105894480D01*
X192197107Y-105881868D01*
X192177401Y-105867253D01*
X192159223Y-105850777D01*
X192142747Y-105832599D01*
X192128132Y-105812893D01*
X192115520Y-105791850D01*
X192105030Y-105769671D01*
X192096765Y-105746572D01*
X192090804Y-105722773D01*
X192087204Y-105698505D01*
X192086000Y-105674001D01*
X192086000Y-105023999D01*
X192087204Y-104999495D01*
X192090804Y-104975227D01*
X192096765Y-104951428D01*
X192105030Y-104928329D01*
X192115520Y-104906150D01*
X192128132Y-104885107D01*
X192142747Y-104865401D01*
X192159223Y-104847223D01*
X192177401Y-104830747D01*
X192197107Y-104816132D01*
X192218150Y-104803520D01*
X192240329Y-104793030D01*
X192263428Y-104784765D01*
X192287227Y-104778804D01*
X192311495Y-104775204D01*
X192335999Y-104774000D01*
X193236001Y-104774000D01*
X193260505Y-104775204D01*
G37*
G04 #@! TD.AperFunction*
G04 #@! TA.AperFunction,SMDPad,CuDef*
G36*
X193260505Y-106825204D02*
G01*
X193284773Y-106828804D01*
X193308572Y-106834765D01*
X193331671Y-106843030D01*
X193353850Y-106853520D01*
X193374893Y-106866132D01*
X193394599Y-106880747D01*
X193412777Y-106897223D01*
X193429253Y-106915401D01*
X193443868Y-106935107D01*
X193456480Y-106956150D01*
X193466970Y-106978329D01*
X193475235Y-107001428D01*
X193481196Y-107025227D01*
X193484796Y-107049495D01*
X193486000Y-107073999D01*
X193486000Y-107724001D01*
X193484796Y-107748505D01*
X193481196Y-107772773D01*
X193475235Y-107796572D01*
X193466970Y-107819671D01*
X193456480Y-107841850D01*
X193443868Y-107862893D01*
X193429253Y-107882599D01*
X193412777Y-107900777D01*
X193394599Y-107917253D01*
X193374893Y-107931868D01*
X193353850Y-107944480D01*
X193331671Y-107954970D01*
X193308572Y-107963235D01*
X193284773Y-107969196D01*
X193260505Y-107972796D01*
X193236001Y-107974000D01*
X192335999Y-107974000D01*
X192311495Y-107972796D01*
X192287227Y-107969196D01*
X192263428Y-107963235D01*
X192240329Y-107954970D01*
X192218150Y-107944480D01*
X192197107Y-107931868D01*
X192177401Y-107917253D01*
X192159223Y-107900777D01*
X192142747Y-107882599D01*
X192128132Y-107862893D01*
X192115520Y-107841850D01*
X192105030Y-107819671D01*
X192096765Y-107796572D01*
X192090804Y-107772773D01*
X192087204Y-107748505D01*
X192086000Y-107724001D01*
X192086000Y-107073999D01*
X192087204Y-107049495D01*
X192090804Y-107025227D01*
X192096765Y-107001428D01*
X192105030Y-106978329D01*
X192115520Y-106956150D01*
X192128132Y-106935107D01*
X192142747Y-106915401D01*
X192159223Y-106897223D01*
X192177401Y-106880747D01*
X192197107Y-106866132D01*
X192218150Y-106853520D01*
X192240329Y-106843030D01*
X192263428Y-106834765D01*
X192287227Y-106828804D01*
X192311495Y-106825204D01*
X192335999Y-106824000D01*
X193236001Y-106824000D01*
X193260505Y-106825204D01*
G37*
G04 #@! TD.AperFunction*
D21*
X167640000Y-113284000D03*
D22*
X167640000Y-115824000D03*
D23*
X207200000Y-114520000D03*
X204660000Y-106900000D03*
X204660000Y-114520000D03*
D24*
X207200000Y-106900000D03*
D22*
X173228000Y-108712000D03*
X170688000Y-108712000D03*
X173228000Y-106172000D03*
X170688000Y-106172000D03*
X173228000Y-103632000D03*
D21*
X170688000Y-103632000D03*
D22*
X208765000Y-118718000D03*
X208765000Y-121258000D03*
D21*
X208765000Y-123798000D03*
X197081000Y-123798000D03*
D22*
X197081000Y-121258000D03*
X197081000Y-118718000D03*
D25*
X214400000Y-91060000D03*
D26*
X214400000Y-93600000D03*
D23*
X179070000Y-119634000D03*
D27*
X171450000Y-119634000D03*
D23*
X179070000Y-116205000D03*
D27*
X171450000Y-116205000D03*
X184700000Y-116200000D03*
D24*
X182200000Y-116200000D03*
D28*
X192800000Y-114300000D03*
X185700000Y-109000000D03*
X178700000Y-103075000D03*
X183300000Y-104400000D03*
X185600000Y-106200000D03*
X183000000Y-107000000D03*
X194400000Y-104300000D03*
X178700000Y-110200000D03*
X197400000Y-107000000D03*
X186500000Y-107800000D03*
X187300000Y-108500000D03*
X188100000Y-109200000D03*
D29*
X167640000Y-118765000D02*
X167640000Y-115824000D01*
X167640000Y-120015000D02*
X167640000Y-118765000D01*
X184700000Y-116200000D02*
X187349990Y-113550010D01*
X187349990Y-113550010D02*
X196186401Y-113550009D01*
X196186401Y-113550009D02*
X201668205Y-108068205D01*
X207081795Y-108068205D02*
X207200000Y-107950000D01*
X201668205Y-108068205D02*
X207081795Y-108068205D01*
X207200000Y-107950000D02*
X207200000Y-106900000D01*
X179070000Y-116205000D02*
X182195000Y-116205000D01*
D30*
X197081000Y-121258000D02*
X200383000Y-121258000D01*
X208765000Y-123798000D02*
X197081000Y-123798000D01*
D29*
X179070000Y-119634000D02*
X187466000Y-119634000D01*
X187466000Y-119634000D02*
X192800000Y-114300000D01*
X185700000Y-109000000D02*
X185700000Y-110500000D01*
X172591590Y-106172000D02*
X173228000Y-106172000D01*
X173228000Y-106172000D02*
X176325000Y-103075000D01*
X176325000Y-103075000D02*
X178700000Y-103075000D01*
X183300000Y-104400000D02*
X183300000Y-102400000D01*
X170688000Y-106172000D02*
X170688000Y-106336588D01*
X171863001Y-107347001D02*
X171537999Y-107021999D01*
X173792001Y-107347001D02*
X171863001Y-107347001D01*
X174211002Y-106928000D02*
X173792001Y-107347001D01*
X171537999Y-107021999D02*
X170688000Y-106172000D01*
X174211002Y-106928000D02*
X177339002Y-103800000D01*
X177339002Y-103800000D02*
X181000000Y-103800000D01*
X173792001Y-104807001D02*
X171607001Y-104807001D01*
X182500000Y-102350000D02*
X176249002Y-102350000D01*
X176249002Y-102350000D02*
X173792001Y-104807001D01*
X171607001Y-104807001D02*
X170700000Y-103900000D01*
X173628000Y-109112000D02*
X173228000Y-108712000D01*
X190974000Y-106228000D02*
X191844000Y-105358000D01*
X189924000Y-106228000D02*
X190974000Y-106228000D01*
X191844000Y-105358000D02*
X193294000Y-105358000D01*
X189550000Y-106200000D02*
X188500000Y-106200000D01*
D30*
X181050000Y-107000000D02*
X174900000Y-107000000D01*
X174900000Y-107000000D02*
X173200000Y-108700000D01*
D29*
X188500000Y-106200000D02*
X185600000Y-106200000D01*
X183000000Y-107000000D02*
X182434315Y-107000000D01*
X182434315Y-107000000D02*
X181100000Y-107000000D01*
X194400000Y-104300000D02*
X193300000Y-105400000D01*
X193300000Y-105400000D02*
X192800000Y-105400000D01*
X167386000Y-122852000D02*
X167386000Y-123952000D01*
X166314999Y-113509001D02*
X166314999Y-121780999D01*
X166314999Y-121780999D02*
X167386000Y-122852000D01*
X166540000Y-113284000D02*
X166314999Y-113509001D01*
D30*
X167640000Y-113284000D02*
X166540000Y-113284000D01*
X166540000Y-113284000D02*
X166370000Y-113114000D01*
X166314999Y-107951001D02*
X166314999Y-102417001D01*
X166370000Y-113114000D02*
X166370000Y-108006002D01*
D29*
X166370000Y-108006002D02*
X166314999Y-107951001D01*
D30*
X166314999Y-102417001D02*
X166878000Y-101854000D01*
X166878000Y-101854000D02*
X167386000Y-101854000D01*
X167386000Y-101854000D02*
X171450000Y-101854000D01*
X171450000Y-101854000D02*
X173228000Y-103632000D01*
D29*
X168036020Y-125702020D02*
X167386000Y-125052000D01*
X178843980Y-125702020D02*
X168036020Y-125702020D01*
X167386000Y-125052000D02*
X167386000Y-123952000D01*
X180594000Y-123952000D02*
X178843980Y-125702020D01*
D30*
X193200000Y-100100000D02*
X176700000Y-100100000D01*
X176700000Y-100100000D02*
X173200000Y-103600000D01*
D29*
X170700000Y-98540000D02*
X167386000Y-101854000D01*
X170700000Y-91100000D02*
X170700000Y-98540000D01*
X181050000Y-108600000D02*
X179100000Y-108600000D01*
X179100000Y-108600000D02*
X171500000Y-116200000D01*
X181975000Y-110850000D02*
X173125000Y-119700000D01*
X182500000Y-110850000D02*
X181975000Y-110850000D01*
X173125000Y-119700000D02*
X171400000Y-119700000D01*
X181050000Y-109400000D02*
X179500000Y-109400000D01*
X179500000Y-109400000D02*
X178700000Y-110200000D01*
X183300000Y-106000000D02*
X181900000Y-104600000D01*
X181900000Y-104600000D02*
X181100000Y-104600000D01*
X179300000Y-105050000D02*
X179750000Y-104600000D01*
X178600000Y-105050000D02*
X179300000Y-105050000D01*
X179750000Y-104600000D02*
X181000000Y-104600000D01*
X190600000Y-107000000D02*
X191000000Y-107400000D01*
X189550000Y-107000000D02*
X190600000Y-107000000D01*
X191001000Y-107399000D02*
X191000000Y-107400000D01*
X192786000Y-107399000D02*
X191001000Y-107399000D01*
X183300000Y-106000000D02*
X184300000Y-107000000D01*
X184300000Y-107000000D02*
X189600000Y-107000000D01*
D30*
X193200000Y-100100000D02*
X195825001Y-102725001D01*
X195825001Y-102725001D02*
X195825001Y-105048001D01*
D29*
X195800000Y-105073002D02*
X195825001Y-105048001D01*
X195800000Y-105085000D02*
X195800000Y-105073002D01*
X193486000Y-107399000D02*
X195800000Y-105085000D01*
X192786000Y-107399000D02*
X193486000Y-107399000D01*
D30*
X197400000Y-107000000D02*
X195800000Y-105073002D01*
D29*
X186500000Y-110850000D02*
X186500000Y-107800000D01*
X187300000Y-108500000D02*
X187300000Y-110800000D01*
X188100000Y-110850000D02*
X188100000Y-109200000D01*
X184900000Y-110850000D02*
X184900000Y-111873592D01*
X212300001Y-105699999D02*
X211974999Y-106025001D01*
X184900000Y-111873592D02*
X185626408Y-112600000D01*
X195863590Y-112600000D02*
X204763591Y-103699999D01*
X204763591Y-103699999D02*
X212235001Y-103699999D01*
X212300001Y-103764999D02*
X212300001Y-105699999D01*
X212235001Y-103699999D02*
X212300001Y-103764999D01*
X211974999Y-106025001D02*
X211300000Y-106700000D01*
X185626408Y-112600000D02*
X195863590Y-112600000D01*
X211300000Y-104700000D02*
X204400000Y-104700000D01*
X204400000Y-104700000D02*
X196000000Y-113100000D01*
X185489998Y-113100000D02*
X184100000Y-111710002D01*
X196000000Y-113100000D02*
X185489998Y-113100000D01*
X184100000Y-111710002D02*
X184100000Y-111000000D01*
D30*
X204600000Y-119400000D02*
X204500000Y-119400000D01*
X206532001Y-117467999D02*
X205054064Y-118945936D01*
X213405499Y-117467999D02*
X206532001Y-117467999D01*
X216000000Y-118787500D02*
X214725000Y-118787500D01*
X214725000Y-118787500D02*
X213405499Y-117467999D01*
X205054064Y-118945936D02*
X204600000Y-119400000D01*
X201358000Y-121258000D02*
X202000000Y-120616000D01*
X201358000Y-121258000D02*
X208765000Y-121258000D01*
X200383000Y-121258000D02*
X201358000Y-121258000D01*
X202000000Y-120616000D02*
X202000000Y-119400000D01*
X216000000Y-125012500D02*
X212512500Y-125012500D01*
X212512500Y-125012500D02*
X208800000Y-121300000D01*
X203300000Y-119400000D02*
X203300000Y-115900000D01*
X203300000Y-115900000D02*
X204700000Y-114500000D01*
M02*
