G04 #@! TF.GenerationSoftware,KiCad,Pcbnew,5.1.5-1.fc31*
G04 #@! TF.CreationDate,2020-02-11T17:57:21+01:00*
G04 #@! TF.ProjectId,mimu3000,6d696d75-3330-4303-902e-6b696361645f,rev?*
G04 #@! TF.SameCoordinates,Original*
G04 #@! TF.FileFunction,Copper,L2,Bot*
G04 #@! TF.FilePolarity,Positive*
%FSLAX46Y46*%
G04 Gerber Fmt 4.6, Leading zero omitted, Abs format (unit mm)*
G04 Created by KiCad (PCBNEW 5.1.5-1.fc31) date 2020-02-11 17:57:21*
%MOMM*%
%LPD*%
G04 APERTURE LIST*
%ADD10O,1.350000X1.350000*%
%ADD11R,1.350000X1.350000*%
%ADD12C,2.000000*%
%ADD13R,2.000000X2.000000*%
%ADD14C,2.340000*%
%ADD15R,1.000000X1.000000*%
%ADD16O,1.000000X1.000000*%
%ADD17R,1.700000X1.700000*%
%ADD18O,1.700000X1.700000*%
%ADD19O,1.600000X1.600000*%
%ADD20R,1.600000X1.600000*%
%ADD21C,1.800000*%
%ADD22R,1.800000X1.800000*%
%ADD23C,1.600000*%
%ADD24C,0.800000*%
%ADD25C,0.400000*%
%ADD26C,0.250000*%
G04 APERTURE END LIST*
D10*
X211300000Y-110700000D03*
X211300000Y-108700000D03*
X211300000Y-106700000D03*
D11*
X211300000Y-104700000D03*
D12*
X167640000Y-107315000D03*
D13*
X167640000Y-120015000D03*
D14*
X180700000Y-91100000D03*
X175700000Y-91100000D03*
X170700000Y-91100000D03*
D15*
X185674000Y-123952000D03*
D16*
X184404000Y-123952000D03*
X183134000Y-123952000D03*
X181864000Y-123952000D03*
X180594000Y-123952000D03*
D17*
X167640000Y-113284000D03*
D18*
X167640000Y-115824000D03*
D19*
X207200000Y-114520000D03*
X204660000Y-106900000D03*
X204660000Y-114520000D03*
D20*
X207200000Y-106900000D03*
D18*
X173228000Y-108712000D03*
X170688000Y-108712000D03*
X173228000Y-106172000D03*
X170688000Y-106172000D03*
X173228000Y-103632000D03*
D17*
X170688000Y-103632000D03*
D18*
X208765000Y-118718000D03*
X208765000Y-121258000D03*
D17*
X208765000Y-123798000D03*
X197081000Y-123798000D03*
D18*
X197081000Y-121258000D03*
X197081000Y-118718000D03*
D21*
X214400000Y-91060000D03*
D22*
X214400000Y-93600000D03*
D19*
X179070000Y-119634000D03*
D23*
X171450000Y-119634000D03*
D19*
X179070000Y-116205000D03*
D23*
X171450000Y-116205000D03*
X184700000Y-116200000D03*
D20*
X182200000Y-116200000D03*
D24*
X192800000Y-114300000D03*
X185700000Y-109000000D03*
X178700000Y-103075000D03*
X183300000Y-104400000D03*
X185600000Y-106200000D03*
X183000000Y-107000000D03*
X194400000Y-104300000D03*
X178700000Y-110200000D03*
X197400000Y-107000000D03*
X186500000Y-107800000D03*
X187300000Y-108500000D03*
X188100000Y-109200000D03*
D25*
X207915001Y-117868001D02*
X207915001Y-115115001D01*
X208765000Y-118718000D02*
X207915001Y-117868001D01*
X207915001Y-115115001D02*
X207300000Y-114500000D01*
X208765000Y-118718000D02*
X197118000Y-118718000D01*
D26*
X192800000Y-114300000D02*
X192800000Y-101300000D01*
X192800000Y-101300000D02*
X203100000Y-91000000D01*
X203100000Y-91000000D02*
X214500000Y-91000000D01*
X171537999Y-109561999D02*
X170688000Y-108712000D01*
X175260000Y-113284000D02*
X171537999Y-109561999D01*
X175366501Y-113390501D02*
X175260000Y-113284000D01*
X175366501Y-113390501D02*
X181309499Y-113390501D01*
X181309499Y-113390501D02*
X185700000Y-109000000D01*
X178700000Y-103075000D02*
X180375000Y-103075000D01*
X180375000Y-103075000D02*
X181700000Y-104400000D01*
X181700000Y-104400000D02*
X183300000Y-104400000D01*
X181261001Y-125127001D02*
X181261001Y-124554999D01*
X181261001Y-124554999D02*
X181864000Y-123952000D01*
X181135992Y-125252010D02*
X181261001Y-125127001D01*
D25*
X169926000Y-124426000D02*
X170752010Y-125252010D01*
X172052010Y-125252010D02*
X181135992Y-125252010D01*
X170752010Y-125252010D02*
X172052010Y-125252010D01*
X167640000Y-107315000D02*
X167640000Y-110998000D01*
D26*
X171899295Y-125252010D02*
X172052010Y-125252010D01*
D25*
X169926000Y-113284000D02*
X169926000Y-124426000D01*
X167640000Y-110998000D02*
X169926000Y-113284000D01*
D26*
X174982399Y-89604999D02*
X179104999Y-89604999D01*
X167640000Y-107315000D02*
X167640000Y-96947398D01*
X167640000Y-96947398D02*
X174982399Y-89604999D01*
X179104999Y-89604999D02*
X180700000Y-91200000D01*
X206400000Y-108700000D02*
X211300000Y-108700000D01*
X200874999Y-103174999D02*
X206400000Y-108700000D01*
X196651999Y-103174999D02*
X200874999Y-103174999D01*
D25*
X212300001Y-109700001D02*
X212300001Y-123599999D01*
X211300000Y-108700000D02*
X212300001Y-109700001D01*
X212300001Y-123599999D02*
X210600000Y-125300000D01*
X210600000Y-125300000D02*
X181135992Y-125252010D01*
D26*
X211300000Y-108700000D02*
X214400000Y-105600000D01*
X214400000Y-105600000D02*
X214400000Y-93700000D01*
X185600000Y-106200000D02*
X183800000Y-106200000D01*
X183800000Y-106200000D02*
X183000000Y-107000000D01*
X196651999Y-103174999D02*
X195525001Y-103174999D01*
X195525001Y-103174999D02*
X194400000Y-104300000D01*
D25*
X169161214Y-107422001D02*
X171922001Y-107422001D01*
X167640000Y-107315000D02*
X169054213Y-107315000D01*
X169054213Y-107315000D02*
X169161214Y-107422001D01*
X171922001Y-107422001D02*
X173200000Y-108700000D01*
D26*
X178700000Y-110200000D02*
X175700000Y-107200000D01*
X175700000Y-107200000D02*
X175700000Y-91100000D01*
D25*
X203800000Y-110700000D02*
X211300000Y-110700000D01*
X197400000Y-107000000D02*
X200500000Y-110700000D01*
X200500000Y-110700000D02*
X203800000Y-110700000D01*
D26*
X186500000Y-107800000D02*
X186500000Y-117800000D01*
X186500000Y-117800000D02*
X183100000Y-121200000D01*
X183100000Y-121200000D02*
X183100000Y-124000000D01*
X187300000Y-117636410D02*
X187300000Y-108500000D01*
X184404000Y-123952000D02*
X184404000Y-120532410D01*
X184404000Y-120532410D02*
X187300000Y-117636410D01*
X188100000Y-109200000D02*
X188100000Y-118100000D01*
X188100000Y-118100000D02*
X185700000Y-120500000D01*
X185700000Y-120500000D02*
X185700000Y-124000000D01*
M02*
