M48
; DRILL file {KiCad 5.1.5-1.fc31} date Di 11 Feb 2020 17:57:10 CET
; FORMAT={-:-/ absolute / inch / decimal}
; #@! TF.CreationDate,2020-02-11T17:57:10+01:00
; #@! TF.GenerationSoftware,Kicad,Pcbnew,5.1.5-1.fc31
FMAT,2
INCH
T1C0.0157
T2C0.0256
T3C0.0315
T4C0.0354
T5C0.0394
T6C0.0402
T7C0.0512
T8C0.1378
%
G90
G05
T1
X7.0354Y-4.0581
X7.0354Y-4.3386
X7.2047Y-4.2126
X7.2165Y-4.1102
X7.3071Y-4.1811
X7.311Y-4.2913
X7.3425Y-4.2441
X7.374Y-4.2717
X7.4055Y-4.2992
X7.5906Y-4.5
X7.6535Y-4.1063
X7.7717Y-4.2126
T2
X7.11Y-4.88
X7.16Y-4.88
X7.21Y-4.88
X7.26Y-4.88
X7.31Y-4.88
T3
X8.3189Y-4.122
X8.3189Y-4.2008
X8.3189Y-4.2795
X8.3189Y-4.3583
X6.75Y-4.71
X7.05Y-4.71
X6.75Y-4.575
X7.05Y-4.575
X8.0575Y-4.2087
X8.0575Y-4.5087
X8.1575Y-4.2087
X8.1575Y-4.5087
X7.1732Y-4.5748
X7.2717Y-4.5748
T4
X8.4409Y-3.585
X8.4409Y-3.685
T5
X6.72Y-4.08
X6.72Y-4.18
X6.72Y-4.28
X6.82Y-4.08
X6.82Y-4.18
X6.82Y-4.28
X7.7591Y-4.6739
X7.7591Y-4.7739
X7.7591Y-4.8739
X8.2191Y-4.6739
X8.2191Y-4.7739
X8.2191Y-4.8739
X6.6Y-4.46
X6.6Y-4.56
T6
X6.6Y-4.225
X6.6Y-4.725
T7
X6.7205Y-3.5866
X6.9173Y-3.5866
X7.1142Y-3.5866
T8
X7.534Y-3.8
X7.534Y-4.725
T0
M30
