M48
; DRILL file {KiCad (5.1.5)-3} date 27.03.2020 21:05:26
; FORMAT={-:-/ absolute / inch / decimal}
; #@! TF.CreationDate,2020-03-27T21:05:26+01:00
; #@! TF.GenerationSoftware,Kicad,Pcbnew,(5.1.5)-3
; #@! TF.FileFunction,Plated,1,2,PTH
FMAT,2
INCH
T1C0.0157
T2C0.0256
T3C0.0315
T4C0.0354
T5C0.0394
T6C0.0402
T7C0.0906
%
G90
G05
T1
X6.8799Y-3.9665
X7.0354Y-4.0581
X7.0354Y-4.3386
X7.2047Y-4.2126
X7.2165Y-4.1102
X7.3071Y-4.1811
X7.311Y-4.2913
X7.3425Y-4.2441
X7.374Y-4.2717
X7.4055Y-4.2992
X7.5906Y-4.5
X7.6535Y-4.1063
T2
X7.11Y-4.88
X7.16Y-4.88
X7.21Y-4.88
X7.26Y-4.88
X7.31Y-4.88
T3
X6.75Y-4.575
X7.05Y-4.575
X8.1791Y-4.6555
X8.1791Y-4.8524
X6.75Y-4.71
X7.05Y-4.71
X8.0575Y-4.2087
X8.0575Y-4.5087
X8.1575Y-4.2087
X8.1575Y-4.5087
X8.0512Y-4.6555
X8.0512Y-4.8524
T4
X8.4409Y-3.585
X8.4409Y-3.685
T5
X6.7028Y-3.7008
X6.8012Y-3.7008
X6.8996Y-3.7008
X6.72Y-4.08
X6.72Y-4.18
X6.72Y-4.28
X6.82Y-4.08
X6.82Y-4.18
X6.82Y-4.28
X8.4547Y-4.674
X8.4547Y-4.774
X8.4547Y-4.874
X6.5984Y-4.7268
X6.5984Y-4.8268
X8.5157Y-4.0669
X8.5157Y-4.1669
X8.5157Y-4.2669
X8.5157Y-4.3669
X7.7362Y-4.672
X7.7362Y-4.772
X7.7362Y-4.872
T6
X6.5984Y-4.4016
X6.5984Y-4.5591
T7
X6.6043Y-3.8307
X6.998Y-3.8307
T0
M30
