G04 #@! TF.GenerationSoftware,KiCad,Pcbnew,(5.1.5)-3*
G04 #@! TF.CreationDate,2020-03-27T21:05:19+01:00*
G04 #@! TF.ProjectId,mimu_batt,6d696d75-5f62-4617-9474-2e6b69636164,rev?*
G04 #@! TF.SameCoordinates,Original*
G04 #@! TF.FileFunction,Legend,Bot*
G04 #@! TF.FilePolarity,Positive*
%FSLAX46Y46*%
G04 Gerber Fmt 4.6, Leading zero omitted, Abs format (unit mm)*
G04 Created by KiCad (PCBNEW (5.1.5)-3) date 2020-03-27 21:05:19*
%MOMM*%
%LPD*%
G04 APERTURE LIST*
%ADD10C,0.150000*%
%ADD11C,0.120000*%
G04 APERTURE END LIST*
D10*
X205766666Y-92452380D02*
X205766666Y-91452380D01*
X205338095Y-92452380D02*
X205338095Y-91928571D01*
X205385714Y-91833333D01*
X205480952Y-91785714D01*
X205623809Y-91785714D01*
X205719047Y-91833333D01*
X205766666Y-91880952D01*
X205004761Y-91785714D02*
X204623809Y-91785714D01*
X204861904Y-91452380D02*
X204861904Y-92309523D01*
X204814285Y-92404761D01*
X204719047Y-92452380D01*
X204623809Y-92452380D01*
X204433333Y-91785714D02*
X204052380Y-91785714D01*
X204290476Y-91452380D02*
X204290476Y-92309523D01*
X204242857Y-92404761D01*
X204147619Y-92452380D01*
X204052380Y-92452380D01*
X203719047Y-91785714D02*
X203719047Y-92785714D01*
X203719047Y-91833333D02*
X203623809Y-91785714D01*
X203433333Y-91785714D01*
X203338095Y-91833333D01*
X203290476Y-91880952D01*
X203242857Y-91976190D01*
X203242857Y-92261904D01*
X203290476Y-92357142D01*
X203338095Y-92404761D01*
X203433333Y-92452380D01*
X203623809Y-92452380D01*
X203719047Y-92404761D01*
X202861904Y-92404761D02*
X202766666Y-92452380D01*
X202576190Y-92452380D01*
X202480952Y-92404761D01*
X202433333Y-92309523D01*
X202433333Y-92261904D01*
X202480952Y-92166666D01*
X202576190Y-92119047D01*
X202719047Y-92119047D01*
X202814285Y-92071428D01*
X202861904Y-91976190D01*
X202861904Y-91928571D01*
X202814285Y-91833333D01*
X202719047Y-91785714D01*
X202576190Y-91785714D01*
X202480952Y-91833333D01*
X202004761Y-92357142D02*
X201957142Y-92404761D01*
X202004761Y-92452380D01*
X202052380Y-92404761D01*
X202004761Y-92357142D01*
X202004761Y-92452380D01*
X202004761Y-91833333D02*
X201957142Y-91880952D01*
X202004761Y-91928571D01*
X202052380Y-91880952D01*
X202004761Y-91833333D01*
X202004761Y-91928571D01*
X200814285Y-91404761D02*
X201671428Y-92690476D01*
X199766666Y-91404761D02*
X200623809Y-92690476D01*
X199004761Y-91785714D02*
X199004761Y-92595238D01*
X199052380Y-92690476D01*
X199100000Y-92738095D01*
X199195238Y-92785714D01*
X199338095Y-92785714D01*
X199433333Y-92738095D01*
X199004761Y-92404761D02*
X199100000Y-92452380D01*
X199290476Y-92452380D01*
X199385714Y-92404761D01*
X199433333Y-92357142D01*
X199480952Y-92261904D01*
X199480952Y-91976190D01*
X199433333Y-91880952D01*
X199385714Y-91833333D01*
X199290476Y-91785714D01*
X199100000Y-91785714D01*
X199004761Y-91833333D01*
X198528571Y-92452380D02*
X198528571Y-91785714D01*
X198528571Y-91452380D02*
X198576190Y-91500000D01*
X198528571Y-91547619D01*
X198480952Y-91500000D01*
X198528571Y-91452380D01*
X198528571Y-91547619D01*
X198195238Y-91785714D02*
X197814285Y-91785714D01*
X198052380Y-91452380D02*
X198052380Y-92309523D01*
X198004761Y-92404761D01*
X197909523Y-92452380D01*
X197814285Y-92452380D01*
X197480952Y-92452380D02*
X197480952Y-91452380D01*
X197052380Y-92452380D02*
X197052380Y-91928571D01*
X197100000Y-91833333D01*
X197195238Y-91785714D01*
X197338095Y-91785714D01*
X197433333Y-91833333D01*
X197480952Y-91880952D01*
X196147619Y-91785714D02*
X196147619Y-92452380D01*
X196576190Y-91785714D02*
X196576190Y-92309523D01*
X196528571Y-92404761D01*
X196433333Y-92452380D01*
X196290476Y-92452380D01*
X196195238Y-92404761D01*
X196147619Y-92357142D01*
X195671428Y-92452380D02*
X195671428Y-91452380D01*
X195671428Y-91833333D02*
X195576190Y-91785714D01*
X195385714Y-91785714D01*
X195290476Y-91833333D01*
X195242857Y-91880952D01*
X195195238Y-91976190D01*
X195195238Y-92261904D01*
X195242857Y-92357142D01*
X195290476Y-92404761D01*
X195385714Y-92452380D01*
X195576190Y-92452380D01*
X195671428Y-92404761D01*
X194766666Y-92357142D02*
X194719047Y-92404761D01*
X194766666Y-92452380D01*
X194814285Y-92404761D01*
X194766666Y-92357142D01*
X194766666Y-92452380D01*
X193861904Y-92404761D02*
X193957142Y-92452380D01*
X194147619Y-92452380D01*
X194242857Y-92404761D01*
X194290476Y-92357142D01*
X194338095Y-92261904D01*
X194338095Y-91976190D01*
X194290476Y-91880952D01*
X194242857Y-91833333D01*
X194147619Y-91785714D01*
X193957142Y-91785714D01*
X193861904Y-91833333D01*
X193290476Y-92452380D02*
X193385714Y-92404761D01*
X193433333Y-92357142D01*
X193480952Y-92261904D01*
X193480952Y-91976190D01*
X193433333Y-91880952D01*
X193385714Y-91833333D01*
X193290476Y-91785714D01*
X193147619Y-91785714D01*
X193052380Y-91833333D01*
X193004761Y-91880952D01*
X192957142Y-91976190D01*
X192957142Y-92261904D01*
X193004761Y-92357142D01*
X193052380Y-92404761D01*
X193147619Y-92452380D01*
X193290476Y-92452380D01*
X192528571Y-92452380D02*
X192528571Y-91785714D01*
X192528571Y-91880952D02*
X192480952Y-91833333D01*
X192385714Y-91785714D01*
X192242857Y-91785714D01*
X192147619Y-91833333D01*
X192100000Y-91928571D01*
X192100000Y-92452380D01*
X192100000Y-91928571D02*
X192052380Y-91833333D01*
X191957142Y-91785714D01*
X191814285Y-91785714D01*
X191719047Y-91833333D01*
X191671428Y-91928571D01*
X191671428Y-92452380D01*
X190480952Y-91404761D02*
X191338095Y-92690476D01*
X189576190Y-92357142D02*
X189623809Y-92404761D01*
X189766666Y-92452380D01*
X189861904Y-92452380D01*
X190004761Y-92404761D01*
X190100000Y-92309523D01*
X190147619Y-92214285D01*
X190195238Y-92023809D01*
X190195238Y-91880952D01*
X190147619Y-91690476D01*
X190100000Y-91595238D01*
X190004761Y-91500000D01*
X189861904Y-91452380D01*
X189766666Y-91452380D01*
X189623809Y-91500000D01*
X189576190Y-91547619D01*
X189147619Y-92452380D02*
X189147619Y-91785714D01*
X189147619Y-91452380D02*
X189195238Y-91500000D01*
X189147619Y-91547619D01*
X189100000Y-91500000D01*
X189147619Y-91452380D01*
X189147619Y-91547619D01*
X188671428Y-92452380D02*
X188671428Y-91785714D01*
X188671428Y-91976190D02*
X188623809Y-91880952D01*
X188576190Y-91833333D01*
X188480952Y-91785714D01*
X188385714Y-91785714D01*
X188052380Y-92452380D02*
X188052380Y-91785714D01*
X188052380Y-91976190D02*
X188004761Y-91880952D01*
X187957142Y-91833333D01*
X187861904Y-91785714D01*
X187766666Y-91785714D01*
X187290476Y-92452380D02*
X187385714Y-92404761D01*
X187433333Y-92357142D01*
X187480952Y-92261904D01*
X187480952Y-91976190D01*
X187433333Y-91880952D01*
X187385714Y-91833333D01*
X187290476Y-91785714D01*
X187147619Y-91785714D01*
X187052380Y-91833333D01*
X187004761Y-91880952D01*
X186957142Y-91976190D01*
X186957142Y-92261904D01*
X187004761Y-92357142D01*
X187052380Y-92404761D01*
X187147619Y-92452380D01*
X187290476Y-92452380D01*
X186528571Y-92452380D02*
X186528571Y-91785714D01*
X186528571Y-91880952D02*
X186480952Y-91833333D01*
X186385714Y-91785714D01*
X186242857Y-91785714D01*
X186147619Y-91833333D01*
X186100000Y-91928571D01*
X186100000Y-92452380D01*
X186100000Y-91928571D02*
X186052380Y-91833333D01*
X185957142Y-91785714D01*
X185814285Y-91785714D01*
X185719047Y-91833333D01*
X185671428Y-91928571D01*
X185671428Y-92452380D01*
X184766666Y-91785714D02*
X184766666Y-92452380D01*
X185195238Y-91785714D02*
X185195238Y-92309523D01*
X185147619Y-92404761D01*
X185052380Y-92452380D01*
X184909523Y-92452380D01*
X184814285Y-92404761D01*
X184766666Y-92357142D01*
X184147619Y-92452380D02*
X184242857Y-92404761D01*
X184290476Y-92309523D01*
X184290476Y-91452380D01*
X183338095Y-91785714D02*
X183338095Y-92452380D01*
X183766666Y-91785714D02*
X183766666Y-92309523D01*
X183719047Y-92404761D01*
X183623809Y-92452380D01*
X183480952Y-92452380D01*
X183385714Y-92404761D01*
X183338095Y-92357142D01*
X182909523Y-92404761D02*
X182814285Y-92452380D01*
X182623809Y-92452380D01*
X182528571Y-92404761D01*
X182480952Y-92309523D01*
X182480952Y-92261904D01*
X182528571Y-92166666D01*
X182623809Y-92119047D01*
X182766666Y-92119047D01*
X182861904Y-92071428D01*
X182909523Y-91976190D01*
X182909523Y-91928571D01*
X182861904Y-91833333D01*
X182766666Y-91785714D01*
X182623809Y-91785714D01*
X182528571Y-91833333D01*
X181338095Y-91404761D02*
X182195238Y-92690476D01*
X181004761Y-92452380D02*
X181004761Y-91785714D01*
X181004761Y-91880952D02*
X180957142Y-91833333D01*
X180861904Y-91785714D01*
X180719047Y-91785714D01*
X180623809Y-91833333D01*
X180576190Y-91928571D01*
X180576190Y-92452380D01*
X180576190Y-91928571D02*
X180528571Y-91833333D01*
X180433333Y-91785714D01*
X180290476Y-91785714D01*
X180195238Y-91833333D01*
X180147619Y-91928571D01*
X180147619Y-92452380D01*
X179671428Y-92452380D02*
X179671428Y-91785714D01*
X179671428Y-91452380D02*
X179719047Y-91500000D01*
X179671428Y-91547619D01*
X179623809Y-91500000D01*
X179671428Y-91452380D01*
X179671428Y-91547619D01*
X179195238Y-92452380D02*
X179195238Y-91785714D01*
X179195238Y-91880952D02*
X179147619Y-91833333D01*
X179052380Y-91785714D01*
X178909523Y-91785714D01*
X178814285Y-91833333D01*
X178766666Y-91928571D01*
X178766666Y-92452380D01*
X178766666Y-91928571D02*
X178719047Y-91833333D01*
X178623809Y-91785714D01*
X178480952Y-91785714D01*
X178385714Y-91833333D01*
X178338095Y-91928571D01*
X178338095Y-92452380D01*
X177433333Y-91785714D02*
X177433333Y-92452380D01*
X177861904Y-91785714D02*
X177861904Y-92309523D01*
X177814285Y-92404761D01*
X177719047Y-92452380D01*
X177576190Y-92452380D01*
X177480952Y-92404761D01*
X177433333Y-92357142D01*
X186580952Y-115347619D02*
X186580952Y-114633333D01*
X186533333Y-114490476D01*
X186438095Y-114395238D01*
X186295238Y-114347619D01*
X186200000Y-114347619D01*
X187533333Y-114347619D02*
X187057142Y-114347619D01*
X187057142Y-115347619D01*
X188438095Y-114442857D02*
X188390476Y-114395238D01*
X188247619Y-114347619D01*
X188152380Y-114347619D01*
X188009523Y-114395238D01*
X187914285Y-114490476D01*
X187866666Y-114585714D01*
X187819047Y-114776190D01*
X187819047Y-114919047D01*
X187866666Y-115109523D01*
X187914285Y-115204761D01*
X188009523Y-115300000D01*
X188152380Y-115347619D01*
X188247619Y-115347619D01*
X188390476Y-115300000D01*
X188438095Y-115252380D01*
X189152380Y-115347619D02*
X189152380Y-114633333D01*
X189104761Y-114490476D01*
X189009523Y-114395238D01*
X188866666Y-114347619D01*
X188771428Y-114347619D01*
X190104761Y-114347619D02*
X189628571Y-114347619D01*
X189628571Y-115347619D01*
X191009523Y-114442857D02*
X190961904Y-114395238D01*
X190819047Y-114347619D01*
X190723809Y-114347619D01*
X190580952Y-114395238D01*
X190485714Y-114490476D01*
X190438095Y-114585714D01*
X190390476Y-114776190D01*
X190390476Y-114919047D01*
X190438095Y-115109523D01*
X190485714Y-115204761D01*
X190580952Y-115300000D01*
X190723809Y-115347619D01*
X190819047Y-115347619D01*
X190961904Y-115300000D01*
X191009523Y-115252380D01*
X191723809Y-115347619D02*
X191723809Y-114633333D01*
X191676190Y-114490476D01*
X191580952Y-114395238D01*
X191438095Y-114347619D01*
X191342857Y-114347619D01*
X192676190Y-114347619D02*
X192200000Y-114347619D01*
X192200000Y-115347619D01*
X193580952Y-114442857D02*
X193533333Y-114395238D01*
X193390476Y-114347619D01*
X193295238Y-114347619D01*
X193152380Y-114395238D01*
X193057142Y-114490476D01*
X193009523Y-114585714D01*
X192961904Y-114776190D01*
X192961904Y-114919047D01*
X193009523Y-115109523D01*
X193057142Y-115204761D01*
X193152380Y-115300000D01*
X193295238Y-115347619D01*
X193390476Y-115347619D01*
X193533333Y-115300000D01*
X193580952Y-115252380D01*
X194295238Y-115347619D02*
X194295238Y-114633333D01*
X194247619Y-114490476D01*
X194152380Y-114395238D01*
X194009523Y-114347619D01*
X193914285Y-114347619D01*
X195247619Y-114347619D02*
X194771428Y-114347619D01*
X194771428Y-115347619D01*
X196152380Y-114442857D02*
X196104761Y-114395238D01*
X195961904Y-114347619D01*
X195866666Y-114347619D01*
X195723809Y-114395238D01*
X195628571Y-114490476D01*
X195580952Y-114585714D01*
X195533333Y-114776190D01*
X195533333Y-114919047D01*
X195580952Y-115109523D01*
X195628571Y-115204761D01*
X195723809Y-115300000D01*
X195866666Y-115347619D01*
X195961904Y-115347619D01*
X196104761Y-115300000D01*
X196152380Y-115252380D01*
X191795238Y-116752380D02*
X191890476Y-116704761D01*
X191938095Y-116609523D01*
X191938095Y-115752380D01*
X191271428Y-116752380D02*
X191366666Y-116704761D01*
X191414285Y-116657142D01*
X191461904Y-116561904D01*
X191461904Y-116276190D01*
X191414285Y-116180952D01*
X191366666Y-116133333D01*
X191271428Y-116085714D01*
X191128571Y-116085714D01*
X191033333Y-116133333D01*
X190985714Y-116180952D01*
X190938095Y-116276190D01*
X190938095Y-116561904D01*
X190985714Y-116657142D01*
X191033333Y-116704761D01*
X191128571Y-116752380D01*
X191271428Y-116752380D01*
X190366666Y-116752380D02*
X190461904Y-116704761D01*
X190509523Y-116609523D01*
X190509523Y-115752380D01*
D11*
X213320000Y-89120000D02*
X213320000Y-90390000D01*
X215860000Y-89120000D02*
X213320000Y-89120000D01*
X215860000Y-124880000D02*
X215860000Y-102020000D01*
X213320000Y-124880000D02*
X213320000Y-123610000D01*
X215860000Y-124880000D02*
X213320000Y-124880000D01*
X168870000Y-90390000D02*
X181570000Y-90390000D01*
X168870000Y-89129500D02*
X168870000Y-90390000D01*
X166330000Y-89129500D02*
X168870000Y-89129500D01*
X166330000Y-124880000D02*
X166330000Y-102020000D01*
X168870000Y-124880000D02*
X166330000Y-124880000D01*
X168870000Y-123610000D02*
X168870000Y-124880000D01*
X168870000Y-123610000D02*
X181570000Y-123610000D01*
X213320000Y-90390000D02*
X200620000Y-90390000D01*
X181570000Y-124880000D02*
X181570000Y-123610000D01*
X200620000Y-124880000D02*
X181570000Y-124880000D01*
X200620000Y-123610000D02*
X200620000Y-124880000D01*
X213320000Y-123610000D02*
X200620000Y-123610000D01*
X200620000Y-89120000D02*
X200620000Y-90390000D01*
X181570000Y-89120000D02*
X200620000Y-89120000D01*
X181570000Y-90390000D02*
X181570000Y-89120000D01*
X193000000Y-113196000D02*
X215860000Y-113196000D01*
X193000000Y-113704000D02*
X193000000Y-113196000D01*
X215860000Y-113704000D02*
X193000000Y-113704000D01*
X189190000Y-113196000D02*
X166330000Y-113196000D01*
X189190000Y-113704000D02*
X189190000Y-113196000D01*
X166330000Y-113704000D02*
X189190000Y-113704000D01*
X200620000Y-122340000D02*
X200620000Y-121070000D01*
X182840000Y-122340000D02*
X200620000Y-122340000D01*
X182840000Y-121070000D02*
X182840000Y-122340000D01*
X181570000Y-121070000D02*
X182840000Y-121070000D01*
X181570000Y-118530000D02*
X181570000Y-121070000D01*
X182840000Y-118530000D02*
X181570000Y-118530000D01*
X182840000Y-117260000D02*
X182840000Y-118530000D01*
X200620000Y-117260000D02*
X182840000Y-117260000D01*
X200620000Y-121070000D02*
X200620000Y-117260000D01*
X199350000Y-104560000D02*
X181570000Y-104560000D01*
X199350000Y-105830000D02*
X199350000Y-104560000D01*
X200620000Y-105830000D02*
X199350000Y-105830000D01*
X200620000Y-108370000D02*
X200620000Y-105830000D01*
X199350000Y-108370000D02*
X200620000Y-108370000D01*
X199350000Y-109640000D02*
X199350000Y-108370000D01*
X181570000Y-109640000D02*
X199350000Y-109640000D01*
X181570000Y-104560000D02*
X181570000Y-109640000D01*
X215860000Y-102020000D02*
X215860000Y-89120000D01*
X166330000Y-102020000D02*
X166330000Y-89129500D01*
X200620000Y-121070000D02*
X200620000Y-117260000D01*
X200620000Y-117260000D02*
X182840000Y-117260000D01*
X182840000Y-117260000D02*
X182840000Y-118530000D01*
X182840000Y-118530000D02*
X181570000Y-118530000D01*
X181570000Y-118530000D02*
X181570000Y-121070000D01*
X181570000Y-121070000D02*
X182840000Y-121070000D01*
X182840000Y-121070000D02*
X182840000Y-122340000D01*
X182840000Y-122340000D02*
X200620000Y-122340000D01*
X200620000Y-122340000D02*
X200620000Y-121070000D01*
X200366000Y-98845000D02*
X200366000Y-97575000D01*
X182586000Y-98845000D02*
X200366000Y-98845000D01*
X182586000Y-97575000D02*
X182586000Y-98845000D01*
X181316000Y-97575000D02*
X182586000Y-97575000D01*
X181316000Y-95035000D02*
X181316000Y-97575000D01*
X182586000Y-95035000D02*
X181316000Y-95035000D01*
X182586000Y-93765000D02*
X182586000Y-95035000D01*
X200366000Y-93765000D02*
X182586000Y-93765000D01*
X200366000Y-97575000D02*
X200366000Y-93765000D01*
X200366000Y-97575000D02*
X200366000Y-93765000D01*
X200366000Y-93765000D02*
X182586000Y-93765000D01*
X182586000Y-93765000D02*
X182586000Y-95035000D01*
X182586000Y-95035000D02*
X181316000Y-95035000D01*
X181316000Y-95035000D02*
X181316000Y-97575000D01*
X181316000Y-97575000D02*
X182586000Y-97575000D01*
X182586000Y-97575000D02*
X182586000Y-98845000D01*
X182586000Y-98845000D02*
X200366000Y-98845000D01*
X200366000Y-98845000D02*
X200366000Y-97575000D01*
X166330000Y-102274000D02*
X189190000Y-102274000D01*
X189190000Y-102274000D02*
X189190000Y-101766000D01*
X189190000Y-101766000D02*
X166330000Y-101766000D01*
X215860000Y-102274000D02*
X193000000Y-102274000D01*
X193000000Y-102274000D02*
X193000000Y-101766000D01*
X193000000Y-101766000D02*
X215860000Y-101766000D01*
X218100000Y-125850000D02*
X164900000Y-125850000D01*
X164900000Y-125850000D02*
X164900000Y-88150000D01*
X164900000Y-88150000D02*
X218100000Y-88150000D01*
X218100000Y-88150000D02*
X218100000Y-125850000D01*
D10*
X172585714Y-122728571D02*
X172442857Y-122776190D01*
X172395238Y-122823809D01*
X172347619Y-122919047D01*
X172347619Y-123061904D01*
X172395238Y-123157142D01*
X172442857Y-123204761D01*
X172538095Y-123252380D01*
X172919047Y-123252380D01*
X172919047Y-122252380D01*
X172585714Y-122252380D01*
X172490476Y-122300000D01*
X172442857Y-122347619D01*
X172395238Y-122442857D01*
X172395238Y-122538095D01*
X172442857Y-122633333D01*
X172490476Y-122680952D01*
X172585714Y-122728571D01*
X172919047Y-122728571D01*
X172061904Y-122252380D02*
X171490476Y-122252380D01*
X171776190Y-123252380D02*
X171776190Y-122252380D01*
X170633333Y-123252380D02*
X171204761Y-123252380D01*
X170919047Y-123252380D02*
X170919047Y-122252380D01*
X171014285Y-122395238D01*
X171109523Y-122490476D01*
X171204761Y-122538095D01*
X170171428Y-115907142D02*
X169028571Y-115907142D01*
X169600000Y-116478571D02*
X169600000Y-115335714D01*
X170171428Y-111907142D02*
X169028571Y-111907142D01*
X202461428Y-119907142D02*
X201318571Y-119907142D01*
X202461428Y-96412142D02*
X201318571Y-96412142D01*
X180871428Y-107207142D02*
X179728571Y-107207142D01*
X180871428Y-96412142D02*
X179728571Y-96412142D01*
X180300000Y-96983571D02*
X180300000Y-95840714D01*
X202461428Y-107207142D02*
X201318571Y-107207142D01*
X201890000Y-107778571D02*
X201890000Y-106635714D01*
X180871428Y-119907142D02*
X179728571Y-119907142D01*
X180300000Y-120478571D02*
X180300000Y-119335714D01*
M02*
