G04 #@! TF.GenerationSoftware,KiCad,Pcbnew,(5.1.5)-3*
G04 #@! TF.CreationDate,2020-03-27T21:05:19+01:00*
G04 #@! TF.ProjectId,mimu_batt,6d696d75-5f62-4617-9474-2e6b69636164,rev?*
G04 #@! TF.SameCoordinates,Original*
G04 #@! TF.FileFunction,Copper,L1,Top*
G04 #@! TF.FilePolarity,Positive*
%FSLAX46Y46*%
G04 Gerber Fmt 4.6, Leading zero omitted, Abs format (unit mm)*
G04 Created by KiCad (PCBNEW (5.1.5)-3) date 2020-03-27 21:05:19*
%MOMM*%
%LPD*%
G04 APERTURE LIST*
%ADD10C,0.100000*%
%ADD11R,1.700000X1.700000*%
%ADD12O,1.700000X1.700000*%
%ADD13C,2.000000*%
%ADD14R,2.000000X2.000000*%
%ADD15C,1.800000*%
%ADD16C,4.600000*%
%ADD17C,1.600000*%
%ADD18O,1.600000X1.600000*%
%ADD19R,1.600000X1.600000*%
%ADD20R,1.000000X1.500000*%
%ADD21R,0.550000X1.600000*%
%ADD22R,1.600000X0.550000*%
%ADD23R,1.000000X1.000000*%
%ADD24O,1.000000X1.000000*%
%ADD25R,1.800000X1.800000*%
%ADD26C,0.800000*%
%ADD27C,0.400000*%
%ADD28C,0.250000*%
G04 APERTURE END LIST*
D10*
G36*
X198900000Y-113700000D02*
G01*
X199400000Y-113700000D01*
X199400000Y-114300000D01*
X198900000Y-114300000D01*
X198900000Y-113700000D01*
G37*
D11*
X167600000Y-122600000D03*
D12*
X167600000Y-120060000D03*
D13*
X167600000Y-111800000D03*
D14*
X167600000Y-115800000D03*
D15*
X170250000Y-94000000D03*
X172750000Y-94000000D03*
X175250000Y-94000000D03*
D16*
X167750000Y-97300000D03*
X177750000Y-97300000D03*
D17*
X207750000Y-123250000D03*
X207750000Y-118250000D03*
X204500000Y-123250000D03*
X204500000Y-118250000D03*
D18*
X207200000Y-114520000D03*
X204660000Y-106900000D03*
X204660000Y-114520000D03*
D19*
X207200000Y-106900000D03*
D12*
X216300000Y-110920000D03*
X216300000Y-108380000D03*
X216300000Y-105840000D03*
D11*
X216300000Y-103300000D03*
G04 #@! TA.AperFunction,SMDPad,CuDef*
D10*
G36*
X199050000Y-114750000D02*
G01*
X198500000Y-114750000D01*
X198500000Y-114749398D01*
X198475466Y-114749398D01*
X198426635Y-114744588D01*
X198378510Y-114735016D01*
X198331555Y-114720772D01*
X198286222Y-114701995D01*
X198242949Y-114678864D01*
X198202150Y-114651604D01*
X198164221Y-114620476D01*
X198129524Y-114585779D01*
X198098396Y-114547850D01*
X198071136Y-114507051D01*
X198048005Y-114463778D01*
X198029228Y-114418445D01*
X198014984Y-114371490D01*
X198005412Y-114323365D01*
X198000602Y-114274534D01*
X198000602Y-114250000D01*
X198000000Y-114250000D01*
X198000000Y-113750000D01*
X198000602Y-113750000D01*
X198000602Y-113725466D01*
X198005412Y-113676635D01*
X198014984Y-113628510D01*
X198029228Y-113581555D01*
X198048005Y-113536222D01*
X198071136Y-113492949D01*
X198098396Y-113452150D01*
X198129524Y-113414221D01*
X198164221Y-113379524D01*
X198202150Y-113348396D01*
X198242949Y-113321136D01*
X198286222Y-113298005D01*
X198331555Y-113279228D01*
X198378510Y-113264984D01*
X198426635Y-113255412D01*
X198475466Y-113250602D01*
X198500000Y-113250602D01*
X198500000Y-113250000D01*
X199050000Y-113250000D01*
X199050000Y-114750000D01*
G37*
G04 #@! TD.AperFunction*
D20*
X199800000Y-114000000D03*
G04 #@! TA.AperFunction,SMDPad,CuDef*
D10*
G36*
X201100000Y-113250602D02*
G01*
X201124534Y-113250602D01*
X201173365Y-113255412D01*
X201221490Y-113264984D01*
X201268445Y-113279228D01*
X201313778Y-113298005D01*
X201357051Y-113321136D01*
X201397850Y-113348396D01*
X201435779Y-113379524D01*
X201470476Y-113414221D01*
X201501604Y-113452150D01*
X201528864Y-113492949D01*
X201551995Y-113536222D01*
X201570772Y-113581555D01*
X201585016Y-113628510D01*
X201594588Y-113676635D01*
X201599398Y-113725466D01*
X201599398Y-113750000D01*
X201600000Y-113750000D01*
X201600000Y-114250000D01*
X201599398Y-114250000D01*
X201599398Y-114274534D01*
X201594588Y-114323365D01*
X201585016Y-114371490D01*
X201570772Y-114418445D01*
X201551995Y-114463778D01*
X201528864Y-114507051D01*
X201501604Y-114547850D01*
X201470476Y-114585779D01*
X201435779Y-114620476D01*
X201397850Y-114651604D01*
X201357051Y-114678864D01*
X201313778Y-114701995D01*
X201268445Y-114720772D01*
X201221490Y-114735016D01*
X201173365Y-114744588D01*
X201124534Y-114749398D01*
X201100000Y-114749398D01*
X201100000Y-114750000D01*
X200550000Y-114750000D01*
X200550000Y-113250000D01*
X201100000Y-113250000D01*
X201100000Y-113250602D01*
G37*
G04 #@! TD.AperFunction*
D21*
X188100000Y-110850000D03*
X187300000Y-110850000D03*
X186500000Y-110850000D03*
X185700000Y-110850000D03*
X184900000Y-110850000D03*
X184100000Y-110850000D03*
X183300000Y-110850000D03*
X182500000Y-110850000D03*
D22*
X181050000Y-109400000D03*
X181050000Y-108600000D03*
X181050000Y-107800000D03*
X181050000Y-107000000D03*
X181050000Y-106200000D03*
X181050000Y-105400000D03*
X181050000Y-104600000D03*
X181050000Y-103800000D03*
D21*
X182500000Y-102350000D03*
X183300000Y-102350000D03*
X184100000Y-102350000D03*
X184900000Y-102350000D03*
X185700000Y-102350000D03*
X186500000Y-102350000D03*
X187300000Y-102350000D03*
X188100000Y-102350000D03*
D22*
X189550000Y-103800000D03*
X189550000Y-104600000D03*
X189550000Y-105400000D03*
X189550000Y-106200000D03*
X189550000Y-107000000D03*
X189550000Y-107800000D03*
X189550000Y-108600000D03*
X189550000Y-109400000D03*
D23*
X185674000Y-123952000D03*
D24*
X184404000Y-123952000D03*
X183134000Y-123952000D03*
X181864000Y-123952000D03*
X180594000Y-123952000D03*
G04 #@! TA.AperFunction,SMDPad,CuDef*
D10*
G36*
X179074505Y-106526204D02*
G01*
X179098773Y-106529804D01*
X179122572Y-106535765D01*
X179145671Y-106544030D01*
X179167850Y-106554520D01*
X179188893Y-106567132D01*
X179208599Y-106581747D01*
X179226777Y-106598223D01*
X179243253Y-106616401D01*
X179257868Y-106636107D01*
X179270480Y-106657150D01*
X179280970Y-106679329D01*
X179289235Y-106702428D01*
X179295196Y-106726227D01*
X179298796Y-106750495D01*
X179300000Y-106774999D01*
X179300000Y-107425001D01*
X179298796Y-107449505D01*
X179295196Y-107473773D01*
X179289235Y-107497572D01*
X179280970Y-107520671D01*
X179270480Y-107542850D01*
X179257868Y-107563893D01*
X179243253Y-107583599D01*
X179226777Y-107601777D01*
X179208599Y-107618253D01*
X179188893Y-107632868D01*
X179167850Y-107645480D01*
X179145671Y-107655970D01*
X179122572Y-107664235D01*
X179098773Y-107670196D01*
X179074505Y-107673796D01*
X179050001Y-107675000D01*
X178149999Y-107675000D01*
X178125495Y-107673796D01*
X178101227Y-107670196D01*
X178077428Y-107664235D01*
X178054329Y-107655970D01*
X178032150Y-107645480D01*
X178011107Y-107632868D01*
X177991401Y-107618253D01*
X177973223Y-107601777D01*
X177956747Y-107583599D01*
X177942132Y-107563893D01*
X177929520Y-107542850D01*
X177919030Y-107520671D01*
X177910765Y-107497572D01*
X177904804Y-107473773D01*
X177901204Y-107449505D01*
X177900000Y-107425001D01*
X177900000Y-106774999D01*
X177901204Y-106750495D01*
X177904804Y-106726227D01*
X177910765Y-106702428D01*
X177919030Y-106679329D01*
X177929520Y-106657150D01*
X177942132Y-106636107D01*
X177956747Y-106616401D01*
X177973223Y-106598223D01*
X177991401Y-106581747D01*
X178011107Y-106567132D01*
X178032150Y-106554520D01*
X178054329Y-106544030D01*
X178077428Y-106535765D01*
X178101227Y-106529804D01*
X178125495Y-106526204D01*
X178149999Y-106525000D01*
X179050001Y-106525000D01*
X179074505Y-106526204D01*
G37*
G04 #@! TD.AperFunction*
G04 #@! TA.AperFunction,SMDPad,CuDef*
G36*
X179074505Y-104476204D02*
G01*
X179098773Y-104479804D01*
X179122572Y-104485765D01*
X179145671Y-104494030D01*
X179167850Y-104504520D01*
X179188893Y-104517132D01*
X179208599Y-104531747D01*
X179226777Y-104548223D01*
X179243253Y-104566401D01*
X179257868Y-104586107D01*
X179270480Y-104607150D01*
X179280970Y-104629329D01*
X179289235Y-104652428D01*
X179295196Y-104676227D01*
X179298796Y-104700495D01*
X179300000Y-104724999D01*
X179300000Y-105375001D01*
X179298796Y-105399505D01*
X179295196Y-105423773D01*
X179289235Y-105447572D01*
X179280970Y-105470671D01*
X179270480Y-105492850D01*
X179257868Y-105513893D01*
X179243253Y-105533599D01*
X179226777Y-105551777D01*
X179208599Y-105568253D01*
X179188893Y-105582868D01*
X179167850Y-105595480D01*
X179145671Y-105605970D01*
X179122572Y-105614235D01*
X179098773Y-105620196D01*
X179074505Y-105623796D01*
X179050001Y-105625000D01*
X178149999Y-105625000D01*
X178125495Y-105623796D01*
X178101227Y-105620196D01*
X178077428Y-105614235D01*
X178054329Y-105605970D01*
X178032150Y-105595480D01*
X178011107Y-105582868D01*
X177991401Y-105568253D01*
X177973223Y-105551777D01*
X177956747Y-105533599D01*
X177942132Y-105513893D01*
X177929520Y-105492850D01*
X177919030Y-105470671D01*
X177910765Y-105447572D01*
X177904804Y-105423773D01*
X177901204Y-105399505D01*
X177900000Y-105375001D01*
X177900000Y-104724999D01*
X177901204Y-104700495D01*
X177904804Y-104676227D01*
X177910765Y-104652428D01*
X177919030Y-104629329D01*
X177929520Y-104607150D01*
X177942132Y-104586107D01*
X177956747Y-104566401D01*
X177973223Y-104548223D01*
X177991401Y-104531747D01*
X178011107Y-104517132D01*
X178032150Y-104504520D01*
X178054329Y-104494030D01*
X178077428Y-104485765D01*
X178101227Y-104479804D01*
X178125495Y-104476204D01*
X178149999Y-104475000D01*
X179050001Y-104475000D01*
X179074505Y-104476204D01*
G37*
G04 #@! TD.AperFunction*
G04 #@! TA.AperFunction,SMDPad,CuDef*
G36*
X193260505Y-104775204D02*
G01*
X193284773Y-104778804D01*
X193308572Y-104784765D01*
X193331671Y-104793030D01*
X193353850Y-104803520D01*
X193374893Y-104816132D01*
X193394599Y-104830747D01*
X193412777Y-104847223D01*
X193429253Y-104865401D01*
X193443868Y-104885107D01*
X193456480Y-104906150D01*
X193466970Y-104928329D01*
X193475235Y-104951428D01*
X193481196Y-104975227D01*
X193484796Y-104999495D01*
X193486000Y-105023999D01*
X193486000Y-105674001D01*
X193484796Y-105698505D01*
X193481196Y-105722773D01*
X193475235Y-105746572D01*
X193466970Y-105769671D01*
X193456480Y-105791850D01*
X193443868Y-105812893D01*
X193429253Y-105832599D01*
X193412777Y-105850777D01*
X193394599Y-105867253D01*
X193374893Y-105881868D01*
X193353850Y-105894480D01*
X193331671Y-105904970D01*
X193308572Y-105913235D01*
X193284773Y-105919196D01*
X193260505Y-105922796D01*
X193236001Y-105924000D01*
X192335999Y-105924000D01*
X192311495Y-105922796D01*
X192287227Y-105919196D01*
X192263428Y-105913235D01*
X192240329Y-105904970D01*
X192218150Y-105894480D01*
X192197107Y-105881868D01*
X192177401Y-105867253D01*
X192159223Y-105850777D01*
X192142747Y-105832599D01*
X192128132Y-105812893D01*
X192115520Y-105791850D01*
X192105030Y-105769671D01*
X192096765Y-105746572D01*
X192090804Y-105722773D01*
X192087204Y-105698505D01*
X192086000Y-105674001D01*
X192086000Y-105023999D01*
X192087204Y-104999495D01*
X192090804Y-104975227D01*
X192096765Y-104951428D01*
X192105030Y-104928329D01*
X192115520Y-104906150D01*
X192128132Y-104885107D01*
X192142747Y-104865401D01*
X192159223Y-104847223D01*
X192177401Y-104830747D01*
X192197107Y-104816132D01*
X192218150Y-104803520D01*
X192240329Y-104793030D01*
X192263428Y-104784765D01*
X192287227Y-104778804D01*
X192311495Y-104775204D01*
X192335999Y-104774000D01*
X193236001Y-104774000D01*
X193260505Y-104775204D01*
G37*
G04 #@! TD.AperFunction*
G04 #@! TA.AperFunction,SMDPad,CuDef*
G36*
X193260505Y-106825204D02*
G01*
X193284773Y-106828804D01*
X193308572Y-106834765D01*
X193331671Y-106843030D01*
X193353850Y-106853520D01*
X193374893Y-106866132D01*
X193394599Y-106880747D01*
X193412777Y-106897223D01*
X193429253Y-106915401D01*
X193443868Y-106935107D01*
X193456480Y-106956150D01*
X193466970Y-106978329D01*
X193475235Y-107001428D01*
X193481196Y-107025227D01*
X193484796Y-107049495D01*
X193486000Y-107073999D01*
X193486000Y-107724001D01*
X193484796Y-107748505D01*
X193481196Y-107772773D01*
X193475235Y-107796572D01*
X193466970Y-107819671D01*
X193456480Y-107841850D01*
X193443868Y-107862893D01*
X193429253Y-107882599D01*
X193412777Y-107900777D01*
X193394599Y-107917253D01*
X193374893Y-107931868D01*
X193353850Y-107944480D01*
X193331671Y-107954970D01*
X193308572Y-107963235D01*
X193284773Y-107969196D01*
X193260505Y-107972796D01*
X193236001Y-107974000D01*
X192335999Y-107974000D01*
X192311495Y-107972796D01*
X192287227Y-107969196D01*
X192263428Y-107963235D01*
X192240329Y-107954970D01*
X192218150Y-107944480D01*
X192197107Y-107931868D01*
X192177401Y-107917253D01*
X192159223Y-107900777D01*
X192142747Y-107882599D01*
X192128132Y-107862893D01*
X192115520Y-107841850D01*
X192105030Y-107819671D01*
X192096765Y-107796572D01*
X192090804Y-107772773D01*
X192087204Y-107748505D01*
X192086000Y-107724001D01*
X192086000Y-107073999D01*
X192087204Y-107049495D01*
X192090804Y-107025227D01*
X192096765Y-107001428D01*
X192105030Y-106978329D01*
X192115520Y-106956150D01*
X192128132Y-106935107D01*
X192142747Y-106915401D01*
X192159223Y-106897223D01*
X192177401Y-106880747D01*
X192197107Y-106866132D01*
X192218150Y-106853520D01*
X192240329Y-106843030D01*
X192263428Y-106834765D01*
X192287227Y-106828804D01*
X192311495Y-106825204D01*
X192335999Y-106824000D01*
X193236001Y-106824000D01*
X193260505Y-106825204D01*
G37*
G04 #@! TD.AperFunction*
D12*
X173228000Y-108712000D03*
X170688000Y-108712000D03*
X173228000Y-106172000D03*
X170688000Y-106172000D03*
X173228000Y-103632000D03*
D11*
X170688000Y-103632000D03*
D12*
X214750000Y-118720000D03*
X214750000Y-121260000D03*
D11*
X214750000Y-123800000D03*
X196500000Y-123750000D03*
D12*
X196500000Y-121210000D03*
X196500000Y-118670000D03*
D15*
X214400000Y-91060000D03*
D25*
X214400000Y-93600000D03*
D18*
X179070000Y-119634000D03*
D17*
X171450000Y-119634000D03*
D18*
X179070000Y-116205000D03*
D17*
X171450000Y-116205000D03*
D26*
X192800000Y-114300000D03*
X185700000Y-109000000D03*
X178700000Y-103075000D03*
X183300000Y-104400000D03*
X185600000Y-106200000D03*
X183000000Y-107000000D03*
X194400000Y-104300000D03*
X178700000Y-110200000D03*
X174750000Y-100750000D03*
X186500000Y-107800000D03*
X187300000Y-108500000D03*
X188100000Y-109200000D03*
D27*
X167640000Y-118765000D02*
X167640000Y-115824000D01*
X167640000Y-120015000D02*
X167640000Y-118765000D01*
X201200000Y-114200000D02*
X201100000Y-114100000D01*
X204500000Y-118250000D02*
X202750000Y-118250000D01*
X201100000Y-116600000D02*
X201100000Y-114000000D01*
X202750000Y-118250000D02*
X201100000Y-116600000D01*
X207750000Y-118250000D02*
X204500000Y-118250000D01*
X198500000Y-114000000D02*
X198500000Y-117800000D01*
X198500000Y-119210000D02*
X198500000Y-117800000D01*
X196500000Y-121210000D02*
X198500000Y-119210000D01*
X212760000Y-123250000D02*
X214750000Y-121260000D01*
X204500000Y-123250000D02*
X212760000Y-123250000D01*
X198540000Y-123250000D02*
X196500000Y-121210000D01*
X204500000Y-123250000D02*
X198540000Y-123250000D01*
X210577919Y-114500000D02*
X207200000Y-114500000D01*
X210577919Y-114547919D02*
X214750000Y-118720000D01*
X210577919Y-114500000D02*
X210577919Y-114547919D01*
X214700000Y-123800000D02*
X214750000Y-123800000D01*
X198900000Y-124900000D02*
X213600000Y-124900000D01*
X197750000Y-123750000D02*
X198900000Y-124900000D01*
X213600000Y-124900000D02*
X214700000Y-123800000D01*
X196500000Y-123750000D02*
X197750000Y-123750000D01*
D28*
X179070000Y-119634000D02*
X187466000Y-119634000D01*
X187466000Y-119634000D02*
X192800000Y-114300000D01*
X185700000Y-109000000D02*
X185700000Y-110500000D01*
X172591590Y-106172000D02*
X173228000Y-106172000D01*
X173228000Y-106172000D02*
X176325000Y-103075000D01*
X176325000Y-103075000D02*
X178700000Y-103075000D01*
X183300000Y-104400000D02*
X183300000Y-102400000D01*
X170688000Y-106172000D02*
X170688000Y-106336588D01*
X171863001Y-107347001D02*
X171537999Y-107021999D01*
X173792001Y-107347001D02*
X171863001Y-107347001D01*
X174211002Y-106928000D02*
X173792001Y-107347001D01*
X171537999Y-107021999D02*
X170688000Y-106172000D01*
X174211002Y-106928000D02*
X177339002Y-103800000D01*
X177339002Y-103800000D02*
X181000000Y-103800000D01*
X173792001Y-104807001D02*
X171607001Y-104807001D01*
X182500000Y-102350000D02*
X176249002Y-102350000D01*
X176249002Y-102350000D02*
X173792001Y-104807001D01*
X171607001Y-104807001D02*
X170700000Y-103900000D01*
X173628000Y-109112000D02*
X173228000Y-108712000D01*
X190974000Y-106228000D02*
X191844000Y-105358000D01*
X189924000Y-106228000D02*
X190974000Y-106228000D01*
X191844000Y-105358000D02*
X193294000Y-105358000D01*
X189550000Y-106200000D02*
X188500000Y-106200000D01*
D27*
X181050000Y-107000000D02*
X174900000Y-107000000D01*
X174900000Y-107000000D02*
X173200000Y-108700000D01*
D28*
X188500000Y-106200000D02*
X185600000Y-106200000D01*
X183000000Y-107000000D02*
X182434315Y-107000000D01*
X182434315Y-107000000D02*
X181100000Y-107000000D01*
X194400000Y-104300000D02*
X193300000Y-105400000D01*
X193300000Y-105400000D02*
X192800000Y-105400000D01*
D27*
X171450000Y-101854000D02*
X173228000Y-103632000D01*
X193200000Y-100100000D02*
X176700000Y-100100000D01*
X176700000Y-100100000D02*
X173200000Y-103600000D01*
D28*
X183300000Y-106000000D02*
X181900000Y-104600000D01*
X181900000Y-104600000D02*
X181100000Y-104600000D01*
X179300000Y-105050000D02*
X179750000Y-104600000D01*
X178600000Y-105050000D02*
X179300000Y-105050000D01*
X179750000Y-104600000D02*
X181000000Y-104600000D01*
D27*
X190600000Y-107000000D02*
X191000000Y-107400000D01*
X189550000Y-107000000D02*
X190600000Y-107000000D01*
D28*
X191001000Y-107399000D02*
X191000000Y-107400000D01*
D27*
X192786000Y-107399000D02*
X191001000Y-107399000D01*
D28*
X183300000Y-106000000D02*
X184300000Y-107000000D01*
X184300000Y-107000000D02*
X189600000Y-107000000D01*
D27*
X193200000Y-100100000D02*
X195825001Y-102725001D01*
X195825001Y-102725001D02*
X195825001Y-105048001D01*
D28*
X195800000Y-105073002D02*
X195825001Y-105048001D01*
X195800000Y-105085000D02*
X195800000Y-105073002D01*
D27*
X193486000Y-107399000D02*
X195800000Y-105085000D01*
D28*
X192786000Y-107399000D02*
X193486000Y-107399000D01*
D27*
X212575000Y-100100000D02*
X215900000Y-103425000D01*
X193200000Y-100100000D02*
X212575000Y-100100000D01*
X215900000Y-103425000D02*
X216925000Y-103425000D01*
X171450000Y-96472792D02*
X171450000Y-101854000D01*
X170250000Y-95272792D02*
X171450000Y-96472792D01*
X170250000Y-94000000D02*
X170250000Y-95272792D01*
D28*
X178843980Y-125702020D02*
X180594000Y-123952000D01*
X168036020Y-125702020D02*
X178843980Y-125702020D01*
X167386000Y-125052000D02*
X168036020Y-125702020D01*
X167400000Y-122400000D02*
X167386000Y-123952000D01*
X167386000Y-123952000D02*
X167386000Y-125052000D01*
D27*
X165800000Y-121780999D02*
X167400000Y-122400000D01*
X165750000Y-112494000D02*
X165800000Y-113800000D01*
X166878000Y-101854000D02*
X166314999Y-102417001D01*
X171450000Y-101854000D02*
X166878000Y-101854000D01*
X166314999Y-102417001D02*
X166314999Y-102435001D01*
X165800000Y-113800000D02*
X165800000Y-121780999D01*
X166314999Y-102435001D02*
X165750000Y-103000000D01*
X165750000Y-103000000D02*
X165750000Y-112494000D01*
D28*
X181050000Y-108600000D02*
X179100000Y-108600000D01*
X179100000Y-108600000D02*
X171500000Y-116200000D01*
X181975000Y-110850000D02*
X173125000Y-119700000D01*
X182500000Y-110850000D02*
X181975000Y-110850000D01*
X173125000Y-119700000D02*
X171400000Y-119700000D01*
X181050000Y-109400000D02*
X179500000Y-109400000D01*
X179500000Y-109400000D02*
X178700000Y-110200000D01*
X172750000Y-98750000D02*
X172750000Y-94000000D01*
X174750000Y-100750000D02*
X172750000Y-98750000D01*
X186500000Y-110850000D02*
X186500000Y-107800000D01*
X187300000Y-108500000D02*
X187300000Y-110800000D01*
X188100000Y-110850000D02*
X188100000Y-109200000D01*
X184900000Y-110850000D02*
X184900000Y-111873592D01*
X184900000Y-111873592D02*
X185626408Y-112600000D01*
X185626408Y-112600000D02*
X195863590Y-112600000D01*
X212724989Y-105324989D02*
X215225001Y-107825001D01*
X195863590Y-112600000D02*
X203138601Y-105324989D01*
X203138601Y-105324989D02*
X212724989Y-105324989D01*
X215225001Y-107825001D02*
X215900000Y-108500000D01*
X215900000Y-108500000D02*
X216900000Y-108500000D01*
X216900000Y-108500000D02*
X217000000Y-108600000D01*
X185489998Y-113100000D02*
X184100000Y-111710002D01*
X196000000Y-113100000D02*
X185489998Y-113100000D01*
X184100000Y-111710002D02*
X184100000Y-111000000D01*
X203325001Y-105774999D02*
X208874999Y-105774999D01*
X196000000Y-113100000D02*
X203325001Y-105774999D01*
X208874999Y-105774999D02*
X213600000Y-110500000D01*
X215700000Y-110500000D02*
X216300000Y-110500000D01*
X215700000Y-110500000D02*
X215900000Y-110500000D01*
X213600000Y-110500000D02*
X215700000Y-110500000D01*
X216300000Y-110500000D02*
X217000000Y-111200000D01*
D27*
X199800000Y-112850000D02*
X200750000Y-111900000D01*
X199800000Y-114000000D02*
X199800000Y-112850000D01*
X200750000Y-111900000D02*
X202100000Y-111900000D01*
X202100000Y-111900000D02*
X204700000Y-114500000D01*
D28*
X187349990Y-113550010D02*
X196186401Y-113550009D01*
X196186401Y-113550009D02*
X201668205Y-108068205D01*
X207081795Y-108068205D02*
X207200000Y-107950000D01*
X201668205Y-108068205D02*
X207081795Y-108068205D01*
X207200000Y-107950000D02*
X207200000Y-106900000D01*
X187199990Y-113550010D02*
X187349990Y-113550010D01*
X184545000Y-116205000D02*
X187199990Y-113550010D01*
X179070000Y-116205000D02*
X184545000Y-116205000D01*
M02*
