G04 #@! TF.GenerationSoftware,KiCad,Pcbnew,(5.1.5)-3*
G04 #@! TF.CreationDate,2020-03-27T13:38:25+01:00*
G04 #@! TF.ProjectId,mimu_batt,6d696d75-5f62-4617-9474-2e6b69636164,rev?*
G04 #@! TF.SameCoordinates,Original*
G04 #@! TF.FileFunction,Paste,Top*
G04 #@! TF.FilePolarity,Positive*
%FSLAX46Y46*%
G04 Gerber Fmt 4.6, Leading zero omitted, Abs format (unit mm)*
G04 Created by KiCad (PCBNEW (5.1.5)-3) date 2020-03-27 13:38:25*
%MOMM*%
%LPD*%
G04 APERTURE LIST*
%ADD10R,0.550000X1.600000*%
%ADD11R,1.600000X0.550000*%
%ADD12C,0.100000*%
G04 APERTURE END LIST*
D10*
X188100000Y-110850000D03*
X187300000Y-110850000D03*
X186500000Y-110850000D03*
X185700000Y-110850000D03*
X184900000Y-110850000D03*
X184100000Y-110850000D03*
X183300000Y-110850000D03*
X182500000Y-110850000D03*
D11*
X181050000Y-109400000D03*
X181050000Y-108600000D03*
X181050000Y-107800000D03*
X181050000Y-107000000D03*
X181050000Y-106200000D03*
X181050000Y-105400000D03*
X181050000Y-104600000D03*
X181050000Y-103800000D03*
D10*
X182500000Y-102350000D03*
X183300000Y-102350000D03*
X184100000Y-102350000D03*
X184900000Y-102350000D03*
X185700000Y-102350000D03*
X186500000Y-102350000D03*
X187300000Y-102350000D03*
X188100000Y-102350000D03*
D11*
X189550000Y-103800000D03*
X189550000Y-104600000D03*
X189550000Y-105400000D03*
X189550000Y-106200000D03*
X189550000Y-107000000D03*
X189550000Y-107800000D03*
X189550000Y-108600000D03*
X189550000Y-109400000D03*
D12*
G36*
X179074505Y-106526204D02*
G01*
X179098773Y-106529804D01*
X179122572Y-106535765D01*
X179145671Y-106544030D01*
X179167850Y-106554520D01*
X179188893Y-106567132D01*
X179208599Y-106581747D01*
X179226777Y-106598223D01*
X179243253Y-106616401D01*
X179257868Y-106636107D01*
X179270480Y-106657150D01*
X179280970Y-106679329D01*
X179289235Y-106702428D01*
X179295196Y-106726227D01*
X179298796Y-106750495D01*
X179300000Y-106774999D01*
X179300000Y-107425001D01*
X179298796Y-107449505D01*
X179295196Y-107473773D01*
X179289235Y-107497572D01*
X179280970Y-107520671D01*
X179270480Y-107542850D01*
X179257868Y-107563893D01*
X179243253Y-107583599D01*
X179226777Y-107601777D01*
X179208599Y-107618253D01*
X179188893Y-107632868D01*
X179167850Y-107645480D01*
X179145671Y-107655970D01*
X179122572Y-107664235D01*
X179098773Y-107670196D01*
X179074505Y-107673796D01*
X179050001Y-107675000D01*
X178149999Y-107675000D01*
X178125495Y-107673796D01*
X178101227Y-107670196D01*
X178077428Y-107664235D01*
X178054329Y-107655970D01*
X178032150Y-107645480D01*
X178011107Y-107632868D01*
X177991401Y-107618253D01*
X177973223Y-107601777D01*
X177956747Y-107583599D01*
X177942132Y-107563893D01*
X177929520Y-107542850D01*
X177919030Y-107520671D01*
X177910765Y-107497572D01*
X177904804Y-107473773D01*
X177901204Y-107449505D01*
X177900000Y-107425001D01*
X177900000Y-106774999D01*
X177901204Y-106750495D01*
X177904804Y-106726227D01*
X177910765Y-106702428D01*
X177919030Y-106679329D01*
X177929520Y-106657150D01*
X177942132Y-106636107D01*
X177956747Y-106616401D01*
X177973223Y-106598223D01*
X177991401Y-106581747D01*
X178011107Y-106567132D01*
X178032150Y-106554520D01*
X178054329Y-106544030D01*
X178077428Y-106535765D01*
X178101227Y-106529804D01*
X178125495Y-106526204D01*
X178149999Y-106525000D01*
X179050001Y-106525000D01*
X179074505Y-106526204D01*
G37*
G36*
X179074505Y-104476204D02*
G01*
X179098773Y-104479804D01*
X179122572Y-104485765D01*
X179145671Y-104494030D01*
X179167850Y-104504520D01*
X179188893Y-104517132D01*
X179208599Y-104531747D01*
X179226777Y-104548223D01*
X179243253Y-104566401D01*
X179257868Y-104586107D01*
X179270480Y-104607150D01*
X179280970Y-104629329D01*
X179289235Y-104652428D01*
X179295196Y-104676227D01*
X179298796Y-104700495D01*
X179300000Y-104724999D01*
X179300000Y-105375001D01*
X179298796Y-105399505D01*
X179295196Y-105423773D01*
X179289235Y-105447572D01*
X179280970Y-105470671D01*
X179270480Y-105492850D01*
X179257868Y-105513893D01*
X179243253Y-105533599D01*
X179226777Y-105551777D01*
X179208599Y-105568253D01*
X179188893Y-105582868D01*
X179167850Y-105595480D01*
X179145671Y-105605970D01*
X179122572Y-105614235D01*
X179098773Y-105620196D01*
X179074505Y-105623796D01*
X179050001Y-105625000D01*
X178149999Y-105625000D01*
X178125495Y-105623796D01*
X178101227Y-105620196D01*
X178077428Y-105614235D01*
X178054329Y-105605970D01*
X178032150Y-105595480D01*
X178011107Y-105582868D01*
X177991401Y-105568253D01*
X177973223Y-105551777D01*
X177956747Y-105533599D01*
X177942132Y-105513893D01*
X177929520Y-105492850D01*
X177919030Y-105470671D01*
X177910765Y-105447572D01*
X177904804Y-105423773D01*
X177901204Y-105399505D01*
X177900000Y-105375001D01*
X177900000Y-104724999D01*
X177901204Y-104700495D01*
X177904804Y-104676227D01*
X177910765Y-104652428D01*
X177919030Y-104629329D01*
X177929520Y-104607150D01*
X177942132Y-104586107D01*
X177956747Y-104566401D01*
X177973223Y-104548223D01*
X177991401Y-104531747D01*
X178011107Y-104517132D01*
X178032150Y-104504520D01*
X178054329Y-104494030D01*
X178077428Y-104485765D01*
X178101227Y-104479804D01*
X178125495Y-104476204D01*
X178149999Y-104475000D01*
X179050001Y-104475000D01*
X179074505Y-104476204D01*
G37*
G36*
X193260505Y-104775204D02*
G01*
X193284773Y-104778804D01*
X193308572Y-104784765D01*
X193331671Y-104793030D01*
X193353850Y-104803520D01*
X193374893Y-104816132D01*
X193394599Y-104830747D01*
X193412777Y-104847223D01*
X193429253Y-104865401D01*
X193443868Y-104885107D01*
X193456480Y-104906150D01*
X193466970Y-104928329D01*
X193475235Y-104951428D01*
X193481196Y-104975227D01*
X193484796Y-104999495D01*
X193486000Y-105023999D01*
X193486000Y-105674001D01*
X193484796Y-105698505D01*
X193481196Y-105722773D01*
X193475235Y-105746572D01*
X193466970Y-105769671D01*
X193456480Y-105791850D01*
X193443868Y-105812893D01*
X193429253Y-105832599D01*
X193412777Y-105850777D01*
X193394599Y-105867253D01*
X193374893Y-105881868D01*
X193353850Y-105894480D01*
X193331671Y-105904970D01*
X193308572Y-105913235D01*
X193284773Y-105919196D01*
X193260505Y-105922796D01*
X193236001Y-105924000D01*
X192335999Y-105924000D01*
X192311495Y-105922796D01*
X192287227Y-105919196D01*
X192263428Y-105913235D01*
X192240329Y-105904970D01*
X192218150Y-105894480D01*
X192197107Y-105881868D01*
X192177401Y-105867253D01*
X192159223Y-105850777D01*
X192142747Y-105832599D01*
X192128132Y-105812893D01*
X192115520Y-105791850D01*
X192105030Y-105769671D01*
X192096765Y-105746572D01*
X192090804Y-105722773D01*
X192087204Y-105698505D01*
X192086000Y-105674001D01*
X192086000Y-105023999D01*
X192087204Y-104999495D01*
X192090804Y-104975227D01*
X192096765Y-104951428D01*
X192105030Y-104928329D01*
X192115520Y-104906150D01*
X192128132Y-104885107D01*
X192142747Y-104865401D01*
X192159223Y-104847223D01*
X192177401Y-104830747D01*
X192197107Y-104816132D01*
X192218150Y-104803520D01*
X192240329Y-104793030D01*
X192263428Y-104784765D01*
X192287227Y-104778804D01*
X192311495Y-104775204D01*
X192335999Y-104774000D01*
X193236001Y-104774000D01*
X193260505Y-104775204D01*
G37*
G36*
X193260505Y-106825204D02*
G01*
X193284773Y-106828804D01*
X193308572Y-106834765D01*
X193331671Y-106843030D01*
X193353850Y-106853520D01*
X193374893Y-106866132D01*
X193394599Y-106880747D01*
X193412777Y-106897223D01*
X193429253Y-106915401D01*
X193443868Y-106935107D01*
X193456480Y-106956150D01*
X193466970Y-106978329D01*
X193475235Y-107001428D01*
X193481196Y-107025227D01*
X193484796Y-107049495D01*
X193486000Y-107073999D01*
X193486000Y-107724001D01*
X193484796Y-107748505D01*
X193481196Y-107772773D01*
X193475235Y-107796572D01*
X193466970Y-107819671D01*
X193456480Y-107841850D01*
X193443868Y-107862893D01*
X193429253Y-107882599D01*
X193412777Y-107900777D01*
X193394599Y-107917253D01*
X193374893Y-107931868D01*
X193353850Y-107944480D01*
X193331671Y-107954970D01*
X193308572Y-107963235D01*
X193284773Y-107969196D01*
X193260505Y-107972796D01*
X193236001Y-107974000D01*
X192335999Y-107974000D01*
X192311495Y-107972796D01*
X192287227Y-107969196D01*
X192263428Y-107963235D01*
X192240329Y-107954970D01*
X192218150Y-107944480D01*
X192197107Y-107931868D01*
X192177401Y-107917253D01*
X192159223Y-107900777D01*
X192142747Y-107882599D01*
X192128132Y-107862893D01*
X192115520Y-107841850D01*
X192105030Y-107819671D01*
X192096765Y-107796572D01*
X192090804Y-107772773D01*
X192087204Y-107748505D01*
X192086000Y-107724001D01*
X192086000Y-107073999D01*
X192087204Y-107049495D01*
X192090804Y-107025227D01*
X192096765Y-107001428D01*
X192105030Y-106978329D01*
X192115520Y-106956150D01*
X192128132Y-106935107D01*
X192142747Y-106915401D01*
X192159223Y-106897223D01*
X192177401Y-106880747D01*
X192197107Y-106866132D01*
X192218150Y-106853520D01*
X192240329Y-106843030D01*
X192263428Y-106834765D01*
X192287227Y-106828804D01*
X192311495Y-106825204D01*
X192335999Y-106824000D01*
X193236001Y-106824000D01*
X193260505Y-106825204D01*
G37*
M02*
