G04 #@! TF.GenerationSoftware,KiCad,Pcbnew,(5.1.5)-3*
G04 #@! TF.CreationDate,2020-03-27T13:38:25+01:00*
G04 #@! TF.ProjectId,mimu_batt,6d696d75-5f62-4617-9474-2e6b69636164,rev?*
G04 #@! TF.SameCoordinates,Original*
G04 #@! TF.FileFunction,Legend,Top*
G04 #@! TF.FilePolarity,Positive*
%FSLAX46Y46*%
G04 Gerber Fmt 4.6, Leading zero omitted, Abs format (unit mm)*
G04 Created by KiCad (PCBNEW (5.1.5)-3) date 2020-03-27 13:38:25*
%MOMM*%
%LPD*%
G04 APERTURE LIST*
%ADD10C,0.100000*%
%ADD11C,0.120000*%
%ADD12C,0.150000*%
G04 APERTURE END LIST*
D10*
X185900190Y-126603047D02*
X185400190Y-126603047D01*
X185400190Y-126412571D01*
X185424000Y-126364952D01*
X185447809Y-126341142D01*
X185495428Y-126317333D01*
X185566857Y-126317333D01*
X185614476Y-126341142D01*
X185638285Y-126364952D01*
X185662095Y-126412571D01*
X185662095Y-126603047D01*
X185900190Y-126103047D02*
X185400190Y-126103047D01*
X185400190Y-125984000D01*
X185424000Y-125912571D01*
X185471619Y-125864952D01*
X185519238Y-125841142D01*
X185614476Y-125817333D01*
X185685904Y-125817333D01*
X185781142Y-125841142D01*
X185828761Y-125864952D01*
X185876380Y-125912571D01*
X185900190Y-125984000D01*
X185900190Y-126103047D01*
X185400190Y-125650666D02*
X185400190Y-125341142D01*
X185590666Y-125507809D01*
X185590666Y-125436380D01*
X185614476Y-125388761D01*
X185638285Y-125364952D01*
X185685904Y-125341142D01*
X185804952Y-125341142D01*
X185852571Y-125364952D01*
X185876380Y-125388761D01*
X185900190Y-125436380D01*
X185900190Y-125579238D01*
X185876380Y-125626857D01*
X185852571Y-125650666D01*
X184630190Y-126603047D02*
X184130190Y-126603047D01*
X184130190Y-126412571D01*
X184154000Y-126364952D01*
X184177809Y-126341142D01*
X184225428Y-126317333D01*
X184296857Y-126317333D01*
X184344476Y-126341142D01*
X184368285Y-126364952D01*
X184392095Y-126412571D01*
X184392095Y-126603047D01*
X184630190Y-126103047D02*
X184130190Y-126103047D01*
X184130190Y-125984000D01*
X184154000Y-125912571D01*
X184201619Y-125864952D01*
X184249238Y-125841142D01*
X184344476Y-125817333D01*
X184415904Y-125817333D01*
X184511142Y-125841142D01*
X184558761Y-125864952D01*
X184606380Y-125912571D01*
X184630190Y-125984000D01*
X184630190Y-126103047D01*
X184630190Y-125341142D02*
X184630190Y-125626857D01*
X184630190Y-125484000D02*
X184130190Y-125484000D01*
X184201619Y-125531619D01*
X184249238Y-125579238D01*
X184273047Y-125626857D01*
X183360190Y-126603047D02*
X182860190Y-126603047D01*
X182860190Y-126412571D01*
X182884000Y-126364952D01*
X182907809Y-126341142D01*
X182955428Y-126317333D01*
X183026857Y-126317333D01*
X183074476Y-126341142D01*
X183098285Y-126364952D01*
X183122095Y-126412571D01*
X183122095Y-126603047D01*
X183360190Y-126103047D02*
X182860190Y-126103047D01*
X182860190Y-125984000D01*
X182884000Y-125912571D01*
X182931619Y-125864952D01*
X182979238Y-125841142D01*
X183074476Y-125817333D01*
X183145904Y-125817333D01*
X183241142Y-125841142D01*
X183288761Y-125864952D01*
X183336380Y-125912571D01*
X183360190Y-125984000D01*
X183360190Y-126103047D01*
X182860190Y-125507809D02*
X182860190Y-125460190D01*
X182884000Y-125412571D01*
X182907809Y-125388761D01*
X182955428Y-125364952D01*
X183050666Y-125341142D01*
X183169714Y-125341142D01*
X183264952Y-125364952D01*
X183312571Y-125388761D01*
X183336380Y-125412571D01*
X183360190Y-125460190D01*
X183360190Y-125507809D01*
X183336380Y-125555428D01*
X183312571Y-125579238D01*
X183264952Y-125603047D01*
X183169714Y-125626857D01*
X183050666Y-125626857D01*
X182955428Y-125603047D01*
X182907809Y-125579238D01*
X182884000Y-125555428D01*
X182860190Y-125507809D01*
X180320190Y-126650666D02*
X180820190Y-126484000D01*
X180320190Y-126317333D01*
X180772571Y-125864952D02*
X180796380Y-125888761D01*
X180820190Y-125960190D01*
X180820190Y-126007809D01*
X180796380Y-126079238D01*
X180748761Y-126126857D01*
X180701142Y-126150666D01*
X180605904Y-126174476D01*
X180534476Y-126174476D01*
X180439238Y-126150666D01*
X180391619Y-126126857D01*
X180344000Y-126079238D01*
X180320190Y-126007809D01*
X180320190Y-125960190D01*
X180344000Y-125888761D01*
X180367809Y-125864952D01*
X180772571Y-125364952D02*
X180796380Y-125388761D01*
X180820190Y-125460190D01*
X180820190Y-125507809D01*
X180796380Y-125579238D01*
X180748761Y-125626857D01*
X180701142Y-125650666D01*
X180605904Y-125674476D01*
X180534476Y-125674476D01*
X180439238Y-125650666D01*
X180391619Y-125626857D01*
X180344000Y-125579238D01*
X180320190Y-125507809D01*
X180320190Y-125460190D01*
X180344000Y-125388761D01*
X180367809Y-125364952D01*
X181614000Y-126364952D02*
X181590190Y-126412571D01*
X181590190Y-126484000D01*
X181614000Y-126555428D01*
X181661619Y-126603047D01*
X181709238Y-126626857D01*
X181804476Y-126650666D01*
X181875904Y-126650666D01*
X181971142Y-126626857D01*
X182018761Y-126603047D01*
X182066380Y-126555428D01*
X182090190Y-126484000D01*
X182090190Y-126436380D01*
X182066380Y-126364952D01*
X182042571Y-126341142D01*
X181875904Y-126341142D01*
X181875904Y-126436380D01*
X182090190Y-126126857D02*
X181590190Y-126126857D01*
X182090190Y-125841142D01*
X181590190Y-125841142D01*
X182090190Y-125603047D02*
X181590190Y-125603047D01*
X181590190Y-125484000D01*
X181614000Y-125412571D01*
X181661619Y-125364952D01*
X181709238Y-125341142D01*
X181804476Y-125317333D01*
X181875904Y-125317333D01*
X181971142Y-125341142D01*
X182018761Y-125364952D01*
X182066380Y-125412571D01*
X182090190Y-125484000D01*
X182090190Y-125603047D01*
D11*
X189554000Y-110900000D02*
G75*
G03X189554000Y-110900000I-254000J0D01*
G01*
D10*
X193542142Y-123500000D02*
X193494523Y-123476190D01*
X193423095Y-123476190D01*
X193351666Y-123500000D01*
X193304047Y-123547619D01*
X193280238Y-123595238D01*
X193256428Y-123690476D01*
X193256428Y-123761904D01*
X193280238Y-123857142D01*
X193304047Y-123904761D01*
X193351666Y-123952380D01*
X193423095Y-123976190D01*
X193470714Y-123976190D01*
X193542142Y-123952380D01*
X193565952Y-123928571D01*
X193565952Y-123761904D01*
X193470714Y-123761904D01*
X193780238Y-123976190D02*
X193780238Y-123476190D01*
X194065952Y-123976190D01*
X194065952Y-123476190D01*
X194304047Y-123976190D02*
X194304047Y-123476190D01*
X194423095Y-123476190D01*
X194494523Y-123500000D01*
X194542142Y-123547619D01*
X194565952Y-123595238D01*
X194589761Y-123690476D01*
X194589761Y-123761904D01*
X194565952Y-123857142D01*
X194542142Y-123904761D01*
X194494523Y-123952380D01*
X194423095Y-123976190D01*
X194304047Y-123976190D01*
X193685000Y-118928571D02*
X193661190Y-118952380D01*
X193589761Y-118976190D01*
X193542142Y-118976190D01*
X193470714Y-118952380D01*
X193423095Y-118904761D01*
X193399285Y-118857142D01*
X193375476Y-118761904D01*
X193375476Y-118690476D01*
X193399285Y-118595238D01*
X193423095Y-118547619D01*
X193470714Y-118500000D01*
X193542142Y-118476190D01*
X193589761Y-118476190D01*
X193661190Y-118500000D01*
X193685000Y-118523809D01*
X194137380Y-118976190D02*
X193899285Y-118976190D01*
X193899285Y-118476190D01*
X194304047Y-118976190D02*
X194304047Y-118476190D01*
X194423095Y-118476190D01*
X194494523Y-118500000D01*
X194542142Y-118547619D01*
X194565952Y-118595238D01*
X194589761Y-118690476D01*
X194589761Y-118761904D01*
X194565952Y-118857142D01*
X194542142Y-118904761D01*
X194494523Y-118952380D01*
X194423095Y-118976190D01*
X194304047Y-118976190D01*
X193375476Y-121476190D02*
X193375476Y-120976190D01*
X193375476Y-121214285D02*
X193661190Y-121214285D01*
X193661190Y-121476190D02*
X193661190Y-120976190D01*
X193994523Y-120976190D02*
X194089761Y-120976190D01*
X194137380Y-121000000D01*
X194185000Y-121047619D01*
X194208809Y-121142857D01*
X194208809Y-121309523D01*
X194185000Y-121404761D01*
X194137380Y-121452380D01*
X194089761Y-121476190D01*
X193994523Y-121476190D01*
X193946904Y-121452380D01*
X193899285Y-121404761D01*
X193875476Y-121309523D01*
X193875476Y-121142857D01*
X193899285Y-121047619D01*
X193946904Y-121000000D01*
X193994523Y-120976190D01*
X194351666Y-120976190D02*
X194637380Y-120976190D01*
X194494523Y-121476190D02*
X194494523Y-120976190D01*
D12*
X169219047Y-111871428D02*
X169980952Y-111871428D01*
X169219047Y-115871428D02*
X169980952Y-115871428D01*
X169600000Y-116252380D02*
X169600000Y-115490476D01*
D10*
X216762761Y-118996571D02*
X216738952Y-119020380D01*
X216667523Y-119044190D01*
X216619904Y-119044190D01*
X216548476Y-119020380D01*
X216500857Y-118972761D01*
X216477047Y-118925142D01*
X216453238Y-118829904D01*
X216453238Y-118758476D01*
X216477047Y-118663238D01*
X216500857Y-118615619D01*
X216548476Y-118568000D01*
X216619904Y-118544190D01*
X216667523Y-118544190D01*
X216738952Y-118568000D01*
X216762761Y-118591809D01*
X217215142Y-119044190D02*
X216977047Y-119044190D01*
X216977047Y-118544190D01*
X217381809Y-119044190D02*
X217381809Y-118544190D01*
X217500857Y-118544190D01*
X217572285Y-118568000D01*
X217619904Y-118615619D01*
X217643714Y-118663238D01*
X217667523Y-118758476D01*
X217667523Y-118829904D01*
X217643714Y-118925142D01*
X217619904Y-118972761D01*
X217572285Y-119020380D01*
X217500857Y-119044190D01*
X217381809Y-119044190D01*
X216477047Y-121584190D02*
X216477047Y-121084190D01*
X216477047Y-121322285D02*
X216762761Y-121322285D01*
X216762761Y-121584190D02*
X216762761Y-121084190D01*
X217096095Y-121084190D02*
X217191333Y-121084190D01*
X217238952Y-121108000D01*
X217286571Y-121155619D01*
X217310380Y-121250857D01*
X217310380Y-121417523D01*
X217286571Y-121512761D01*
X217238952Y-121560380D01*
X217191333Y-121584190D01*
X217096095Y-121584190D01*
X217048476Y-121560380D01*
X217000857Y-121512761D01*
X216977047Y-121417523D01*
X216977047Y-121250857D01*
X217000857Y-121155619D01*
X217048476Y-121108000D01*
X217096095Y-121084190D01*
X217453238Y-121084190D02*
X217738952Y-121084190D01*
X217596095Y-121584190D02*
X217596095Y-121084190D01*
X216738952Y-123648000D02*
X216691333Y-123624190D01*
X216619904Y-123624190D01*
X216548476Y-123648000D01*
X216500857Y-123695619D01*
X216477047Y-123743238D01*
X216453238Y-123838476D01*
X216453238Y-123909904D01*
X216477047Y-124005142D01*
X216500857Y-124052761D01*
X216548476Y-124100380D01*
X216619904Y-124124190D01*
X216667523Y-124124190D01*
X216738952Y-124100380D01*
X216762761Y-124076571D01*
X216762761Y-123909904D01*
X216667523Y-123909904D01*
X216977047Y-124124190D02*
X216977047Y-123624190D01*
X217262761Y-124124190D01*
X217262761Y-123624190D01*
X217500857Y-124124190D02*
X217500857Y-123624190D01*
X217619904Y-123624190D01*
X217691333Y-123648000D01*
X217738952Y-123695619D01*
X217762761Y-123743238D01*
X217786571Y-123838476D01*
X217786571Y-123909904D01*
X217762761Y-124005142D01*
X217738952Y-124052761D01*
X217691333Y-124100380D01*
X217619904Y-124124190D01*
X217500857Y-124124190D01*
X214802380Y-111507142D02*
X214826190Y-111435714D01*
X214826190Y-111316666D01*
X214802380Y-111269047D01*
X214778571Y-111245238D01*
X214730952Y-111221428D01*
X214683333Y-111221428D01*
X214635714Y-111245238D01*
X214611904Y-111269047D01*
X214588095Y-111316666D01*
X214564285Y-111411904D01*
X214540476Y-111459523D01*
X214516666Y-111483333D01*
X214469047Y-111507142D01*
X214421428Y-111507142D01*
X214373809Y-111483333D01*
X214350000Y-111459523D01*
X214326190Y-111411904D01*
X214326190Y-111292857D01*
X214350000Y-111221428D01*
X214826190Y-111007142D02*
X214326190Y-111007142D01*
X214326190Y-110888095D01*
X214350000Y-110816666D01*
X214397619Y-110769047D01*
X214445238Y-110745238D01*
X214540476Y-110721428D01*
X214611904Y-110721428D01*
X214707142Y-110745238D01*
X214754761Y-110769047D01*
X214802380Y-110816666D01*
X214826190Y-110888095D01*
X214826190Y-111007142D01*
X214683333Y-110530952D02*
X214683333Y-110292857D01*
X214826190Y-110578571D02*
X214326190Y-110411904D01*
X214826190Y-110245238D01*
X214802380Y-108995238D02*
X214826190Y-108923809D01*
X214826190Y-108804761D01*
X214802380Y-108757142D01*
X214778571Y-108733333D01*
X214730952Y-108709523D01*
X214683333Y-108709523D01*
X214635714Y-108733333D01*
X214611904Y-108757142D01*
X214588095Y-108804761D01*
X214564285Y-108900000D01*
X214540476Y-108947619D01*
X214516666Y-108971428D01*
X214469047Y-108995238D01*
X214421428Y-108995238D01*
X214373809Y-108971428D01*
X214350000Y-108947619D01*
X214326190Y-108900000D01*
X214326190Y-108780952D01*
X214350000Y-108709523D01*
X214778571Y-108209523D02*
X214802380Y-108233333D01*
X214826190Y-108304761D01*
X214826190Y-108352380D01*
X214802380Y-108423809D01*
X214754761Y-108471428D01*
X214707142Y-108495238D01*
X214611904Y-108519047D01*
X214540476Y-108519047D01*
X214445238Y-108495238D01*
X214397619Y-108471428D01*
X214350000Y-108423809D01*
X214326190Y-108352380D01*
X214326190Y-108304761D01*
X214350000Y-108233333D01*
X214373809Y-108209523D01*
X214826190Y-107757142D02*
X214826190Y-107995238D01*
X214326190Y-107995238D01*
X214350000Y-106280952D02*
X214326190Y-106328571D01*
X214326190Y-106400000D01*
X214350000Y-106471428D01*
X214397619Y-106519047D01*
X214445238Y-106542857D01*
X214540476Y-106566666D01*
X214611904Y-106566666D01*
X214707142Y-106542857D01*
X214754761Y-106519047D01*
X214802380Y-106471428D01*
X214826190Y-106400000D01*
X214826190Y-106352380D01*
X214802380Y-106280952D01*
X214778571Y-106257142D01*
X214611904Y-106257142D01*
X214611904Y-106352380D01*
X214826190Y-106042857D02*
X214326190Y-106042857D01*
X214826190Y-105757142D01*
X214326190Y-105757142D01*
X214826190Y-105519047D02*
X214326190Y-105519047D01*
X214326190Y-105400000D01*
X214350000Y-105328571D01*
X214397619Y-105280952D01*
X214445238Y-105257142D01*
X214540476Y-105233333D01*
X214611904Y-105233333D01*
X214707142Y-105257142D01*
X214754761Y-105280952D01*
X214802380Y-105328571D01*
X214826190Y-105400000D01*
X214826190Y-105519047D01*
X214326190Y-104066666D02*
X214826190Y-103900000D01*
X214326190Y-103733333D01*
X214778571Y-103280952D02*
X214802380Y-103304761D01*
X214826190Y-103376190D01*
X214826190Y-103423809D01*
X214802380Y-103495238D01*
X214754761Y-103542857D01*
X214707142Y-103566666D01*
X214611904Y-103590476D01*
X214540476Y-103590476D01*
X214445238Y-103566666D01*
X214397619Y-103542857D01*
X214350000Y-103495238D01*
X214326190Y-103423809D01*
X214326190Y-103376190D01*
X214350000Y-103304761D01*
X214373809Y-103280952D01*
X214778571Y-102780952D02*
X214802380Y-102804761D01*
X214826190Y-102876190D01*
X214826190Y-102923809D01*
X214802380Y-102995238D01*
X214754761Y-103042857D01*
X214707142Y-103066666D01*
X214611904Y-103090476D01*
X214540476Y-103090476D01*
X214445238Y-103066666D01*
X214397619Y-103042857D01*
X214350000Y-102995238D01*
X214326190Y-102923809D01*
X214326190Y-102876190D01*
X214350000Y-102804761D01*
X214373809Y-102780952D01*
D12*
X197876190Y-95627380D02*
X197876190Y-94627380D01*
X198209523Y-95341666D01*
X198542857Y-94627380D01*
X198542857Y-95627380D01*
X199019047Y-95627380D02*
X199019047Y-94627380D01*
X199495238Y-95627380D02*
X199495238Y-94627380D01*
X199828571Y-95341666D01*
X200161904Y-94627380D01*
X200161904Y-95627380D01*
X200638095Y-94627380D02*
X200638095Y-95436904D01*
X200685714Y-95532142D01*
X200733333Y-95579761D01*
X200828571Y-95627380D01*
X201019047Y-95627380D01*
X201114285Y-95579761D01*
X201161904Y-95532142D01*
X201209523Y-95436904D01*
X201209523Y-94627380D01*
X202780952Y-95103571D02*
X202923809Y-95151190D01*
X202971428Y-95198809D01*
X203019047Y-95294047D01*
X203019047Y-95436904D01*
X202971428Y-95532142D01*
X202923809Y-95579761D01*
X202828571Y-95627380D01*
X202447619Y-95627380D01*
X202447619Y-94627380D01*
X202780952Y-94627380D01*
X202876190Y-94675000D01*
X202923809Y-94722619D01*
X202971428Y-94817857D01*
X202971428Y-94913095D01*
X202923809Y-95008333D01*
X202876190Y-95055952D01*
X202780952Y-95103571D01*
X202447619Y-95103571D01*
X203876190Y-95627380D02*
X203876190Y-95103571D01*
X203828571Y-95008333D01*
X203733333Y-94960714D01*
X203542857Y-94960714D01*
X203447619Y-95008333D01*
X203876190Y-95579761D02*
X203780952Y-95627380D01*
X203542857Y-95627380D01*
X203447619Y-95579761D01*
X203400000Y-95484523D01*
X203400000Y-95389285D01*
X203447619Y-95294047D01*
X203542857Y-95246428D01*
X203780952Y-95246428D01*
X203876190Y-95198809D01*
X204209523Y-94960714D02*
X204590476Y-94960714D01*
X204352380Y-94627380D02*
X204352380Y-95484523D01*
X204400000Y-95579761D01*
X204495238Y-95627380D01*
X204590476Y-95627380D01*
X204780952Y-94960714D02*
X205161904Y-94960714D01*
X204923809Y-94627380D02*
X204923809Y-95484523D01*
X204971428Y-95579761D01*
X205066666Y-95627380D01*
X205161904Y-95627380D01*
X206161904Y-94960714D02*
X206400000Y-95627380D01*
X206638095Y-94960714D01*
X207209523Y-94627380D02*
X207304761Y-94627380D01*
X207400000Y-94675000D01*
X207447619Y-94722619D01*
X207495238Y-94817857D01*
X207542857Y-95008333D01*
X207542857Y-95246428D01*
X207495238Y-95436904D01*
X207447619Y-95532142D01*
X207400000Y-95579761D01*
X207304761Y-95627380D01*
X207209523Y-95627380D01*
X207114285Y-95579761D01*
X207066666Y-95532142D01*
X207019047Y-95436904D01*
X206971428Y-95246428D01*
X206971428Y-95008333D01*
X207019047Y-94817857D01*
X207066666Y-94722619D01*
X207114285Y-94675000D01*
X207209523Y-94627380D01*
X207971428Y-95532142D02*
X208019047Y-95579761D01*
X207971428Y-95627380D01*
X207923809Y-95579761D01*
X207971428Y-95532142D01*
X207971428Y-95627380D01*
X208352380Y-94627380D02*
X209019047Y-94627380D01*
X208590476Y-95627380D01*
X200114285Y-97277380D02*
X200114285Y-96277380D01*
X200495238Y-96277380D01*
X200590476Y-96325000D01*
X200638095Y-96372619D01*
X200685714Y-96467857D01*
X200685714Y-96610714D01*
X200638095Y-96705952D01*
X200590476Y-96753571D01*
X200495238Y-96801190D01*
X200114285Y-96801190D01*
X201114285Y-97277380D02*
X201114285Y-96277380D01*
X201495238Y-96277380D01*
X201590476Y-96325000D01*
X201638095Y-96372619D01*
X201685714Y-96467857D01*
X201685714Y-96610714D01*
X201638095Y-96705952D01*
X201590476Y-96753571D01*
X201495238Y-96801190D01*
X201114285Y-96801190D01*
X203066666Y-96277380D02*
X203161904Y-96277380D01*
X203257142Y-96325000D01*
X203304761Y-96372619D01*
X203352380Y-96467857D01*
X203400000Y-96658333D01*
X203400000Y-96896428D01*
X203352380Y-97086904D01*
X203304761Y-97182142D01*
X203257142Y-97229761D01*
X203161904Y-97277380D01*
X203066666Y-97277380D01*
X202971428Y-97229761D01*
X202923809Y-97182142D01*
X202876190Y-97086904D01*
X202828571Y-96896428D01*
X202828571Y-96658333D01*
X202876190Y-96467857D01*
X202923809Y-96372619D01*
X202971428Y-96325000D01*
X203066666Y-96277380D01*
X203733333Y-96277380D02*
X204352380Y-96277380D01*
X204019047Y-96658333D01*
X204161904Y-96658333D01*
X204257142Y-96705952D01*
X204304761Y-96753571D01*
X204352380Y-96848809D01*
X204352380Y-97086904D01*
X204304761Y-97182142D01*
X204257142Y-97229761D01*
X204161904Y-97277380D01*
X203876190Y-97277380D01*
X203780952Y-97229761D01*
X203733333Y-97182142D01*
X204780952Y-97182142D02*
X204828571Y-97229761D01*
X204780952Y-97277380D01*
X204733333Y-97229761D01*
X204780952Y-97182142D01*
X204780952Y-97277380D01*
X205209523Y-96372619D02*
X205257142Y-96325000D01*
X205352380Y-96277380D01*
X205590476Y-96277380D01*
X205685714Y-96325000D01*
X205733333Y-96372619D01*
X205780952Y-96467857D01*
X205780952Y-96563095D01*
X205733333Y-96705952D01*
X205161904Y-97277380D01*
X205780952Y-97277380D01*
X206400000Y-96277380D02*
X206495238Y-96277380D01*
X206590476Y-96325000D01*
X206638095Y-96372619D01*
X206685714Y-96467857D01*
X206733333Y-96658333D01*
X206733333Y-96896428D01*
X206685714Y-97086904D01*
X206638095Y-97182142D01*
X206590476Y-97229761D01*
X206495238Y-97277380D01*
X206400000Y-97277380D01*
X206304761Y-97229761D01*
X206257142Y-97182142D01*
X206209523Y-97086904D01*
X206161904Y-96896428D01*
X206161904Y-96658333D01*
X206209523Y-96467857D01*
X206257142Y-96372619D01*
X206304761Y-96325000D01*
X206400000Y-96277380D01*
D11*
X168930000Y-118730000D02*
X166270000Y-118730000D01*
X168930000Y-121330000D02*
X168930000Y-118730000D01*
X166270000Y-121330000D02*
X166270000Y-118730000D01*
X168930000Y-121330000D02*
X166270000Y-121330000D01*
X168930000Y-122600000D02*
X168930000Y-123930000D01*
X168930000Y-123930000D02*
X167600000Y-123930000D01*
X167840000Y-94805000D02*
X167840000Y-90440000D01*
X177660000Y-94805000D02*
X177660000Y-90440000D01*
X169625000Y-95560000D02*
X175875000Y-95560000D01*
X167840000Y-90440000D02*
X177660000Y-90440000D01*
X169290000Y-90440000D02*
X169290000Y-89640000D01*
X176210000Y-90440000D02*
X176210000Y-89640000D01*
X169290000Y-90440000D02*
X176210000Y-90440000D01*
X169290000Y-89640000D02*
X176210000Y-89640000D01*
X169690000Y-89640000D02*
X169690000Y-80440000D01*
X175810000Y-89640000D02*
X175810000Y-80440000D01*
X169690000Y-89640000D02*
X175810000Y-89640000D01*
X169690000Y-80440000D02*
X175810000Y-80440000D01*
X206690000Y-124310000D02*
X206690000Y-117190000D01*
X208810000Y-124310000D02*
X208810000Y-117190000D01*
X206690000Y-124310000D02*
X208810000Y-124310000D01*
X206690000Y-117190000D02*
X208810000Y-117190000D01*
X203440000Y-124310000D02*
X203440000Y-117190000D01*
X205560000Y-124310000D02*
X205560000Y-117190000D01*
X203440000Y-124310000D02*
X205560000Y-124310000D01*
X203440000Y-117190000D02*
X205560000Y-117190000D01*
X208000000Y-109200000D02*
G75*
G03X208000000Y-109200000I-600000J0D01*
G01*
X208530000Y-113360000D02*
X208530000Y-111220000D01*
X203330000Y-113360000D02*
X208530000Y-113360000D01*
X203330000Y-108060000D02*
X203330000Y-113360000D01*
X208530000Y-108060000D02*
X203330000Y-108060000D01*
X208530000Y-110200000D02*
X208530000Y-108060000D01*
X208530000Y-111220000D02*
G75*
G02X208530000Y-110200000I0J510000D01*
G01*
X215030000Y-102030000D02*
X216300000Y-102030000D01*
X215030000Y-103300000D02*
X215030000Y-102030000D01*
X217342929Y-111300000D02*
X217740000Y-111300000D01*
X217342929Y-110540000D02*
X217740000Y-110540000D01*
X226400000Y-111300000D02*
X220400000Y-111300000D01*
X226400000Y-110540000D02*
X226400000Y-111300000D01*
X220400000Y-110540000D02*
X226400000Y-110540000D01*
X217740000Y-109650000D02*
X220400000Y-109650000D01*
X217342929Y-108760000D02*
X217740000Y-108760000D01*
X217342929Y-108000000D02*
X217740000Y-108000000D01*
X226400000Y-108760000D02*
X220400000Y-108760000D01*
X226400000Y-108000000D02*
X226400000Y-108760000D01*
X220400000Y-108000000D02*
X226400000Y-108000000D01*
X217740000Y-107110000D02*
X220400000Y-107110000D01*
X217342929Y-106220000D02*
X217740000Y-106220000D01*
X217342929Y-105460000D02*
X217740000Y-105460000D01*
X226400000Y-106220000D02*
X220400000Y-106220000D01*
X226400000Y-105460000D02*
X226400000Y-106220000D01*
X220400000Y-105460000D02*
X226400000Y-105460000D01*
X217740000Y-104570000D02*
X220400000Y-104570000D01*
X217410000Y-103680000D02*
X217740000Y-103680000D01*
X217410000Y-102920000D02*
X217740000Y-102920000D01*
X220400000Y-103580000D02*
X226400000Y-103580000D01*
X220400000Y-103460000D02*
X226400000Y-103460000D01*
X220400000Y-103340000D02*
X226400000Y-103340000D01*
X220400000Y-103220000D02*
X226400000Y-103220000D01*
X220400000Y-103100000D02*
X226400000Y-103100000D01*
X220400000Y-102980000D02*
X226400000Y-102980000D01*
X226400000Y-103680000D02*
X220400000Y-103680000D01*
X226400000Y-102920000D02*
X226400000Y-103680000D01*
X220400000Y-102920000D02*
X226400000Y-102920000D01*
X220400000Y-101970000D02*
X217740000Y-101970000D01*
X220400000Y-112250000D02*
X220400000Y-101970000D01*
X217740000Y-112250000D02*
X220400000Y-112250000D01*
X217740000Y-101970000D02*
X217740000Y-112250000D01*
X197750000Y-113700000D02*
G75*
G02X198450000Y-113000000I700000J0D01*
G01*
X198450000Y-115000000D02*
G75*
G02X197750000Y-114300000I0J700000D01*
G01*
X201850000Y-114300000D02*
G75*
G02X201150000Y-115000000I-700000J0D01*
G01*
X201150000Y-113000000D02*
G75*
G02X201850000Y-113700000I0J-700000D01*
G01*
X198400000Y-113000000D02*
X201200000Y-113000000D01*
X201850000Y-113700000D02*
X201850000Y-114300000D01*
X201200000Y-115000000D02*
X198400000Y-115000000D01*
X197750000Y-114300000D02*
X197750000Y-113700000D01*
X198600000Y-115200000D02*
X198300000Y-115500000D01*
X198300000Y-115500000D02*
X198900000Y-115500000D01*
X198600000Y-115200000D02*
X198900000Y-115500000D01*
D12*
X188925000Y-110000000D02*
X190350000Y-110000000D01*
X181675000Y-110225000D02*
X182000000Y-110225000D01*
X181675000Y-102975000D02*
X182000000Y-102975000D01*
X188925000Y-102975000D02*
X188600000Y-102975000D01*
X188925000Y-110225000D02*
X188600000Y-110225000D01*
X188925000Y-102975000D02*
X188925000Y-103300000D01*
X181675000Y-102975000D02*
X181675000Y-103300000D01*
X181675000Y-110225000D02*
X181675000Y-109900000D01*
X188925000Y-110225000D02*
X188925000Y-110000000D01*
D11*
X179899000Y-122842000D02*
X179899000Y-123644470D01*
X179899000Y-124259530D02*
X179899000Y-125062000D01*
X184914000Y-122842000D02*
X179899000Y-122842000D01*
X184914000Y-125062000D02*
X179899000Y-125062000D01*
X184914000Y-122842000D02*
X184914000Y-123388529D01*
X184914000Y-124515471D02*
X184914000Y-125062000D01*
X185674000Y-122842000D02*
X186434000Y-122842000D01*
X186434000Y-122842000D02*
X186434000Y-123952000D01*
X177890000Y-105813748D02*
X177890000Y-106336252D01*
X179310000Y-105813748D02*
X179310000Y-106336252D01*
X193496000Y-106635252D02*
X193496000Y-106112748D01*
X192076000Y-106635252D02*
X192076000Y-106112748D01*
X169358000Y-102302000D02*
X170688000Y-102302000D01*
X169358000Y-103632000D02*
X169358000Y-102302000D01*
X171958000Y-102302000D02*
X174558000Y-102302000D01*
X171958000Y-104902000D02*
X171958000Y-102302000D01*
X169358000Y-104902000D02*
X171958000Y-104902000D01*
X174558000Y-102302000D02*
X174558000Y-110042000D01*
X169358000Y-104902000D02*
X169358000Y-110042000D01*
X169358000Y-110042000D02*
X174558000Y-110042000D01*
X216080000Y-125130000D02*
X214750000Y-125130000D01*
X216080000Y-123800000D02*
X216080000Y-125130000D01*
X216080000Y-122530000D02*
X213420000Y-122530000D01*
X213420000Y-122530000D02*
X213420000Y-117390000D01*
X216080000Y-122530000D02*
X216080000Y-117390000D01*
X216080000Y-117390000D02*
X213420000Y-117390000D01*
X197830000Y-117340000D02*
X195170000Y-117340000D01*
X197830000Y-122480000D02*
X197830000Y-117340000D01*
X195170000Y-122480000D02*
X195170000Y-117340000D01*
X197830000Y-122480000D02*
X195170000Y-122480000D01*
X197830000Y-123750000D02*
X197830000Y-125080000D01*
X197830000Y-125080000D02*
X196500000Y-125080000D01*
X215480000Y-93890000D02*
X215636000Y-93890000D01*
X213164000Y-93890000D02*
X213320000Y-93890000D01*
X215479837Y-91288870D02*
G75*
G02X215480000Y-93370961I-1079837J-1041130D01*
G01*
X213320163Y-91288870D02*
G75*
G03X213320000Y-93370961I1079837J-1041130D01*
G01*
X215478608Y-90657665D02*
G75*
G02X215635516Y-93890000I-1078608J-1672335D01*
G01*
X213321392Y-90657665D02*
G75*
G03X213164484Y-93890000I1078608J-1672335D01*
G01*
X178530000Y-121004000D02*
X178530000Y-120674000D01*
X171990000Y-121004000D02*
X178530000Y-121004000D01*
X171990000Y-120674000D02*
X171990000Y-121004000D01*
X178530000Y-118264000D02*
X178530000Y-118594000D01*
X171990000Y-118264000D02*
X178530000Y-118264000D01*
X171990000Y-118594000D02*
X171990000Y-118264000D01*
X178530000Y-117575000D02*
X178530000Y-117245000D01*
X171990000Y-117575000D02*
X178530000Y-117575000D01*
X171990000Y-117245000D02*
X171990000Y-117575000D01*
X178530000Y-114835000D02*
X178530000Y-115165000D01*
X171990000Y-114835000D02*
X178530000Y-114835000D01*
X171990000Y-115165000D02*
X171990000Y-114835000D01*
D12*
X166266666Y-125334761D02*
X166409523Y-125382380D01*
X166647619Y-125382380D01*
X166742857Y-125334761D01*
X166790476Y-125287142D01*
X166838095Y-125191904D01*
X166838095Y-125096666D01*
X166790476Y-125001428D01*
X166742857Y-124953809D01*
X166647619Y-124906190D01*
X166457142Y-124858571D01*
X166361904Y-124810952D01*
X166314285Y-124763333D01*
X166266666Y-124668095D01*
X166266666Y-124572857D01*
X166314285Y-124477619D01*
X166361904Y-124430000D01*
X166457142Y-124382380D01*
X166695238Y-124382380D01*
X166838095Y-124430000D01*
X167171428Y-124382380D02*
X167409523Y-125382380D01*
X167600000Y-124668095D01*
X167790476Y-125382380D01*
X168028571Y-124382380D01*
X168933333Y-125382380D02*
X168361904Y-125382380D01*
X168647619Y-125382380D02*
X168647619Y-124382380D01*
X168552380Y-124525238D01*
X168457142Y-124620476D01*
X168361904Y-124668095D01*
X172154761Y-92202380D02*
X171821428Y-91726190D01*
X171583333Y-92202380D02*
X171583333Y-91202380D01*
X171964285Y-91202380D01*
X172059523Y-91250000D01*
X172107142Y-91297619D01*
X172154761Y-91392857D01*
X172154761Y-91535714D01*
X172107142Y-91630952D01*
X172059523Y-91678571D01*
X171964285Y-91726190D01*
X171583333Y-91726190D01*
X172440476Y-91202380D02*
X172773809Y-92202380D01*
X173107142Y-91202380D01*
X173964285Y-92202380D02*
X173392857Y-92202380D01*
X173678571Y-92202380D02*
X173678571Y-91202380D01*
X173583333Y-91345238D01*
X173488095Y-91440476D01*
X173392857Y-91488095D01*
X210107142Y-120916666D02*
X210154761Y-120964285D01*
X210202380Y-121107142D01*
X210202380Y-121202380D01*
X210154761Y-121345238D01*
X210059523Y-121440476D01*
X209964285Y-121488095D01*
X209773809Y-121535714D01*
X209630952Y-121535714D01*
X209440476Y-121488095D01*
X209345238Y-121440476D01*
X209250000Y-121345238D01*
X209202380Y-121202380D01*
X209202380Y-121107142D01*
X209250000Y-120964285D01*
X209297619Y-120916666D01*
X210202380Y-119964285D02*
X210202380Y-120535714D01*
X210202380Y-120250000D02*
X209202380Y-120250000D01*
X209345238Y-120345238D01*
X209440476Y-120440476D01*
X209488095Y-120535714D01*
X202857142Y-120916666D02*
X202904761Y-120964285D01*
X202952380Y-121107142D01*
X202952380Y-121202380D01*
X202904761Y-121345238D01*
X202809523Y-121440476D01*
X202714285Y-121488095D01*
X202523809Y-121535714D01*
X202380952Y-121535714D01*
X202190476Y-121488095D01*
X202095238Y-121440476D01*
X202000000Y-121345238D01*
X201952380Y-121202380D01*
X201952380Y-121107142D01*
X202000000Y-120964285D01*
X202047619Y-120916666D01*
X202285714Y-120059523D02*
X202952380Y-120059523D01*
X201904761Y-120297619D02*
X202619047Y-120535714D01*
X202619047Y-119916666D01*
X208982380Y-111471904D02*
X209791904Y-111471904D01*
X209887142Y-111424285D01*
X209934761Y-111376666D01*
X209982380Y-111281428D01*
X209982380Y-111090952D01*
X209934761Y-110995714D01*
X209887142Y-110948095D01*
X209791904Y-110900476D01*
X208982380Y-110900476D01*
X209982380Y-109900476D02*
X209982380Y-110471904D01*
X209982380Y-110186190D02*
X208982380Y-110186190D01*
X209125238Y-110281428D01*
X209220476Y-110376666D01*
X209268095Y-110471904D01*
X213285714Y-101154761D02*
X213428571Y-101202380D01*
X213666666Y-101202380D01*
X213761904Y-101154761D01*
X213809523Y-101107142D01*
X213857142Y-101011904D01*
X213857142Y-100916666D01*
X213809523Y-100821428D01*
X213761904Y-100773809D01*
X213666666Y-100726190D01*
X213476190Y-100678571D01*
X213380952Y-100630952D01*
X213333333Y-100583333D01*
X213285714Y-100488095D01*
X213285714Y-100392857D01*
X213333333Y-100297619D01*
X213380952Y-100250000D01*
X213476190Y-100202380D01*
X213714285Y-100202380D01*
X213857142Y-100250000D01*
X214285714Y-100678571D02*
X214619047Y-100678571D01*
X214761904Y-101202380D02*
X214285714Y-101202380D01*
X214285714Y-100202380D01*
X214761904Y-100202380D01*
X215190476Y-101202380D02*
X215190476Y-100202380D01*
X215761904Y-101202380D01*
X215761904Y-100202380D01*
X216190476Y-101154761D02*
X216333333Y-101202380D01*
X216571428Y-101202380D01*
X216666666Y-101154761D01*
X216714285Y-101107142D01*
X216761904Y-101011904D01*
X216761904Y-100916666D01*
X216714285Y-100821428D01*
X216666666Y-100773809D01*
X216571428Y-100726190D01*
X216380952Y-100678571D01*
X216285714Y-100630952D01*
X216238095Y-100583333D01*
X216190476Y-100488095D01*
X216190476Y-100392857D01*
X216238095Y-100297619D01*
X216285714Y-100250000D01*
X216380952Y-100202380D01*
X216619047Y-100202380D01*
X216761904Y-100250000D01*
X217714285Y-101202380D02*
X217142857Y-101202380D01*
X217428571Y-101202380D02*
X217428571Y-100202380D01*
X217333333Y-100345238D01*
X217238095Y-100440476D01*
X217142857Y-100488095D01*
X198466666Y-112604761D02*
X198609523Y-112652380D01*
X198847619Y-112652380D01*
X198942857Y-112604761D01*
X198990476Y-112557142D01*
X199038095Y-112461904D01*
X199038095Y-112366666D01*
X198990476Y-112271428D01*
X198942857Y-112223809D01*
X198847619Y-112176190D01*
X198657142Y-112128571D01*
X198561904Y-112080952D01*
X198514285Y-112033333D01*
X198466666Y-111938095D01*
X198466666Y-111842857D01*
X198514285Y-111747619D01*
X198561904Y-111700000D01*
X198657142Y-111652380D01*
X198895238Y-111652380D01*
X199038095Y-111700000D01*
X199371428Y-111652380D02*
X199609523Y-112652380D01*
X199800000Y-111938095D01*
X199990476Y-112652380D01*
X200228571Y-111652380D01*
X200561904Y-111747619D02*
X200609523Y-111700000D01*
X200704761Y-111652380D01*
X200942857Y-111652380D01*
X201038095Y-111700000D01*
X201085714Y-111747619D01*
X201133333Y-111842857D01*
X201133333Y-111938095D01*
X201085714Y-112080952D01*
X200514285Y-112652380D01*
X201133333Y-112652380D01*
X184284095Y-106052380D02*
X184284095Y-106861904D01*
X184331714Y-106957142D01*
X184379333Y-107004761D01*
X184474571Y-107052380D01*
X184665047Y-107052380D01*
X184760285Y-107004761D01*
X184807904Y-106957142D01*
X184855523Y-106861904D01*
X184855523Y-106052380D01*
X185284095Y-106147619D02*
X185331714Y-106100000D01*
X185426952Y-106052380D01*
X185665047Y-106052380D01*
X185760285Y-106100000D01*
X185807904Y-106147619D01*
X185855523Y-106242857D01*
X185855523Y-106338095D01*
X185807904Y-106480952D01*
X185236476Y-107052380D01*
X185855523Y-107052380D01*
X182546666Y-121626380D02*
X182546666Y-122340666D01*
X182499047Y-122483523D01*
X182403809Y-122578761D01*
X182260952Y-122626380D01*
X182165714Y-122626380D01*
X183546666Y-122626380D02*
X182975238Y-122626380D01*
X183260952Y-122626380D02*
X183260952Y-121626380D01*
X183165714Y-121769238D01*
X183070476Y-121864476D01*
X182975238Y-121912095D01*
X177687142Y-109035666D02*
X177734761Y-109083285D01*
X177782380Y-109226142D01*
X177782380Y-109321380D01*
X177734761Y-109464238D01*
X177639523Y-109559476D01*
X177544285Y-109607095D01*
X177353809Y-109654714D01*
X177210952Y-109654714D01*
X177020476Y-109607095D01*
X176925238Y-109559476D01*
X176830000Y-109464238D01*
X176782380Y-109321380D01*
X176782380Y-109226142D01*
X176830000Y-109083285D01*
X176877619Y-109035666D01*
X176782380Y-108702333D02*
X176782380Y-108083285D01*
X177163333Y-108416619D01*
X177163333Y-108273761D01*
X177210952Y-108178523D01*
X177258571Y-108130904D01*
X177353809Y-108083285D01*
X177591904Y-108083285D01*
X177687142Y-108130904D01*
X177734761Y-108178523D01*
X177782380Y-108273761D01*
X177782380Y-108559476D01*
X177734761Y-108654714D01*
X177687142Y-108702333D01*
X192619333Y-104191142D02*
X192571714Y-104238761D01*
X192428857Y-104286380D01*
X192333619Y-104286380D01*
X192190761Y-104238761D01*
X192095523Y-104143523D01*
X192047904Y-104048285D01*
X192000285Y-103857809D01*
X192000285Y-103714952D01*
X192047904Y-103524476D01*
X192095523Y-103429238D01*
X192190761Y-103334000D01*
X192333619Y-103286380D01*
X192428857Y-103286380D01*
X192571714Y-103334000D01*
X192619333Y-103381619D01*
X193000285Y-103381619D02*
X193047904Y-103334000D01*
X193143142Y-103286380D01*
X193381238Y-103286380D01*
X193476476Y-103334000D01*
X193524095Y-103381619D01*
X193571714Y-103476857D01*
X193571714Y-103572095D01*
X193524095Y-103714952D01*
X192952666Y-104286380D01*
X193571714Y-104286380D01*
X168854380Y-105592380D02*
X167854380Y-105592380D01*
X168806761Y-105163809D02*
X168854380Y-105020952D01*
X168854380Y-104782857D01*
X168806761Y-104687619D01*
X168759142Y-104640000D01*
X168663904Y-104592380D01*
X168568666Y-104592380D01*
X168473428Y-104640000D01*
X168425809Y-104687619D01*
X168378190Y-104782857D01*
X168330571Y-104973333D01*
X168282952Y-105068571D01*
X168235333Y-105116190D01*
X168140095Y-105163809D01*
X168044857Y-105163809D01*
X167949619Y-105116190D01*
X167902000Y-105068571D01*
X167854380Y-104973333D01*
X167854380Y-104735238D01*
X167902000Y-104592380D01*
X168854380Y-104163809D02*
X167854380Y-104163809D01*
X167854380Y-103782857D01*
X167902000Y-103687619D01*
X167949619Y-103640000D01*
X168044857Y-103592380D01*
X168187714Y-103592380D01*
X168282952Y-103640000D01*
X168330571Y-103687619D01*
X168378190Y-103782857D01*
X168378190Y-104163809D01*
X168854380Y-102640000D02*
X168854380Y-103211428D01*
X168854380Y-102925714D02*
X167854380Y-102925714D01*
X167997238Y-103020952D01*
X168092476Y-103116190D01*
X168140095Y-103211428D01*
X211269047Y-125552380D02*
X211459523Y-125552380D01*
X211554761Y-125600000D01*
X211650000Y-125695238D01*
X211697619Y-125885714D01*
X211697619Y-126219047D01*
X211650000Y-126409523D01*
X211554761Y-126504761D01*
X211459523Y-126552380D01*
X211269047Y-126552380D01*
X211173809Y-126504761D01*
X211078571Y-126409523D01*
X211030952Y-126219047D01*
X211030952Y-125885714D01*
X211078571Y-125695238D01*
X211173809Y-125600000D01*
X211269047Y-125552380D01*
X212126190Y-125552380D02*
X212126190Y-126361904D01*
X212173809Y-126457142D01*
X212221428Y-126504761D01*
X212316666Y-126552380D01*
X212507142Y-126552380D01*
X212602380Y-126504761D01*
X212650000Y-126457142D01*
X212697619Y-126361904D01*
X212697619Y-125552380D01*
X213030952Y-125552380D02*
X213602380Y-125552380D01*
X213316666Y-126552380D02*
X213316666Y-125552380D01*
X213935714Y-126552380D02*
X213935714Y-125552380D01*
X214316666Y-125552380D01*
X214411904Y-125600000D01*
X214459523Y-125647619D01*
X214507142Y-125742857D01*
X214507142Y-125885714D01*
X214459523Y-125980952D01*
X214411904Y-126028571D01*
X214316666Y-126076190D01*
X213935714Y-126076190D01*
X214935714Y-125552380D02*
X214935714Y-126361904D01*
X214983333Y-126457142D01*
X215030952Y-126504761D01*
X215126190Y-126552380D01*
X215316666Y-126552380D01*
X215411904Y-126504761D01*
X215459523Y-126457142D01*
X215507142Y-126361904D01*
X215507142Y-125552380D01*
X215840476Y-125552380D02*
X216411904Y-125552380D01*
X216126190Y-126552380D02*
X216126190Y-125552380D01*
X217269047Y-126552380D02*
X216697619Y-126552380D01*
X216983333Y-126552380D02*
X216983333Y-125552380D01*
X216888095Y-125695238D01*
X216792857Y-125790476D01*
X216697619Y-125838095D01*
X194095238Y-126532380D02*
X194095238Y-125532380D01*
X194571428Y-126532380D02*
X194571428Y-125532380D01*
X195142857Y-126532380D01*
X195142857Y-125532380D01*
X195619047Y-126532380D02*
X195619047Y-125532380D01*
X196000000Y-125532380D01*
X196095238Y-125580000D01*
X196142857Y-125627619D01*
X196190476Y-125722857D01*
X196190476Y-125865714D01*
X196142857Y-125960952D01*
X196095238Y-126008571D01*
X196000000Y-126056190D01*
X195619047Y-126056190D01*
X196619047Y-125532380D02*
X196619047Y-126341904D01*
X196666666Y-126437142D01*
X196714285Y-126484761D01*
X196809523Y-126532380D01*
X197000000Y-126532380D01*
X197095238Y-126484761D01*
X197142857Y-126437142D01*
X197190476Y-126341904D01*
X197190476Y-125532380D01*
X197523809Y-125532380D02*
X198095238Y-125532380D01*
X197809523Y-126532380D02*
X197809523Y-125532380D01*
X198952380Y-126532380D02*
X198380952Y-126532380D01*
X198666666Y-126532380D02*
X198666666Y-125532380D01*
X198571428Y-125675238D01*
X198476190Y-125770476D01*
X198380952Y-125818095D01*
X217646380Y-93068095D02*
X216646380Y-93068095D01*
X216646380Y-92830000D01*
X216694000Y-92687142D01*
X216789238Y-92591904D01*
X216884476Y-92544285D01*
X217074952Y-92496666D01*
X217217809Y-92496666D01*
X217408285Y-92544285D01*
X217503523Y-92591904D01*
X217598761Y-92687142D01*
X217646380Y-92830000D01*
X217646380Y-93068095D01*
X217646380Y-91544285D02*
X217646380Y-92115714D01*
X217646380Y-91830000D02*
X216646380Y-91830000D01*
X216789238Y-91925238D01*
X216884476Y-92020476D01*
X216932095Y-92115714D01*
X175093333Y-120086380D02*
X174760000Y-119610190D01*
X174521904Y-120086380D02*
X174521904Y-119086380D01*
X174902857Y-119086380D01*
X174998095Y-119134000D01*
X175045714Y-119181619D01*
X175093333Y-119276857D01*
X175093333Y-119419714D01*
X175045714Y-119514952D01*
X174998095Y-119562571D01*
X174902857Y-119610190D01*
X174521904Y-119610190D01*
X175474285Y-119181619D02*
X175521904Y-119134000D01*
X175617142Y-119086380D01*
X175855238Y-119086380D01*
X175950476Y-119134000D01*
X175998095Y-119181619D01*
X176045714Y-119276857D01*
X176045714Y-119372095D01*
X175998095Y-119514952D01*
X175426666Y-120086380D01*
X176045714Y-120086380D01*
X175093333Y-116530380D02*
X174760000Y-116054190D01*
X174521904Y-116530380D02*
X174521904Y-115530380D01*
X174902857Y-115530380D01*
X174998095Y-115578000D01*
X175045714Y-115625619D01*
X175093333Y-115720857D01*
X175093333Y-115863714D01*
X175045714Y-115958952D01*
X174998095Y-116006571D01*
X174902857Y-116054190D01*
X174521904Y-116054190D01*
X176045714Y-116530380D02*
X175474285Y-116530380D01*
X175760000Y-116530380D02*
X175760000Y-115530380D01*
X175664761Y-115673238D01*
X175569523Y-115768476D01*
X175474285Y-115816095D01*
M02*
