M48
; DRILL file {KiCad 6.0.7-f9a2dced07~116~ubuntu20.04.1} date Thu 22 Dec 2022 05:50:39 PM CET
; FORMAT={-:-/ absolute / inch / decimal}
; #@! TF.CreationDate,2022-12-22T17:50:39+01:00
; #@! TF.GenerationSoftware,Kicad,Pcbnew,6.0.7-f9a2dced07~116~ubuntu20.04.1
; #@! TF.FileFunction,Plated,1,2,PTH
FMAT,2
INCH
; #@! TA.AperFunction,Plated,PTH,ViaDrill
T1C0.0157
; #@! TA.AperFunction,Plated,PTH,ComponentDrill
T2C0.0197
; #@! TA.AperFunction,Plated,PTH,ComponentDrill
T3C0.0256
; #@! TA.AperFunction,Plated,PTH,ComponentDrill
T4C0.0315
; #@! TA.AperFunction,Plated,PTH,ComponentDrill
T5C0.0354
; #@! TA.AperFunction,Plated,PTH,ComponentDrill
T6C0.0394
%
G90
G05
T1
X4.0591Y-3.2441
X4.0669Y-3.0945
X4.0925Y-3.8307
X4.0984Y-3.7835
X4.1181Y-3.0945
X4.1693Y-3.0945
X4.2244Y-3.0945
X4.2461Y-3.4961
X4.2598Y-3.7323
X4.2677Y-3.5512
X4.2756Y-3.4094
X4.2756Y-3.6772
X4.2992Y-3.2441
X4.3002Y-3.5256
X4.3622Y-3.5256
X4.3839Y-3.3524
X4.4272Y-3.1654
X4.437Y-3.4193
X4.5315Y-3.0906
X4.5866Y-3.0906
X4.6417Y-3.0906
X4.6811Y-3.3228
X4.6969Y-3.0906
X4.7539Y-3.2185
X4.7539Y-3.5886
X4.8307Y-2.9803
X4.878Y-3.1555
X4.9252Y-3.5787
X4.9911Y-3.1654
X5.0709Y-3.2165
X5.0929Y-3.913
X5.1011Y-2.9485
X5.1058Y-3.6786
X5.1378Y-3.2323
X5.1575Y-3.6319
X5.1575Y-3.7697
X5.1969Y-3.6319
X5.1969Y-3.8012
X5.2323Y-3.0197
X5.2402Y-3.8356
X5.2402Y-3.6319
X5.2887Y-3.2982
X5.2894Y-3.6319
X5.2894Y-3.7283
X5.3071Y-3.4567
X5.312Y-3.33
X5.3308Y-3.2558
X5.3346Y-2.9961
X5.3465Y-2.9055
X5.378Y-3.2733
X5.3858Y-3.4173
X5.3898Y-3.0531
X5.4232Y-3.2323
X5.4528Y-3.4173
X5.4651Y-3.0753
X5.5582Y-3.127
X5.5591Y-3.6339
X5.5645Y-3.7303
X5.6013Y-3.1664
X5.622Y-3.2067
X5.7589Y-3.5738
T2
X5.6228Y-2.9528
X5.6228Y-3.0528
X5.7228Y-2.9528
X5.7228Y-3.0528
X5.8228Y-2.9528
X5.8228Y-3.0528
T3
X5.3154Y-3.8484
X5.3654Y-3.8484
X5.4154Y-3.8484
X5.4654Y-3.8484
X5.5154Y-3.8484
T4
X4.5827Y-3.6929
X4.5827Y-3.7929
X4.8827Y-3.6929
X4.8827Y-3.7929
X5.0512Y-3.7345
X5.0512Y-3.8132
T5
X5.8067Y-3.3012
X5.8067Y-3.4012
X5.8067Y-3.5012
T6
X5.0157Y-3.3827
X5.0157Y-3.4827
X5.0157Y-3.5827
X5.6929Y-3.2126
X5.6929Y-3.3126
X5.6929Y-3.4126
X5.6929Y-3.5126
T0
M30
