G04 #@! TF.GenerationSoftware,KiCad,Pcbnew,(5.1.5)-3*
G04 #@! TF.CreationDate,2020-03-27T14:12:53+01:00*
G04 #@! TF.ProjectId,mimu_phantom,6d696d75-5f70-4686-916e-746f6d2e6b69,rev?*
G04 #@! TF.SameCoordinates,Original*
G04 #@! TF.FileFunction,Soldermask,Bot*
G04 #@! TF.FilePolarity,Negative*
%FSLAX46Y46*%
G04 Gerber Fmt 4.6, Leading zero omitted, Abs format (unit mm)*
G04 Created by KiCad (PCBNEW (5.1.5)-3) date 2020-03-27 14:12:53*
%MOMM*%
%LPD*%
G04 APERTURE LIST*
%ADD10R,1.200000X1.200000*%
%ADD11C,1.200000*%
%ADD12C,1.600000*%
%ADD13O,1.600000X1.600000*%
%ADD14C,4.600000*%
%ADD15C,1.800000*%
%ADD16R,1.600000X1.600000*%
%ADD17O,1.700000X1.700000*%
%ADD18R,1.700000X1.700000*%
%ADD19O,1.000000X1.000000*%
%ADD20R,1.000000X1.000000*%
%ADD21R,1.800000X1.800000*%
G04 APERTURE END LIST*
D10*
X132000000Y-90200000D03*
D11*
X130000000Y-90200000D03*
D10*
X134800000Y-94950000D03*
D11*
X136800000Y-94950000D03*
D10*
X134800000Y-90200000D03*
D11*
X136800000Y-90200000D03*
D12*
X127800000Y-84750000D03*
D13*
X135420000Y-84750000D03*
D12*
X138400000Y-78600000D03*
D13*
X138400000Y-86220000D03*
D12*
X134750000Y-76750000D03*
X129750000Y-76750000D03*
X133500000Y-76750000D03*
X131000000Y-76750000D03*
D14*
X112900000Y-78000000D03*
X102900000Y-78000000D03*
D15*
X110400000Y-74700000D03*
X107900000Y-74700000D03*
X105400000Y-74700000D03*
D13*
X120000000Y-72130000D03*
X122540000Y-79750000D03*
X122540000Y-72130000D03*
D16*
X120000000Y-79750000D03*
D17*
X155900000Y-88120000D03*
X155900000Y-85580000D03*
X155900000Y-83040000D03*
D18*
X155900000Y-80500000D03*
D17*
X134040000Y-72250000D03*
X131500000Y-72250000D03*
D18*
X128960000Y-72250000D03*
D19*
X152480000Y-97000000D03*
X151210000Y-97000000D03*
X149940000Y-97000000D03*
X148670000Y-97000000D03*
D20*
X147400000Y-97000000D03*
D17*
X153120000Y-76800000D03*
X153120000Y-74260000D03*
X155660000Y-76800000D03*
X155660000Y-74260000D03*
X158200000Y-76800000D03*
D18*
X158200000Y-74260000D03*
D17*
X134040000Y-81000000D03*
X131500000Y-81000000D03*
D18*
X128960000Y-81000000D03*
D15*
X157400000Y-93460000D03*
D21*
X157400000Y-96000000D03*
M02*
