G04 #@! TF.GenerationSoftware,KiCad,Pcbnew,5.1.10-6.fc34*
G04 #@! TF.CreationDate,2021-10-17T22:45:22+02:00*
G04 #@! TF.ProjectId,mimu_phantom,6d696d75-5f70-4686-916e-746f6d2e6b69,rev?*
G04 #@! TF.SameCoordinates,Original*
G04 #@! TF.FileFunction,Copper,L2,Bot*
G04 #@! TF.FilePolarity,Positive*
%FSLAX46Y46*%
G04 Gerber Fmt 4.6, Leading zero omitted, Abs format (unit mm)*
G04 Created by KiCad (PCBNEW 5.1.10-6.fc34) date 2021-10-17 22:45:22*
%MOMM*%
%LPD*%
G01*
G04 APERTURE LIST*
G04 #@! TA.AperFunction,ComponentPad*
%ADD10O,1.700000X1.700000*%
G04 #@! TD*
G04 #@! TA.AperFunction,ComponentPad*
%ADD11R,1.700000X1.700000*%
G04 #@! TD*
G04 #@! TA.AperFunction,ComponentPad*
%ADD12C,1.800000*%
G04 #@! TD*
G04 #@! TA.AperFunction,ComponentPad*
%ADD13R,1.800000X1.800000*%
G04 #@! TD*
G04 #@! TA.AperFunction,ComponentPad*
%ADD14O,1.600000X1.600000*%
G04 #@! TD*
G04 #@! TA.AperFunction,ComponentPad*
%ADD15R,1.600000X1.600000*%
G04 #@! TD*
G04 #@! TA.AperFunction,ComponentPad*
%ADD16O,1.000000X1.000000*%
G04 #@! TD*
G04 #@! TA.AperFunction,ComponentPad*
%ADD17R,1.000000X1.000000*%
G04 #@! TD*
G04 #@! TA.AperFunction,ViaPad*
%ADD18C,0.800000*%
G04 #@! TD*
G04 #@! TA.AperFunction,Conductor*
%ADD19C,0.250000*%
G04 #@! TD*
G04 #@! TA.AperFunction,Conductor*
%ADD20C,0.500000*%
G04 #@! TD*
G04 #@! TA.AperFunction,Conductor*
%ADD21C,0.750000*%
G04 #@! TD*
G04 #@! TA.AperFunction,Conductor*
%ADD22C,0.254000*%
G04 #@! TD*
G04 #@! TA.AperFunction,Conductor*
%ADD23C,0.100000*%
G04 #@! TD*
G04 APERTURE END LIST*
D10*
X144850000Y-89270000D03*
X144850000Y-86730000D03*
X144850000Y-84190000D03*
D11*
X144850000Y-81650000D03*
D12*
X147600000Y-82820000D03*
X147600000Y-85360000D03*
D13*
X147600000Y-87900000D03*
D14*
X123250000Y-75330000D03*
X128330000Y-82950000D03*
X125790000Y-75330000D03*
X125790000Y-82950000D03*
X128330000Y-75330000D03*
D15*
X123250000Y-82950000D03*
D14*
X124020000Y-93800000D03*
X116400000Y-96340000D03*
X124020000Y-96340000D03*
D15*
X116400000Y-93800000D03*
D16*
X140090000Y-97750000D03*
X138820000Y-97750000D03*
X137550000Y-97750000D03*
X136280000Y-97750000D03*
D17*
X135010000Y-97750000D03*
D10*
X142870000Y-77550000D03*
X142870000Y-75010000D03*
X145410000Y-77550000D03*
X145410000Y-75010000D03*
X147950000Y-77550000D03*
D11*
X147950000Y-75010000D03*
D10*
X127400000Y-85920000D03*
X127400000Y-88460000D03*
D11*
X127400000Y-91000000D03*
D18*
X136800000Y-85950000D03*
X137862803Y-84460721D03*
X134350000Y-92250000D03*
X134350000Y-94412500D03*
X122650000Y-96740001D03*
X122650000Y-98500000D03*
X133150000Y-80700000D03*
X142800000Y-81450000D03*
X141177114Y-79424579D03*
X142273959Y-80426041D03*
X131000000Y-95750000D03*
X131000000Y-92250000D03*
X132000000Y-92250000D03*
X132000000Y-96550000D03*
X133100000Y-92250000D03*
X133099905Y-97425335D03*
X134333470Y-83725957D03*
X134900000Y-84550000D03*
X108287500Y-80972498D03*
X101700000Y-74500000D03*
X109800000Y-93100000D03*
X111200000Y-87650000D03*
X107700000Y-86450000D03*
X106100000Y-90050000D03*
X116250000Y-78800000D03*
X114900000Y-78750000D03*
X120750000Y-91150000D03*
X107700000Y-93250000D03*
X103250000Y-78050000D03*
X105950000Y-78000000D03*
X104750000Y-77950000D03*
X111550000Y-80250000D03*
X103050000Y-97150000D03*
X102200000Y-77950000D03*
X110450000Y-85000000D03*
X107300000Y-94650000D03*
X129687500Y-93437500D03*
X107500000Y-90050000D03*
X129150000Y-92750000D03*
X103225000Y-95575000D03*
X108325000Y-89400000D03*
X122798959Y-78851041D03*
X125550000Y-89500000D03*
X125800000Y-86950000D03*
X137750000Y-82450000D03*
X120350000Y-84500000D03*
X134950000Y-87500000D03*
X144800000Y-94300000D03*
X144800000Y-91900000D03*
X131500000Y-82800000D03*
X125389999Y-81000000D03*
D19*
X125790000Y-75330000D02*
X127170000Y-75330000D01*
D20*
X136800000Y-85950000D02*
X136800000Y-85523524D01*
X136800000Y-85523524D02*
X137862803Y-84460721D01*
D21*
X134350000Y-92250000D02*
X134350000Y-94237500D01*
D19*
X122650000Y-96740001D02*
X122650000Y-98500000D01*
D20*
X147750000Y-80500000D02*
X147750000Y-77950000D01*
X146600000Y-81650000D02*
X147750000Y-80500000D01*
X144850000Y-81650000D02*
X146600000Y-81650000D01*
D19*
X133150000Y-80700000D02*
X137250000Y-80700000D01*
X137250000Y-80700000D02*
X142850000Y-75100000D01*
X145410000Y-78840000D02*
X145410000Y-77550000D01*
X142800000Y-81450000D02*
X145410000Y-78840000D01*
X144234999Y-76185001D02*
X144560001Y-75859999D01*
X144560001Y-75859999D02*
X145410000Y-75010000D01*
X142514999Y-76185001D02*
X144234999Y-76185001D01*
X141177114Y-77522886D02*
X142514999Y-76185001D01*
X141177114Y-79424579D02*
X141177114Y-77522886D01*
X147950000Y-76110000D02*
X147950000Y-75010000D01*
X147874999Y-76185001D02*
X147950000Y-76110000D01*
X145035997Y-76185001D02*
X147874999Y-76185001D01*
X144234999Y-76985999D02*
X145035997Y-76185001D01*
X144234999Y-78465001D02*
X144234999Y-76985999D01*
X142273959Y-80426041D02*
X144234999Y-78465001D01*
X131000000Y-92250000D02*
X131000000Y-95750000D01*
X132000000Y-96550000D02*
X132000000Y-92250000D01*
X133100000Y-97200000D02*
X133100000Y-92250000D01*
X133099905Y-97425335D02*
X133100000Y-97200000D01*
X133933471Y-84792883D02*
X136770597Y-87630009D01*
X134333470Y-83725957D02*
X133933471Y-84125956D01*
X133933471Y-84125956D02*
X133933471Y-84792883D01*
X136770597Y-87630009D02*
X142730009Y-87630009D01*
X142730009Y-87630009D02*
X144100000Y-89000000D01*
X134900000Y-85123002D02*
X134900000Y-84550000D01*
X136956997Y-87179999D02*
X134900000Y-85123002D01*
X136956997Y-87179999D02*
X144120001Y-87179999D01*
X144120001Y-87179999D02*
X144450000Y-86850000D01*
D20*
X108300000Y-80959998D02*
X108287500Y-80972498D01*
X103708002Y-74500000D02*
X101700000Y-74500000D01*
X108287500Y-79079498D02*
X103708002Y-74500000D01*
X108287500Y-80972498D02*
X108287500Y-79079498D01*
D19*
X109800000Y-89050000D02*
X111200000Y-87650000D01*
X109800000Y-89050000D02*
X109800000Y-93100000D01*
D20*
X107700000Y-86450000D02*
X107700000Y-88450000D01*
X107700000Y-88450000D02*
X106100000Y-90050000D01*
D19*
X122798959Y-78851041D02*
X124848959Y-78851041D01*
X124848959Y-78851041D02*
X128350000Y-75350000D01*
X125550000Y-89500000D02*
X125550000Y-87200000D01*
X125550000Y-87200000D02*
X125800000Y-86950000D01*
X130945002Y-82000000D02*
X128445002Y-84500000D01*
X132473006Y-82000000D02*
X130945002Y-82000000D01*
X128445002Y-84500000D02*
X120350000Y-84500000D01*
X132923006Y-82450000D02*
X132473006Y-82000000D01*
X137750000Y-82450000D02*
X132923006Y-82450000D01*
X142850000Y-92350000D02*
X144800000Y-94300000D01*
X142750000Y-92250000D02*
X142850000Y-92350000D01*
X139700000Y-92250000D02*
X142750000Y-92250000D01*
X134950000Y-87500000D02*
X139700000Y-92250000D01*
X144400000Y-91500000D02*
X144800000Y-91900000D01*
X143975000Y-91075000D02*
X144400000Y-91500000D01*
X131500000Y-83015685D02*
X131500000Y-82800000D01*
X139559315Y-91075000D02*
X131500000Y-83015685D01*
X143975000Y-91075000D02*
X139559315Y-91075000D01*
X123250000Y-83000000D02*
X123200000Y-83000000D01*
X123250000Y-82950000D02*
X123400000Y-82950000D01*
X125350000Y-81000000D02*
X125389999Y-81000000D01*
X123400000Y-82950000D02*
X125350000Y-81000000D01*
D22*
X129792616Y-82077584D02*
X129600978Y-82269222D01*
X129444637Y-82035241D01*
X129244759Y-81835363D01*
X129009727Y-81678320D01*
X128748574Y-81570147D01*
X128471335Y-81515000D01*
X128188665Y-81515000D01*
X127911426Y-81570147D01*
X127650273Y-81678320D01*
X127415241Y-81835363D01*
X127215363Y-82035241D01*
X127058320Y-82270273D01*
X126950147Y-82531426D01*
X126895000Y-82808665D01*
X126895000Y-83091335D01*
X126950147Y-83368574D01*
X127058320Y-83629727D01*
X127132002Y-83740000D01*
X124688072Y-83740000D01*
X124688072Y-82736730D01*
X125389802Y-82035000D01*
X125491938Y-82035000D01*
X125691897Y-81995226D01*
X125880255Y-81917205D01*
X126049773Y-81803937D01*
X126193936Y-81659774D01*
X126307204Y-81490256D01*
X126385225Y-81301898D01*
X126424999Y-81101939D01*
X126424999Y-80898061D01*
X126385225Y-80698102D01*
X126307204Y-80509744D01*
X126193936Y-80340226D01*
X126049773Y-80196063D01*
X125880255Y-80082795D01*
X125691897Y-80004774D01*
X125491938Y-79965000D01*
X125288060Y-79965000D01*
X125088101Y-80004774D01*
X124899743Y-80082795D01*
X124730225Y-80196063D01*
X124586062Y-80340226D01*
X124472794Y-80509744D01*
X124394773Y-80698102D01*
X124354999Y-80898061D01*
X124354999Y-80920198D01*
X123763270Y-81511928D01*
X122450000Y-81511928D01*
X122325518Y-81524188D01*
X122205820Y-81560498D01*
X122095506Y-81619463D01*
X121998815Y-81698815D01*
X121919463Y-81795506D01*
X121860498Y-81905820D01*
X121824188Y-82025518D01*
X121811928Y-82150000D01*
X121811928Y-83740000D01*
X121053711Y-83740000D01*
X121009774Y-83696063D01*
X120840256Y-83582795D01*
X120651898Y-83504774D01*
X120451939Y-83465000D01*
X120248061Y-83465000D01*
X120048102Y-83504774D01*
X119859744Y-83582795D01*
X119690226Y-83696063D01*
X119546063Y-83840226D01*
X119432795Y-84009744D01*
X119354774Y-84198102D01*
X119315000Y-84398061D01*
X119315000Y-84601939D01*
X119354774Y-84801898D01*
X119432795Y-84990256D01*
X119546063Y-85159774D01*
X119690226Y-85303937D01*
X119859744Y-85417205D01*
X120048102Y-85495226D01*
X120248061Y-85535000D01*
X120451939Y-85535000D01*
X120651898Y-85495226D01*
X120840256Y-85417205D01*
X121009774Y-85303937D01*
X121053711Y-85260000D01*
X126066029Y-85260000D01*
X125972068Y-85486842D01*
X125915000Y-85773740D01*
X125915000Y-85917598D01*
X125901939Y-85915000D01*
X125698061Y-85915000D01*
X125498102Y-85954774D01*
X125309744Y-86032795D01*
X125140226Y-86146063D01*
X124996063Y-86290226D01*
X124882795Y-86459744D01*
X124804774Y-86648102D01*
X124765000Y-86848061D01*
X124765000Y-87051939D01*
X124789015Y-87172674D01*
X124786324Y-87200000D01*
X124790001Y-87237332D01*
X124790000Y-88796289D01*
X124746063Y-88840226D01*
X124632795Y-89009744D01*
X124554774Y-89198102D01*
X124515000Y-89398061D01*
X124515000Y-89601939D01*
X124554774Y-89801898D01*
X124632795Y-89990256D01*
X124746063Y-90159774D01*
X124890226Y-90303937D01*
X125059744Y-90417205D01*
X125248102Y-90495226D01*
X125448061Y-90535000D01*
X125651939Y-90535000D01*
X125851898Y-90495226D01*
X126040256Y-90417205D01*
X126209774Y-90303937D01*
X126353937Y-90159774D01*
X126467205Y-89990256D01*
X126545226Y-89801898D01*
X126567532Y-89689757D01*
X126696589Y-89775990D01*
X126966842Y-89887932D01*
X127253740Y-89945000D01*
X127546260Y-89945000D01*
X127833158Y-89887932D01*
X128103411Y-89775990D01*
X128346632Y-89613475D01*
X128553475Y-89406632D01*
X128715990Y-89163411D01*
X128827932Y-88893158D01*
X128885000Y-88606260D01*
X128885000Y-88313740D01*
X128827932Y-88026842D01*
X128715990Y-87756589D01*
X128553475Y-87513368D01*
X128346632Y-87306525D01*
X128172240Y-87190000D01*
X128346632Y-87073475D01*
X128553475Y-86866632D01*
X128715990Y-86623411D01*
X128827932Y-86353158D01*
X128885000Y-86066260D01*
X128885000Y-85773740D01*
X128827932Y-85486842D01*
X128715990Y-85216589D01*
X128713438Y-85212769D01*
X128737249Y-85205546D01*
X128869278Y-85134974D01*
X128985003Y-85040001D01*
X129008806Y-85010997D01*
X129797383Y-84222421D01*
X129823000Y-95750282D01*
X129823000Y-99315000D01*
X123293217Y-99315000D01*
X123309774Y-99303937D01*
X123453937Y-99159774D01*
X123567205Y-98990256D01*
X123645226Y-98801898D01*
X123685000Y-98601939D01*
X123685000Y-98398061D01*
X123645226Y-98198102D01*
X123567205Y-98009744D01*
X123453937Y-97840226D01*
X123410000Y-97796289D01*
X123410000Y-97640562D01*
X123601426Y-97719853D01*
X123878665Y-97775000D01*
X124161335Y-97775000D01*
X124438574Y-97719853D01*
X124699727Y-97611680D01*
X124934759Y-97454637D01*
X125134637Y-97254759D01*
X125291680Y-97019727D01*
X125399853Y-96758574D01*
X125455000Y-96481335D01*
X125455000Y-96198665D01*
X125399853Y-95921426D01*
X125291680Y-95660273D01*
X125134637Y-95425241D01*
X124934759Y-95225363D01*
X124702241Y-95070000D01*
X124934759Y-94914637D01*
X125134637Y-94714759D01*
X125291680Y-94479727D01*
X125399853Y-94218574D01*
X125455000Y-93941335D01*
X125455000Y-93658665D01*
X125399853Y-93381426D01*
X125291680Y-93120273D01*
X125134637Y-92885241D01*
X124934759Y-92685363D01*
X124699727Y-92528320D01*
X124438574Y-92420147D01*
X124161335Y-92365000D01*
X123878665Y-92365000D01*
X123601426Y-92420147D01*
X123340273Y-92528320D01*
X123105241Y-92685363D01*
X122905363Y-92885241D01*
X122748320Y-93120273D01*
X122640147Y-93381426D01*
X122585000Y-93658665D01*
X122585000Y-93941335D01*
X122640147Y-94218574D01*
X122748320Y-94479727D01*
X122905363Y-94714759D01*
X123105241Y-94914637D01*
X123337759Y-95070000D01*
X123105241Y-95225363D01*
X122905363Y-95425241D01*
X122748320Y-95660273D01*
X122729793Y-95705001D01*
X122548061Y-95705001D01*
X122348102Y-95744775D01*
X122159744Y-95822796D01*
X121990226Y-95936064D01*
X121846063Y-96080227D01*
X121732795Y-96249745D01*
X121654774Y-96438103D01*
X121615000Y-96638062D01*
X121615000Y-96841940D01*
X121654774Y-97041899D01*
X121732795Y-97230257D01*
X121846063Y-97399775D01*
X121890000Y-97443712D01*
X121890001Y-97796288D01*
X121846063Y-97840226D01*
X121732795Y-98009744D01*
X121654774Y-98198102D01*
X121615000Y-98398061D01*
X121615000Y-98601939D01*
X121654774Y-98801898D01*
X121732795Y-98990256D01*
X121846063Y-99159774D01*
X121990226Y-99303937D01*
X122006783Y-99315000D01*
X100685000Y-99315000D01*
X100685000Y-92998061D01*
X108765000Y-92998061D01*
X108765000Y-93201939D01*
X108804774Y-93401898D01*
X108882795Y-93590256D01*
X108996063Y-93759774D01*
X109140226Y-93903937D01*
X109309744Y-94017205D01*
X109498102Y-94095226D01*
X109698061Y-94135000D01*
X109901939Y-94135000D01*
X110101898Y-94095226D01*
X110290256Y-94017205D01*
X110459774Y-93903937D01*
X110603937Y-93759774D01*
X110717205Y-93590256D01*
X110795226Y-93401898D01*
X110835000Y-93201939D01*
X110835000Y-93000000D01*
X114961928Y-93000000D01*
X114961928Y-94600000D01*
X114974188Y-94724482D01*
X115010498Y-94844180D01*
X115069463Y-94954494D01*
X115148815Y-95051185D01*
X115245506Y-95130537D01*
X115355820Y-95189502D01*
X115475518Y-95225812D01*
X115600000Y-95238072D01*
X117200000Y-95238072D01*
X117324482Y-95225812D01*
X117444180Y-95189502D01*
X117554494Y-95130537D01*
X117651185Y-95051185D01*
X117730537Y-94954494D01*
X117789502Y-94844180D01*
X117825812Y-94724482D01*
X117838072Y-94600000D01*
X117838072Y-93000000D01*
X117825812Y-92875518D01*
X117789502Y-92755820D01*
X117730537Y-92645506D01*
X117651185Y-92548815D01*
X117554494Y-92469463D01*
X117444180Y-92410498D01*
X117324482Y-92374188D01*
X117200000Y-92361928D01*
X115600000Y-92361928D01*
X115475518Y-92374188D01*
X115355820Y-92410498D01*
X115245506Y-92469463D01*
X115148815Y-92548815D01*
X115069463Y-92645506D01*
X115010498Y-92755820D01*
X114974188Y-92875518D01*
X114961928Y-93000000D01*
X110835000Y-93000000D01*
X110835000Y-92998061D01*
X110795226Y-92798102D01*
X110717205Y-92609744D01*
X110603937Y-92440226D01*
X110560000Y-92396289D01*
X110560000Y-89364801D01*
X111239802Y-88685000D01*
X111301939Y-88685000D01*
X111501898Y-88645226D01*
X111690256Y-88567205D01*
X111859774Y-88453937D01*
X112003937Y-88309774D01*
X112117205Y-88140256D01*
X112195226Y-87951898D01*
X112235000Y-87751939D01*
X112235000Y-87548061D01*
X112195226Y-87348102D01*
X112117205Y-87159744D01*
X112003937Y-86990226D01*
X111859774Y-86846063D01*
X111690256Y-86732795D01*
X111501898Y-86654774D01*
X111301939Y-86615000D01*
X111098061Y-86615000D01*
X110898102Y-86654774D01*
X110709744Y-86732795D01*
X110540226Y-86846063D01*
X110396063Y-86990226D01*
X110282795Y-87159744D01*
X110204774Y-87348102D01*
X110165000Y-87548061D01*
X110165000Y-87610198D01*
X109289003Y-88486196D01*
X109259999Y-88509999D01*
X109213052Y-88567205D01*
X109165026Y-88625724D01*
X109154602Y-88645226D01*
X109094454Y-88757754D01*
X109050997Y-88901015D01*
X109040000Y-89012668D01*
X109040000Y-89012678D01*
X109036324Y-89050000D01*
X109040000Y-89087323D01*
X109040001Y-92396288D01*
X108996063Y-92440226D01*
X108882795Y-92609744D01*
X108804774Y-92798102D01*
X108765000Y-92998061D01*
X100685000Y-92998061D01*
X100685000Y-89948061D01*
X105065000Y-89948061D01*
X105065000Y-90151939D01*
X105104774Y-90351898D01*
X105182795Y-90540256D01*
X105296063Y-90709774D01*
X105440226Y-90853937D01*
X105609744Y-90967205D01*
X105798102Y-91045226D01*
X105998061Y-91085000D01*
X106201939Y-91085000D01*
X106401898Y-91045226D01*
X106590256Y-90967205D01*
X106759774Y-90853937D01*
X106903937Y-90709774D01*
X107017205Y-90540256D01*
X107095226Y-90351898D01*
X107106535Y-90295043D01*
X108295049Y-89106530D01*
X108328817Y-89078817D01*
X108383106Y-89012667D01*
X108439411Y-88944059D01*
X108521588Y-88790314D01*
X108521589Y-88790313D01*
X108572195Y-88623490D01*
X108585000Y-88493477D01*
X108585000Y-88493469D01*
X108589281Y-88450000D01*
X108585000Y-88406531D01*
X108585000Y-86988454D01*
X108617205Y-86940256D01*
X108695226Y-86751898D01*
X108735000Y-86551939D01*
X108735000Y-86348061D01*
X108695226Y-86148102D01*
X108617205Y-85959744D01*
X108503937Y-85790226D01*
X108359774Y-85646063D01*
X108190256Y-85532795D01*
X108001898Y-85454774D01*
X107801939Y-85415000D01*
X107598061Y-85415000D01*
X107398102Y-85454774D01*
X107209744Y-85532795D01*
X107040226Y-85646063D01*
X106896063Y-85790226D01*
X106782795Y-85959744D01*
X106704774Y-86148102D01*
X106665000Y-86348061D01*
X106665000Y-86551939D01*
X106704774Y-86751898D01*
X106782795Y-86940256D01*
X106815000Y-86988455D01*
X106815001Y-88083420D01*
X105854957Y-89043465D01*
X105798102Y-89054774D01*
X105609744Y-89132795D01*
X105440226Y-89246063D01*
X105296063Y-89390226D01*
X105182795Y-89559744D01*
X105104774Y-89748102D01*
X105065000Y-89948061D01*
X100685000Y-89948061D01*
X100685000Y-74702487D01*
X100704774Y-74801898D01*
X100782795Y-74990256D01*
X100896063Y-75159774D01*
X101040226Y-75303937D01*
X101209744Y-75417205D01*
X101398102Y-75495226D01*
X101598061Y-75535000D01*
X101801939Y-75535000D01*
X102001898Y-75495226D01*
X102190256Y-75417205D01*
X102238454Y-75385000D01*
X103341424Y-75385000D01*
X107402501Y-79446078D01*
X107402500Y-80434043D01*
X107370295Y-80482242D01*
X107292274Y-80670600D01*
X107252500Y-80870559D01*
X107252500Y-81074437D01*
X107292274Y-81274396D01*
X107370295Y-81462754D01*
X107483563Y-81632272D01*
X107627726Y-81776435D01*
X107797244Y-81889703D01*
X107985602Y-81967724D01*
X108185561Y-82007498D01*
X108389439Y-82007498D01*
X108589398Y-81967724D01*
X108777756Y-81889703D01*
X108947274Y-81776435D01*
X109091437Y-81632272D01*
X109204705Y-81462754D01*
X109282726Y-81274396D01*
X109322500Y-81074437D01*
X109322500Y-80870559D01*
X109282726Y-80670600D01*
X109204705Y-80482242D01*
X109172500Y-80434044D01*
X109172500Y-79122963D01*
X109176781Y-79079497D01*
X109172500Y-79036031D01*
X109172500Y-79036021D01*
X109159695Y-78906008D01*
X109112098Y-78749102D01*
X121763959Y-78749102D01*
X121763959Y-78952980D01*
X121803733Y-79152939D01*
X121881754Y-79341297D01*
X121995022Y-79510815D01*
X122139185Y-79654978D01*
X122308703Y-79768246D01*
X122497061Y-79846267D01*
X122697020Y-79886041D01*
X122900898Y-79886041D01*
X123100857Y-79846267D01*
X123289215Y-79768246D01*
X123458733Y-79654978D01*
X123502670Y-79611041D01*
X124811637Y-79611041D01*
X124848959Y-79614717D01*
X124886281Y-79611041D01*
X124886292Y-79611041D01*
X124997945Y-79600044D01*
X125141206Y-79556587D01*
X125273235Y-79486015D01*
X125388960Y-79391042D01*
X125412763Y-79362038D01*
X128039477Y-76735324D01*
X128188665Y-76765000D01*
X128471335Y-76765000D01*
X128748574Y-76709853D01*
X129009727Y-76601680D01*
X129244759Y-76444637D01*
X129444637Y-76244759D01*
X129601680Y-76009727D01*
X129709853Y-75748574D01*
X129765000Y-75471335D01*
X129765000Y-75188665D01*
X129709853Y-74911426D01*
X129601680Y-74650273D01*
X129444637Y-74415241D01*
X129244759Y-74215363D01*
X129009727Y-74058320D01*
X128748574Y-73950147D01*
X128471335Y-73895000D01*
X128188665Y-73895000D01*
X127911426Y-73950147D01*
X127650273Y-74058320D01*
X127415241Y-74215363D01*
X127215363Y-74415241D01*
X127111957Y-74570000D01*
X127008043Y-74570000D01*
X126904637Y-74415241D01*
X126704759Y-74215363D01*
X126469727Y-74058320D01*
X126208574Y-73950147D01*
X125931335Y-73895000D01*
X125648665Y-73895000D01*
X125371426Y-73950147D01*
X125110273Y-74058320D01*
X124875241Y-74215363D01*
X124675363Y-74415241D01*
X124520000Y-74647759D01*
X124364637Y-74415241D01*
X124164759Y-74215363D01*
X123929727Y-74058320D01*
X123668574Y-73950147D01*
X123391335Y-73895000D01*
X123108665Y-73895000D01*
X122831426Y-73950147D01*
X122570273Y-74058320D01*
X122335241Y-74215363D01*
X122135363Y-74415241D01*
X121978320Y-74650273D01*
X121870147Y-74911426D01*
X121815000Y-75188665D01*
X121815000Y-75471335D01*
X121870147Y-75748574D01*
X121978320Y-76009727D01*
X122135363Y-76244759D01*
X122335241Y-76444637D01*
X122570273Y-76601680D01*
X122831426Y-76709853D01*
X123108665Y-76765000D01*
X123391335Y-76765000D01*
X123668574Y-76709853D01*
X123929727Y-76601680D01*
X124164759Y-76444637D01*
X124364637Y-76244759D01*
X124520000Y-76012241D01*
X124675363Y-76244759D01*
X124875241Y-76444637D01*
X125110273Y-76601680D01*
X125371426Y-76709853D01*
X125648665Y-76765000D01*
X125860199Y-76765000D01*
X124534158Y-78091041D01*
X123502670Y-78091041D01*
X123458733Y-78047104D01*
X123289215Y-77933836D01*
X123100857Y-77855815D01*
X122900898Y-77816041D01*
X122697020Y-77816041D01*
X122497061Y-77855815D01*
X122308703Y-77933836D01*
X122139185Y-78047104D01*
X121995022Y-78191267D01*
X121881754Y-78360785D01*
X121803733Y-78549143D01*
X121763959Y-78749102D01*
X109112098Y-78749102D01*
X109109089Y-78739185D01*
X109026911Y-78585439D01*
X108916317Y-78450681D01*
X108882549Y-78422968D01*
X104364536Y-73904956D01*
X104336819Y-73871183D01*
X104202061Y-73760589D01*
X104060642Y-73685000D01*
X129773966Y-73685000D01*
X129792616Y-82077584D01*
G04 #@! TA.AperFunction,Conductor*
D23*
G36*
X129792616Y-82077584D02*
G01*
X129600978Y-82269222D01*
X129444637Y-82035241D01*
X129244759Y-81835363D01*
X129009727Y-81678320D01*
X128748574Y-81570147D01*
X128471335Y-81515000D01*
X128188665Y-81515000D01*
X127911426Y-81570147D01*
X127650273Y-81678320D01*
X127415241Y-81835363D01*
X127215363Y-82035241D01*
X127058320Y-82270273D01*
X126950147Y-82531426D01*
X126895000Y-82808665D01*
X126895000Y-83091335D01*
X126950147Y-83368574D01*
X127058320Y-83629727D01*
X127132002Y-83740000D01*
X124688072Y-83740000D01*
X124688072Y-82736730D01*
X125389802Y-82035000D01*
X125491938Y-82035000D01*
X125691897Y-81995226D01*
X125880255Y-81917205D01*
X126049773Y-81803937D01*
X126193936Y-81659774D01*
X126307204Y-81490256D01*
X126385225Y-81301898D01*
X126424999Y-81101939D01*
X126424999Y-80898061D01*
X126385225Y-80698102D01*
X126307204Y-80509744D01*
X126193936Y-80340226D01*
X126049773Y-80196063D01*
X125880255Y-80082795D01*
X125691897Y-80004774D01*
X125491938Y-79965000D01*
X125288060Y-79965000D01*
X125088101Y-80004774D01*
X124899743Y-80082795D01*
X124730225Y-80196063D01*
X124586062Y-80340226D01*
X124472794Y-80509744D01*
X124394773Y-80698102D01*
X124354999Y-80898061D01*
X124354999Y-80920198D01*
X123763270Y-81511928D01*
X122450000Y-81511928D01*
X122325518Y-81524188D01*
X122205820Y-81560498D01*
X122095506Y-81619463D01*
X121998815Y-81698815D01*
X121919463Y-81795506D01*
X121860498Y-81905820D01*
X121824188Y-82025518D01*
X121811928Y-82150000D01*
X121811928Y-83740000D01*
X121053711Y-83740000D01*
X121009774Y-83696063D01*
X120840256Y-83582795D01*
X120651898Y-83504774D01*
X120451939Y-83465000D01*
X120248061Y-83465000D01*
X120048102Y-83504774D01*
X119859744Y-83582795D01*
X119690226Y-83696063D01*
X119546063Y-83840226D01*
X119432795Y-84009744D01*
X119354774Y-84198102D01*
X119315000Y-84398061D01*
X119315000Y-84601939D01*
X119354774Y-84801898D01*
X119432795Y-84990256D01*
X119546063Y-85159774D01*
X119690226Y-85303937D01*
X119859744Y-85417205D01*
X120048102Y-85495226D01*
X120248061Y-85535000D01*
X120451939Y-85535000D01*
X120651898Y-85495226D01*
X120840256Y-85417205D01*
X121009774Y-85303937D01*
X121053711Y-85260000D01*
X126066029Y-85260000D01*
X125972068Y-85486842D01*
X125915000Y-85773740D01*
X125915000Y-85917598D01*
X125901939Y-85915000D01*
X125698061Y-85915000D01*
X125498102Y-85954774D01*
X125309744Y-86032795D01*
X125140226Y-86146063D01*
X124996063Y-86290226D01*
X124882795Y-86459744D01*
X124804774Y-86648102D01*
X124765000Y-86848061D01*
X124765000Y-87051939D01*
X124789015Y-87172674D01*
X124786324Y-87200000D01*
X124790001Y-87237332D01*
X124790000Y-88796289D01*
X124746063Y-88840226D01*
X124632795Y-89009744D01*
X124554774Y-89198102D01*
X124515000Y-89398061D01*
X124515000Y-89601939D01*
X124554774Y-89801898D01*
X124632795Y-89990256D01*
X124746063Y-90159774D01*
X124890226Y-90303937D01*
X125059744Y-90417205D01*
X125248102Y-90495226D01*
X125448061Y-90535000D01*
X125651939Y-90535000D01*
X125851898Y-90495226D01*
X126040256Y-90417205D01*
X126209774Y-90303937D01*
X126353937Y-90159774D01*
X126467205Y-89990256D01*
X126545226Y-89801898D01*
X126567532Y-89689757D01*
X126696589Y-89775990D01*
X126966842Y-89887932D01*
X127253740Y-89945000D01*
X127546260Y-89945000D01*
X127833158Y-89887932D01*
X128103411Y-89775990D01*
X128346632Y-89613475D01*
X128553475Y-89406632D01*
X128715990Y-89163411D01*
X128827932Y-88893158D01*
X128885000Y-88606260D01*
X128885000Y-88313740D01*
X128827932Y-88026842D01*
X128715990Y-87756589D01*
X128553475Y-87513368D01*
X128346632Y-87306525D01*
X128172240Y-87190000D01*
X128346632Y-87073475D01*
X128553475Y-86866632D01*
X128715990Y-86623411D01*
X128827932Y-86353158D01*
X128885000Y-86066260D01*
X128885000Y-85773740D01*
X128827932Y-85486842D01*
X128715990Y-85216589D01*
X128713438Y-85212769D01*
X128737249Y-85205546D01*
X128869278Y-85134974D01*
X128985003Y-85040001D01*
X129008806Y-85010997D01*
X129797383Y-84222421D01*
X129823000Y-95750282D01*
X129823000Y-99315000D01*
X123293217Y-99315000D01*
X123309774Y-99303937D01*
X123453937Y-99159774D01*
X123567205Y-98990256D01*
X123645226Y-98801898D01*
X123685000Y-98601939D01*
X123685000Y-98398061D01*
X123645226Y-98198102D01*
X123567205Y-98009744D01*
X123453937Y-97840226D01*
X123410000Y-97796289D01*
X123410000Y-97640562D01*
X123601426Y-97719853D01*
X123878665Y-97775000D01*
X124161335Y-97775000D01*
X124438574Y-97719853D01*
X124699727Y-97611680D01*
X124934759Y-97454637D01*
X125134637Y-97254759D01*
X125291680Y-97019727D01*
X125399853Y-96758574D01*
X125455000Y-96481335D01*
X125455000Y-96198665D01*
X125399853Y-95921426D01*
X125291680Y-95660273D01*
X125134637Y-95425241D01*
X124934759Y-95225363D01*
X124702241Y-95070000D01*
X124934759Y-94914637D01*
X125134637Y-94714759D01*
X125291680Y-94479727D01*
X125399853Y-94218574D01*
X125455000Y-93941335D01*
X125455000Y-93658665D01*
X125399853Y-93381426D01*
X125291680Y-93120273D01*
X125134637Y-92885241D01*
X124934759Y-92685363D01*
X124699727Y-92528320D01*
X124438574Y-92420147D01*
X124161335Y-92365000D01*
X123878665Y-92365000D01*
X123601426Y-92420147D01*
X123340273Y-92528320D01*
X123105241Y-92685363D01*
X122905363Y-92885241D01*
X122748320Y-93120273D01*
X122640147Y-93381426D01*
X122585000Y-93658665D01*
X122585000Y-93941335D01*
X122640147Y-94218574D01*
X122748320Y-94479727D01*
X122905363Y-94714759D01*
X123105241Y-94914637D01*
X123337759Y-95070000D01*
X123105241Y-95225363D01*
X122905363Y-95425241D01*
X122748320Y-95660273D01*
X122729793Y-95705001D01*
X122548061Y-95705001D01*
X122348102Y-95744775D01*
X122159744Y-95822796D01*
X121990226Y-95936064D01*
X121846063Y-96080227D01*
X121732795Y-96249745D01*
X121654774Y-96438103D01*
X121615000Y-96638062D01*
X121615000Y-96841940D01*
X121654774Y-97041899D01*
X121732795Y-97230257D01*
X121846063Y-97399775D01*
X121890000Y-97443712D01*
X121890001Y-97796288D01*
X121846063Y-97840226D01*
X121732795Y-98009744D01*
X121654774Y-98198102D01*
X121615000Y-98398061D01*
X121615000Y-98601939D01*
X121654774Y-98801898D01*
X121732795Y-98990256D01*
X121846063Y-99159774D01*
X121990226Y-99303937D01*
X122006783Y-99315000D01*
X100685000Y-99315000D01*
X100685000Y-92998061D01*
X108765000Y-92998061D01*
X108765000Y-93201939D01*
X108804774Y-93401898D01*
X108882795Y-93590256D01*
X108996063Y-93759774D01*
X109140226Y-93903937D01*
X109309744Y-94017205D01*
X109498102Y-94095226D01*
X109698061Y-94135000D01*
X109901939Y-94135000D01*
X110101898Y-94095226D01*
X110290256Y-94017205D01*
X110459774Y-93903937D01*
X110603937Y-93759774D01*
X110717205Y-93590256D01*
X110795226Y-93401898D01*
X110835000Y-93201939D01*
X110835000Y-93000000D01*
X114961928Y-93000000D01*
X114961928Y-94600000D01*
X114974188Y-94724482D01*
X115010498Y-94844180D01*
X115069463Y-94954494D01*
X115148815Y-95051185D01*
X115245506Y-95130537D01*
X115355820Y-95189502D01*
X115475518Y-95225812D01*
X115600000Y-95238072D01*
X117200000Y-95238072D01*
X117324482Y-95225812D01*
X117444180Y-95189502D01*
X117554494Y-95130537D01*
X117651185Y-95051185D01*
X117730537Y-94954494D01*
X117789502Y-94844180D01*
X117825812Y-94724482D01*
X117838072Y-94600000D01*
X117838072Y-93000000D01*
X117825812Y-92875518D01*
X117789502Y-92755820D01*
X117730537Y-92645506D01*
X117651185Y-92548815D01*
X117554494Y-92469463D01*
X117444180Y-92410498D01*
X117324482Y-92374188D01*
X117200000Y-92361928D01*
X115600000Y-92361928D01*
X115475518Y-92374188D01*
X115355820Y-92410498D01*
X115245506Y-92469463D01*
X115148815Y-92548815D01*
X115069463Y-92645506D01*
X115010498Y-92755820D01*
X114974188Y-92875518D01*
X114961928Y-93000000D01*
X110835000Y-93000000D01*
X110835000Y-92998061D01*
X110795226Y-92798102D01*
X110717205Y-92609744D01*
X110603937Y-92440226D01*
X110560000Y-92396289D01*
X110560000Y-89364801D01*
X111239802Y-88685000D01*
X111301939Y-88685000D01*
X111501898Y-88645226D01*
X111690256Y-88567205D01*
X111859774Y-88453937D01*
X112003937Y-88309774D01*
X112117205Y-88140256D01*
X112195226Y-87951898D01*
X112235000Y-87751939D01*
X112235000Y-87548061D01*
X112195226Y-87348102D01*
X112117205Y-87159744D01*
X112003937Y-86990226D01*
X111859774Y-86846063D01*
X111690256Y-86732795D01*
X111501898Y-86654774D01*
X111301939Y-86615000D01*
X111098061Y-86615000D01*
X110898102Y-86654774D01*
X110709744Y-86732795D01*
X110540226Y-86846063D01*
X110396063Y-86990226D01*
X110282795Y-87159744D01*
X110204774Y-87348102D01*
X110165000Y-87548061D01*
X110165000Y-87610198D01*
X109289003Y-88486196D01*
X109259999Y-88509999D01*
X109213052Y-88567205D01*
X109165026Y-88625724D01*
X109154602Y-88645226D01*
X109094454Y-88757754D01*
X109050997Y-88901015D01*
X109040000Y-89012668D01*
X109040000Y-89012678D01*
X109036324Y-89050000D01*
X109040000Y-89087323D01*
X109040001Y-92396288D01*
X108996063Y-92440226D01*
X108882795Y-92609744D01*
X108804774Y-92798102D01*
X108765000Y-92998061D01*
X100685000Y-92998061D01*
X100685000Y-89948061D01*
X105065000Y-89948061D01*
X105065000Y-90151939D01*
X105104774Y-90351898D01*
X105182795Y-90540256D01*
X105296063Y-90709774D01*
X105440226Y-90853937D01*
X105609744Y-90967205D01*
X105798102Y-91045226D01*
X105998061Y-91085000D01*
X106201939Y-91085000D01*
X106401898Y-91045226D01*
X106590256Y-90967205D01*
X106759774Y-90853937D01*
X106903937Y-90709774D01*
X107017205Y-90540256D01*
X107095226Y-90351898D01*
X107106535Y-90295043D01*
X108295049Y-89106530D01*
X108328817Y-89078817D01*
X108383106Y-89012667D01*
X108439411Y-88944059D01*
X108521588Y-88790314D01*
X108521589Y-88790313D01*
X108572195Y-88623490D01*
X108585000Y-88493477D01*
X108585000Y-88493469D01*
X108589281Y-88450000D01*
X108585000Y-88406531D01*
X108585000Y-86988454D01*
X108617205Y-86940256D01*
X108695226Y-86751898D01*
X108735000Y-86551939D01*
X108735000Y-86348061D01*
X108695226Y-86148102D01*
X108617205Y-85959744D01*
X108503937Y-85790226D01*
X108359774Y-85646063D01*
X108190256Y-85532795D01*
X108001898Y-85454774D01*
X107801939Y-85415000D01*
X107598061Y-85415000D01*
X107398102Y-85454774D01*
X107209744Y-85532795D01*
X107040226Y-85646063D01*
X106896063Y-85790226D01*
X106782795Y-85959744D01*
X106704774Y-86148102D01*
X106665000Y-86348061D01*
X106665000Y-86551939D01*
X106704774Y-86751898D01*
X106782795Y-86940256D01*
X106815000Y-86988455D01*
X106815001Y-88083420D01*
X105854957Y-89043465D01*
X105798102Y-89054774D01*
X105609744Y-89132795D01*
X105440226Y-89246063D01*
X105296063Y-89390226D01*
X105182795Y-89559744D01*
X105104774Y-89748102D01*
X105065000Y-89948061D01*
X100685000Y-89948061D01*
X100685000Y-74702487D01*
X100704774Y-74801898D01*
X100782795Y-74990256D01*
X100896063Y-75159774D01*
X101040226Y-75303937D01*
X101209744Y-75417205D01*
X101398102Y-75495226D01*
X101598061Y-75535000D01*
X101801939Y-75535000D01*
X102001898Y-75495226D01*
X102190256Y-75417205D01*
X102238454Y-75385000D01*
X103341424Y-75385000D01*
X107402501Y-79446078D01*
X107402500Y-80434043D01*
X107370295Y-80482242D01*
X107292274Y-80670600D01*
X107252500Y-80870559D01*
X107252500Y-81074437D01*
X107292274Y-81274396D01*
X107370295Y-81462754D01*
X107483563Y-81632272D01*
X107627726Y-81776435D01*
X107797244Y-81889703D01*
X107985602Y-81967724D01*
X108185561Y-82007498D01*
X108389439Y-82007498D01*
X108589398Y-81967724D01*
X108777756Y-81889703D01*
X108947274Y-81776435D01*
X109091437Y-81632272D01*
X109204705Y-81462754D01*
X109282726Y-81274396D01*
X109322500Y-81074437D01*
X109322500Y-80870559D01*
X109282726Y-80670600D01*
X109204705Y-80482242D01*
X109172500Y-80434044D01*
X109172500Y-79122963D01*
X109176781Y-79079497D01*
X109172500Y-79036031D01*
X109172500Y-79036021D01*
X109159695Y-78906008D01*
X109112098Y-78749102D01*
X121763959Y-78749102D01*
X121763959Y-78952980D01*
X121803733Y-79152939D01*
X121881754Y-79341297D01*
X121995022Y-79510815D01*
X122139185Y-79654978D01*
X122308703Y-79768246D01*
X122497061Y-79846267D01*
X122697020Y-79886041D01*
X122900898Y-79886041D01*
X123100857Y-79846267D01*
X123289215Y-79768246D01*
X123458733Y-79654978D01*
X123502670Y-79611041D01*
X124811637Y-79611041D01*
X124848959Y-79614717D01*
X124886281Y-79611041D01*
X124886292Y-79611041D01*
X124997945Y-79600044D01*
X125141206Y-79556587D01*
X125273235Y-79486015D01*
X125388960Y-79391042D01*
X125412763Y-79362038D01*
X128039477Y-76735324D01*
X128188665Y-76765000D01*
X128471335Y-76765000D01*
X128748574Y-76709853D01*
X129009727Y-76601680D01*
X129244759Y-76444637D01*
X129444637Y-76244759D01*
X129601680Y-76009727D01*
X129709853Y-75748574D01*
X129765000Y-75471335D01*
X129765000Y-75188665D01*
X129709853Y-74911426D01*
X129601680Y-74650273D01*
X129444637Y-74415241D01*
X129244759Y-74215363D01*
X129009727Y-74058320D01*
X128748574Y-73950147D01*
X128471335Y-73895000D01*
X128188665Y-73895000D01*
X127911426Y-73950147D01*
X127650273Y-74058320D01*
X127415241Y-74215363D01*
X127215363Y-74415241D01*
X127111957Y-74570000D01*
X127008043Y-74570000D01*
X126904637Y-74415241D01*
X126704759Y-74215363D01*
X126469727Y-74058320D01*
X126208574Y-73950147D01*
X125931335Y-73895000D01*
X125648665Y-73895000D01*
X125371426Y-73950147D01*
X125110273Y-74058320D01*
X124875241Y-74215363D01*
X124675363Y-74415241D01*
X124520000Y-74647759D01*
X124364637Y-74415241D01*
X124164759Y-74215363D01*
X123929727Y-74058320D01*
X123668574Y-73950147D01*
X123391335Y-73895000D01*
X123108665Y-73895000D01*
X122831426Y-73950147D01*
X122570273Y-74058320D01*
X122335241Y-74215363D01*
X122135363Y-74415241D01*
X121978320Y-74650273D01*
X121870147Y-74911426D01*
X121815000Y-75188665D01*
X121815000Y-75471335D01*
X121870147Y-75748574D01*
X121978320Y-76009727D01*
X122135363Y-76244759D01*
X122335241Y-76444637D01*
X122570273Y-76601680D01*
X122831426Y-76709853D01*
X123108665Y-76765000D01*
X123391335Y-76765000D01*
X123668574Y-76709853D01*
X123929727Y-76601680D01*
X124164759Y-76444637D01*
X124364637Y-76244759D01*
X124520000Y-76012241D01*
X124675363Y-76244759D01*
X124875241Y-76444637D01*
X125110273Y-76601680D01*
X125371426Y-76709853D01*
X125648665Y-76765000D01*
X125860199Y-76765000D01*
X124534158Y-78091041D01*
X123502670Y-78091041D01*
X123458733Y-78047104D01*
X123289215Y-77933836D01*
X123100857Y-77855815D01*
X122900898Y-77816041D01*
X122697020Y-77816041D01*
X122497061Y-77855815D01*
X122308703Y-77933836D01*
X122139185Y-78047104D01*
X121995022Y-78191267D01*
X121881754Y-78360785D01*
X121803733Y-78549143D01*
X121763959Y-78749102D01*
X109112098Y-78749102D01*
X109109089Y-78739185D01*
X109026911Y-78585439D01*
X108916317Y-78450681D01*
X108882549Y-78422968D01*
X104364536Y-73904956D01*
X104336819Y-73871183D01*
X104202061Y-73760589D01*
X104060642Y-73685000D01*
X129773966Y-73685000D01*
X129792616Y-82077584D01*
G37*
G04 #@! TD.AperFunction*
M02*
