G04 #@! TF.GenerationSoftware,KiCad,Pcbnew,(5.1.5)-3*
G04 #@! TF.CreationDate,2020-03-27T14:12:53+01:00*
G04 #@! TF.ProjectId,mimu_phantom,6d696d75-5f70-4686-916e-746f6d2e6b69,rev?*
G04 #@! TF.SameCoordinates,Original*
G04 #@! TF.FileFunction,Legend,Bot*
G04 #@! TF.FilePolarity,Positive*
%FSLAX46Y46*%
G04 Gerber Fmt 4.6, Leading zero omitted, Abs format (unit mm)*
G04 Created by KiCad (PCBNEW (5.1.5)-3) date 2020-03-27 14:12:53*
%MOMM*%
%LPD*%
G04 APERTURE LIST*
%ADD10C,0.150000*%
G04 APERTURE END LIST*
D10*
X124511904Y-87127380D02*
X124511904Y-86127380D01*
X124178571Y-86841666D01*
X123845238Y-86127380D01*
X123845238Y-87127380D01*
X123369047Y-87127380D02*
X123369047Y-86127380D01*
X122892857Y-87127380D02*
X122892857Y-86127380D01*
X122559523Y-86841666D01*
X122226190Y-86127380D01*
X122226190Y-87127380D01*
X121750000Y-86127380D02*
X121750000Y-86936904D01*
X121702380Y-87032142D01*
X121654761Y-87079761D01*
X121559523Y-87127380D01*
X121369047Y-87127380D01*
X121273809Y-87079761D01*
X121226190Y-87032142D01*
X121178571Y-86936904D01*
X121178571Y-86127380D01*
X119940476Y-87127380D02*
X119940476Y-86127380D01*
X119559523Y-86127380D01*
X119464285Y-86175000D01*
X119416666Y-86222619D01*
X119369047Y-86317857D01*
X119369047Y-86460714D01*
X119416666Y-86555952D01*
X119464285Y-86603571D01*
X119559523Y-86651190D01*
X119940476Y-86651190D01*
X118940476Y-87127380D02*
X118940476Y-86127380D01*
X118511904Y-87127380D02*
X118511904Y-86603571D01*
X118559523Y-86508333D01*
X118654761Y-86460714D01*
X118797619Y-86460714D01*
X118892857Y-86508333D01*
X118940476Y-86555952D01*
X117607142Y-87127380D02*
X117607142Y-86603571D01*
X117654761Y-86508333D01*
X117750000Y-86460714D01*
X117940476Y-86460714D01*
X118035714Y-86508333D01*
X117607142Y-87079761D02*
X117702380Y-87127380D01*
X117940476Y-87127380D01*
X118035714Y-87079761D01*
X118083333Y-86984523D01*
X118083333Y-86889285D01*
X118035714Y-86794047D01*
X117940476Y-86746428D01*
X117702380Y-86746428D01*
X117607142Y-86698809D01*
X117130952Y-86460714D02*
X117130952Y-87127380D01*
X117130952Y-86555952D02*
X117083333Y-86508333D01*
X116988095Y-86460714D01*
X116845238Y-86460714D01*
X116750000Y-86508333D01*
X116702380Y-86603571D01*
X116702380Y-87127380D01*
X116369047Y-86460714D02*
X115988095Y-86460714D01*
X116226190Y-86127380D02*
X116226190Y-86984523D01*
X116178571Y-87079761D01*
X116083333Y-87127380D01*
X115988095Y-87127380D01*
X115511904Y-87127380D02*
X115607142Y-87079761D01*
X115654761Y-87032142D01*
X115702380Y-86936904D01*
X115702380Y-86651190D01*
X115654761Y-86555952D01*
X115607142Y-86508333D01*
X115511904Y-86460714D01*
X115369047Y-86460714D01*
X115273809Y-86508333D01*
X115226190Y-86555952D01*
X115178571Y-86651190D01*
X115178571Y-86936904D01*
X115226190Y-87032142D01*
X115273809Y-87079761D01*
X115369047Y-87127380D01*
X115511904Y-87127380D01*
X114750000Y-87127380D02*
X114750000Y-86460714D01*
X114750000Y-86555952D02*
X114702380Y-86508333D01*
X114607142Y-86460714D01*
X114464285Y-86460714D01*
X114369047Y-86508333D01*
X114321428Y-86603571D01*
X114321428Y-87127380D01*
X114321428Y-86603571D02*
X114273809Y-86508333D01*
X114178571Y-86460714D01*
X114035714Y-86460714D01*
X113940476Y-86508333D01*
X113892857Y-86603571D01*
X113892857Y-87127380D01*
X112750000Y-86460714D02*
X112511904Y-87127380D01*
X112273809Y-86460714D01*
X111702380Y-86127380D02*
X111607142Y-86127380D01*
X111511904Y-86175000D01*
X111464285Y-86222619D01*
X111416666Y-86317857D01*
X111369047Y-86508333D01*
X111369047Y-86746428D01*
X111416666Y-86936904D01*
X111464285Y-87032142D01*
X111511904Y-87079761D01*
X111607142Y-87127380D01*
X111702380Y-87127380D01*
X111797619Y-87079761D01*
X111845238Y-87032142D01*
X111892857Y-86936904D01*
X111940476Y-86746428D01*
X111940476Y-86508333D01*
X111892857Y-86317857D01*
X111845238Y-86222619D01*
X111797619Y-86175000D01*
X111702380Y-86127380D01*
X110940476Y-87032142D02*
X110892857Y-87079761D01*
X110940476Y-87127380D01*
X110988095Y-87079761D01*
X110940476Y-87032142D01*
X110940476Y-87127380D01*
X110511904Y-86222619D02*
X110464285Y-86175000D01*
X110369047Y-86127380D01*
X110130952Y-86127380D01*
X110035714Y-86175000D01*
X109988095Y-86222619D01*
X109940476Y-86317857D01*
X109940476Y-86413095D01*
X109988095Y-86555952D01*
X110559523Y-87127380D01*
X109940476Y-87127380D01*
X120535714Y-88777380D02*
X120535714Y-87777380D01*
X120154761Y-87777380D01*
X120059523Y-87825000D01*
X120011904Y-87872619D01*
X119964285Y-87967857D01*
X119964285Y-88110714D01*
X120011904Y-88205952D01*
X120059523Y-88253571D01*
X120154761Y-88301190D01*
X120535714Y-88301190D01*
X119535714Y-88777380D02*
X119535714Y-87777380D01*
X119154761Y-87777380D01*
X119059523Y-87825000D01*
X119011904Y-87872619D01*
X118964285Y-87967857D01*
X118964285Y-88110714D01*
X119011904Y-88205952D01*
X119059523Y-88253571D01*
X119154761Y-88301190D01*
X119535714Y-88301190D01*
X117583333Y-87777380D02*
X117488095Y-87777380D01*
X117392857Y-87825000D01*
X117345238Y-87872619D01*
X117297619Y-87967857D01*
X117250000Y-88158333D01*
X117250000Y-88396428D01*
X117297619Y-88586904D01*
X117345238Y-88682142D01*
X117392857Y-88729761D01*
X117488095Y-88777380D01*
X117583333Y-88777380D01*
X117678571Y-88729761D01*
X117726190Y-88682142D01*
X117773809Y-88586904D01*
X117821428Y-88396428D01*
X117821428Y-88158333D01*
X117773809Y-87967857D01*
X117726190Y-87872619D01*
X117678571Y-87825000D01*
X117583333Y-87777380D01*
X116916666Y-87777380D02*
X116297619Y-87777380D01*
X116630952Y-88158333D01*
X116488095Y-88158333D01*
X116392857Y-88205952D01*
X116345238Y-88253571D01*
X116297619Y-88348809D01*
X116297619Y-88586904D01*
X116345238Y-88682142D01*
X116392857Y-88729761D01*
X116488095Y-88777380D01*
X116773809Y-88777380D01*
X116869047Y-88729761D01*
X116916666Y-88682142D01*
X115869047Y-88682142D02*
X115821428Y-88729761D01*
X115869047Y-88777380D01*
X115916666Y-88729761D01*
X115869047Y-88682142D01*
X115869047Y-88777380D01*
X115440476Y-87872619D02*
X115392857Y-87825000D01*
X115297619Y-87777380D01*
X115059523Y-87777380D01*
X114964285Y-87825000D01*
X114916666Y-87872619D01*
X114869047Y-87967857D01*
X114869047Y-88063095D01*
X114916666Y-88205952D01*
X115488095Y-88777380D01*
X114869047Y-88777380D01*
X114250000Y-87777380D02*
X114154761Y-87777380D01*
X114059523Y-87825000D01*
X114011904Y-87872619D01*
X113964285Y-87967857D01*
X113916666Y-88158333D01*
X113916666Y-88396428D01*
X113964285Y-88586904D01*
X114011904Y-88682142D01*
X114059523Y-88729761D01*
X114154761Y-88777380D01*
X114250000Y-88777380D01*
X114345238Y-88729761D01*
X114392857Y-88682142D01*
X114440476Y-88586904D01*
X114488095Y-88396428D01*
X114488095Y-88158333D01*
X114440476Y-87967857D01*
X114392857Y-87872619D01*
X114345238Y-87825000D01*
X114250000Y-87777380D01*
X112369047Y-71452380D02*
X112369047Y-72166666D01*
X112416666Y-72309523D01*
X112511904Y-72404761D01*
X112654761Y-72452380D01*
X112750000Y-72452380D01*
X111416666Y-72452380D02*
X111892857Y-72452380D01*
X111892857Y-71452380D01*
X110511904Y-72357142D02*
X110559523Y-72404761D01*
X110702380Y-72452380D01*
X110797619Y-72452380D01*
X110940476Y-72404761D01*
X111035714Y-72309523D01*
X111083333Y-72214285D01*
X111130952Y-72023809D01*
X111130952Y-71880952D01*
X111083333Y-71690476D01*
X111035714Y-71595238D01*
X110940476Y-71500000D01*
X110797619Y-71452380D01*
X110702380Y-71452380D01*
X110559523Y-71500000D01*
X110511904Y-71547619D01*
X109797619Y-71452380D02*
X109797619Y-72166666D01*
X109845238Y-72309523D01*
X109940476Y-72404761D01*
X110083333Y-72452380D01*
X110178571Y-72452380D01*
X108845238Y-72452380D02*
X109321428Y-72452380D01*
X109321428Y-71452380D01*
X107940476Y-72357142D02*
X107988095Y-72404761D01*
X108130952Y-72452380D01*
X108226190Y-72452380D01*
X108369047Y-72404761D01*
X108464285Y-72309523D01*
X108511904Y-72214285D01*
X108559523Y-72023809D01*
X108559523Y-71880952D01*
X108511904Y-71690476D01*
X108464285Y-71595238D01*
X108369047Y-71500000D01*
X108226190Y-71452380D01*
X108130952Y-71452380D01*
X107988095Y-71500000D01*
X107940476Y-71547619D01*
X107226190Y-71452380D02*
X107226190Y-72166666D01*
X107273809Y-72309523D01*
X107369047Y-72404761D01*
X107511904Y-72452380D01*
X107607142Y-72452380D01*
X106273809Y-72452380D02*
X106750000Y-72452380D01*
X106750000Y-71452380D01*
X105369047Y-72357142D02*
X105416666Y-72404761D01*
X105559523Y-72452380D01*
X105654761Y-72452380D01*
X105797619Y-72404761D01*
X105892857Y-72309523D01*
X105940476Y-72214285D01*
X105988095Y-72023809D01*
X105988095Y-71880952D01*
X105940476Y-71690476D01*
X105892857Y-71595238D01*
X105797619Y-71500000D01*
X105654761Y-71452380D01*
X105559523Y-71452380D01*
X105416666Y-71500000D01*
X105369047Y-71547619D01*
X104654761Y-71452380D02*
X104654761Y-72166666D01*
X104702380Y-72309523D01*
X104797619Y-72404761D01*
X104940476Y-72452380D01*
X105035714Y-72452380D01*
X103702380Y-72452380D02*
X104178571Y-72452380D01*
X104178571Y-71452380D01*
X102797619Y-72357142D02*
X102845238Y-72404761D01*
X102988095Y-72452380D01*
X103083333Y-72452380D01*
X103226190Y-72404761D01*
X103321428Y-72309523D01*
X103369047Y-72214285D01*
X103416666Y-72023809D01*
X103416666Y-71880952D01*
X103369047Y-71690476D01*
X103321428Y-71595238D01*
X103226190Y-71500000D01*
X103083333Y-71452380D01*
X102988095Y-71452380D01*
X102845238Y-71500000D01*
X102797619Y-71547619D01*
M02*
