M48
; DRILL file {KiCad (5.1.5)-3} date 27.03.2020 21:06:03
; FORMAT={-:-/ absolute / inch / decimal}
; #@! TF.CreationDate,2020-03-27T21:06:03+01:00
; #@! TF.GenerationSoftware,Kicad,Pcbnew,(5.1.5)-3
; #@! TF.FileFunction,Plated,1,2,PTH
FMAT,2
INCH
T1C0.0157
T2C0.0236
T3C0.0256
T4C0.0315
T5C0.0354
T6C0.0394
T7C0.0906
%
G90
G05
T1
X4.1378Y-3.4547
X4.1998Y-3.4616
X4.2362Y-3.622
X4.2913Y-3.6378
X4.2972Y-3.7205
X4.4173Y-3.5748
X4.4173Y-3.6299
X4.4429Y-3.6624
X4.5118Y-3.7756
X4.5591Y-3.6378
X4.6161Y-3.7461
X4.7747Y-3.6609
X4.8031Y-3.7894
X4.8976Y-3.6614
X4.9291Y-3.5197
X4.9705Y-3.5236
X5.0236Y-3.8031
X5.0709Y-3.8268
X5.4882Y-2.7953
X5.4882Y-3.622
X5.5094Y-3.6491
X5.5433Y-3.0846
X5.561Y-3.6024
X5.561Y-3.7402
X5.5807Y-3.2067
X5.6004Y-3.6024
X5.6004Y-3.7717
X5.6437Y-3.8061
X5.6437Y-3.6024
X5.6923Y-3.2668
X5.6929Y-3.6024
X5.6929Y-3.6875
X5.7146Y-3.2992
X5.7894Y-3.3543
X5.8312Y-3.2957
X5.9617Y-3.0974
X6.0049Y-3.1369
X6.0256Y-3.1772
X6.0827Y-3.5531
X6.2307Y-3.8661
T2
X5.3071Y-3.7382
X5.3858Y-3.7382
X5.3071Y-3.5512
X5.3858Y-3.5512
X5.1181Y-3.5512
X5.1969Y-3.5512
T3
X5.8031Y-3.8189
X5.8531Y-3.8189
X5.9031Y-3.8189
X5.9531Y-3.8189
X6.0031Y-3.8189
T4
X5.1083Y-3.0217
X5.1575Y-3.0217
X5.2559Y-3.0217
X5.3051Y-3.0217
X5.4488Y-3.0945
X5.4488Y-3.3945
X4.7244Y-2.8398
X4.7244Y-3.1398
X4.8244Y-2.8398
X4.8244Y-3.1398
X5.0315Y-3.3366
X5.3315Y-3.3366
T5
X6.1969Y-3.6795
X6.1969Y-3.7795
T6
X6.0283Y-2.9236
X6.0283Y-3.0236
X6.1283Y-2.9236
X6.1283Y-3.0236
X6.2283Y-2.9236
X6.2283Y-3.0236
X5.0772Y-2.8445
X5.1772Y-2.8445
X5.2772Y-2.8445
X4.1496Y-2.9409
X4.248Y-2.9409
X4.3465Y-2.9409
X6.1378Y-3.1693
X6.1378Y-3.2693
X6.1378Y-3.3693
X6.1378Y-3.4693
X5.0772Y-3.189
X5.1772Y-3.189
X5.2772Y-3.189
T7
X4.0512Y-3.0709
X4.4449Y-3.0709
T0
M30
