M48
; DRILL file {KiCad 5.1.10-6.fc34} date Sun Oct 17 22:45:18 2021
; FORMAT={-:-/ absolute / inch / decimal}
; #@! TF.CreationDate,2021-10-17T22:45:18+02:00
; #@! TF.GenerationSoftware,Kicad,Pcbnew,5.1.10-6.fc34
FMAT,2
INCH
T1C0.0157
T2C0.0256
T3C0.0315
T4C0.0354
T5C0.0394
%
G90
G05
T1
X4.0039Y-2.9331
X4.0236Y-3.0689
X4.0571Y-3.8248
X4.064Y-3.7628
X4.065Y-3.0728
X4.124Y-3.0689
X4.1713Y-3.0709
X4.1772Y-3.5453
X4.2244Y-3.7264
X4.2323Y-3.5453
X4.2402Y-3.4035
X4.2402Y-3.6713
X4.2633Y-3.1879
X4.2648Y-3.5197
X4.3228Y-3.6654
X4.3484Y-3.3465
X4.378Y-3.4508
X4.3917Y-3.1594
X4.5236Y-3.1004
X4.5768Y-3.1024
X4.7382Y-3.3268
X4.7539Y-3.5886
X4.8287Y-3.8087
X4.8287Y-3.878
X4.8346Y-3.1044
X4.9366Y-3.189
X4.9429Y-3.5236
X4.9528Y-3.4232
X5.0846Y-3.6516
X5.1058Y-3.6786
X5.1575Y-3.6319
X5.1575Y-3.7697
X5.1772Y-3.2598
X5.1969Y-3.6319
X5.1969Y-3.8012
X5.2402Y-3.8356
X5.2402Y-3.6319
X5.2421Y-3.1772
X5.2887Y-3.2963
X5.2894Y-3.6319
X5.2894Y-3.717
X5.311Y-3.3287
X5.313Y-3.4449
X5.3858Y-3.3839
X5.4232Y-3.2461
X5.4277Y-3.3252
X5.5582Y-3.127
X5.6013Y-3.1664
X5.622Y-3.2067
X5.7008Y-3.6181
X5.7008Y-3.7126
T2
X5.3154Y-3.8484
X5.3654Y-3.8484
X5.4154Y-3.8484
X5.4654Y-3.8484
X5.5154Y-3.8484
T3
X4.5827Y-3.6929
X4.5827Y-3.7929
X4.8524Y-2.9657
X4.8524Y-3.2657
X4.8827Y-3.6929
X4.8827Y-3.7929
X4.9524Y-2.9657
X4.9524Y-3.2657
X5.0524Y-2.9657
X5.0524Y-3.2657
T4
X5.811Y-3.2606
X5.811Y-3.3606
X5.811Y-3.4606
T5
X5.0157Y-3.3827
X5.0157Y-3.4827
X5.0157Y-3.5827
X5.6248Y-2.9531
X5.6248Y-3.0531
X5.7028Y-3.2146
X5.7028Y-3.3146
X5.7028Y-3.4146
X5.7028Y-3.5146
X5.7248Y-2.9531
X5.7248Y-3.0531
X5.8248Y-2.9531
X5.8248Y-3.0531
T0
M30
