G04 #@! TF.GenerationSoftware,KiCad,Pcbnew,5.1.10-6.fc34*
G04 #@! TF.CreationDate,2021-10-17T22:45:22+02:00*
G04 #@! TF.ProjectId,mimu_phantom,6d696d75-5f70-4686-916e-746f6d2e6b69,rev?*
G04 #@! TF.SameCoordinates,Original*
G04 #@! TF.FileFunction,Copper,L1,Top*
G04 #@! TF.FilePolarity,Positive*
%FSLAX46Y46*%
G04 Gerber Fmt 4.6, Leading zero omitted, Abs format (unit mm)*
G04 Created by KiCad (PCBNEW 5.1.10-6.fc34) date 2021-10-17 22:45:22*
%MOMM*%
%LPD*%
G01*
G04 APERTURE LIST*
G04 #@! TA.AperFunction,ComponentPad*
%ADD10O,1.700000X1.700000*%
G04 #@! TD*
G04 #@! TA.AperFunction,ComponentPad*
%ADD11R,1.700000X1.700000*%
G04 #@! TD*
G04 #@! TA.AperFunction,SMDPad,CuDef*
%ADD12C,1.500000*%
G04 #@! TD*
G04 #@! TA.AperFunction,SMDPad,CuDef*
%ADD13R,1.300000X1.550000*%
G04 #@! TD*
G04 #@! TA.AperFunction,ComponentPad*
%ADD14C,1.800000*%
G04 #@! TD*
G04 #@! TA.AperFunction,ComponentPad*
%ADD15R,1.800000X1.800000*%
G04 #@! TD*
G04 #@! TA.AperFunction,ComponentPad*
%ADD16O,1.600000X1.600000*%
G04 #@! TD*
G04 #@! TA.AperFunction,ComponentPad*
%ADD17R,1.600000X1.600000*%
G04 #@! TD*
G04 #@! TA.AperFunction,SMDPad,CuDef*
%ADD18R,2.200000X1.500000*%
G04 #@! TD*
G04 #@! TA.AperFunction,SMDPad,CuDef*
%ADD19R,1.800000X2.500000*%
G04 #@! TD*
G04 #@! TA.AperFunction,SMDPad,CuDef*
%ADD20R,1.000000X1.000000*%
G04 #@! TD*
G04 #@! TA.AperFunction,SMDPad,CuDef*
%ADD21R,0.650000X1.060000*%
G04 #@! TD*
G04 #@! TA.AperFunction,SMDPad,CuDef*
%ADD22R,1.600000X0.550000*%
G04 #@! TD*
G04 #@! TA.AperFunction,SMDPad,CuDef*
%ADD23R,0.550000X1.600000*%
G04 #@! TD*
G04 #@! TA.AperFunction,ComponentPad*
%ADD24O,1.000000X1.000000*%
G04 #@! TD*
G04 #@! TA.AperFunction,ComponentPad*
%ADD25R,1.000000X1.000000*%
G04 #@! TD*
G04 #@! TA.AperFunction,ViaPad*
%ADD26C,0.800000*%
G04 #@! TD*
G04 #@! TA.AperFunction,Conductor*
%ADD27C,0.500000*%
G04 #@! TD*
G04 #@! TA.AperFunction,Conductor*
%ADD28C,0.750000*%
G04 #@! TD*
G04 #@! TA.AperFunction,Conductor*
%ADD29C,1.000000*%
G04 #@! TD*
G04 #@! TA.AperFunction,Conductor*
%ADD30C,0.250000*%
G04 #@! TD*
G04 APERTURE END LIST*
D10*
X144850000Y-89270000D03*
X144850000Y-86730000D03*
X144850000Y-84190000D03*
D11*
X144850000Y-81650000D03*
G04 #@! TA.AperFunction,SMDPad,CuDef*
G36*
G01*
X122049999Y-89950000D02*
X123350001Y-89950000D01*
G75*
G02*
X123600000Y-90199999I0J-249999D01*
G01*
X123600000Y-91025001D01*
G75*
G02*
X123350001Y-91275000I-249999J0D01*
G01*
X122049999Y-91275000D01*
G75*
G02*
X121800000Y-91025001I0J249999D01*
G01*
X121800000Y-90199999D01*
G75*
G02*
X122049999Y-89950000I249999J0D01*
G01*
G37*
G04 #@! TD.AperFunction*
G04 #@! TA.AperFunction,SMDPad,CuDef*
G36*
G01*
X122049999Y-86825000D02*
X123350001Y-86825000D01*
G75*
G02*
X123600000Y-87074999I0J-249999D01*
G01*
X123600000Y-87900001D01*
G75*
G02*
X123350001Y-88150000I-249999J0D01*
G01*
X122049999Y-88150000D01*
G75*
G02*
X121800000Y-87900001I0J249999D01*
G01*
X121800000Y-87074999D01*
G75*
G02*
X122049999Y-86825000I249999J0D01*
G01*
G37*
G04 #@! TD.AperFunction*
G04 #@! TA.AperFunction,SMDPad,CuDef*
G36*
G01*
X147850000Y-95700001D02*
X147850000Y-94399999D01*
G75*
G02*
X148099999Y-94150000I249999J0D01*
G01*
X148925001Y-94150000D01*
G75*
G02*
X149175000Y-94399999I0J-249999D01*
G01*
X149175000Y-95700001D01*
G75*
G02*
X148925001Y-95950000I-249999J0D01*
G01*
X148099999Y-95950000D01*
G75*
G02*
X147850000Y-95700001I0J249999D01*
G01*
G37*
G04 #@! TD.AperFunction*
G04 #@! TA.AperFunction,SMDPad,CuDef*
G36*
G01*
X144725000Y-95700001D02*
X144725000Y-94399999D01*
G75*
G02*
X144974999Y-94150000I249999J0D01*
G01*
X145800001Y-94150000D01*
G75*
G02*
X146050000Y-94399999I0J-249999D01*
G01*
X146050000Y-95700001D01*
G75*
G02*
X145800001Y-95950000I-249999J0D01*
G01*
X144974999Y-95950000D01*
G75*
G02*
X144725000Y-95700001I0J249999D01*
G01*
G37*
G04 #@! TD.AperFunction*
G04 #@! TA.AperFunction,SMDPad,CuDef*
G36*
G01*
X147800000Y-93150001D02*
X147800000Y-91849999D01*
G75*
G02*
X148049999Y-91600000I249999J0D01*
G01*
X148875001Y-91600000D01*
G75*
G02*
X149125000Y-91849999I0J-249999D01*
G01*
X149125000Y-93150001D01*
G75*
G02*
X148875001Y-93400000I-249999J0D01*
G01*
X148049999Y-93400000D01*
G75*
G02*
X147800000Y-93150001I0J249999D01*
G01*
G37*
G04 #@! TD.AperFunction*
G04 #@! TA.AperFunction,SMDPad,CuDef*
G36*
G01*
X144675000Y-93150001D02*
X144675000Y-91849999D01*
G75*
G02*
X144924999Y-91600000I249999J0D01*
G01*
X145750001Y-91600000D01*
G75*
G02*
X146000000Y-91849999I0J-249999D01*
G01*
X146000000Y-93150001D01*
G75*
G02*
X145750001Y-93400000I-249999J0D01*
G01*
X144924999Y-93400000D01*
G75*
G02*
X144675000Y-93150001I0J249999D01*
G01*
G37*
G04 #@! TD.AperFunction*
D12*
X117700000Y-80200000D03*
G04 #@! TA.AperFunction,SMDPad,CuDef*
G36*
G01*
X114949999Y-77537500D02*
X116250001Y-77537500D01*
G75*
G02*
X116500000Y-77787499I0J-249999D01*
G01*
X116500000Y-78612501D01*
G75*
G02*
X116250001Y-78862500I-249999J0D01*
G01*
X114949999Y-78862500D01*
G75*
G02*
X114700000Y-78612501I0J249999D01*
G01*
X114700000Y-77787499D01*
G75*
G02*
X114949999Y-77537500I249999J0D01*
G01*
G37*
G04 #@! TD.AperFunction*
G04 #@! TA.AperFunction,SMDPad,CuDef*
G36*
G01*
X114949999Y-74412500D02*
X116250001Y-74412500D01*
G75*
G02*
X116500000Y-74662499I0J-249999D01*
G01*
X116500000Y-75487501D01*
G75*
G02*
X116250001Y-75737500I-249999J0D01*
G01*
X114949999Y-75737500D01*
G75*
G02*
X114700000Y-75487501I0J249999D01*
G01*
X114700000Y-74662499D01*
G75*
G02*
X114949999Y-74412500I249999J0D01*
G01*
G37*
G04 #@! TD.AperFunction*
G04 #@! TA.AperFunction,SMDPad,CuDef*
G36*
G01*
X132500000Y-74449999D02*
X132500000Y-75750001D01*
G75*
G02*
X132250001Y-76000000I-249999J0D01*
G01*
X131424999Y-76000000D01*
G75*
G02*
X131175000Y-75750001I0J249999D01*
G01*
X131175000Y-74449999D01*
G75*
G02*
X131424999Y-74200000I249999J0D01*
G01*
X132250001Y-74200000D01*
G75*
G02*
X132500000Y-74449999I0J-249999D01*
G01*
G37*
G04 #@! TD.AperFunction*
G04 #@! TA.AperFunction,SMDPad,CuDef*
G36*
G01*
X135625000Y-74449999D02*
X135625000Y-75750001D01*
G75*
G02*
X135375001Y-76000000I-249999J0D01*
G01*
X134549999Y-76000000D01*
G75*
G02*
X134300000Y-75750001I0J249999D01*
G01*
X134300000Y-74449999D01*
G75*
G02*
X134549999Y-74200000I249999J0D01*
G01*
X135375001Y-74200000D01*
G75*
G02*
X135625000Y-74449999I0J-249999D01*
G01*
G37*
G04 #@! TD.AperFunction*
D13*
X120250000Y-82525000D03*
X120250000Y-90475000D03*
X115750000Y-82525000D03*
X115750000Y-90475000D03*
D14*
X147600000Y-82820000D03*
X147600000Y-85360000D03*
D15*
X147600000Y-87900000D03*
D16*
X123250000Y-75330000D03*
X128330000Y-82950000D03*
X125790000Y-75330000D03*
X125790000Y-82950000D03*
X128330000Y-75330000D03*
D17*
X123250000Y-82950000D03*
G04 #@! TA.AperFunction,SMDPad,CuDef*
G36*
G01*
X118900000Y-74799999D02*
X118900000Y-75700001D01*
G75*
G02*
X118650001Y-75950000I-249999J0D01*
G01*
X117949999Y-75950000D01*
G75*
G02*
X117700000Y-75700001I0J249999D01*
G01*
X117700000Y-74799999D01*
G75*
G02*
X117949999Y-74550000I249999J0D01*
G01*
X118650001Y-74550000D01*
G75*
G02*
X118900000Y-74799999I0J-249999D01*
G01*
G37*
G04 #@! TD.AperFunction*
G04 #@! TA.AperFunction,SMDPad,CuDef*
G36*
G01*
X120900000Y-74799999D02*
X120900000Y-75700001D01*
G75*
G02*
X120650001Y-75950000I-249999J0D01*
G01*
X119949999Y-75950000D01*
G75*
G02*
X119700000Y-75700001I0J249999D01*
G01*
X119700000Y-74799999D01*
G75*
G02*
X119949999Y-74550000I249999J0D01*
G01*
X120650001Y-74550000D01*
G75*
G02*
X120900000Y-74799999I0J-249999D01*
G01*
G37*
G04 #@! TD.AperFunction*
G04 #@! TA.AperFunction,SMDPad,CuDef*
G36*
G01*
X118900000Y-77249999D02*
X118900000Y-78150001D01*
G75*
G02*
X118650001Y-78400000I-249999J0D01*
G01*
X117949999Y-78400000D01*
G75*
G02*
X117700000Y-78150001I0J249999D01*
G01*
X117700000Y-77249999D01*
G75*
G02*
X117949999Y-77000000I249999J0D01*
G01*
X118650001Y-77000000D01*
G75*
G02*
X118900000Y-77249999I0J-249999D01*
G01*
G37*
G04 #@! TD.AperFunction*
G04 #@! TA.AperFunction,SMDPad,CuDef*
G36*
G01*
X120900000Y-77249999D02*
X120900000Y-78150001D01*
G75*
G02*
X120650001Y-78400000I-249999J0D01*
G01*
X119949999Y-78400000D01*
G75*
G02*
X119700000Y-78150001I0J249999D01*
G01*
X119700000Y-77249999D01*
G75*
G02*
X119949999Y-77000000I249999J0D01*
G01*
X120650001Y-77000000D01*
G75*
G02*
X120900000Y-77249999I0J-249999D01*
G01*
G37*
G04 #@! TD.AperFunction*
D18*
X104300000Y-86050000D03*
X104300000Y-79650000D03*
D19*
X111300000Y-81000000D03*
X111300000Y-77000000D03*
D20*
X108850000Y-91650000D03*
X111350000Y-91650000D03*
D12*
X107300000Y-98650000D03*
X113450000Y-96450000D03*
G04 #@! TA.AperFunction,SMDPad,CuDef*
G36*
G01*
X132595000Y-77475000D02*
X132595000Y-78725000D01*
G75*
G02*
X132345000Y-78975000I-250000J0D01*
G01*
X131420000Y-78975000D01*
G75*
G02*
X131170000Y-78725000I0J250000D01*
G01*
X131170000Y-77475000D01*
G75*
G02*
X131420000Y-77225000I250000J0D01*
G01*
X132345000Y-77225000D01*
G75*
G02*
X132595000Y-77475000I0J-250000D01*
G01*
G37*
G04 #@! TD.AperFunction*
G04 #@! TA.AperFunction,SMDPad,CuDef*
G36*
G01*
X135570000Y-77475000D02*
X135570000Y-78725000D01*
G75*
G02*
X135320000Y-78975000I-250000J0D01*
G01*
X134395000Y-78975000D01*
G75*
G02*
X134145000Y-78725000I0J250000D01*
G01*
X134145000Y-77475000D01*
G75*
G02*
X134395000Y-77225000I250000J0D01*
G01*
X135320000Y-77225000D01*
G75*
G02*
X135570000Y-77475000I0J-250000D01*
G01*
G37*
G04 #@! TD.AperFunction*
G04 #@! TA.AperFunction,SMDPad,CuDef*
G36*
G01*
X109025000Y-95825000D02*
X109025000Y-97075000D01*
G75*
G02*
X108775000Y-97325000I-250000J0D01*
G01*
X107850000Y-97325000D01*
G75*
G02*
X107600000Y-97075000I0J250000D01*
G01*
X107600000Y-95825000D01*
G75*
G02*
X107850000Y-95575000I250000J0D01*
G01*
X108775000Y-95575000D01*
G75*
G02*
X109025000Y-95825000I0J-250000D01*
G01*
G37*
G04 #@! TD.AperFunction*
G04 #@! TA.AperFunction,SMDPad,CuDef*
G36*
G01*
X112000000Y-95825000D02*
X112000000Y-97075000D01*
G75*
G02*
X111750000Y-97325000I-250000J0D01*
G01*
X110825000Y-97325000D01*
G75*
G02*
X110575000Y-97075000I0J250000D01*
G01*
X110575000Y-95825000D01*
G75*
G02*
X110825000Y-95575000I250000J0D01*
G01*
X111750000Y-95575000D01*
G75*
G02*
X112000000Y-95825000I0J-250000D01*
G01*
G37*
G04 #@! TD.AperFunction*
G04 #@! TA.AperFunction,SMDPad,CuDef*
G36*
G01*
X103937500Y-95825000D02*
X103937500Y-97075000D01*
G75*
G02*
X103687500Y-97325000I-250000J0D01*
G01*
X102762500Y-97325000D01*
G75*
G02*
X102512500Y-97075000I0J250000D01*
G01*
X102512500Y-95825000D01*
G75*
G02*
X102762500Y-95575000I250000J0D01*
G01*
X103687500Y-95575000D01*
G75*
G02*
X103937500Y-95825000I0J-250000D01*
G01*
G37*
G04 #@! TD.AperFunction*
G04 #@! TA.AperFunction,SMDPad,CuDef*
G36*
G01*
X106912500Y-95825000D02*
X106912500Y-97075000D01*
G75*
G02*
X106662500Y-97325000I-250000J0D01*
G01*
X105737500Y-97325000D01*
G75*
G02*
X105487500Y-97075000I0J250000D01*
G01*
X105487500Y-95825000D01*
G75*
G02*
X105737500Y-95575000I250000J0D01*
G01*
X106662500Y-95575000D01*
G75*
G02*
X106912500Y-95825000I0J-250000D01*
G01*
G37*
G04 #@! TD.AperFunction*
G04 #@! TA.AperFunction,SMDPad,CuDef*
G36*
G01*
X109037500Y-88775000D02*
X109037500Y-90025000D01*
G75*
G02*
X108787500Y-90275000I-250000J0D01*
G01*
X107862500Y-90275000D01*
G75*
G02*
X107612500Y-90025000I0J250000D01*
G01*
X107612500Y-88775000D01*
G75*
G02*
X107862500Y-88525000I250000J0D01*
G01*
X108787500Y-88525000D01*
G75*
G02*
X109037500Y-88775000I0J-250000D01*
G01*
G37*
G04 #@! TD.AperFunction*
G04 #@! TA.AperFunction,SMDPad,CuDef*
G36*
G01*
X112012500Y-88775000D02*
X112012500Y-90025000D01*
G75*
G02*
X111762500Y-90275000I-250000J0D01*
G01*
X110837500Y-90275000D01*
G75*
G02*
X110587500Y-90025000I0J250000D01*
G01*
X110587500Y-88775000D01*
G75*
G02*
X110837500Y-88525000I250000J0D01*
G01*
X111762500Y-88525000D01*
G75*
G02*
X112012500Y-88775000I0J-250000D01*
G01*
G37*
G04 #@! TD.AperFunction*
G04 #@! TA.AperFunction,SMDPad,CuDef*
G36*
G01*
X109037500Y-93375000D02*
X109037500Y-94625000D01*
G75*
G02*
X108787500Y-94875000I-250000J0D01*
G01*
X107862500Y-94875000D01*
G75*
G02*
X107612500Y-94625000I0J250000D01*
G01*
X107612500Y-93375000D01*
G75*
G02*
X107862500Y-93125000I250000J0D01*
G01*
X108787500Y-93125000D01*
G75*
G02*
X109037500Y-93375000I0J-250000D01*
G01*
G37*
G04 #@! TD.AperFunction*
G04 #@! TA.AperFunction,SMDPad,CuDef*
G36*
G01*
X112012500Y-93375000D02*
X112012500Y-94625000D01*
G75*
G02*
X111762500Y-94875000I-250000J0D01*
G01*
X110837500Y-94875000D01*
G75*
G02*
X110587500Y-94625000I0J250000D01*
G01*
X110587500Y-93375000D01*
G75*
G02*
X110837500Y-93125000I250000J0D01*
G01*
X111762500Y-93125000D01*
G75*
G02*
X112012500Y-93375000I0J-250000D01*
G01*
G37*
G04 #@! TD.AperFunction*
G04 #@! TA.AperFunction,SMDPad,CuDef*
G36*
G01*
X104725000Y-76775000D02*
X105975000Y-76775000D01*
G75*
G02*
X106225000Y-77025000I0J-250000D01*
G01*
X106225000Y-77950000D01*
G75*
G02*
X105975000Y-78200000I-250000J0D01*
G01*
X104725000Y-78200000D01*
G75*
G02*
X104475000Y-77950000I0J250000D01*
G01*
X104475000Y-77025000D01*
G75*
G02*
X104725000Y-76775000I250000J0D01*
G01*
G37*
G04 #@! TD.AperFunction*
G04 #@! TA.AperFunction,SMDPad,CuDef*
G36*
G01*
X104725000Y-73800000D02*
X105975000Y-73800000D01*
G75*
G02*
X106225000Y-74050000I0J-250000D01*
G01*
X106225000Y-74975000D01*
G75*
G02*
X105975000Y-75225000I-250000J0D01*
G01*
X104725000Y-75225000D01*
G75*
G02*
X104475000Y-74975000I0J250000D01*
G01*
X104475000Y-74050000D01*
G75*
G02*
X104725000Y-73800000I250000J0D01*
G01*
G37*
G04 #@! TD.AperFunction*
G04 #@! TA.AperFunction,SMDPad,CuDef*
G36*
G01*
X102075000Y-76725000D02*
X103325000Y-76725000D01*
G75*
G02*
X103575000Y-76975000I0J-250000D01*
G01*
X103575000Y-77900000D01*
G75*
G02*
X103325000Y-78150000I-250000J0D01*
G01*
X102075000Y-78150000D01*
G75*
G02*
X101825000Y-77900000I0J250000D01*
G01*
X101825000Y-76975000D01*
G75*
G02*
X102075000Y-76725000I250000J0D01*
G01*
G37*
G04 #@! TD.AperFunction*
G04 #@! TA.AperFunction,SMDPad,CuDef*
G36*
G01*
X102075000Y-73750000D02*
X103325000Y-73750000D01*
G75*
G02*
X103575000Y-74000000I0J-250000D01*
G01*
X103575000Y-74925000D01*
G75*
G02*
X103325000Y-75175000I-250000J0D01*
G01*
X102075000Y-75175000D01*
G75*
G02*
X101825000Y-74925000I0J250000D01*
G01*
X101825000Y-74000000D01*
G75*
G02*
X102075000Y-73750000I250000J0D01*
G01*
G37*
G04 #@! TD.AperFunction*
G04 #@! TA.AperFunction,SMDPad,CuDef*
G36*
G01*
X103925000Y-91025000D02*
X103925000Y-92275000D01*
G75*
G02*
X103675000Y-92525000I-250000J0D01*
G01*
X102750000Y-92525000D01*
G75*
G02*
X102500000Y-92275000I0J250000D01*
G01*
X102500000Y-91025000D01*
G75*
G02*
X102750000Y-90775000I250000J0D01*
G01*
X103675000Y-90775000D01*
G75*
G02*
X103925000Y-91025000I0J-250000D01*
G01*
G37*
G04 #@! TD.AperFunction*
G04 #@! TA.AperFunction,SMDPad,CuDef*
G36*
G01*
X106900000Y-91025000D02*
X106900000Y-92275000D01*
G75*
G02*
X106650000Y-92525000I-250000J0D01*
G01*
X105725000Y-92525000D01*
G75*
G02*
X105475000Y-92275000I0J250000D01*
G01*
X105475000Y-91025000D01*
G75*
G02*
X105725000Y-90775000I250000J0D01*
G01*
X106650000Y-90775000D01*
G75*
G02*
X106900000Y-91025000I0J-250000D01*
G01*
G37*
G04 #@! TD.AperFunction*
D21*
X110450000Y-83850000D03*
X109500000Y-83850000D03*
X111400000Y-83850000D03*
X111400000Y-86050000D03*
X110450000Y-86050000D03*
X109500000Y-86050000D03*
D22*
X133000000Y-87750000D03*
X133000000Y-86950000D03*
X133000000Y-86150000D03*
X133000000Y-85350000D03*
X133000000Y-84550000D03*
X133000000Y-83750000D03*
X133000000Y-82950000D03*
X133000000Y-82150000D03*
D23*
X134450000Y-80700000D03*
X135250000Y-80700000D03*
X136050000Y-80700000D03*
X136850000Y-80700000D03*
X137650000Y-80700000D03*
X138450000Y-80700000D03*
X139250000Y-80700000D03*
X140050000Y-80700000D03*
D22*
X141500000Y-82150000D03*
X141500000Y-82950000D03*
X141500000Y-83750000D03*
X141500000Y-84550000D03*
X141500000Y-85350000D03*
X141500000Y-86150000D03*
X141500000Y-86950000D03*
X141500000Y-87750000D03*
D23*
X140050000Y-89200000D03*
X139250000Y-89200000D03*
X138450000Y-89200000D03*
X137650000Y-89200000D03*
X136850000Y-89200000D03*
X136050000Y-89200000D03*
X135250000Y-89200000D03*
X134450000Y-89200000D03*
D16*
X124020000Y-93800000D03*
X116400000Y-96340000D03*
X124020000Y-96340000D03*
D17*
X116400000Y-93800000D03*
D24*
X140090000Y-97750000D03*
X138820000Y-97750000D03*
X137550000Y-97750000D03*
X136280000Y-97750000D03*
D25*
X135010000Y-97750000D03*
D10*
X142870000Y-77550000D03*
X142870000Y-75010000D03*
X145410000Y-77550000D03*
X145410000Y-75010000D03*
X147950000Y-77550000D03*
D11*
X147950000Y-75010000D03*
D10*
X127400000Y-85920000D03*
X127400000Y-88460000D03*
D11*
X127400000Y-91000000D03*
G04 #@! TA.AperFunction,SMDPad,CuDef*
G36*
G01*
X138000000Y-92300001D02*
X138000000Y-91399999D01*
G75*
G02*
X138249999Y-91150000I249999J0D01*
G01*
X138900001Y-91150000D01*
G75*
G02*
X139150000Y-91399999I0J-249999D01*
G01*
X139150000Y-92300001D01*
G75*
G02*
X138900001Y-92550000I-249999J0D01*
G01*
X138249999Y-92550000D01*
G75*
G02*
X138000000Y-92300001I0J249999D01*
G01*
G37*
G04 #@! TD.AperFunction*
G04 #@! TA.AperFunction,SMDPad,CuDef*
G36*
G01*
X135950000Y-92300001D02*
X135950000Y-91399999D01*
G75*
G02*
X136199999Y-91150000I249999J0D01*
G01*
X136850001Y-91150000D01*
G75*
G02*
X137100000Y-91399999I0J-249999D01*
G01*
X137100000Y-92300001D01*
G75*
G02*
X136850001Y-92550000I-249999J0D01*
G01*
X136199999Y-92550000D01*
G75*
G02*
X135950000Y-92300001I0J249999D01*
G01*
G37*
G04 #@! TD.AperFunction*
G04 #@! TA.AperFunction,SMDPad,CuDef*
G36*
G01*
X137475000Y-77799999D02*
X137475000Y-78700001D01*
G75*
G02*
X137225001Y-78950000I-249999J0D01*
G01*
X136574999Y-78950000D01*
G75*
G02*
X136325000Y-78700001I0J249999D01*
G01*
X136325000Y-77799999D01*
G75*
G02*
X136574999Y-77550000I249999J0D01*
G01*
X137225001Y-77550000D01*
G75*
G02*
X137475000Y-77799999I0J-249999D01*
G01*
G37*
G04 #@! TD.AperFunction*
G04 #@! TA.AperFunction,SMDPad,CuDef*
G36*
G01*
X139525000Y-77799999D02*
X139525000Y-78700001D01*
G75*
G02*
X139275001Y-78950000I-249999J0D01*
G01*
X138624999Y-78950000D01*
G75*
G02*
X138375000Y-78700001I0J249999D01*
G01*
X138375000Y-77799999D01*
G75*
G02*
X138624999Y-77550000I249999J0D01*
G01*
X139275001Y-77550000D01*
G75*
G02*
X139525000Y-77799999I0J-249999D01*
G01*
G37*
G04 #@! TD.AperFunction*
D26*
X136800000Y-85950000D03*
X137862803Y-84460721D03*
X134350000Y-92250000D03*
X134350000Y-94412500D03*
X122650000Y-96740001D03*
X122650000Y-98500000D03*
X133150000Y-80700000D03*
X142800000Y-81450000D03*
X141177114Y-79424579D03*
X142273959Y-80426041D03*
X131000000Y-95750000D03*
X131000000Y-92250000D03*
X132000000Y-92250000D03*
X132000000Y-96550000D03*
X133100000Y-92250000D03*
X133099905Y-97425335D03*
X134333470Y-83725957D03*
X134900000Y-84550000D03*
X108287500Y-80972498D03*
X101700000Y-74500000D03*
X109800000Y-93100000D03*
X111200000Y-87650000D03*
X107700000Y-86450000D03*
X106100000Y-90050000D03*
X116250000Y-78800000D03*
X114900000Y-78750000D03*
X120750000Y-91150000D03*
X107700000Y-93250000D03*
X103250000Y-78050000D03*
X105950000Y-78000000D03*
X104750000Y-77950000D03*
X111550000Y-80250000D03*
X103050000Y-97150000D03*
X102200000Y-77950000D03*
X110450000Y-85000000D03*
X107300000Y-94650000D03*
X129687500Y-93437500D03*
X107500000Y-90050000D03*
X129150000Y-92750000D03*
X103225000Y-95575000D03*
X108325000Y-89400000D03*
X122798959Y-78851041D03*
X125550000Y-89500000D03*
X125800000Y-86950000D03*
X137750000Y-82450000D03*
X120350000Y-84500000D03*
X134950000Y-87500000D03*
X144800000Y-94300000D03*
X144800000Y-91900000D03*
X131500000Y-82800000D03*
X125389999Y-81000000D03*
D27*
X136525000Y-91850000D02*
X136850000Y-91525000D01*
X136850000Y-91525000D02*
X136850000Y-89200000D01*
X139250000Y-80700000D02*
X139250000Y-78550000D01*
X139250000Y-78550000D02*
X138950000Y-78250000D01*
X144300000Y-81250000D02*
X141350000Y-78300000D01*
X141350000Y-78300000D02*
X138950000Y-78300000D01*
D28*
X111287500Y-89412500D02*
X109525000Y-87650000D01*
X109525000Y-87650000D02*
X106800000Y-87650000D01*
D29*
X111287500Y-96450000D02*
X111287500Y-93962500D01*
D27*
X111287500Y-93962500D02*
X111300000Y-93950000D01*
X136850000Y-89200000D02*
X136850000Y-86000000D01*
X136850000Y-86000000D02*
X136800000Y-85950000D01*
X137862803Y-84460721D02*
X139250000Y-83073524D01*
X139250000Y-83073524D02*
X139250000Y-80850000D01*
D28*
X135050000Y-91850000D02*
X136525000Y-91850000D01*
X134350000Y-92250000D02*
X135050000Y-91850000D01*
D27*
X134075001Y-94687499D02*
X134350000Y-94412500D01*
D29*
X111300000Y-91250000D02*
X111300000Y-89400000D01*
X111300000Y-92250000D02*
X111300000Y-91250000D01*
X111300000Y-91700000D02*
X111350000Y-91650000D01*
X111300000Y-94000000D02*
X111300000Y-91700000D01*
D28*
X133900001Y-94687499D02*
X134075001Y-94687499D01*
X129500000Y-94687499D02*
X133900001Y-94687499D01*
X129750000Y-98950000D02*
X125350000Y-98950000D01*
X125212489Y-98975010D02*
X125350000Y-98950000D01*
X125350000Y-98950000D02*
X129500000Y-94687499D01*
X104300000Y-87550000D02*
X104300000Y-86050000D01*
X104400000Y-87650000D02*
X104300000Y-87550000D01*
X106800000Y-87650000D02*
X104400000Y-87650000D01*
X113600000Y-98950000D02*
X111350000Y-96700000D01*
D30*
X111287500Y-96450000D02*
X113200000Y-96450000D01*
X140090000Y-97750000D02*
X141000000Y-98660000D01*
X141000000Y-98660000D02*
X141000000Y-98950000D01*
D28*
X129750000Y-98950000D02*
X141000000Y-98950000D01*
D30*
X122700000Y-96690001D02*
X122650000Y-96740001D01*
X122700000Y-90612500D02*
X122700000Y-96690001D01*
X122650000Y-98500000D02*
X122650000Y-98650000D01*
X122650000Y-98650000D02*
X122950000Y-98950000D01*
D28*
X122950000Y-98950000D02*
X113600000Y-98950000D01*
X125350000Y-98950000D02*
X122950000Y-98950000D01*
X142875001Y-97074999D02*
X141000000Y-98950000D01*
X142875001Y-83614962D02*
X142875001Y-97074999D01*
X144839963Y-81650000D02*
X142875001Y-83614962D01*
X144850000Y-81650000D02*
X144839963Y-81650000D01*
D30*
X131950000Y-85350000D02*
X130724999Y-84124999D01*
X131926998Y-80700000D02*
X133150000Y-80700000D01*
X130724999Y-81901999D02*
X131926998Y-80700000D01*
X130724999Y-84124999D02*
X130724999Y-81901999D01*
X133000000Y-85350000D02*
X131950000Y-85350000D01*
X142550000Y-82950000D02*
X142800000Y-82700000D01*
X142800000Y-82700000D02*
X142800000Y-81450000D01*
X141500000Y-82950000D02*
X142550000Y-82950000D01*
X140050000Y-80700000D02*
X140050000Y-80551693D01*
X140050000Y-80551693D02*
X141177114Y-79424579D01*
X141500000Y-82150000D02*
X141500000Y-81200000D01*
X141500000Y-81200000D02*
X142273959Y-80426041D01*
X131000000Y-92250000D02*
X130999997Y-87100003D01*
X130999997Y-87100003D02*
X131950000Y-86150000D01*
X131950000Y-86150000D02*
X133000000Y-86150000D01*
X131000000Y-95750000D02*
X135500000Y-95750000D01*
X135500000Y-95750000D02*
X137500000Y-97750000D01*
X132000000Y-92250000D02*
X131874999Y-92462499D01*
X131874999Y-92462499D02*
X131874999Y-87025001D01*
X131874999Y-87025001D02*
X131950000Y-86950000D01*
X131950000Y-86950000D02*
X133000000Y-86950000D01*
X135395002Y-96550000D02*
X136250000Y-97404998D01*
X132000000Y-96550000D02*
X135395002Y-96550000D01*
X136250000Y-97404998D02*
X136250000Y-97700000D01*
X133100000Y-92250000D02*
X133000000Y-92487500D01*
X133000000Y-92487500D02*
X133000000Y-87750000D01*
X133099905Y-97425335D02*
X134675335Y-97425335D01*
X134675335Y-97425335D02*
X134950000Y-97700000D01*
X124560001Y-97465001D02*
X120015001Y-97465001D01*
X130274988Y-79707512D02*
X130274988Y-90408185D01*
X131882500Y-78100000D02*
X130274988Y-79707512D01*
X120015001Y-97465001D02*
X116400000Y-93850000D01*
X125595011Y-96429991D02*
X124560001Y-97465001D01*
X125595011Y-95088162D02*
X125595011Y-96429991D01*
X130274988Y-90408185D02*
X125595011Y-95088162D01*
D27*
X135250000Y-80700000D02*
X135250000Y-78600000D01*
X135250000Y-78600000D02*
X134850000Y-78200000D01*
D30*
X133000000Y-83750000D02*
X134309427Y-83750000D01*
X134309427Y-83750000D02*
X134333470Y-83725957D01*
X134900000Y-84550000D02*
X133000000Y-84550000D01*
D27*
X110450000Y-83134998D02*
X110450000Y-83850000D01*
X108287500Y-80972498D02*
X110450000Y-83134998D01*
X110500000Y-74500000D02*
X101700000Y-74500000D01*
X118250000Y-75200000D02*
X117550000Y-74500000D01*
X118250000Y-77800000D02*
X118250000Y-75200000D01*
X115600000Y-75075000D02*
X115600000Y-74600000D01*
X115600000Y-74600000D02*
X115700000Y-74500000D01*
X115700000Y-74500000D02*
X110500000Y-74500000D01*
X117550000Y-74500000D02*
X115700000Y-74500000D01*
D30*
X118250000Y-80200000D02*
X118250000Y-77850000D01*
D28*
X108950000Y-79700000D02*
X104250000Y-79700000D01*
X111300000Y-77350000D02*
X108950000Y-79700000D01*
X111300000Y-77000000D02*
X111300000Y-77350000D01*
X108425000Y-83850000D02*
X109500000Y-83850000D01*
X102624999Y-84839999D02*
X103614998Y-83850000D01*
X102624999Y-90187499D02*
X102624999Y-84839999D01*
X103212500Y-90775000D02*
X102624999Y-90187499D01*
X103212500Y-91650000D02*
X103212500Y-90775000D01*
X104300000Y-83850000D02*
X104300000Y-79650000D01*
X104300000Y-83850000D02*
X108425000Y-83850000D01*
X103614998Y-83850000D02*
X104300000Y-83850000D01*
D30*
X108312500Y-96450000D02*
X109025000Y-96450000D01*
X109800000Y-95675000D02*
X109800000Y-93100000D01*
X109025000Y-96450000D02*
X109800000Y-95675000D01*
X111200000Y-87084315D02*
X111450000Y-86834315D01*
X111200000Y-87650000D02*
X111200000Y-87084315D01*
X111450000Y-86834315D02*
X111450000Y-86100000D01*
D27*
X106200000Y-96450000D02*
X107300000Y-96450000D01*
X107300000Y-96450000D02*
X108300000Y-96450000D01*
X107300000Y-97550000D02*
X106200000Y-96450000D01*
X107300000Y-98650000D02*
X107300000Y-97550000D01*
X107300000Y-97462500D02*
X108312500Y-96450000D01*
X107300000Y-98650000D02*
X107300000Y-97462500D01*
D28*
X108850000Y-91650000D02*
X107650000Y-91650000D01*
X107650000Y-91650000D02*
X106187500Y-91650000D01*
D27*
X109500000Y-86050000D02*
X108100000Y-86050000D01*
X108100000Y-86050000D02*
X107700000Y-86450000D01*
X106100000Y-91562500D02*
X106187500Y-91650000D01*
X106100000Y-90050000D02*
X106100000Y-91562500D01*
X138000000Y-91850000D02*
X137650000Y-91500000D01*
X138575000Y-91850000D02*
X138000000Y-91850000D01*
X137650000Y-91500000D02*
X137650000Y-89100000D01*
X136850000Y-80700000D02*
X136850000Y-78300000D01*
D28*
X137162500Y-93437500D02*
X138500000Y-92100000D01*
D27*
X137650000Y-89200000D02*
X137650000Y-85450000D01*
X137650000Y-85450000D02*
X136900000Y-84700000D01*
X136900000Y-84700000D02*
X136900000Y-80750000D01*
X103225000Y-95575000D02*
X104800000Y-94000000D01*
X103225000Y-96450000D02*
X103225000Y-95575000D01*
X104800000Y-94000000D02*
X108350000Y-94000000D01*
D30*
X108325000Y-94000000D02*
X108325000Y-93125000D01*
X108850000Y-89850000D02*
X108400000Y-89400000D01*
D27*
X110450000Y-86050000D02*
X110450000Y-85000000D01*
X104800000Y-94000000D02*
X104800000Y-94000000D01*
X108325000Y-94000000D02*
X107950000Y-94000000D01*
X107950000Y-94000000D02*
X107300000Y-94650000D01*
X110450000Y-85000000D02*
X112015002Y-85000000D01*
D28*
X137162500Y-93437500D02*
X129687500Y-93437500D01*
X129250000Y-93000000D02*
X129250000Y-93000000D01*
X129687500Y-93437500D02*
X129687500Y-93437500D01*
D27*
X111300000Y-81350000D02*
X111300000Y-81000000D01*
X112700000Y-84315002D02*
X112700000Y-82750000D01*
X112700000Y-82750000D02*
X111300000Y-81350000D01*
X112015002Y-85000000D02*
X112700000Y-84315002D01*
D29*
X129687500Y-93437500D02*
X129150000Y-92750000D01*
D27*
X103225000Y-95575000D02*
X103225000Y-95575000D01*
D30*
X137162500Y-93437500D02*
X137162500Y-96062500D01*
X137162500Y-96062500D02*
X138800000Y-97700000D01*
D27*
X141760001Y-76700001D02*
X137749999Y-76700001D01*
X136900000Y-77550000D02*
X136900000Y-78250000D01*
X137749999Y-76700001D02*
X136900000Y-77550000D01*
X143910001Y-78850001D02*
X141760001Y-76700001D01*
X145760003Y-78850001D02*
X143910001Y-78850001D01*
X146150001Y-79239999D02*
X146150001Y-82999999D01*
X145760003Y-78850001D02*
X146150001Y-79239999D01*
X146150001Y-82999999D02*
X144900000Y-84250000D01*
X144900000Y-84250000D02*
X146200000Y-84250000D01*
X146200000Y-84250000D02*
X147150000Y-85200000D01*
X120300000Y-77700000D02*
X120550001Y-77950001D01*
X120300000Y-77700000D02*
X121350001Y-78750001D01*
D30*
X122697919Y-78750001D02*
X122798959Y-78851041D01*
X121350001Y-78750001D02*
X122697919Y-78750001D01*
X127250000Y-88950001D02*
X127250000Y-88550000D01*
X126224999Y-89975002D02*
X127250000Y-88950001D01*
X126224999Y-90098005D02*
X126224999Y-89975002D01*
X125145001Y-95214999D02*
X125145001Y-91178003D01*
X125145001Y-91178003D02*
X126224999Y-90098005D01*
X124020000Y-96340000D02*
X125145001Y-95214999D01*
D27*
X126041998Y-88450000D02*
X127250000Y-88450000D01*
X121850000Y-84258002D02*
X126041998Y-88450000D01*
X121850000Y-79250000D02*
X121850000Y-84258002D01*
X121350001Y-78750001D02*
X121850000Y-79250000D01*
X124539999Y-84262080D02*
X124539999Y-79389999D01*
X126197919Y-85920000D02*
X124539999Y-84262080D01*
X127400000Y-85920000D02*
X126197919Y-85920000D01*
X124539999Y-79389999D02*
X120400000Y-75250000D01*
D30*
X123250000Y-75330000D02*
X120680000Y-75330000D01*
X124020000Y-93800000D02*
X124020000Y-91030000D01*
X124020000Y-91030000D02*
X125550000Y-89500000D01*
X126197919Y-85920000D02*
X126197919Y-86552081D01*
X126197919Y-86552081D02*
X125800000Y-86950000D01*
X137650000Y-82350000D02*
X137750000Y-82450000D01*
X137650000Y-80700000D02*
X137650000Y-82350000D01*
X115750000Y-82525000D02*
X117725000Y-84500000D01*
X118812500Y-84500000D02*
X118800000Y-84500000D01*
X121800000Y-87487500D02*
X118812500Y-84500000D01*
X122700000Y-87487500D02*
X121800000Y-87487500D01*
X118800000Y-84500000D02*
X120350000Y-84500000D01*
X117725000Y-84500000D02*
X118800000Y-84500000D01*
X135625001Y-86824999D02*
X134950000Y-87500000D01*
X135625001Y-83944486D02*
X135625001Y-86824999D01*
X134630515Y-82950000D02*
X135625001Y-83944486D01*
X133000000Y-82950000D02*
X134630515Y-82950000D01*
X133000000Y-82150000D02*
X132150000Y-82150000D01*
X132150000Y-82150000D02*
X131500000Y-82800000D01*
X133400000Y-77774310D02*
X133400000Y-79600000D01*
X133400000Y-79600000D02*
X134450000Y-80650000D01*
X133400000Y-77774310D02*
X133400000Y-76450000D01*
X133400000Y-76450000D02*
X134700000Y-75150000D01*
X125389999Y-81000000D02*
X126450000Y-81000000D01*
X126450000Y-81000000D02*
X131700000Y-75750000D01*
X149500010Y-84720010D02*
X149500010Y-93949990D01*
X147600000Y-82820000D02*
X149500010Y-84720010D01*
X149500010Y-93949990D02*
X148850000Y-94600000D01*
X147600000Y-87900000D02*
X147600000Y-91400000D01*
X147600000Y-91400000D02*
X148300000Y-92100000D01*
M02*
