G04 #@! TF.GenerationSoftware,KiCad,Pcbnew,5.1.10-6.fc34*
G04 #@! TF.CreationDate,2021-10-18T16:16:49+02:00*
G04 #@! TF.ProjectId,mimu_phantom,6d696d75-5f70-4686-916e-746f6d2e6b69,rev?*
G04 #@! TF.SameCoordinates,Original*
G04 #@! TF.FileFunction,Soldermask,Bot*
G04 #@! TF.FilePolarity,Negative*
%FSLAX46Y46*%
G04 Gerber Fmt 4.6, Leading zero omitted, Abs format (unit mm)*
G04 Created by KiCad (PCBNEW 5.1.10-6.fc34) date 2021-10-18 16:16:49*
%MOMM*%
%LPD*%
G01*
G04 APERTURE LIST*
%ADD10C,0.100000*%
%ADD11R,1.000000X1.500000*%
%ADD12O,1.700000X1.700000*%
%ADD13R,1.700000X1.700000*%
%ADD14C,1.800000*%
%ADD15R,1.800000X1.800000*%
%ADD16O,1.600000X1.600000*%
%ADD17R,1.600000X1.600000*%
%ADD18O,1.000000X1.000000*%
%ADD19R,1.000000X1.000000*%
G04 APERTURE END LIST*
D10*
G36*
X134250000Y-75800000D02*
G01*
X133700000Y-75800000D01*
X133700000Y-75799398D01*
X133675466Y-75799398D01*
X133626635Y-75794588D01*
X133578510Y-75785016D01*
X133531555Y-75770772D01*
X133486222Y-75751995D01*
X133442949Y-75728864D01*
X133402150Y-75701604D01*
X133364221Y-75670476D01*
X133329524Y-75635779D01*
X133298396Y-75597850D01*
X133271136Y-75557051D01*
X133248005Y-75513778D01*
X133229228Y-75468445D01*
X133214984Y-75421490D01*
X133205412Y-75373365D01*
X133200602Y-75324534D01*
X133200602Y-75300000D01*
X133200000Y-75300000D01*
X133200000Y-74800000D01*
X133200602Y-74800000D01*
X133200602Y-74775466D01*
X133205412Y-74726635D01*
X133214984Y-74678510D01*
X133229228Y-74631555D01*
X133248005Y-74586222D01*
X133271136Y-74542949D01*
X133298396Y-74502150D01*
X133329524Y-74464221D01*
X133364221Y-74429524D01*
X133402150Y-74398396D01*
X133442949Y-74371136D01*
X133486222Y-74348005D01*
X133531555Y-74329228D01*
X133578510Y-74314984D01*
X133626635Y-74305412D01*
X133675466Y-74300602D01*
X133700000Y-74300602D01*
X133700000Y-74300000D01*
X134250000Y-74300000D01*
X134250000Y-75800000D01*
G37*
D11*
X135000000Y-75050000D03*
D10*
G36*
X136300000Y-74300602D02*
G01*
X136324534Y-74300602D01*
X136373365Y-74305412D01*
X136421490Y-74314984D01*
X136468445Y-74329228D01*
X136513778Y-74348005D01*
X136557051Y-74371136D01*
X136597850Y-74398396D01*
X136635779Y-74429524D01*
X136670476Y-74464221D01*
X136701604Y-74502150D01*
X136728864Y-74542949D01*
X136751995Y-74586222D01*
X136770772Y-74631555D01*
X136785016Y-74678510D01*
X136794588Y-74726635D01*
X136799398Y-74775466D01*
X136799398Y-74800000D01*
X136800000Y-74800000D01*
X136800000Y-75300000D01*
X136799398Y-75300000D01*
X136799398Y-75324534D01*
X136794588Y-75373365D01*
X136785016Y-75421490D01*
X136770772Y-75468445D01*
X136751995Y-75513778D01*
X136728864Y-75557051D01*
X136701604Y-75597850D01*
X136670476Y-75635779D01*
X136635779Y-75670476D01*
X136597850Y-75701604D01*
X136557051Y-75728864D01*
X136513778Y-75751995D01*
X136468445Y-75770772D01*
X136421490Y-75785016D01*
X136373365Y-75794588D01*
X136324534Y-75799398D01*
X136300000Y-75799398D01*
X136300000Y-75800000D01*
X135750000Y-75800000D01*
X135750000Y-74300000D01*
X136300000Y-74300000D01*
X136300000Y-74300602D01*
G37*
D12*
X144850000Y-89270000D03*
X144850000Y-86730000D03*
X144850000Y-84190000D03*
D13*
X144850000Y-81650000D03*
D14*
X147600000Y-82820000D03*
X147600000Y-85360000D03*
D15*
X147600000Y-87900000D03*
D16*
X123250000Y-75330000D03*
X128330000Y-82950000D03*
X125790000Y-75330000D03*
X125790000Y-82950000D03*
X128330000Y-75330000D03*
D17*
X123250000Y-82950000D03*
D16*
X124020000Y-93800000D03*
X116400000Y-96340000D03*
X124020000Y-96340000D03*
D17*
X116400000Y-93800000D03*
D18*
X140090000Y-97750000D03*
X138820000Y-97750000D03*
X137550000Y-97750000D03*
X136280000Y-97750000D03*
D19*
X135010000Y-97750000D03*
D12*
X142870000Y-77550000D03*
X142870000Y-75010000D03*
X145410000Y-77550000D03*
X145410000Y-75010000D03*
X147950000Y-77550000D03*
D13*
X147950000Y-75010000D03*
D12*
X127400000Y-85920000D03*
X127400000Y-88460000D03*
D13*
X127400000Y-91000000D03*
M02*
