G04 #@! TF.GenerationSoftware,KiCad,Pcbnew,6.0.7-f9a2dced07~116~ubuntu20.04.1*
G04 #@! TF.CreationDate,2022-12-22T17:50:38+01:00*
G04 #@! TF.ProjectId,mimu_phantom,6d696d75-5f70-4686-916e-746f6d2e6b69,rev?*
G04 #@! TF.SameCoordinates,Original*
G04 #@! TF.FileFunction,Legend,Bot*
G04 #@! TF.FilePolarity,Positive*
%FSLAX46Y46*%
G04 Gerber Fmt 4.6, Leading zero omitted, Abs format (unit mm)*
G04 Created by KiCad (PCBNEW 6.0.7-f9a2dced07~116~ubuntu20.04.1) date 2022-12-22 17:50:38*
%MOMM*%
%LPD*%
G01*
G04 APERTURE LIST*
%ADD10C,0.200000*%
%ADD11C,0.150000*%
%ADD12C,0.120000*%
G04 APERTURE END LIST*
D10*
X131361904Y-90700000D02*
X131457142Y-90652380D01*
X131600000Y-90652380D01*
X131742857Y-90700000D01*
X131838095Y-90795238D01*
X131885714Y-90890476D01*
X131933333Y-91080952D01*
X131933333Y-91223809D01*
X131885714Y-91414285D01*
X131838095Y-91509523D01*
X131742857Y-91604761D01*
X131600000Y-91652380D01*
X131504761Y-91652380D01*
X131361904Y-91604761D01*
X131314285Y-91557142D01*
X131314285Y-91223809D01*
X131504761Y-91223809D01*
X130885714Y-91652380D02*
X130885714Y-90652380D01*
X130314285Y-91652380D01*
X130314285Y-90652380D01*
X129838095Y-91652380D02*
X129838095Y-90652380D01*
X129600000Y-90652380D01*
X129457142Y-90700000D01*
X129361904Y-90795238D01*
X129314285Y-90890476D01*
X129266666Y-91080952D01*
X129266666Y-91223809D01*
X129314285Y-91414285D01*
X129361904Y-91509523D01*
X129457142Y-91604761D01*
X129600000Y-91652380D01*
X129838095Y-91652380D01*
X131695238Y-89002380D02*
X131695238Y-88002380D01*
X131695238Y-88478571D02*
X131123809Y-88478571D01*
X131123809Y-89002380D02*
X131123809Y-88002380D01*
X130457142Y-88002380D02*
X130266666Y-88002380D01*
X130171428Y-88050000D01*
X130076190Y-88145238D01*
X130028571Y-88335714D01*
X130028571Y-88669047D01*
X130076190Y-88859523D01*
X130171428Y-88954761D01*
X130266666Y-89002380D01*
X130457142Y-89002380D01*
X130552381Y-88954761D01*
X130647619Y-88859523D01*
X130695238Y-88669047D01*
X130695238Y-88335714D01*
X130647619Y-88145238D01*
X130552381Y-88050000D01*
X130457142Y-88002380D01*
X129742857Y-88002380D02*
X129171428Y-88002380D01*
X129457142Y-89002380D02*
X129457142Y-88002380D01*
X131076191Y-86407142D02*
X131123810Y-86454761D01*
X131266667Y-86502380D01*
X131361905Y-86502380D01*
X131504762Y-86454761D01*
X131600000Y-86359523D01*
X131647619Y-86264285D01*
X131695238Y-86073809D01*
X131695238Y-85930952D01*
X131647619Y-85740476D01*
X131600000Y-85645238D01*
X131504762Y-85550000D01*
X131361905Y-85502380D01*
X131266667Y-85502380D01*
X131123810Y-85550000D01*
X131076191Y-85597619D01*
X130171429Y-86502380D02*
X130647619Y-86502380D01*
X130647619Y-85502380D01*
X129838095Y-86502380D02*
X129838095Y-85502380D01*
X129600000Y-85502380D01*
X129457143Y-85550000D01*
X129361905Y-85645238D01*
X129314286Y-85740476D01*
X129266667Y-85930952D01*
X129266667Y-86073809D01*
X129314286Y-86264285D01*
X129361905Y-86359523D01*
X129457143Y-86454761D01*
X129600000Y-86502380D01*
X129838095Y-86502380D01*
D11*
X142270000Y-81873333D02*
X142170000Y-81906666D01*
X142003333Y-81906666D01*
X141936666Y-81873333D01*
X141903333Y-81840000D01*
X141870000Y-81773333D01*
X141870000Y-81706666D01*
X141903333Y-81640000D01*
X141936666Y-81606666D01*
X142003333Y-81573333D01*
X142136666Y-81540000D01*
X142203333Y-81506666D01*
X142236666Y-81473333D01*
X142270000Y-81406666D01*
X142270000Y-81340000D01*
X142236666Y-81273333D01*
X142203333Y-81240000D01*
X142136666Y-81206666D01*
X141970000Y-81206666D01*
X141870000Y-81240000D01*
X141570000Y-81906666D02*
X141570000Y-81206666D01*
X141403333Y-81206666D01*
X141303333Y-81240000D01*
X141236666Y-81306666D01*
X141203333Y-81373333D01*
X141170000Y-81506666D01*
X141170000Y-81606666D01*
X141203333Y-81740000D01*
X141236666Y-81806666D01*
X141303333Y-81873333D01*
X141403333Y-81906666D01*
X141570000Y-81906666D01*
X140903333Y-81706666D02*
X140570000Y-81706666D01*
X140970000Y-81906666D02*
X140736666Y-81206666D01*
X140503333Y-81906666D01*
X142243333Y-88876666D02*
X142010000Y-89576666D01*
X141776666Y-88876666D01*
X141143333Y-89510000D02*
X141176666Y-89543333D01*
X141276666Y-89576666D01*
X141343333Y-89576666D01*
X141443333Y-89543333D01*
X141510000Y-89476666D01*
X141543333Y-89410000D01*
X141576666Y-89276666D01*
X141576666Y-89176666D01*
X141543333Y-89043333D01*
X141510000Y-88976666D01*
X141443333Y-88910000D01*
X141343333Y-88876666D01*
X141276666Y-88876666D01*
X141176666Y-88910000D01*
X141143333Y-88943333D01*
X140443333Y-89510000D02*
X140476666Y-89543333D01*
X140576666Y-89576666D01*
X140643333Y-89576666D01*
X140743333Y-89543333D01*
X140810000Y-89476666D01*
X140843333Y-89410000D01*
X140876666Y-89276666D01*
X140876666Y-89176666D01*
X140843333Y-89043333D01*
X140810000Y-88976666D01*
X140743333Y-88910000D01*
X140643333Y-88876666D01*
X140576666Y-88876666D01*
X140476666Y-88910000D01*
X140443333Y-88943333D01*
X141983333Y-86320000D02*
X142050000Y-86286666D01*
X142150000Y-86286666D01*
X142250000Y-86320000D01*
X142316666Y-86386666D01*
X142350000Y-86453333D01*
X142383333Y-86586666D01*
X142383333Y-86686666D01*
X142350000Y-86820000D01*
X142316666Y-86886666D01*
X142250000Y-86953333D01*
X142150000Y-86986666D01*
X142083333Y-86986666D01*
X141983333Y-86953333D01*
X141950000Y-86920000D01*
X141950000Y-86686666D01*
X142083333Y-86686666D01*
X141650000Y-86986666D02*
X141650000Y-86286666D01*
X141250000Y-86986666D01*
X141250000Y-86286666D01*
X140916666Y-86986666D02*
X140916666Y-86286666D01*
X140750000Y-86286666D01*
X140650000Y-86320000D01*
X140583333Y-86386666D01*
X140550000Y-86453333D01*
X140516666Y-86586666D01*
X140516666Y-86686666D01*
X140550000Y-86820000D01*
X140583333Y-86886666D01*
X140650000Y-86953333D01*
X140750000Y-86986666D01*
X140916666Y-86986666D01*
X142253333Y-84393333D02*
X142153333Y-84426666D01*
X141986666Y-84426666D01*
X141920000Y-84393333D01*
X141886666Y-84360000D01*
X141853333Y-84293333D01*
X141853333Y-84226666D01*
X141886666Y-84160000D01*
X141920000Y-84126666D01*
X141986666Y-84093333D01*
X142120000Y-84060000D01*
X142186666Y-84026666D01*
X142220000Y-83993333D01*
X142253333Y-83926666D01*
X142253333Y-83860000D01*
X142220000Y-83793333D01*
X142186666Y-83760000D01*
X142120000Y-83726666D01*
X141953333Y-83726666D01*
X141853333Y-83760000D01*
X141153333Y-84360000D02*
X141186666Y-84393333D01*
X141286666Y-84426666D01*
X141353333Y-84426666D01*
X141453333Y-84393333D01*
X141520000Y-84326666D01*
X141553333Y-84260000D01*
X141586666Y-84126666D01*
X141586666Y-84026666D01*
X141553333Y-83893333D01*
X141520000Y-83826666D01*
X141453333Y-83760000D01*
X141353333Y-83726666D01*
X141286666Y-83726666D01*
X141186666Y-83760000D01*
X141153333Y-83793333D01*
X140520000Y-84426666D02*
X140853333Y-84426666D01*
X140853333Y-83726666D01*
X123147619Y-90447380D02*
X123147619Y-89447380D01*
X122814285Y-90161666D01*
X122480952Y-89447380D01*
X122480952Y-90447380D01*
X122004761Y-90447380D02*
X122004761Y-89447380D01*
X121528571Y-90447380D02*
X121528571Y-89447380D01*
X121195238Y-90161666D01*
X120861904Y-89447380D01*
X120861904Y-90447380D01*
X120385714Y-89447380D02*
X120385714Y-90256904D01*
X120338095Y-90352142D01*
X120290476Y-90399761D01*
X120195238Y-90447380D01*
X120004761Y-90447380D01*
X119909523Y-90399761D01*
X119861904Y-90352142D01*
X119814285Y-90256904D01*
X119814285Y-89447380D01*
X118576190Y-90447380D02*
X118576190Y-89447380D01*
X118195238Y-89447380D01*
X118100000Y-89495000D01*
X118052380Y-89542619D01*
X118004761Y-89637857D01*
X118004761Y-89780714D01*
X118052380Y-89875952D01*
X118100000Y-89923571D01*
X118195238Y-89971190D01*
X118576190Y-89971190D01*
X117576190Y-90447380D02*
X117576190Y-89447380D01*
X117147619Y-90447380D02*
X117147619Y-89923571D01*
X117195238Y-89828333D01*
X117290476Y-89780714D01*
X117433333Y-89780714D01*
X117528571Y-89828333D01*
X117576190Y-89875952D01*
X116242857Y-90447380D02*
X116242857Y-89923571D01*
X116290476Y-89828333D01*
X116385714Y-89780714D01*
X116576190Y-89780714D01*
X116671428Y-89828333D01*
X116242857Y-90399761D02*
X116338095Y-90447380D01*
X116576190Y-90447380D01*
X116671428Y-90399761D01*
X116719047Y-90304523D01*
X116719047Y-90209285D01*
X116671428Y-90114047D01*
X116576190Y-90066428D01*
X116338095Y-90066428D01*
X116242857Y-90018809D01*
X115766666Y-89780714D02*
X115766666Y-90447380D01*
X115766666Y-89875952D02*
X115719047Y-89828333D01*
X115623809Y-89780714D01*
X115480952Y-89780714D01*
X115385714Y-89828333D01*
X115338095Y-89923571D01*
X115338095Y-90447380D01*
X115004761Y-89780714D02*
X114623809Y-89780714D01*
X114861904Y-89447380D02*
X114861904Y-90304523D01*
X114814285Y-90399761D01*
X114719047Y-90447380D01*
X114623809Y-90447380D01*
X114147619Y-90447380D02*
X114242857Y-90399761D01*
X114290476Y-90352142D01*
X114338095Y-90256904D01*
X114338095Y-89971190D01*
X114290476Y-89875952D01*
X114242857Y-89828333D01*
X114147619Y-89780714D01*
X114004761Y-89780714D01*
X113909523Y-89828333D01*
X113861904Y-89875952D01*
X113814285Y-89971190D01*
X113814285Y-90256904D01*
X113861904Y-90352142D01*
X113909523Y-90399761D01*
X114004761Y-90447380D01*
X114147619Y-90447380D01*
X113385714Y-90447380D02*
X113385714Y-89780714D01*
X113385714Y-89875952D02*
X113338095Y-89828333D01*
X113242857Y-89780714D01*
X113100000Y-89780714D01*
X113004761Y-89828333D01*
X112957142Y-89923571D01*
X112957142Y-90447380D01*
X112957142Y-89923571D02*
X112909523Y-89828333D01*
X112814285Y-89780714D01*
X112671428Y-89780714D01*
X112576190Y-89828333D01*
X112528571Y-89923571D01*
X112528571Y-90447380D01*
X111385714Y-89780714D02*
X111147619Y-90447380D01*
X110909523Y-89780714D01*
X110623809Y-89447380D02*
X110004761Y-89447380D01*
X110338095Y-89828333D01*
X110195238Y-89828333D01*
X110100000Y-89875952D01*
X110052380Y-89923571D01*
X110004761Y-90018809D01*
X110004761Y-90256904D01*
X110052380Y-90352142D01*
X110100000Y-90399761D01*
X110195238Y-90447380D01*
X110480952Y-90447380D01*
X110576190Y-90399761D01*
X110623809Y-90352142D01*
X119885714Y-92057380D02*
X119885714Y-91057380D01*
X119504761Y-91057380D01*
X119409523Y-91105000D01*
X119361904Y-91152619D01*
X119314285Y-91247857D01*
X119314285Y-91390714D01*
X119361904Y-91485952D01*
X119409523Y-91533571D01*
X119504761Y-91581190D01*
X119885714Y-91581190D01*
X118885714Y-92057380D02*
X118885714Y-91057380D01*
X118504761Y-91057380D01*
X118409523Y-91105000D01*
X118361904Y-91152619D01*
X118314285Y-91247857D01*
X118314285Y-91390714D01*
X118361904Y-91485952D01*
X118409523Y-91533571D01*
X118504761Y-91581190D01*
X118885714Y-91581190D01*
X116600000Y-92057380D02*
X117171428Y-92057380D01*
X116885714Y-92057380D02*
X116885714Y-91057380D01*
X116980952Y-91200238D01*
X117076190Y-91295476D01*
X117171428Y-91343095D01*
X116219047Y-91152619D02*
X116171428Y-91105000D01*
X116076190Y-91057380D01*
X115838095Y-91057380D01*
X115742857Y-91105000D01*
X115695238Y-91152619D01*
X115647619Y-91247857D01*
X115647619Y-91343095D01*
X115695238Y-91485952D01*
X116266666Y-92057380D01*
X115647619Y-92057380D01*
X115219047Y-91962142D02*
X115171428Y-92009761D01*
X115219047Y-92057380D01*
X115266666Y-92009761D01*
X115219047Y-91962142D01*
X115219047Y-92057380D01*
X114790476Y-91152619D02*
X114742857Y-91105000D01*
X114647619Y-91057380D01*
X114409523Y-91057380D01*
X114314285Y-91105000D01*
X114266666Y-91152619D01*
X114219047Y-91247857D01*
X114219047Y-91343095D01*
X114266666Y-91485952D01*
X114838095Y-92057380D01*
X114219047Y-92057380D01*
X113838095Y-91152619D02*
X113790476Y-91105000D01*
X113695238Y-91057380D01*
X113457142Y-91057380D01*
X113361904Y-91105000D01*
X113314285Y-91152619D01*
X113266666Y-91247857D01*
X113266666Y-91343095D01*
X113314285Y-91485952D01*
X113885714Y-92057380D01*
X113266666Y-92057380D01*
X129516666Y-98852380D02*
X129516666Y-97852380D01*
X129088095Y-98852380D02*
X129088095Y-98328571D01*
X129135714Y-98233333D01*
X129230952Y-98185714D01*
X129373809Y-98185714D01*
X129469047Y-98233333D01*
X129516666Y-98280952D01*
X128754761Y-98185714D02*
X128373809Y-98185714D01*
X128611904Y-97852380D02*
X128611904Y-98709523D01*
X128564285Y-98804761D01*
X128469047Y-98852380D01*
X128373809Y-98852380D01*
X128183333Y-98185714D02*
X127802380Y-98185714D01*
X128040476Y-97852380D02*
X128040476Y-98709523D01*
X127992857Y-98804761D01*
X127897619Y-98852380D01*
X127802380Y-98852380D01*
X127469047Y-98185714D02*
X127469047Y-99185714D01*
X127469047Y-98233333D02*
X127373809Y-98185714D01*
X127183333Y-98185714D01*
X127088095Y-98233333D01*
X127040476Y-98280952D01*
X126992857Y-98376190D01*
X126992857Y-98661904D01*
X127040476Y-98757142D01*
X127088095Y-98804761D01*
X127183333Y-98852380D01*
X127373809Y-98852380D01*
X127469047Y-98804761D01*
X126611904Y-98804761D02*
X126516666Y-98852380D01*
X126326190Y-98852380D01*
X126230952Y-98804761D01*
X126183333Y-98709523D01*
X126183333Y-98661904D01*
X126230952Y-98566666D01*
X126326190Y-98519047D01*
X126469047Y-98519047D01*
X126564285Y-98471428D01*
X126611904Y-98376190D01*
X126611904Y-98328571D01*
X126564285Y-98233333D01*
X126469047Y-98185714D01*
X126326190Y-98185714D01*
X126230952Y-98233333D01*
X125754761Y-98757142D02*
X125707142Y-98804761D01*
X125754761Y-98852380D01*
X125802380Y-98804761D01*
X125754761Y-98757142D01*
X125754761Y-98852380D01*
X125754761Y-98233333D02*
X125707142Y-98280952D01*
X125754761Y-98328571D01*
X125802380Y-98280952D01*
X125754761Y-98233333D01*
X125754761Y-98328571D01*
X124564285Y-97804761D02*
X125421428Y-99090476D01*
X123516666Y-97804761D02*
X124373809Y-99090476D01*
X122754761Y-98185714D02*
X122754761Y-98995238D01*
X122802380Y-99090476D01*
X122850000Y-99138095D01*
X122945238Y-99185714D01*
X123088095Y-99185714D01*
X123183333Y-99138095D01*
X122754761Y-98804761D02*
X122850000Y-98852380D01*
X123040476Y-98852380D01*
X123135714Y-98804761D01*
X123183333Y-98757142D01*
X123230952Y-98661904D01*
X123230952Y-98376190D01*
X123183333Y-98280952D01*
X123135714Y-98233333D01*
X123040476Y-98185714D01*
X122850000Y-98185714D01*
X122754761Y-98233333D01*
X122278571Y-98852380D02*
X122278571Y-98185714D01*
X122278571Y-97852380D02*
X122326190Y-97900000D01*
X122278571Y-97947619D01*
X122230952Y-97900000D01*
X122278571Y-97852380D01*
X122278571Y-97947619D01*
X121945238Y-98185714D02*
X121564285Y-98185714D01*
X121802380Y-97852380D02*
X121802380Y-98709523D01*
X121754761Y-98804761D01*
X121659523Y-98852380D01*
X121564285Y-98852380D01*
X121230952Y-98852380D02*
X121230952Y-97852380D01*
X120802380Y-98852380D02*
X120802380Y-98328571D01*
X120850000Y-98233333D01*
X120945238Y-98185714D01*
X121088095Y-98185714D01*
X121183333Y-98233333D01*
X121230952Y-98280952D01*
X119897619Y-98185714D02*
X119897619Y-98852380D01*
X120326190Y-98185714D02*
X120326190Y-98709523D01*
X120278571Y-98804761D01*
X120183333Y-98852380D01*
X120040476Y-98852380D01*
X119945238Y-98804761D01*
X119897619Y-98757142D01*
X119421428Y-98852380D02*
X119421428Y-97852380D01*
X119421428Y-98233333D02*
X119326190Y-98185714D01*
X119135714Y-98185714D01*
X119040476Y-98233333D01*
X118992857Y-98280952D01*
X118945238Y-98376190D01*
X118945238Y-98661904D01*
X118992857Y-98757142D01*
X119040476Y-98804761D01*
X119135714Y-98852380D01*
X119326190Y-98852380D01*
X119421428Y-98804761D01*
X118516666Y-98757142D02*
X118469047Y-98804761D01*
X118516666Y-98852380D01*
X118564285Y-98804761D01*
X118516666Y-98757142D01*
X118516666Y-98852380D01*
X117611904Y-98804761D02*
X117707142Y-98852380D01*
X117897619Y-98852380D01*
X117992857Y-98804761D01*
X118040476Y-98757142D01*
X118088095Y-98661904D01*
X118088095Y-98376190D01*
X118040476Y-98280952D01*
X117992857Y-98233333D01*
X117897619Y-98185714D01*
X117707142Y-98185714D01*
X117611904Y-98233333D01*
X117040476Y-98852380D02*
X117135714Y-98804761D01*
X117183333Y-98757142D01*
X117230952Y-98661904D01*
X117230952Y-98376190D01*
X117183333Y-98280952D01*
X117135714Y-98233333D01*
X117040476Y-98185714D01*
X116897619Y-98185714D01*
X116802380Y-98233333D01*
X116754761Y-98280952D01*
X116707142Y-98376190D01*
X116707142Y-98661904D01*
X116754761Y-98757142D01*
X116802380Y-98804761D01*
X116897619Y-98852380D01*
X117040476Y-98852380D01*
X116278571Y-98852380D02*
X116278571Y-98185714D01*
X116278571Y-98280952D02*
X116230952Y-98233333D01*
X116135714Y-98185714D01*
X115992857Y-98185714D01*
X115897619Y-98233333D01*
X115850000Y-98328571D01*
X115850000Y-98852380D01*
X115850000Y-98328571D02*
X115802380Y-98233333D01*
X115707142Y-98185714D01*
X115564285Y-98185714D01*
X115469047Y-98233333D01*
X115421428Y-98328571D01*
X115421428Y-98852380D01*
X114230952Y-97804761D02*
X115088095Y-99090476D01*
X113326190Y-98757142D02*
X113373809Y-98804761D01*
X113516666Y-98852380D01*
X113611904Y-98852380D01*
X113754761Y-98804761D01*
X113850000Y-98709523D01*
X113897619Y-98614285D01*
X113945238Y-98423809D01*
X113945238Y-98280952D01*
X113897619Y-98090476D01*
X113850000Y-97995238D01*
X113754761Y-97900000D01*
X113611904Y-97852380D01*
X113516666Y-97852380D01*
X113373809Y-97900000D01*
X113326190Y-97947619D01*
X112897619Y-98852380D02*
X112897619Y-98185714D01*
X112897619Y-97852380D02*
X112945238Y-97900000D01*
X112897619Y-97947619D01*
X112850000Y-97900000D01*
X112897619Y-97852380D01*
X112897619Y-97947619D01*
X112421428Y-98852380D02*
X112421428Y-98185714D01*
X112421428Y-98376190D02*
X112373809Y-98280952D01*
X112326190Y-98233333D01*
X112230952Y-98185714D01*
X112135714Y-98185714D01*
X111802380Y-98852380D02*
X111802380Y-98185714D01*
X111802380Y-98376190D02*
X111754761Y-98280952D01*
X111707142Y-98233333D01*
X111611904Y-98185714D01*
X111516666Y-98185714D01*
X111040476Y-98852380D02*
X111135714Y-98804761D01*
X111183333Y-98757142D01*
X111230952Y-98661904D01*
X111230952Y-98376190D01*
X111183333Y-98280952D01*
X111135714Y-98233333D01*
X111040476Y-98185714D01*
X110897619Y-98185714D01*
X110802380Y-98233333D01*
X110754761Y-98280952D01*
X110707142Y-98376190D01*
X110707142Y-98661904D01*
X110754761Y-98757142D01*
X110802380Y-98804761D01*
X110897619Y-98852380D01*
X111040476Y-98852380D01*
X110278571Y-98852380D02*
X110278571Y-98185714D01*
X110278571Y-98280952D02*
X110230952Y-98233333D01*
X110135714Y-98185714D01*
X109992857Y-98185714D01*
X109897619Y-98233333D01*
X109850000Y-98328571D01*
X109850000Y-98852380D01*
X109850000Y-98328571D02*
X109802380Y-98233333D01*
X109707142Y-98185714D01*
X109564285Y-98185714D01*
X109469047Y-98233333D01*
X109421428Y-98328571D01*
X109421428Y-98852380D01*
X108516666Y-98185714D02*
X108516666Y-98852380D01*
X108945238Y-98185714D02*
X108945238Y-98709523D01*
X108897619Y-98804761D01*
X108802380Y-98852380D01*
X108659523Y-98852380D01*
X108564285Y-98804761D01*
X108516666Y-98757142D01*
X107897619Y-98852380D02*
X107992857Y-98804761D01*
X108040476Y-98709523D01*
X108040476Y-97852380D01*
X107088095Y-98185714D02*
X107088095Y-98852380D01*
X107516666Y-98185714D02*
X107516666Y-98709523D01*
X107469047Y-98804761D01*
X107373809Y-98852380D01*
X107230952Y-98852380D01*
X107135714Y-98804761D01*
X107088095Y-98757142D01*
X106659523Y-98804761D02*
X106564285Y-98852380D01*
X106373809Y-98852380D01*
X106278571Y-98804761D01*
X106230952Y-98709523D01*
X106230952Y-98661904D01*
X106278571Y-98566666D01*
X106373809Y-98519047D01*
X106516666Y-98519047D01*
X106611904Y-98471428D01*
X106659523Y-98376190D01*
X106659523Y-98328571D01*
X106611904Y-98233333D01*
X106516666Y-98185714D01*
X106373809Y-98185714D01*
X106278571Y-98233333D01*
X105088095Y-97804761D02*
X105945238Y-99090476D01*
X104754761Y-98852380D02*
X104754761Y-98185714D01*
X104754761Y-98280952D02*
X104707142Y-98233333D01*
X104611904Y-98185714D01*
X104469047Y-98185714D01*
X104373809Y-98233333D01*
X104326190Y-98328571D01*
X104326190Y-98852380D01*
X104326190Y-98328571D02*
X104278571Y-98233333D01*
X104183333Y-98185714D01*
X104040476Y-98185714D01*
X103945238Y-98233333D01*
X103897619Y-98328571D01*
X103897619Y-98852380D01*
X103421428Y-98852380D02*
X103421428Y-98185714D01*
X103421428Y-97852380D02*
X103469047Y-97900000D01*
X103421428Y-97947619D01*
X103373809Y-97900000D01*
X103421428Y-97852380D01*
X103421428Y-97947619D01*
X102945238Y-98852380D02*
X102945238Y-98185714D01*
X102945238Y-98280952D02*
X102897619Y-98233333D01*
X102802380Y-98185714D01*
X102659523Y-98185714D01*
X102564285Y-98233333D01*
X102516666Y-98328571D01*
X102516666Y-98852380D01*
X102516666Y-98328571D02*
X102469047Y-98233333D01*
X102373809Y-98185714D01*
X102230952Y-98185714D01*
X102135714Y-98233333D01*
X102088095Y-98328571D01*
X102088095Y-98852380D01*
X101183333Y-98185714D02*
X101183333Y-98852380D01*
X101611904Y-98185714D02*
X101611904Y-98709523D01*
X101564285Y-98804761D01*
X101469047Y-98852380D01*
X101326190Y-98852380D01*
X101230952Y-98804761D01*
X101183333Y-98757142D01*
X109580952Y-74552380D02*
X109580952Y-75266666D01*
X109533333Y-75409523D01*
X109438095Y-75504761D01*
X109295238Y-75552380D01*
X109200000Y-75552380D01*
X110533333Y-75552380D02*
X110057142Y-75552380D01*
X110057142Y-74552380D01*
X111438095Y-75457142D02*
X111390476Y-75504761D01*
X111247619Y-75552380D01*
X111152380Y-75552380D01*
X111009523Y-75504761D01*
X110914285Y-75409523D01*
X110866666Y-75314285D01*
X110819047Y-75123809D01*
X110819047Y-74980952D01*
X110866666Y-74790476D01*
X110914285Y-74695238D01*
X111009523Y-74600000D01*
X111152380Y-74552380D01*
X111247619Y-74552380D01*
X111390476Y-74600000D01*
X111438095Y-74647619D01*
X112152380Y-74552380D02*
X112152380Y-75266666D01*
X112104761Y-75409523D01*
X112009523Y-75504761D01*
X111866666Y-75552380D01*
X111771428Y-75552380D01*
X113104761Y-75552380D02*
X112628571Y-75552380D01*
X112628571Y-74552380D01*
X114009523Y-75457142D02*
X113961904Y-75504761D01*
X113819047Y-75552380D01*
X113723809Y-75552380D01*
X113580952Y-75504761D01*
X113485714Y-75409523D01*
X113438095Y-75314285D01*
X113390476Y-75123809D01*
X113390476Y-74980952D01*
X113438095Y-74790476D01*
X113485714Y-74695238D01*
X113580952Y-74600000D01*
X113723809Y-74552380D01*
X113819047Y-74552380D01*
X113961904Y-74600000D01*
X114009523Y-74647619D01*
X114723809Y-74552380D02*
X114723809Y-75266666D01*
X114676190Y-75409523D01*
X114580952Y-75504761D01*
X114438095Y-75552380D01*
X114342857Y-75552380D01*
X115676190Y-75552380D02*
X115200000Y-75552380D01*
X115200000Y-74552380D01*
X116580952Y-75457142D02*
X116533333Y-75504761D01*
X116390476Y-75552380D01*
X116295238Y-75552380D01*
X116152380Y-75504761D01*
X116057142Y-75409523D01*
X116009523Y-75314285D01*
X115961904Y-75123809D01*
X115961904Y-74980952D01*
X116009523Y-74790476D01*
X116057142Y-74695238D01*
X116152380Y-74600000D01*
X116295238Y-74552380D01*
X116390476Y-74552380D01*
X116533333Y-74600000D01*
X116580952Y-74647619D01*
X117295238Y-74552380D02*
X117295238Y-75266666D01*
X117247619Y-75409523D01*
X117152380Y-75504761D01*
X117009523Y-75552380D01*
X116914285Y-75552380D01*
X118247619Y-75552380D02*
X117771428Y-75552380D01*
X117771428Y-74552380D01*
X119152380Y-75457142D02*
X119104761Y-75504761D01*
X118961904Y-75552380D01*
X118866666Y-75552380D01*
X118723809Y-75504761D01*
X118628571Y-75409523D01*
X118580952Y-75314285D01*
X118533333Y-75123809D01*
X118533333Y-74980952D01*
X118580952Y-74790476D01*
X118628571Y-74695238D01*
X118723809Y-74600000D01*
X118866666Y-74552380D01*
X118961904Y-74552380D01*
X119104761Y-74600000D01*
X119152380Y-74647619D01*
D12*
X126070000Y-91000000D02*
X126070000Y-92330000D01*
X126070000Y-92330000D02*
X127400000Y-92330000D01*
X126070000Y-84590000D02*
X128730000Y-84590000D01*
X126070000Y-89730000D02*
X126070000Y-84590000D01*
X128730000Y-89730000D02*
X128730000Y-84590000D01*
X126070000Y-89730000D02*
X128730000Y-89730000D01*
M02*
