G04 #@! TF.GenerationSoftware,KiCad,Pcbnew,(5.1.5)-3*
G04 #@! TF.CreationDate,2020-03-27T14:12:53+01:00*
G04 #@! TF.ProjectId,mimu_phantom,6d696d75-5f70-4686-916e-746f6d2e6b69,rev?*
G04 #@! TF.SameCoordinates,Original*
G04 #@! TF.FileFunction,Legend,Top*
G04 #@! TF.FilePolarity,Positive*
%FSLAX46Y46*%
G04 Gerber Fmt 4.6, Leading zero omitted, Abs format (unit mm)*
G04 Created by KiCad (PCBNEW (5.1.5)-3) date 2020-03-27 14:12:53*
%MOMM*%
%LPD*%
G04 APERTURE LIST*
%ADD10C,0.150000*%
%ADD11C,0.095250*%
%ADD12C,0.100000*%
%ADD13C,0.120000*%
G04 APERTURE END LIST*
D10*
X101771428Y-82671428D02*
X102533333Y-82671428D01*
X103771428Y-82671428D02*
X104533333Y-82671428D01*
X105676190Y-82385714D02*
X105866666Y-83052380D01*
X106057142Y-82576190D01*
X106247619Y-83052380D01*
X106438095Y-82385714D01*
X106961904Y-83052380D02*
X106866666Y-83004761D01*
X106819047Y-82957142D01*
X106771428Y-82861904D01*
X106771428Y-82576190D01*
X106819047Y-82480952D01*
X106866666Y-82433333D01*
X106961904Y-82385714D01*
X107104761Y-82385714D01*
X107200000Y-82433333D01*
X107247619Y-82480952D01*
X107295238Y-82576190D01*
X107295238Y-82861904D01*
X107247619Y-82957142D01*
X107200000Y-83004761D01*
X107104761Y-83052380D01*
X106961904Y-83052380D01*
X107628571Y-82385714D02*
X107819047Y-83052380D01*
X108009523Y-82576190D01*
X108200000Y-83052380D01*
X108390476Y-82385714D01*
X108819047Y-83004761D02*
X108819047Y-83052380D01*
X108771428Y-83147619D01*
X108723809Y-83195238D01*
X110009523Y-83052380D02*
X110009523Y-82385714D01*
X110009523Y-82480952D02*
X110057142Y-82433333D01*
X110152380Y-82385714D01*
X110295238Y-82385714D01*
X110390476Y-82433333D01*
X110438095Y-82528571D01*
X110438095Y-83052380D01*
X110438095Y-82528571D02*
X110485714Y-82433333D01*
X110580952Y-82385714D01*
X110723809Y-82385714D01*
X110819047Y-82433333D01*
X110866666Y-82528571D01*
X110866666Y-83052380D01*
X111771428Y-82385714D02*
X111771428Y-83052380D01*
X111342857Y-82385714D02*
X111342857Y-82909523D01*
X111390476Y-83004761D01*
X111485714Y-83052380D01*
X111628571Y-83052380D01*
X111723809Y-83004761D01*
X111771428Y-82957142D01*
X112676190Y-83004761D02*
X112580952Y-83052380D01*
X112390476Y-83052380D01*
X112295238Y-83004761D01*
X112247619Y-82957142D01*
X112200000Y-82861904D01*
X112200000Y-82576190D01*
X112247619Y-82480952D01*
X112295238Y-82433333D01*
X112390476Y-82385714D01*
X112580952Y-82385714D01*
X112676190Y-82433333D01*
X113104761Y-83052380D02*
X113104761Y-82052380D01*
X113533333Y-83052380D02*
X113533333Y-82528571D01*
X113485714Y-82433333D01*
X113390476Y-82385714D01*
X113247619Y-82385714D01*
X113152380Y-82433333D01*
X113104761Y-82480952D01*
X114723809Y-83004761D02*
X114819047Y-83052380D01*
X115009523Y-83052380D01*
X115104761Y-83004761D01*
X115152380Y-82909523D01*
X115152380Y-82861904D01*
X115104761Y-82766666D01*
X115009523Y-82719047D01*
X114866666Y-82719047D01*
X114771428Y-82671428D01*
X114723809Y-82576190D01*
X114723809Y-82528571D01*
X114771428Y-82433333D01*
X114866666Y-82385714D01*
X115009523Y-82385714D01*
X115104761Y-82433333D01*
X115580952Y-82385714D02*
X115580952Y-83385714D01*
X115580952Y-82433333D02*
X115676190Y-82385714D01*
X115866666Y-82385714D01*
X115961904Y-82433333D01*
X116009523Y-82480952D01*
X116057142Y-82576190D01*
X116057142Y-82861904D01*
X116009523Y-82957142D01*
X115961904Y-83004761D01*
X115866666Y-83052380D01*
X115676190Y-83052380D01*
X115580952Y-83004761D01*
X116914285Y-83052380D02*
X116914285Y-82528571D01*
X116866666Y-82433333D01*
X116771428Y-82385714D01*
X116580952Y-82385714D01*
X116485714Y-82433333D01*
X116914285Y-83004761D02*
X116819047Y-83052380D01*
X116580952Y-83052380D01*
X116485714Y-83004761D01*
X116438095Y-82909523D01*
X116438095Y-82814285D01*
X116485714Y-82719047D01*
X116580952Y-82671428D01*
X116819047Y-82671428D01*
X116914285Y-82623809D01*
X117819047Y-83004761D02*
X117723809Y-83052380D01*
X117533333Y-83052380D01*
X117438095Y-83004761D01*
X117390476Y-82957142D01*
X117342857Y-82861904D01*
X117342857Y-82576190D01*
X117390476Y-82480952D01*
X117438095Y-82433333D01*
X117533333Y-82385714D01*
X117723809Y-82385714D01*
X117819047Y-82433333D01*
X118628571Y-83004761D02*
X118533333Y-83052380D01*
X118342857Y-83052380D01*
X118247619Y-83004761D01*
X118200000Y-82909523D01*
X118200000Y-82528571D01*
X118247619Y-82433333D01*
X118342857Y-82385714D01*
X118533333Y-82385714D01*
X118628571Y-82433333D01*
X118676190Y-82528571D01*
X118676190Y-82623809D01*
X118200000Y-82719047D01*
X119866666Y-82671428D02*
X120628571Y-82671428D01*
X121866666Y-82671428D02*
X122628571Y-82671428D01*
D11*
X152909714Y-78409500D02*
X152873428Y-78391357D01*
X152819000Y-78391357D01*
X152764571Y-78409500D01*
X152728285Y-78445785D01*
X152710142Y-78482071D01*
X152692000Y-78554642D01*
X152692000Y-78609071D01*
X152710142Y-78681642D01*
X152728285Y-78717928D01*
X152764571Y-78754214D01*
X152819000Y-78772357D01*
X152855285Y-78772357D01*
X152909714Y-78754214D01*
X152927857Y-78736071D01*
X152927857Y-78609071D01*
X152855285Y-78609071D01*
X153091142Y-78772357D02*
X153091142Y-78391357D01*
X153308857Y-78772357D01*
X153308857Y-78391357D01*
X153490285Y-78772357D02*
X153490285Y-78391357D01*
X153581000Y-78391357D01*
X153635428Y-78409500D01*
X153671714Y-78445785D01*
X153689857Y-78482071D01*
X153708000Y-78554642D01*
X153708000Y-78609071D01*
X153689857Y-78681642D01*
X153671714Y-78717928D01*
X153635428Y-78754214D01*
X153581000Y-78772357D01*
X153490285Y-78772357D01*
X157692000Y-78391357D02*
X157819000Y-78772357D01*
X157946000Y-78391357D01*
X158290714Y-78736071D02*
X158272571Y-78754214D01*
X158218142Y-78772357D01*
X158181857Y-78772357D01*
X158127428Y-78754214D01*
X158091142Y-78717928D01*
X158073000Y-78681642D01*
X158054857Y-78609071D01*
X158054857Y-78554642D01*
X158073000Y-78482071D01*
X158091142Y-78445785D01*
X158127428Y-78409500D01*
X158181857Y-78391357D01*
X158218142Y-78391357D01*
X158272571Y-78409500D01*
X158290714Y-78427642D01*
X158671714Y-78736071D02*
X158653571Y-78754214D01*
X158599142Y-78772357D01*
X158562857Y-78772357D01*
X158508428Y-78754214D01*
X158472142Y-78717928D01*
X158454000Y-78681642D01*
X158435857Y-78609071D01*
X158435857Y-78554642D01*
X158454000Y-78482071D01*
X158472142Y-78445785D01*
X158508428Y-78409500D01*
X158562857Y-78391357D01*
X158599142Y-78391357D01*
X158653571Y-78409500D01*
X158671714Y-78427642D01*
X152991357Y-72572357D02*
X152864357Y-72390928D01*
X152773642Y-72572357D02*
X152773642Y-72191357D01*
X152918785Y-72191357D01*
X152955071Y-72209500D01*
X152973214Y-72227642D01*
X152991357Y-72263928D01*
X152991357Y-72318357D01*
X152973214Y-72354642D01*
X152955071Y-72372785D01*
X152918785Y-72390928D01*
X152773642Y-72390928D01*
X153136500Y-72554214D02*
X153190928Y-72572357D01*
X153281642Y-72572357D01*
X153317928Y-72554214D01*
X153336071Y-72536071D01*
X153354214Y-72499785D01*
X153354214Y-72463500D01*
X153336071Y-72427214D01*
X153317928Y-72409071D01*
X153281642Y-72390928D01*
X153209071Y-72372785D01*
X153172785Y-72354642D01*
X153154642Y-72336500D01*
X153136500Y-72300214D01*
X153136500Y-72263928D01*
X153154642Y-72227642D01*
X153172785Y-72209500D01*
X153209071Y-72191357D01*
X153299785Y-72191357D01*
X153354214Y-72209500D01*
X153463071Y-72191357D02*
X153680785Y-72191357D01*
X153571928Y-72572357D02*
X153571928Y-72191357D01*
X155180676Y-72556685D02*
X155235105Y-72574828D01*
X155325819Y-72574828D01*
X155362105Y-72556685D01*
X155380248Y-72538542D01*
X155398391Y-72502256D01*
X155398391Y-72465971D01*
X155380248Y-72429685D01*
X155362105Y-72411542D01*
X155325819Y-72393399D01*
X155253248Y-72375256D01*
X155216962Y-72357113D01*
X155198819Y-72338971D01*
X155180676Y-72302685D01*
X155180676Y-72266399D01*
X155198819Y-72230113D01*
X155216962Y-72211971D01*
X155253248Y-72193828D01*
X155343962Y-72193828D01*
X155398391Y-72211971D01*
X155779391Y-72538542D02*
X155761248Y-72556685D01*
X155706819Y-72574828D01*
X155670534Y-72574828D01*
X155616105Y-72556685D01*
X155579819Y-72520399D01*
X155561676Y-72484113D01*
X155543534Y-72411542D01*
X155543534Y-72357113D01*
X155561676Y-72284542D01*
X155579819Y-72248256D01*
X155616105Y-72211971D01*
X155670534Y-72193828D01*
X155706819Y-72193828D01*
X155761248Y-72211971D01*
X155779391Y-72230113D01*
X155942676Y-72574828D02*
X155942676Y-72193828D01*
X156160391Y-72574828D02*
X155997105Y-72357113D01*
X156160391Y-72193828D02*
X155942676Y-72411542D01*
X157601285Y-72572357D02*
X157601285Y-72191357D01*
X157728285Y-72463500D01*
X157855285Y-72191357D01*
X157855285Y-72572357D01*
X158036714Y-72572357D02*
X158036714Y-72191357D01*
X158200000Y-72554214D02*
X158254428Y-72572357D01*
X158345142Y-72572357D01*
X158381428Y-72554214D01*
X158399571Y-72536071D01*
X158417714Y-72499785D01*
X158417714Y-72463500D01*
X158399571Y-72427214D01*
X158381428Y-72409071D01*
X158345142Y-72390928D01*
X158272571Y-72372785D01*
X158236285Y-72354642D01*
X158218142Y-72336500D01*
X158200000Y-72300214D01*
X158200000Y-72263928D01*
X158218142Y-72227642D01*
X158236285Y-72209500D01*
X158272571Y-72191357D01*
X158363285Y-72191357D01*
X158417714Y-72209500D01*
X158653571Y-72191357D02*
X158726142Y-72191357D01*
X158762428Y-72209500D01*
X158798714Y-72245785D01*
X158816857Y-72318357D01*
X158816857Y-72445357D01*
X158798714Y-72517928D01*
X158762428Y-72554214D01*
X158726142Y-72572357D01*
X158653571Y-72572357D01*
X158617285Y-72554214D01*
X158581000Y-72517928D01*
X158562857Y-72445357D01*
X158562857Y-72318357D01*
X158581000Y-72245785D01*
X158617285Y-72209500D01*
X158653571Y-72191357D01*
X155001285Y-78772357D02*
X155001285Y-78391357D01*
X155128285Y-78663500D01*
X155255285Y-78391357D01*
X155255285Y-78772357D01*
X155509285Y-78391357D02*
X155581857Y-78391357D01*
X155618142Y-78409500D01*
X155654428Y-78445785D01*
X155672571Y-78518357D01*
X155672571Y-78645357D01*
X155654428Y-78717928D01*
X155618142Y-78754214D01*
X155581857Y-78772357D01*
X155509285Y-78772357D01*
X155473000Y-78754214D01*
X155436714Y-78717928D01*
X155418571Y-78645357D01*
X155418571Y-78518357D01*
X155436714Y-78445785D01*
X155473000Y-78409500D01*
X155509285Y-78391357D01*
X155817714Y-78754214D02*
X155872142Y-78772357D01*
X155962857Y-78772357D01*
X155999142Y-78754214D01*
X156017285Y-78736071D01*
X156035428Y-78699785D01*
X156035428Y-78663500D01*
X156017285Y-78627214D01*
X155999142Y-78609071D01*
X155962857Y-78590928D01*
X155890285Y-78572785D01*
X155854000Y-78554642D01*
X155835857Y-78536500D01*
X155817714Y-78500214D01*
X155817714Y-78463928D01*
X155835857Y-78427642D01*
X155854000Y-78409500D01*
X155890285Y-78391357D01*
X155981000Y-78391357D01*
X156035428Y-78409500D01*
X156198714Y-78772357D02*
X156198714Y-78391357D01*
D12*
X103371428Y-90980952D02*
X103238095Y-90790476D01*
X103142857Y-90980952D02*
X103142857Y-90580952D01*
X103295238Y-90580952D01*
X103333333Y-90600000D01*
X103352380Y-90619047D01*
X103371428Y-90657142D01*
X103371428Y-90714285D01*
X103352380Y-90752380D01*
X103333333Y-90771428D01*
X103295238Y-90790476D01*
X103142857Y-90790476D01*
X103542857Y-90771428D02*
X103676190Y-90771428D01*
X103733333Y-90980952D02*
X103542857Y-90980952D01*
X103542857Y-90580952D01*
X103733333Y-90580952D01*
X104038095Y-90771428D02*
X103904761Y-90771428D01*
X103904761Y-90980952D02*
X103904761Y-90580952D01*
X104095238Y-90580952D01*
X124780952Y-86745238D02*
X125180952Y-86478571D01*
X124780952Y-86478571D02*
X125180952Y-86745238D01*
X125180952Y-86135714D02*
X125180952Y-86326190D01*
X124780952Y-86326190D01*
X125180952Y-85773809D02*
X124990476Y-85907142D01*
X125180952Y-86002380D02*
X124780952Y-86002380D01*
X124780952Y-85850000D01*
X124800000Y-85811904D01*
X124819047Y-85792857D01*
X124857142Y-85773809D01*
X124914285Y-85773809D01*
X124952380Y-85792857D01*
X124971428Y-85811904D01*
X124990476Y-85850000D01*
X124990476Y-86002380D01*
X142533333Y-72180952D02*
X142533333Y-71780952D01*
X142685714Y-71780952D01*
X142723809Y-71800000D01*
X142742857Y-71819047D01*
X142761904Y-71857142D01*
X142761904Y-71914285D01*
X142742857Y-71952380D01*
X142723809Y-71971428D01*
X142685714Y-71990476D01*
X142533333Y-71990476D01*
X143009523Y-71780952D02*
X143085714Y-71780952D01*
X143123809Y-71800000D01*
X143161904Y-71838095D01*
X143180952Y-71914285D01*
X143180952Y-72047619D01*
X143161904Y-72123809D01*
X143123809Y-72161904D01*
X143085714Y-72180952D01*
X143009523Y-72180952D01*
X142971428Y-72161904D01*
X142933333Y-72123809D01*
X142914285Y-72047619D01*
X142914285Y-71914285D01*
X142933333Y-71838095D01*
X142971428Y-71800000D01*
X143009523Y-71780952D01*
X143295238Y-71780952D02*
X143523809Y-71780952D01*
X143409523Y-72180952D02*
X143409523Y-71780952D01*
X102380952Y-98133333D02*
X102780952Y-98000000D01*
X102380952Y-97866666D01*
X102742857Y-97504761D02*
X102761904Y-97523809D01*
X102780952Y-97580952D01*
X102780952Y-97619047D01*
X102761904Y-97676190D01*
X102723809Y-97714285D01*
X102685714Y-97733333D01*
X102609523Y-97752380D01*
X102552380Y-97752380D01*
X102476190Y-97733333D01*
X102438095Y-97714285D01*
X102400000Y-97676190D01*
X102380952Y-97619047D01*
X102380952Y-97580952D01*
X102400000Y-97523809D01*
X102419047Y-97504761D01*
X102742857Y-97104761D02*
X102761904Y-97123809D01*
X102780952Y-97180952D01*
X102780952Y-97219047D01*
X102761904Y-97276190D01*
X102723809Y-97314285D01*
X102685714Y-97333333D01*
X102609523Y-97352380D01*
X102552380Y-97352380D01*
X102476190Y-97333333D01*
X102438095Y-97314285D01*
X102400000Y-97276190D01*
X102380952Y-97219047D01*
X102380952Y-97180952D01*
X102400000Y-97123809D01*
X102419047Y-97104761D01*
X147104761Y-96930952D02*
X147104761Y-96530952D01*
X147257142Y-96530952D01*
X147295238Y-96550000D01*
X147314285Y-96569047D01*
X147333333Y-96607142D01*
X147333333Y-96664285D01*
X147314285Y-96702380D01*
X147295238Y-96721428D01*
X147257142Y-96740476D01*
X147104761Y-96740476D01*
X147504761Y-96930952D02*
X147504761Y-96530952D01*
X147600000Y-96530952D01*
X147657142Y-96550000D01*
X147695238Y-96588095D01*
X147714285Y-96626190D01*
X147733333Y-96702380D01*
X147733333Y-96759523D01*
X147714285Y-96835714D01*
X147695238Y-96873809D01*
X147657142Y-96911904D01*
X147600000Y-96930952D01*
X147504761Y-96930952D01*
X147980952Y-96530952D02*
X148019047Y-96530952D01*
X148057142Y-96550000D01*
X148076190Y-96569047D01*
X148095238Y-96607142D01*
X148114285Y-96683333D01*
X148114285Y-96778571D01*
X148095238Y-96854761D01*
X148076190Y-96892857D01*
X148057142Y-96911904D01*
X148019047Y-96930952D01*
X147980952Y-96930952D01*
X147942857Y-96911904D01*
X147923809Y-96892857D01*
X147904761Y-96854761D01*
X147885714Y-96778571D01*
X147885714Y-96683333D01*
X147904761Y-96607142D01*
X147923809Y-96569047D01*
X147942857Y-96550000D01*
X147980952Y-96530952D01*
X148348761Y-96446952D02*
X148348761Y-96046952D01*
X148501142Y-96046952D01*
X148539238Y-96066000D01*
X148558285Y-96085047D01*
X148577333Y-96123142D01*
X148577333Y-96180285D01*
X148558285Y-96218380D01*
X148539238Y-96237428D01*
X148501142Y-96256476D01*
X148348761Y-96256476D01*
X148748761Y-96446952D02*
X148748761Y-96046952D01*
X148844000Y-96046952D01*
X148901142Y-96066000D01*
X148939238Y-96104095D01*
X148958285Y-96142190D01*
X148977333Y-96218380D01*
X148977333Y-96275523D01*
X148958285Y-96351714D01*
X148939238Y-96389809D01*
X148901142Y-96427904D01*
X148844000Y-96446952D01*
X148748761Y-96446952D01*
X149358285Y-96446952D02*
X149129714Y-96446952D01*
X149244000Y-96446952D02*
X149244000Y-96046952D01*
X149205904Y-96104095D01*
X149167809Y-96142190D01*
X149129714Y-96161238D01*
X149618761Y-96930952D02*
X149618761Y-96530952D01*
X149771142Y-96530952D01*
X149809238Y-96550000D01*
X149828285Y-96569047D01*
X149847333Y-96607142D01*
X149847333Y-96664285D01*
X149828285Y-96702380D01*
X149809238Y-96721428D01*
X149771142Y-96740476D01*
X149618761Y-96740476D01*
X150018761Y-96930952D02*
X150018761Y-96530952D01*
X150114000Y-96530952D01*
X150171142Y-96550000D01*
X150209238Y-96588095D01*
X150228285Y-96626190D01*
X150247333Y-96702380D01*
X150247333Y-96759523D01*
X150228285Y-96835714D01*
X150209238Y-96873809D01*
X150171142Y-96911904D01*
X150114000Y-96930952D01*
X150018761Y-96930952D01*
X150399714Y-96569047D02*
X150418761Y-96550000D01*
X150456857Y-96530952D01*
X150552095Y-96530952D01*
X150590190Y-96550000D01*
X150609238Y-96569047D01*
X150628285Y-96607142D01*
X150628285Y-96645238D01*
X150609238Y-96702380D01*
X150380666Y-96930952D01*
X150628285Y-96930952D01*
X151079238Y-96050000D02*
X151041142Y-96030952D01*
X150984000Y-96030952D01*
X150926857Y-96050000D01*
X150888761Y-96088095D01*
X150869714Y-96126190D01*
X150850666Y-96202380D01*
X150850666Y-96259523D01*
X150869714Y-96335714D01*
X150888761Y-96373809D01*
X150926857Y-96411904D01*
X150984000Y-96430952D01*
X151022095Y-96430952D01*
X151079238Y-96411904D01*
X151098285Y-96392857D01*
X151098285Y-96259523D01*
X151022095Y-96259523D01*
X151269714Y-96430952D02*
X151269714Y-96030952D01*
X151498285Y-96430952D01*
X151498285Y-96030952D01*
X151688761Y-96430952D02*
X151688761Y-96030952D01*
X151784000Y-96030952D01*
X151841142Y-96050000D01*
X151879238Y-96088095D01*
X151898285Y-96126190D01*
X151917333Y-96202380D01*
X151917333Y-96259523D01*
X151898285Y-96335714D01*
X151879238Y-96373809D01*
X151841142Y-96411904D01*
X151784000Y-96430952D01*
X151688761Y-96430952D01*
X152216666Y-96530952D02*
X152350000Y-96930952D01*
X152483333Y-96530952D01*
X152845238Y-96892857D02*
X152826190Y-96911904D01*
X152769047Y-96930952D01*
X152730952Y-96930952D01*
X152673809Y-96911904D01*
X152635714Y-96873809D01*
X152616666Y-96835714D01*
X152597619Y-96759523D01*
X152597619Y-96702380D01*
X152616666Y-96626190D01*
X152635714Y-96588095D01*
X152673809Y-96550000D01*
X152730952Y-96530952D01*
X152769047Y-96530952D01*
X152826190Y-96550000D01*
X152845238Y-96569047D01*
X153245238Y-96892857D02*
X153226190Y-96911904D01*
X153169047Y-96930952D01*
X153130952Y-96930952D01*
X153073809Y-96911904D01*
X153035714Y-96873809D01*
X153016666Y-96835714D01*
X152997619Y-96759523D01*
X152997619Y-96702380D01*
X153016666Y-96626190D01*
X153035714Y-96588095D01*
X153073809Y-96550000D01*
X153130952Y-96530952D01*
X153169047Y-96530952D01*
X153226190Y-96550000D01*
X153245238Y-96569047D01*
D10*
X152950000Y-88383333D02*
X153050000Y-88416666D01*
X153216666Y-88416666D01*
X153283333Y-88383333D01*
X153316666Y-88350000D01*
X153350000Y-88283333D01*
X153350000Y-88216666D01*
X153316666Y-88150000D01*
X153283333Y-88116666D01*
X153216666Y-88083333D01*
X153083333Y-88050000D01*
X153016666Y-88016666D01*
X152983333Y-87983333D01*
X152950000Y-87916666D01*
X152950000Y-87850000D01*
X152983333Y-87783333D01*
X153016666Y-87750000D01*
X153083333Y-87716666D01*
X153250000Y-87716666D01*
X153350000Y-87750000D01*
X153650000Y-88416666D02*
X153650000Y-87716666D01*
X153816666Y-87716666D01*
X153916666Y-87750000D01*
X153983333Y-87816666D01*
X154016666Y-87883333D01*
X154050000Y-88016666D01*
X154050000Y-88116666D01*
X154016666Y-88250000D01*
X153983333Y-88316666D01*
X153916666Y-88383333D01*
X153816666Y-88416666D01*
X153650000Y-88416666D01*
X154316666Y-88216666D02*
X154650000Y-88216666D01*
X154250000Y-88416666D02*
X154483333Y-87716666D01*
X154716666Y-88416666D01*
X152966666Y-85983333D02*
X153066666Y-86016666D01*
X153233333Y-86016666D01*
X153300000Y-85983333D01*
X153333333Y-85950000D01*
X153366666Y-85883333D01*
X153366666Y-85816666D01*
X153333333Y-85750000D01*
X153300000Y-85716666D01*
X153233333Y-85683333D01*
X153100000Y-85650000D01*
X153033333Y-85616666D01*
X153000000Y-85583333D01*
X152966666Y-85516666D01*
X152966666Y-85450000D01*
X153000000Y-85383333D01*
X153033333Y-85350000D01*
X153100000Y-85316666D01*
X153266666Y-85316666D01*
X153366666Y-85350000D01*
X154066666Y-85950000D02*
X154033333Y-85983333D01*
X153933333Y-86016666D01*
X153866666Y-86016666D01*
X153766666Y-85983333D01*
X153700000Y-85916666D01*
X153666666Y-85850000D01*
X153633333Y-85716666D01*
X153633333Y-85616666D01*
X153666666Y-85483333D01*
X153700000Y-85416666D01*
X153766666Y-85350000D01*
X153866666Y-85316666D01*
X153933333Y-85316666D01*
X154033333Y-85350000D01*
X154066666Y-85383333D01*
X154700000Y-86016666D02*
X154366666Y-86016666D01*
X154366666Y-85316666D01*
X153266666Y-82750000D02*
X153200000Y-82716666D01*
X153100000Y-82716666D01*
X153000000Y-82750000D01*
X152933333Y-82816666D01*
X152900000Y-82883333D01*
X152866666Y-83016666D01*
X152866666Y-83116666D01*
X152900000Y-83250000D01*
X152933333Y-83316666D01*
X153000000Y-83383333D01*
X153100000Y-83416666D01*
X153166666Y-83416666D01*
X153266666Y-83383333D01*
X153300000Y-83350000D01*
X153300000Y-83116666D01*
X153166666Y-83116666D01*
X153600000Y-83416666D02*
X153600000Y-82716666D01*
X154000000Y-83416666D01*
X154000000Y-82716666D01*
X154333333Y-83416666D02*
X154333333Y-82716666D01*
X154500000Y-82716666D01*
X154600000Y-82750000D01*
X154666666Y-82816666D01*
X154700000Y-82883333D01*
X154733333Y-83016666D01*
X154733333Y-83116666D01*
X154700000Y-83250000D01*
X154666666Y-83316666D01*
X154600000Y-83383333D01*
X154500000Y-83416666D01*
X154333333Y-83416666D01*
X152866666Y-80116666D02*
X153100000Y-80816666D01*
X153333333Y-80116666D01*
X153966666Y-80750000D02*
X153933333Y-80783333D01*
X153833333Y-80816666D01*
X153766666Y-80816666D01*
X153666666Y-80783333D01*
X153600000Y-80716666D01*
X153566666Y-80650000D01*
X153533333Y-80516666D01*
X153533333Y-80416666D01*
X153566666Y-80283333D01*
X153600000Y-80216666D01*
X153666666Y-80150000D01*
X153766666Y-80116666D01*
X153833333Y-80116666D01*
X153933333Y-80150000D01*
X153966666Y-80183333D01*
X154666666Y-80750000D02*
X154633333Y-80783333D01*
X154533333Y-80816666D01*
X154466666Y-80816666D01*
X154366666Y-80783333D01*
X154300000Y-80716666D01*
X154266666Y-80650000D01*
X154233333Y-80516666D01*
X154233333Y-80416666D01*
X154266666Y-80283333D01*
X154300000Y-80216666D01*
X154366666Y-80150000D01*
X154466666Y-80116666D01*
X154533333Y-80116666D01*
X154633333Y-80150000D01*
X154666666Y-80183333D01*
D13*
X123100000Y-90400000D02*
X123100000Y-92700000D01*
X123100000Y-92700000D02*
X115700000Y-92700000D01*
X115700000Y-92700000D02*
X115700000Y-90400000D01*
X115700000Y-87600000D02*
X115700000Y-85300000D01*
X115700000Y-85300000D02*
X123100000Y-85300000D01*
X123100000Y-85300000D02*
X123100000Y-87600000D01*
X126650000Y-97650000D02*
X121250000Y-97650000D01*
X126650000Y-94350000D02*
X121250000Y-94350000D01*
X126650000Y-97650000D02*
X126650000Y-94350000D01*
X111450000Y-92900000D02*
X109750000Y-92900000D01*
X109750000Y-92900000D02*
X109750000Y-96050000D01*
X111450000Y-92900000D02*
X111450000Y-96050000D01*
X129153564Y-91179170D02*
G75*
G03X132845996Y-91180000I1846436J979170D01*
G01*
X129153564Y-89220830D02*
G75*
G02X132845996Y-89220000I1846436J-979170D01*
G01*
X129153564Y-89220830D02*
G75*
G03X129154004Y-91180000I1846436J-979170D01*
G01*
X131000000Y-92250000D02*
X131000000Y-88150000D01*
X130960000Y-92250000D02*
X130960000Y-88150000D01*
X130920000Y-92249000D02*
X130920000Y-88151000D01*
X130880000Y-92247000D02*
X130880000Y-88153000D01*
X130840000Y-92244000D02*
X130840000Y-88156000D01*
X130800000Y-92241000D02*
X130800000Y-88159000D01*
X130760000Y-92237000D02*
X130760000Y-90980000D01*
X130760000Y-89420000D02*
X130760000Y-88163000D01*
X130720000Y-92232000D02*
X130720000Y-90980000D01*
X130720000Y-89420000D02*
X130720000Y-88168000D01*
X130680000Y-92226000D02*
X130680000Y-90980000D01*
X130680000Y-89420000D02*
X130680000Y-88174000D01*
X130640000Y-92219000D02*
X130640000Y-90980000D01*
X130640000Y-89420000D02*
X130640000Y-88181000D01*
X130600000Y-92212000D02*
X130600000Y-90980000D01*
X130600000Y-89420000D02*
X130600000Y-88188000D01*
X130560000Y-92204000D02*
X130560000Y-90980000D01*
X130560000Y-89420000D02*
X130560000Y-88196000D01*
X130520000Y-92195000D02*
X130520000Y-90980000D01*
X130520000Y-89420000D02*
X130520000Y-88205000D01*
X130480000Y-92185000D02*
X130480000Y-90980000D01*
X130480000Y-89420000D02*
X130480000Y-88215000D01*
X130440000Y-92174000D02*
X130440000Y-90980000D01*
X130440000Y-89420000D02*
X130440000Y-88226000D01*
X130400000Y-92163000D02*
X130400000Y-90980000D01*
X130400000Y-89420000D02*
X130400000Y-88237000D01*
X130360000Y-92150000D02*
X130360000Y-90980000D01*
X130360000Y-89420000D02*
X130360000Y-88250000D01*
X130320000Y-92137000D02*
X130320000Y-90980000D01*
X130320000Y-89420000D02*
X130320000Y-88263000D01*
X130279000Y-92123000D02*
X130279000Y-90980000D01*
X130279000Y-89420000D02*
X130279000Y-88277000D01*
X130239000Y-92107000D02*
X130239000Y-90980000D01*
X130239000Y-89420000D02*
X130239000Y-88293000D01*
X130199000Y-92091000D02*
X130199000Y-90980000D01*
X130199000Y-89420000D02*
X130199000Y-88309000D01*
X130159000Y-92074000D02*
X130159000Y-90980000D01*
X130159000Y-89420000D02*
X130159000Y-88326000D01*
X130119000Y-92056000D02*
X130119000Y-90980000D01*
X130119000Y-89420000D02*
X130119000Y-88344000D01*
X130079000Y-92037000D02*
X130079000Y-90980000D01*
X130079000Y-89420000D02*
X130079000Y-88363000D01*
X130039000Y-92017000D02*
X130039000Y-90980000D01*
X130039000Y-89420000D02*
X130039000Y-88383000D01*
X129999000Y-91996000D02*
X129999000Y-90980000D01*
X129999000Y-89420000D02*
X129999000Y-88404000D01*
X129959000Y-91973000D02*
X129959000Y-90980000D01*
X129959000Y-89420000D02*
X129959000Y-88427000D01*
X129919000Y-91950000D02*
X129919000Y-90980000D01*
X129919000Y-89420000D02*
X129919000Y-88450000D01*
X129879000Y-91925000D02*
X129879000Y-90980000D01*
X129879000Y-89420000D02*
X129879000Y-88475000D01*
X129839000Y-91899000D02*
X129839000Y-90980000D01*
X129839000Y-89420000D02*
X129839000Y-88501000D01*
X129799000Y-91872000D02*
X129799000Y-90980000D01*
X129799000Y-89420000D02*
X129799000Y-88528000D01*
X129759000Y-91843000D02*
X129759000Y-90980000D01*
X129759000Y-89420000D02*
X129759000Y-88557000D01*
X129719000Y-91813000D02*
X129719000Y-90980000D01*
X129719000Y-89420000D02*
X129719000Y-88587000D01*
X129679000Y-91781000D02*
X129679000Y-90980000D01*
X129679000Y-89420000D02*
X129679000Y-88619000D01*
X129639000Y-91747000D02*
X129639000Y-90980000D01*
X129639000Y-89420000D02*
X129639000Y-88653000D01*
X129599000Y-91712000D02*
X129599000Y-90980000D01*
X129599000Y-89420000D02*
X129599000Y-88688000D01*
X129559000Y-91675000D02*
X129559000Y-90980000D01*
X129559000Y-89420000D02*
X129559000Y-88725000D01*
X129519000Y-91636000D02*
X129519000Y-90980000D01*
X129519000Y-89420000D02*
X129519000Y-88764000D01*
X129479000Y-91595000D02*
X129479000Y-90980000D01*
X129479000Y-89420000D02*
X129479000Y-88805000D01*
X129439000Y-91551000D02*
X129439000Y-90980000D01*
X129439000Y-89420000D02*
X129439000Y-88849000D01*
X129399000Y-91505000D02*
X129399000Y-90980000D01*
X129399000Y-89420000D02*
X129399000Y-88895000D01*
X129359000Y-91456000D02*
X129359000Y-90980000D01*
X129359000Y-89420000D02*
X129359000Y-88944000D01*
X129319000Y-91404000D02*
X129319000Y-90980000D01*
X129319000Y-89420000D02*
X129319000Y-88996000D01*
X129279000Y-91348000D02*
X129279000Y-90980000D01*
X129279000Y-89420000D02*
X129279000Y-89052000D01*
X129239000Y-91288000D02*
X129239000Y-90980000D01*
X129239000Y-89420000D02*
X129239000Y-89112000D01*
X129199000Y-91223000D02*
X129199000Y-89177000D01*
X129159000Y-91152000D02*
X129159000Y-89248000D01*
X129119000Y-91074000D02*
X129119000Y-89326000D01*
X129079000Y-90986000D02*
X129079000Y-89414000D01*
X129039000Y-90886000D02*
X129039000Y-89514000D01*
X128999000Y-90767000D02*
X128999000Y-89633000D01*
X128959000Y-90615000D02*
X128959000Y-89785000D01*
X128919000Y-90365000D02*
X128919000Y-90035000D01*
X133700000Y-90200000D02*
X132800000Y-90200000D01*
X133250000Y-90650000D02*
X133250000Y-89750000D01*
X137646436Y-93970830D02*
G75*
G03X133954004Y-93970000I-1846436J-979170D01*
G01*
X137646436Y-95929170D02*
G75*
G02X133954004Y-95930000I-1846436J979170D01*
G01*
X137646436Y-95929170D02*
G75*
G03X137645996Y-93970000I-1846436J979170D01*
G01*
X135800000Y-92900000D02*
X135800000Y-97000000D01*
X135840000Y-92900000D02*
X135840000Y-97000000D01*
X135880000Y-92901000D02*
X135880000Y-96999000D01*
X135920000Y-92903000D02*
X135920000Y-96997000D01*
X135960000Y-92906000D02*
X135960000Y-96994000D01*
X136000000Y-92909000D02*
X136000000Y-96991000D01*
X136040000Y-92913000D02*
X136040000Y-94170000D01*
X136040000Y-95730000D02*
X136040000Y-96987000D01*
X136080000Y-92918000D02*
X136080000Y-94170000D01*
X136080000Y-95730000D02*
X136080000Y-96982000D01*
X136120000Y-92924000D02*
X136120000Y-94170000D01*
X136120000Y-95730000D02*
X136120000Y-96976000D01*
X136160000Y-92931000D02*
X136160000Y-94170000D01*
X136160000Y-95730000D02*
X136160000Y-96969000D01*
X136200000Y-92938000D02*
X136200000Y-94170000D01*
X136200000Y-95730000D02*
X136200000Y-96962000D01*
X136240000Y-92946000D02*
X136240000Y-94170000D01*
X136240000Y-95730000D02*
X136240000Y-96954000D01*
X136280000Y-92955000D02*
X136280000Y-94170000D01*
X136280000Y-95730000D02*
X136280000Y-96945000D01*
X136320000Y-92965000D02*
X136320000Y-94170000D01*
X136320000Y-95730000D02*
X136320000Y-96935000D01*
X136360000Y-92976000D02*
X136360000Y-94170000D01*
X136360000Y-95730000D02*
X136360000Y-96924000D01*
X136400000Y-92987000D02*
X136400000Y-94170000D01*
X136400000Y-95730000D02*
X136400000Y-96913000D01*
X136440000Y-93000000D02*
X136440000Y-94170000D01*
X136440000Y-95730000D02*
X136440000Y-96900000D01*
X136480000Y-93013000D02*
X136480000Y-94170000D01*
X136480000Y-95730000D02*
X136480000Y-96887000D01*
X136521000Y-93027000D02*
X136521000Y-94170000D01*
X136521000Y-95730000D02*
X136521000Y-96873000D01*
X136561000Y-93043000D02*
X136561000Y-94170000D01*
X136561000Y-95730000D02*
X136561000Y-96857000D01*
X136601000Y-93059000D02*
X136601000Y-94170000D01*
X136601000Y-95730000D02*
X136601000Y-96841000D01*
X136641000Y-93076000D02*
X136641000Y-94170000D01*
X136641000Y-95730000D02*
X136641000Y-96824000D01*
X136681000Y-93094000D02*
X136681000Y-94170000D01*
X136681000Y-95730000D02*
X136681000Y-96806000D01*
X136721000Y-93113000D02*
X136721000Y-94170000D01*
X136721000Y-95730000D02*
X136721000Y-96787000D01*
X136761000Y-93133000D02*
X136761000Y-94170000D01*
X136761000Y-95730000D02*
X136761000Y-96767000D01*
X136801000Y-93154000D02*
X136801000Y-94170000D01*
X136801000Y-95730000D02*
X136801000Y-96746000D01*
X136841000Y-93177000D02*
X136841000Y-94170000D01*
X136841000Y-95730000D02*
X136841000Y-96723000D01*
X136881000Y-93200000D02*
X136881000Y-94170000D01*
X136881000Y-95730000D02*
X136881000Y-96700000D01*
X136921000Y-93225000D02*
X136921000Y-94170000D01*
X136921000Y-95730000D02*
X136921000Y-96675000D01*
X136961000Y-93251000D02*
X136961000Y-94170000D01*
X136961000Y-95730000D02*
X136961000Y-96649000D01*
X137001000Y-93278000D02*
X137001000Y-94170000D01*
X137001000Y-95730000D02*
X137001000Y-96622000D01*
X137041000Y-93307000D02*
X137041000Y-94170000D01*
X137041000Y-95730000D02*
X137041000Y-96593000D01*
X137081000Y-93337000D02*
X137081000Y-94170000D01*
X137081000Y-95730000D02*
X137081000Y-96563000D01*
X137121000Y-93369000D02*
X137121000Y-94170000D01*
X137121000Y-95730000D02*
X137121000Y-96531000D01*
X137161000Y-93403000D02*
X137161000Y-94170000D01*
X137161000Y-95730000D02*
X137161000Y-96497000D01*
X137201000Y-93438000D02*
X137201000Y-94170000D01*
X137201000Y-95730000D02*
X137201000Y-96462000D01*
X137241000Y-93475000D02*
X137241000Y-94170000D01*
X137241000Y-95730000D02*
X137241000Y-96425000D01*
X137281000Y-93514000D02*
X137281000Y-94170000D01*
X137281000Y-95730000D02*
X137281000Y-96386000D01*
X137321000Y-93555000D02*
X137321000Y-94170000D01*
X137321000Y-95730000D02*
X137321000Y-96345000D01*
X137361000Y-93599000D02*
X137361000Y-94170000D01*
X137361000Y-95730000D02*
X137361000Y-96301000D01*
X137401000Y-93645000D02*
X137401000Y-94170000D01*
X137401000Y-95730000D02*
X137401000Y-96255000D01*
X137441000Y-93694000D02*
X137441000Y-94170000D01*
X137441000Y-95730000D02*
X137441000Y-96206000D01*
X137481000Y-93746000D02*
X137481000Y-94170000D01*
X137481000Y-95730000D02*
X137481000Y-96154000D01*
X137521000Y-93802000D02*
X137521000Y-94170000D01*
X137521000Y-95730000D02*
X137521000Y-96098000D01*
X137561000Y-93862000D02*
X137561000Y-94170000D01*
X137561000Y-95730000D02*
X137561000Y-96038000D01*
X137601000Y-93927000D02*
X137601000Y-95973000D01*
X137641000Y-93998000D02*
X137641000Y-95902000D01*
X137681000Y-94076000D02*
X137681000Y-95824000D01*
X137721000Y-94164000D02*
X137721000Y-95736000D01*
X137761000Y-94264000D02*
X137761000Y-95636000D01*
X137801000Y-94383000D02*
X137801000Y-95517000D01*
X137841000Y-94535000D02*
X137841000Y-95365000D01*
X137881000Y-94785000D02*
X137881000Y-95115000D01*
X133100000Y-94950000D02*
X134000000Y-94950000D01*
X133550000Y-94500000D02*
X133550000Y-95400000D01*
X137646436Y-89220830D02*
G75*
G03X133954004Y-89220000I-1846436J-979170D01*
G01*
X137646436Y-91179170D02*
G75*
G02X133954004Y-91180000I-1846436J979170D01*
G01*
X137646436Y-91179170D02*
G75*
G03X137645996Y-89220000I-1846436J979170D01*
G01*
X135800000Y-88150000D02*
X135800000Y-92250000D01*
X135840000Y-88150000D02*
X135840000Y-92250000D01*
X135880000Y-88151000D02*
X135880000Y-92249000D01*
X135920000Y-88153000D02*
X135920000Y-92247000D01*
X135960000Y-88156000D02*
X135960000Y-92244000D01*
X136000000Y-88159000D02*
X136000000Y-92241000D01*
X136040000Y-88163000D02*
X136040000Y-89420000D01*
X136040000Y-90980000D02*
X136040000Y-92237000D01*
X136080000Y-88168000D02*
X136080000Y-89420000D01*
X136080000Y-90980000D02*
X136080000Y-92232000D01*
X136120000Y-88174000D02*
X136120000Y-89420000D01*
X136120000Y-90980000D02*
X136120000Y-92226000D01*
X136160000Y-88181000D02*
X136160000Y-89420000D01*
X136160000Y-90980000D02*
X136160000Y-92219000D01*
X136200000Y-88188000D02*
X136200000Y-89420000D01*
X136200000Y-90980000D02*
X136200000Y-92212000D01*
X136240000Y-88196000D02*
X136240000Y-89420000D01*
X136240000Y-90980000D02*
X136240000Y-92204000D01*
X136280000Y-88205000D02*
X136280000Y-89420000D01*
X136280000Y-90980000D02*
X136280000Y-92195000D01*
X136320000Y-88215000D02*
X136320000Y-89420000D01*
X136320000Y-90980000D02*
X136320000Y-92185000D01*
X136360000Y-88226000D02*
X136360000Y-89420000D01*
X136360000Y-90980000D02*
X136360000Y-92174000D01*
X136400000Y-88237000D02*
X136400000Y-89420000D01*
X136400000Y-90980000D02*
X136400000Y-92163000D01*
X136440000Y-88250000D02*
X136440000Y-89420000D01*
X136440000Y-90980000D02*
X136440000Y-92150000D01*
X136480000Y-88263000D02*
X136480000Y-89420000D01*
X136480000Y-90980000D02*
X136480000Y-92137000D01*
X136521000Y-88277000D02*
X136521000Y-89420000D01*
X136521000Y-90980000D02*
X136521000Y-92123000D01*
X136561000Y-88293000D02*
X136561000Y-89420000D01*
X136561000Y-90980000D02*
X136561000Y-92107000D01*
X136601000Y-88309000D02*
X136601000Y-89420000D01*
X136601000Y-90980000D02*
X136601000Y-92091000D01*
X136641000Y-88326000D02*
X136641000Y-89420000D01*
X136641000Y-90980000D02*
X136641000Y-92074000D01*
X136681000Y-88344000D02*
X136681000Y-89420000D01*
X136681000Y-90980000D02*
X136681000Y-92056000D01*
X136721000Y-88363000D02*
X136721000Y-89420000D01*
X136721000Y-90980000D02*
X136721000Y-92037000D01*
X136761000Y-88383000D02*
X136761000Y-89420000D01*
X136761000Y-90980000D02*
X136761000Y-92017000D01*
X136801000Y-88404000D02*
X136801000Y-89420000D01*
X136801000Y-90980000D02*
X136801000Y-91996000D01*
X136841000Y-88427000D02*
X136841000Y-89420000D01*
X136841000Y-90980000D02*
X136841000Y-91973000D01*
X136881000Y-88450000D02*
X136881000Y-89420000D01*
X136881000Y-90980000D02*
X136881000Y-91950000D01*
X136921000Y-88475000D02*
X136921000Y-89420000D01*
X136921000Y-90980000D02*
X136921000Y-91925000D01*
X136961000Y-88501000D02*
X136961000Y-89420000D01*
X136961000Y-90980000D02*
X136961000Y-91899000D01*
X137001000Y-88528000D02*
X137001000Y-89420000D01*
X137001000Y-90980000D02*
X137001000Y-91872000D01*
X137041000Y-88557000D02*
X137041000Y-89420000D01*
X137041000Y-90980000D02*
X137041000Y-91843000D01*
X137081000Y-88587000D02*
X137081000Y-89420000D01*
X137081000Y-90980000D02*
X137081000Y-91813000D01*
X137121000Y-88619000D02*
X137121000Y-89420000D01*
X137121000Y-90980000D02*
X137121000Y-91781000D01*
X137161000Y-88653000D02*
X137161000Y-89420000D01*
X137161000Y-90980000D02*
X137161000Y-91747000D01*
X137201000Y-88688000D02*
X137201000Y-89420000D01*
X137201000Y-90980000D02*
X137201000Y-91712000D01*
X137241000Y-88725000D02*
X137241000Y-89420000D01*
X137241000Y-90980000D02*
X137241000Y-91675000D01*
X137281000Y-88764000D02*
X137281000Y-89420000D01*
X137281000Y-90980000D02*
X137281000Y-91636000D01*
X137321000Y-88805000D02*
X137321000Y-89420000D01*
X137321000Y-90980000D02*
X137321000Y-91595000D01*
X137361000Y-88849000D02*
X137361000Y-89420000D01*
X137361000Y-90980000D02*
X137361000Y-91551000D01*
X137401000Y-88895000D02*
X137401000Y-89420000D01*
X137401000Y-90980000D02*
X137401000Y-91505000D01*
X137441000Y-88944000D02*
X137441000Y-89420000D01*
X137441000Y-90980000D02*
X137441000Y-91456000D01*
X137481000Y-88996000D02*
X137481000Y-89420000D01*
X137481000Y-90980000D02*
X137481000Y-91404000D01*
X137521000Y-89052000D02*
X137521000Y-89420000D01*
X137521000Y-90980000D02*
X137521000Y-91348000D01*
X137561000Y-89112000D02*
X137561000Y-89420000D01*
X137561000Y-90980000D02*
X137561000Y-91288000D01*
X137601000Y-89177000D02*
X137601000Y-91223000D01*
X137641000Y-89248000D02*
X137641000Y-91152000D01*
X137681000Y-89326000D02*
X137681000Y-91074000D01*
X137721000Y-89414000D02*
X137721000Y-90986000D01*
X137761000Y-89514000D02*
X137761000Y-90886000D01*
X137801000Y-89633000D02*
X137801000Y-90767000D01*
X137841000Y-89785000D02*
X137841000Y-90615000D01*
X137881000Y-90035000D02*
X137881000Y-90365000D01*
X133100000Y-90200000D02*
X134000000Y-90200000D01*
X133550000Y-89750000D02*
X133550000Y-90650000D01*
X128400000Y-83770000D02*
X128400000Y-83440000D01*
X128400000Y-83440000D02*
X134820000Y-83440000D01*
X134820000Y-83440000D02*
X134820000Y-83770000D01*
X128400000Y-85730000D02*
X128400000Y-86060000D01*
X128400000Y-86060000D02*
X134820000Y-86060000D01*
X134820000Y-86060000D02*
X134820000Y-85730000D01*
X139380000Y-79200000D02*
X139710000Y-79200000D01*
X139710000Y-79200000D02*
X139710000Y-85620000D01*
X139710000Y-85620000D02*
X139380000Y-85620000D01*
X137420000Y-79200000D02*
X137090000Y-79200000D01*
X137090000Y-79200000D02*
X137090000Y-85620000D01*
X137090000Y-85620000D02*
X137420000Y-85620000D01*
X135870000Y-74880000D02*
X135870000Y-78620000D01*
X128630000Y-74880000D02*
X128630000Y-78620000D01*
X128630000Y-78620000D02*
X135870000Y-78620000D01*
X128630000Y-74880000D02*
X135870000Y-74880000D01*
X104780000Y-61080000D02*
X111020000Y-61080000D01*
X104780000Y-70280000D02*
X111020000Y-70280000D01*
X111020000Y-70280000D02*
X111020000Y-61080000D01*
X104780000Y-70280000D02*
X104780000Y-61080000D01*
X104380000Y-70280000D02*
X111420000Y-70280000D01*
X104380000Y-71080000D02*
X111420000Y-71080000D01*
X111420000Y-71080000D02*
X111420000Y-70280000D01*
X104380000Y-71080000D02*
X104380000Y-70280000D01*
X102930000Y-71080000D02*
X112870000Y-71080000D01*
X105456000Y-76320000D02*
X110345000Y-76320000D01*
X112870000Y-75445000D02*
X112870000Y-71080000D01*
X102930000Y-75445000D02*
X102930000Y-71080000D01*
X144164564Y-76440000D02*
X142960436Y-76440000D01*
X144164564Y-78260000D02*
X142960436Y-78260000D01*
X156697936Y-92010000D02*
X157902064Y-92010000D01*
X156697936Y-90190000D02*
X157902064Y-90190000D01*
X106710000Y-95102064D02*
X106710000Y-93897936D01*
X104890000Y-95102064D02*
X104890000Y-93897936D01*
X106710000Y-90014564D02*
X106710000Y-88810436D01*
X104890000Y-90014564D02*
X104890000Y-88810436D01*
X113760000Y-95114564D02*
X113760000Y-93910436D01*
X111940000Y-95114564D02*
X111940000Y-93910436D01*
X109160000Y-95114564D02*
X109160000Y-93910436D01*
X107340000Y-95114564D02*
X107340000Y-93910436D01*
X127290000Y-94710436D02*
X127290000Y-95914564D01*
X129110000Y-94710436D02*
X129110000Y-95914564D01*
X126660000Y-92102064D02*
X126660000Y-90897936D01*
X124840000Y-92102064D02*
X124840000Y-90897936D01*
X111510000Y-90002064D02*
X111510000Y-88797936D01*
X109690000Y-90002064D02*
X109690000Y-88797936D01*
X118200000Y-93540000D02*
X115750000Y-93540000D01*
X116400000Y-96760000D02*
X118200000Y-96760000D01*
D10*
X144100000Y-87825000D02*
X144100000Y-89250000D01*
X143875000Y-80575000D02*
X143875000Y-80900000D01*
X151125000Y-80575000D02*
X151125000Y-80900000D01*
X151125000Y-87825000D02*
X151125000Y-87500000D01*
X143875000Y-87825000D02*
X143875000Y-87500000D01*
X151125000Y-87825000D02*
X150800000Y-87825000D01*
X151125000Y-80575000D02*
X150800000Y-80575000D01*
X143875000Y-80575000D02*
X144200000Y-80575000D01*
X143875000Y-87825000D02*
X144100000Y-87825000D01*
D13*
X120400000Y-77450000D02*
G75*
G03X120400000Y-77450000I-600000J0D01*
G01*
X118670000Y-73290000D02*
X118670000Y-75430000D01*
X123870000Y-73290000D02*
X118670000Y-73290000D01*
X123870000Y-78590000D02*
X123870000Y-73290000D01*
X118670000Y-78590000D02*
X123870000Y-78590000D01*
X118670000Y-76450000D02*
X118670000Y-78590000D01*
X118670000Y-75430000D02*
G75*
G02X118670000Y-76450000I0J-510000D01*
G01*
X126200000Y-78750000D02*
G75*
G02X125500000Y-78050000I0J700000D01*
G01*
X127500000Y-78050000D02*
G75*
G02X126800000Y-78750000I-700000J0D01*
G01*
X126800000Y-74650000D02*
G75*
G02X127500000Y-75350000I0J-700000D01*
G01*
X125500000Y-75350000D02*
G75*
G02X126200000Y-74650000I700000J0D01*
G01*
X125500000Y-78100000D02*
X125500000Y-75300000D01*
X126200000Y-74650000D02*
X126800000Y-74650000D01*
X127500000Y-75300000D02*
X127500000Y-78100000D01*
X126800000Y-78750000D02*
X126200000Y-78750000D01*
X127700000Y-77900000D02*
X128000000Y-78200000D01*
X128000000Y-78200000D02*
X128000000Y-77600000D01*
X127700000Y-77900000D02*
X128000000Y-77600000D01*
X154630000Y-79230000D02*
X155900000Y-79230000D01*
X154630000Y-80500000D02*
X154630000Y-79230000D01*
X156942929Y-88500000D02*
X157340000Y-88500000D01*
X156942929Y-87740000D02*
X157340000Y-87740000D01*
X166000000Y-88500000D02*
X160000000Y-88500000D01*
X166000000Y-87740000D02*
X166000000Y-88500000D01*
X160000000Y-87740000D02*
X166000000Y-87740000D01*
X157340000Y-86850000D02*
X160000000Y-86850000D01*
X156942929Y-85960000D02*
X157340000Y-85960000D01*
X156942929Y-85200000D02*
X157340000Y-85200000D01*
X166000000Y-85960000D02*
X160000000Y-85960000D01*
X166000000Y-85200000D02*
X166000000Y-85960000D01*
X160000000Y-85200000D02*
X166000000Y-85200000D01*
X157340000Y-84310000D02*
X160000000Y-84310000D01*
X156942929Y-83420000D02*
X157340000Y-83420000D01*
X156942929Y-82660000D02*
X157340000Y-82660000D01*
X166000000Y-83420000D02*
X160000000Y-83420000D01*
X166000000Y-82660000D02*
X166000000Y-83420000D01*
X160000000Y-82660000D02*
X166000000Y-82660000D01*
X157340000Y-81770000D02*
X160000000Y-81770000D01*
X157010000Y-80880000D02*
X157340000Y-80880000D01*
X157010000Y-80120000D02*
X157340000Y-80120000D01*
X160000000Y-80780000D02*
X166000000Y-80780000D01*
X160000000Y-80660000D02*
X166000000Y-80660000D01*
X160000000Y-80540000D02*
X166000000Y-80540000D01*
X160000000Y-80420000D02*
X166000000Y-80420000D01*
X160000000Y-80300000D02*
X166000000Y-80300000D01*
X160000000Y-80180000D02*
X166000000Y-80180000D01*
X166000000Y-80880000D02*
X160000000Y-80880000D01*
X166000000Y-80120000D02*
X166000000Y-80880000D01*
X160000000Y-80120000D02*
X166000000Y-80120000D01*
X160000000Y-79170000D02*
X157340000Y-79170000D01*
X160000000Y-89450000D02*
X160000000Y-79170000D01*
X157340000Y-89450000D02*
X160000000Y-89450000D01*
X157340000Y-79170000D02*
X157340000Y-89450000D01*
X127630000Y-73580000D02*
X127630000Y-72250000D01*
X128960000Y-73580000D02*
X127630000Y-73580000D01*
X130230000Y-73580000D02*
X130230000Y-70920000D01*
X130230000Y-70920000D02*
X135370000Y-70920000D01*
X130230000Y-73580000D02*
X135370000Y-73580000D01*
X135370000Y-73580000D02*
X135370000Y-70920000D01*
X146640000Y-98110000D02*
X146640000Y-97000000D01*
X147400000Y-98110000D02*
X146640000Y-98110000D01*
X148160000Y-96436529D02*
X148160000Y-95890000D01*
X148160000Y-98110000D02*
X148160000Y-97563471D01*
X148160000Y-95890000D02*
X153175000Y-95890000D01*
X148160000Y-98110000D02*
X153175000Y-98110000D01*
X153175000Y-96692470D02*
X153175000Y-95890000D01*
X153175000Y-98110000D02*
X153175000Y-97307530D01*
X159530000Y-72930000D02*
X159530000Y-74260000D01*
X158200000Y-72930000D02*
X159530000Y-72930000D01*
X159530000Y-75530000D02*
X159530000Y-78130000D01*
X156930000Y-75530000D02*
X159530000Y-75530000D01*
X156930000Y-72930000D02*
X156930000Y-75530000D01*
X159530000Y-78130000D02*
X151790000Y-78130000D01*
X156930000Y-72930000D02*
X151790000Y-72930000D01*
X151790000Y-72930000D02*
X151790000Y-78130000D01*
X127630000Y-82330000D02*
X127630000Y-81000000D01*
X128960000Y-82330000D02*
X127630000Y-82330000D01*
X130230000Y-82330000D02*
X130230000Y-79670000D01*
X130230000Y-79670000D02*
X135370000Y-79670000D01*
X130230000Y-82330000D02*
X135370000Y-82330000D01*
X135370000Y-82330000D02*
X135370000Y-79670000D01*
X158480000Y-96290000D02*
X158636000Y-96290000D01*
X156164000Y-96290000D02*
X156320000Y-96290000D01*
X158479837Y-93688870D02*
G75*
G02X158480000Y-95770961I-1079837J-1041130D01*
G01*
X156320163Y-93688870D02*
G75*
G03X156320000Y-95770961I1079837J-1041130D01*
G01*
X158478608Y-93057665D02*
G75*
G02X158635516Y-96290000I-1078608J-1672335D01*
G01*
X156321392Y-93057665D02*
G75*
G03X156164484Y-96290000I1078608J-1672335D01*
G01*
X147538748Y-91810000D02*
X148061252Y-91810000D01*
X147538748Y-90390000D02*
X148061252Y-90390000D01*
X148436252Y-76790000D02*
X147913748Y-76790000D01*
X148436252Y-78210000D02*
X147913748Y-78210000D01*
D10*
X119233333Y-85002380D02*
X118757142Y-85002380D01*
X118757142Y-84002380D01*
X120090476Y-85002380D02*
X119519047Y-85002380D01*
X119804761Y-85002380D02*
X119804761Y-84002380D01*
X119709523Y-84145238D01*
X119614285Y-84240476D01*
X119519047Y-84288095D01*
X121483333Y-94116666D02*
X121483333Y-93416666D01*
X121650000Y-93416666D01*
X121750000Y-93450000D01*
X121816666Y-93516666D01*
X121850000Y-93583333D01*
X121883333Y-93716666D01*
X121883333Y-93816666D01*
X121850000Y-93950000D01*
X121816666Y-94016666D01*
X121750000Y-94083333D01*
X121650000Y-94116666D01*
X121483333Y-94116666D01*
X122550000Y-94116666D02*
X122150000Y-94116666D01*
X122350000Y-94116666D02*
X122350000Y-93416666D01*
X122283333Y-93516666D01*
X122216666Y-93583333D01*
X122150000Y-93616666D01*
X112902380Y-96419047D02*
X111902380Y-96419047D01*
X111902380Y-96180952D01*
X111950000Y-96038095D01*
X112045238Y-95942857D01*
X112140476Y-95895238D01*
X112330952Y-95847619D01*
X112473809Y-95847619D01*
X112664285Y-95895238D01*
X112759523Y-95942857D01*
X112854761Y-96038095D01*
X112902380Y-96180952D01*
X112902380Y-96419047D01*
X112997619Y-95657142D02*
X112997619Y-94895238D01*
X112378571Y-94323809D02*
X112426190Y-94180952D01*
X112473809Y-94133333D01*
X112569047Y-94085714D01*
X112711904Y-94085714D01*
X112807142Y-94133333D01*
X112854761Y-94180952D01*
X112902380Y-94276190D01*
X112902380Y-94657142D01*
X111902380Y-94657142D01*
X111902380Y-94323809D01*
X111950000Y-94228571D01*
X111997619Y-94180952D01*
X112092857Y-94133333D01*
X112188095Y-94133333D01*
X112283333Y-94180952D01*
X112330952Y-94228571D01*
X112378571Y-94323809D01*
X112378571Y-94657142D01*
X112902380Y-93133333D02*
X112902380Y-93704761D01*
X112902380Y-93419047D02*
X111902380Y-93419047D01*
X112045238Y-93514285D01*
X112140476Y-93609523D01*
X112188095Y-93704761D01*
X128333333Y-88557142D02*
X128285714Y-88604761D01*
X128142857Y-88652380D01*
X128047619Y-88652380D01*
X127904761Y-88604761D01*
X127809523Y-88509523D01*
X127761904Y-88414285D01*
X127714285Y-88223809D01*
X127714285Y-88080952D01*
X127761904Y-87890476D01*
X127809523Y-87795238D01*
X127904761Y-87700000D01*
X128047619Y-87652380D01*
X128142857Y-87652380D01*
X128285714Y-87700000D01*
X128333333Y-87747619D01*
X129190476Y-87652380D02*
X129000000Y-87652380D01*
X128904761Y-87700000D01*
X128857142Y-87747619D01*
X128761904Y-87890476D01*
X128714285Y-88080952D01*
X128714285Y-88461904D01*
X128761904Y-88557142D01*
X128809523Y-88604761D01*
X128904761Y-88652380D01*
X129095238Y-88652380D01*
X129190476Y-88604761D01*
X129238095Y-88557142D01*
X129285714Y-88461904D01*
X129285714Y-88223809D01*
X129238095Y-88128571D01*
X129190476Y-88080952D01*
X129095238Y-88033333D01*
X128904761Y-88033333D01*
X128809523Y-88080952D01*
X128761904Y-88128571D01*
X128714285Y-88223809D01*
X138133333Y-97557142D02*
X138085714Y-97604761D01*
X137942857Y-97652380D01*
X137847619Y-97652380D01*
X137704761Y-97604761D01*
X137609523Y-97509523D01*
X137561904Y-97414285D01*
X137514285Y-97223809D01*
X137514285Y-97080952D01*
X137561904Y-96890476D01*
X137609523Y-96795238D01*
X137704761Y-96700000D01*
X137847619Y-96652380D01*
X137942857Y-96652380D01*
X138085714Y-96700000D01*
X138133333Y-96747619D01*
X138990476Y-96985714D02*
X138990476Y-97652380D01*
X138752380Y-96604761D02*
X138514285Y-97319047D01*
X139133333Y-97319047D01*
X138133333Y-88557142D02*
X138085714Y-88604761D01*
X137942857Y-88652380D01*
X137847619Y-88652380D01*
X137704761Y-88604761D01*
X137609523Y-88509523D01*
X137561904Y-88414285D01*
X137514285Y-88223809D01*
X137514285Y-88080952D01*
X137561904Y-87890476D01*
X137609523Y-87795238D01*
X137704761Y-87700000D01*
X137847619Y-87652380D01*
X137942857Y-87652380D01*
X138085714Y-87700000D01*
X138133333Y-87747619D01*
X139038095Y-87652380D02*
X138561904Y-87652380D01*
X138514285Y-88128571D01*
X138561904Y-88080952D01*
X138657142Y-88033333D01*
X138895238Y-88033333D01*
X138990476Y-88080952D01*
X139038095Y-88128571D01*
X139085714Y-88223809D01*
X139085714Y-88461904D01*
X139038095Y-88557142D01*
X138990476Y-88604761D01*
X138895238Y-88652380D01*
X138657142Y-88652380D01*
X138561904Y-88604761D01*
X138514285Y-88557142D01*
X139116666Y-89516666D02*
X139516666Y-89516666D01*
X139316666Y-90216666D02*
X139316666Y-89516666D01*
X139750000Y-90216666D02*
X139750000Y-89516666D01*
X140016666Y-89516666D01*
X140083333Y-89550000D01*
X140116666Y-89583333D01*
X140150000Y-89650000D01*
X140150000Y-89750000D01*
X140116666Y-89816666D01*
X140083333Y-89850000D01*
X140016666Y-89883333D01*
X139750000Y-89883333D01*
X140816666Y-90216666D02*
X140416666Y-90216666D01*
X140616666Y-90216666D02*
X140616666Y-89516666D01*
X140550000Y-89616666D01*
X140483333Y-89683333D01*
X140416666Y-89716666D01*
X131383333Y-85202380D02*
X131050000Y-84726190D01*
X130811904Y-85202380D02*
X130811904Y-84202380D01*
X131192857Y-84202380D01*
X131288095Y-84250000D01*
X131335714Y-84297619D01*
X131383333Y-84392857D01*
X131383333Y-84535714D01*
X131335714Y-84630952D01*
X131288095Y-84678571D01*
X131192857Y-84726190D01*
X130811904Y-84726190D01*
X132240476Y-84535714D02*
X132240476Y-85202380D01*
X132002380Y-84154761D02*
X131764285Y-84869047D01*
X132383333Y-84869047D01*
X138852380Y-82516666D02*
X138376190Y-82850000D01*
X138852380Y-83088095D02*
X137852380Y-83088095D01*
X137852380Y-82707142D01*
X137900000Y-82611904D01*
X137947619Y-82564285D01*
X138042857Y-82516666D01*
X138185714Y-82516666D01*
X138280952Y-82564285D01*
X138328571Y-82611904D01*
X138376190Y-82707142D01*
X138376190Y-83088095D01*
X137852380Y-82183333D02*
X137852380Y-81564285D01*
X138233333Y-81897619D01*
X138233333Y-81754761D01*
X138280952Y-81659523D01*
X138328571Y-81611904D01*
X138423809Y-81564285D01*
X138661904Y-81564285D01*
X138757142Y-81611904D01*
X138804761Y-81659523D01*
X138852380Y-81754761D01*
X138852380Y-82040476D01*
X138804761Y-82135714D01*
X138757142Y-82183333D01*
X139316666Y-72716666D02*
X139716666Y-72716666D01*
X139516666Y-73416666D02*
X139516666Y-72716666D01*
X139950000Y-73416666D02*
X139950000Y-72716666D01*
X140216666Y-72716666D01*
X140283333Y-72750000D01*
X140316666Y-72783333D01*
X140350000Y-72850000D01*
X140350000Y-72950000D01*
X140316666Y-73016666D01*
X140283333Y-73050000D01*
X140216666Y-73083333D01*
X139950000Y-73083333D01*
X140983333Y-72716666D02*
X140650000Y-72716666D01*
X140616666Y-73050000D01*
X140650000Y-73016666D01*
X140716666Y-72983333D01*
X140883333Y-72983333D01*
X140950000Y-73016666D01*
X140983333Y-73050000D01*
X141016666Y-73116666D01*
X141016666Y-73283333D01*
X140983333Y-73350000D01*
X140950000Y-73383333D01*
X140883333Y-73416666D01*
X140716666Y-73416666D01*
X140650000Y-73383333D01*
X140616666Y-73350000D01*
X102016666Y-92883333D02*
X102016666Y-92483333D01*
X102716666Y-92683333D02*
X102016666Y-92683333D01*
X102716666Y-92250000D02*
X102016666Y-92250000D01*
X102016666Y-91983333D01*
X102050000Y-91916666D01*
X102083333Y-91883333D01*
X102150000Y-91850000D01*
X102250000Y-91850000D01*
X102316666Y-91883333D01*
X102350000Y-91916666D01*
X102383333Y-91983333D01*
X102383333Y-92250000D01*
X102250000Y-91250000D02*
X102716666Y-91250000D01*
X101983333Y-91416666D02*
X102483333Y-91583333D01*
X102483333Y-91150000D01*
X102916666Y-98716666D02*
X103316666Y-98716666D01*
X103116666Y-99416666D02*
X103116666Y-98716666D01*
X103550000Y-99416666D02*
X103550000Y-98716666D01*
X103816666Y-98716666D01*
X103883333Y-98750000D01*
X103916666Y-98783333D01*
X103950000Y-98850000D01*
X103950000Y-98950000D01*
X103916666Y-99016666D01*
X103883333Y-99050000D01*
X103816666Y-99083333D01*
X103550000Y-99083333D01*
X104183333Y-98716666D02*
X104616666Y-98716666D01*
X104383333Y-98983333D01*
X104483333Y-98983333D01*
X104550000Y-99016666D01*
X104583333Y-99050000D01*
X104616666Y-99116666D01*
X104616666Y-99283333D01*
X104583333Y-99350000D01*
X104550000Y-99383333D01*
X104483333Y-99416666D01*
X104283333Y-99416666D01*
X104216666Y-99383333D01*
X104183333Y-99350000D01*
X136983333Y-77050000D02*
X136950000Y-77083333D01*
X136850000Y-77116666D01*
X136783333Y-77116666D01*
X136683333Y-77083333D01*
X136616666Y-77016666D01*
X136583333Y-76950000D01*
X136550000Y-76816666D01*
X136550000Y-76716666D01*
X136583333Y-76583333D01*
X136616666Y-76516666D01*
X136683333Y-76450000D01*
X136783333Y-76416666D01*
X136850000Y-76416666D01*
X136950000Y-76450000D01*
X136983333Y-76483333D01*
X137216666Y-76416666D02*
X137650000Y-76416666D01*
X137416666Y-76683333D01*
X137516666Y-76683333D01*
X137583333Y-76716666D01*
X137616666Y-76750000D01*
X137650000Y-76816666D01*
X137650000Y-76983333D01*
X137616666Y-77050000D01*
X137583333Y-77083333D01*
X137516666Y-77116666D01*
X137316666Y-77116666D01*
X137250000Y-77083333D01*
X137216666Y-77050000D01*
X107583333Y-79816666D02*
X107350000Y-79483333D01*
X107183333Y-79816666D02*
X107183333Y-79116666D01*
X107450000Y-79116666D01*
X107516666Y-79150000D01*
X107550000Y-79183333D01*
X107583333Y-79250000D01*
X107583333Y-79350000D01*
X107550000Y-79416666D01*
X107516666Y-79450000D01*
X107450000Y-79483333D01*
X107183333Y-79483333D01*
X107783333Y-79116666D02*
X108016666Y-79816666D01*
X108250000Y-79116666D01*
X108850000Y-79816666D02*
X108450000Y-79816666D01*
X108650000Y-79816666D02*
X108650000Y-79116666D01*
X108583333Y-79216666D01*
X108516666Y-79283333D01*
X108450000Y-79316666D01*
X142133333Y-79486666D02*
X141900000Y-79153333D01*
X141733333Y-79486666D02*
X141733333Y-78786666D01*
X142000000Y-78786666D01*
X142066666Y-78820000D01*
X142100000Y-78853333D01*
X142133333Y-78920000D01*
X142133333Y-79020000D01*
X142100000Y-79086666D01*
X142066666Y-79120000D01*
X142000000Y-79153333D01*
X141733333Y-79153333D01*
X142400000Y-78853333D02*
X142433333Y-78820000D01*
X142500000Y-78786666D01*
X142666666Y-78786666D01*
X142733333Y-78820000D01*
X142766666Y-78853333D01*
X142800000Y-78920000D01*
X142800000Y-78986666D01*
X142766666Y-79086666D01*
X142366666Y-79486666D01*
X142800000Y-79486666D01*
X153883333Y-91566666D02*
X153650000Y-91233333D01*
X153483333Y-91566666D02*
X153483333Y-90866666D01*
X153750000Y-90866666D01*
X153816666Y-90900000D01*
X153850000Y-90933333D01*
X153883333Y-91000000D01*
X153883333Y-91100000D01*
X153850000Y-91166666D01*
X153816666Y-91200000D01*
X153750000Y-91233333D01*
X153483333Y-91233333D01*
X154550000Y-91566666D02*
X154150000Y-91566666D01*
X154350000Y-91566666D02*
X154350000Y-90866666D01*
X154283333Y-90966666D01*
X154216666Y-91033333D01*
X154150000Y-91066666D01*
X104516666Y-95966666D02*
X104183333Y-96200000D01*
X104516666Y-96366666D02*
X103816666Y-96366666D01*
X103816666Y-96100000D01*
X103850000Y-96033333D01*
X103883333Y-96000000D01*
X103950000Y-95966666D01*
X104050000Y-95966666D01*
X104116666Y-96000000D01*
X104150000Y-96033333D01*
X104183333Y-96100000D01*
X104183333Y-96366666D01*
X104583333Y-95833333D02*
X104583333Y-95300000D01*
X103816666Y-95233333D02*
X103816666Y-94833333D01*
X104516666Y-95033333D02*
X103816666Y-95033333D01*
X103816666Y-94466666D02*
X103816666Y-94333333D01*
X103850000Y-94266666D01*
X103916666Y-94200000D01*
X104050000Y-94166666D01*
X104283333Y-94166666D01*
X104416666Y-94200000D01*
X104483333Y-94266666D01*
X104516666Y-94333333D01*
X104516666Y-94466666D01*
X104483333Y-94533333D01*
X104416666Y-94600000D01*
X104283333Y-94633333D01*
X104050000Y-94633333D01*
X103916666Y-94600000D01*
X103850000Y-94533333D01*
X103816666Y-94466666D01*
X104516666Y-93866666D02*
X103816666Y-93866666D01*
X103816666Y-93600000D01*
X103850000Y-93533333D01*
X103883333Y-93500000D01*
X103950000Y-93466666D01*
X104050000Y-93466666D01*
X104116666Y-93500000D01*
X104150000Y-93533333D01*
X104183333Y-93600000D01*
X104183333Y-93866666D01*
X104516666Y-92800000D02*
X104516666Y-93200000D01*
X104516666Y-93000000D02*
X103816666Y-93000000D01*
X103916666Y-93066666D01*
X103983333Y-93133333D01*
X104016666Y-93200000D01*
X107916666Y-90566666D02*
X107583333Y-90800000D01*
X107916666Y-90966666D02*
X107216666Y-90966666D01*
X107216666Y-90700000D01*
X107250000Y-90633333D01*
X107283333Y-90600000D01*
X107350000Y-90566666D01*
X107450000Y-90566666D01*
X107516666Y-90600000D01*
X107550000Y-90633333D01*
X107583333Y-90700000D01*
X107583333Y-90966666D01*
X107983333Y-90433333D02*
X107983333Y-89900000D01*
X107550000Y-89500000D02*
X107583333Y-89400000D01*
X107616666Y-89366666D01*
X107683333Y-89333333D01*
X107783333Y-89333333D01*
X107850000Y-89366666D01*
X107883333Y-89400000D01*
X107916666Y-89466666D01*
X107916666Y-89733333D01*
X107216666Y-89733333D01*
X107216666Y-89500000D01*
X107250000Y-89433333D01*
X107283333Y-89400000D01*
X107350000Y-89366666D01*
X107416666Y-89366666D01*
X107483333Y-89400000D01*
X107516666Y-89433333D01*
X107550000Y-89500000D01*
X107550000Y-89733333D01*
X107216666Y-88900000D02*
X107216666Y-88766666D01*
X107250000Y-88700000D01*
X107316666Y-88633333D01*
X107450000Y-88600000D01*
X107683333Y-88600000D01*
X107816666Y-88633333D01*
X107883333Y-88700000D01*
X107916666Y-88766666D01*
X107916666Y-88900000D01*
X107883333Y-88966666D01*
X107816666Y-89033333D01*
X107683333Y-89066666D01*
X107450000Y-89066666D01*
X107316666Y-89033333D01*
X107250000Y-88966666D01*
X107216666Y-88900000D01*
X107216666Y-88400000D02*
X107216666Y-88000000D01*
X107916666Y-88200000D02*
X107216666Y-88200000D01*
X107916666Y-87400000D02*
X107916666Y-87800000D01*
X107916666Y-87600000D02*
X107216666Y-87600000D01*
X107316666Y-87666666D01*
X107383333Y-87733333D01*
X107416666Y-87800000D01*
X111783333Y-97750000D02*
X111750000Y-97783333D01*
X111650000Y-97816666D01*
X111583333Y-97816666D01*
X111483333Y-97783333D01*
X111416666Y-97716666D01*
X111383333Y-97650000D01*
X111350000Y-97516666D01*
X111350000Y-97416666D01*
X111383333Y-97283333D01*
X111416666Y-97216666D01*
X111483333Y-97150000D01*
X111583333Y-97116666D01*
X111650000Y-97116666D01*
X111750000Y-97150000D01*
X111783333Y-97183333D01*
X111916666Y-97883333D02*
X112450000Y-97883333D01*
X112716666Y-97816666D02*
X112650000Y-97783333D01*
X112616666Y-97750000D01*
X112583333Y-97683333D01*
X112583333Y-97483333D01*
X112616666Y-97416666D01*
X112650000Y-97383333D01*
X112716666Y-97350000D01*
X112816666Y-97350000D01*
X112883333Y-97383333D01*
X112916666Y-97416666D01*
X112950000Y-97483333D01*
X112950000Y-97683333D01*
X112916666Y-97750000D01*
X112883333Y-97783333D01*
X112816666Y-97816666D01*
X112716666Y-97816666D01*
X113550000Y-97350000D02*
X113550000Y-97816666D01*
X113250000Y-97350000D02*
X113250000Y-97716666D01*
X113283333Y-97783333D01*
X113350000Y-97816666D01*
X113450000Y-97816666D01*
X113516666Y-97783333D01*
X113550000Y-97750000D01*
X113783333Y-97350000D02*
X114050000Y-97350000D01*
X113883333Y-97116666D02*
X113883333Y-97716666D01*
X113916666Y-97783333D01*
X113983333Y-97816666D01*
X114050000Y-97816666D01*
X114250000Y-97183333D02*
X114283333Y-97150000D01*
X114350000Y-97116666D01*
X114516666Y-97116666D01*
X114583333Y-97150000D01*
X114616666Y-97183333D01*
X114650000Y-97250000D01*
X114650000Y-97316666D01*
X114616666Y-97416666D01*
X114216666Y-97816666D01*
X114650000Y-97816666D01*
X107133333Y-97750000D02*
X107100000Y-97783333D01*
X107000000Y-97816666D01*
X106933333Y-97816666D01*
X106833333Y-97783333D01*
X106766666Y-97716666D01*
X106733333Y-97650000D01*
X106700000Y-97516666D01*
X106700000Y-97416666D01*
X106733333Y-97283333D01*
X106766666Y-97216666D01*
X106833333Y-97150000D01*
X106933333Y-97116666D01*
X107000000Y-97116666D01*
X107100000Y-97150000D01*
X107133333Y-97183333D01*
X107266666Y-97883333D02*
X107800000Y-97883333D01*
X108066666Y-97816666D02*
X108000000Y-97783333D01*
X107966666Y-97750000D01*
X107933333Y-97683333D01*
X107933333Y-97483333D01*
X107966666Y-97416666D01*
X108000000Y-97383333D01*
X108066666Y-97350000D01*
X108166666Y-97350000D01*
X108233333Y-97383333D01*
X108266666Y-97416666D01*
X108300000Y-97483333D01*
X108300000Y-97683333D01*
X108266666Y-97750000D01*
X108233333Y-97783333D01*
X108166666Y-97816666D01*
X108066666Y-97816666D01*
X108900000Y-97350000D02*
X108900000Y-97816666D01*
X108600000Y-97350000D02*
X108600000Y-97716666D01*
X108633333Y-97783333D01*
X108700000Y-97816666D01*
X108800000Y-97816666D01*
X108866666Y-97783333D01*
X108900000Y-97750000D01*
X109133333Y-97350000D02*
X109400000Y-97350000D01*
X109233333Y-97116666D02*
X109233333Y-97716666D01*
X109266666Y-97783333D01*
X109333333Y-97816666D01*
X109400000Y-97816666D01*
X110000000Y-97816666D02*
X109600000Y-97816666D01*
X109800000Y-97816666D02*
X109800000Y-97116666D01*
X109733333Y-97216666D01*
X109666666Y-97283333D01*
X109600000Y-97316666D01*
X130200000Y-96979166D02*
X130233333Y-97012500D01*
X130266666Y-97112500D01*
X130266666Y-97179166D01*
X130233333Y-97279166D01*
X130166666Y-97345833D01*
X130100000Y-97379166D01*
X129966666Y-97412500D01*
X129866666Y-97412500D01*
X129733333Y-97379166D01*
X129666666Y-97345833D01*
X129600000Y-97279166D01*
X129566666Y-97179166D01*
X129566666Y-97112500D01*
X129600000Y-97012500D01*
X129633333Y-96979166D01*
X130333333Y-96845833D02*
X130333333Y-96312500D01*
X130266666Y-96145833D02*
X129566666Y-96145833D01*
X130266666Y-95812500D02*
X129566666Y-95812500D01*
X130266666Y-95412500D01*
X129566666Y-95412500D01*
X129633333Y-95112500D02*
X129600000Y-95079166D01*
X129566666Y-95012500D01*
X129566666Y-94845833D01*
X129600000Y-94779166D01*
X129633333Y-94745833D01*
X129700000Y-94712500D01*
X129766666Y-94712500D01*
X129866666Y-94745833D01*
X130266666Y-95145833D01*
X130266666Y-94712500D01*
X127750000Y-91416666D02*
X127783333Y-91450000D01*
X127816666Y-91550000D01*
X127816666Y-91616666D01*
X127783333Y-91716666D01*
X127716666Y-91783333D01*
X127650000Y-91816666D01*
X127516666Y-91850000D01*
X127416666Y-91850000D01*
X127283333Y-91816666D01*
X127216666Y-91783333D01*
X127150000Y-91716666D01*
X127116666Y-91616666D01*
X127116666Y-91550000D01*
X127150000Y-91450000D01*
X127183333Y-91416666D01*
X127883333Y-91283333D02*
X127883333Y-90750000D01*
X127816666Y-90583333D02*
X127116666Y-90583333D01*
X127816666Y-90250000D02*
X127116666Y-90250000D01*
X127816666Y-89850000D01*
X127116666Y-89850000D01*
X127816666Y-89150000D02*
X127816666Y-89550000D01*
X127816666Y-89350000D02*
X127116666Y-89350000D01*
X127216666Y-89416666D01*
X127283333Y-89483333D01*
X127316666Y-89550000D01*
X112350000Y-88883333D02*
X112383333Y-88916666D01*
X112416666Y-89016666D01*
X112416666Y-89083333D01*
X112383333Y-89183333D01*
X112316666Y-89250000D01*
X112250000Y-89283333D01*
X112116666Y-89316666D01*
X112016666Y-89316666D01*
X111883333Y-89283333D01*
X111816666Y-89250000D01*
X111750000Y-89183333D01*
X111716666Y-89083333D01*
X111716666Y-89016666D01*
X111750000Y-88916666D01*
X111783333Y-88883333D01*
X112483333Y-88750000D02*
X112483333Y-88216666D01*
X112050000Y-87816666D02*
X112083333Y-87716666D01*
X112116666Y-87683333D01*
X112183333Y-87650000D01*
X112283333Y-87650000D01*
X112350000Y-87683333D01*
X112383333Y-87716666D01*
X112416666Y-87783333D01*
X112416666Y-88050000D01*
X111716666Y-88050000D01*
X111716666Y-87816666D01*
X111750000Y-87750000D01*
X111783333Y-87716666D01*
X111850000Y-87683333D01*
X111916666Y-87683333D01*
X111983333Y-87716666D01*
X112016666Y-87750000D01*
X112050000Y-87816666D01*
X112050000Y-88050000D01*
X112416666Y-86983333D02*
X112416666Y-87383333D01*
X112416666Y-87183333D02*
X111716666Y-87183333D01*
X111816666Y-87250000D01*
X111883333Y-87316666D01*
X111916666Y-87383333D01*
X116716666Y-97116666D02*
X116716666Y-97683333D01*
X116750000Y-97750000D01*
X116783333Y-97783333D01*
X116850000Y-97816666D01*
X116983333Y-97816666D01*
X117050000Y-97783333D01*
X117083333Y-97750000D01*
X117116666Y-97683333D01*
X117116666Y-97116666D01*
X117383333Y-97116666D02*
X117816666Y-97116666D01*
X117583333Y-97383333D01*
X117683333Y-97383333D01*
X117750000Y-97416666D01*
X117783333Y-97450000D01*
X117816666Y-97516666D01*
X117816666Y-97683333D01*
X117783333Y-97750000D01*
X117750000Y-97783333D01*
X117683333Y-97816666D01*
X117483333Y-97816666D01*
X117416666Y-97783333D01*
X117383333Y-97750000D01*
X141066666Y-84733333D02*
X141633333Y-84733333D01*
X141700000Y-84700000D01*
X141733333Y-84666666D01*
X141766666Y-84600000D01*
X141766666Y-84466666D01*
X141733333Y-84400000D01*
X141700000Y-84366666D01*
X141633333Y-84333333D01*
X141066666Y-84333333D01*
X141133333Y-84033333D02*
X141100000Y-84000000D01*
X141066666Y-83933333D01*
X141066666Y-83766666D01*
X141100000Y-83700000D01*
X141133333Y-83666666D01*
X141200000Y-83633333D01*
X141266666Y-83633333D01*
X141366666Y-83666666D01*
X141766666Y-84066666D01*
X141766666Y-83633333D01*
X117286666Y-76473333D02*
X117853333Y-76473333D01*
X117920000Y-76440000D01*
X117953333Y-76406666D01*
X117986666Y-76340000D01*
X117986666Y-76206666D01*
X117953333Y-76140000D01*
X117920000Y-76106666D01*
X117853333Y-76073333D01*
X117286666Y-76073333D01*
X117986666Y-75373333D02*
X117986666Y-75773333D01*
X117986666Y-75573333D02*
X117286666Y-75573333D01*
X117386666Y-75640000D01*
X117453333Y-75706666D01*
X117486666Y-75773333D01*
X125133333Y-77733333D02*
X125166666Y-77633333D01*
X125166666Y-77466666D01*
X125133333Y-77400000D01*
X125100000Y-77366666D01*
X125033333Y-77333333D01*
X124966666Y-77333333D01*
X124900000Y-77366666D01*
X124866666Y-77400000D01*
X124833333Y-77466666D01*
X124800000Y-77600000D01*
X124766666Y-77666666D01*
X124733333Y-77700000D01*
X124666666Y-77733333D01*
X124600000Y-77733333D01*
X124533333Y-77700000D01*
X124500000Y-77666666D01*
X124466666Y-77600000D01*
X124466666Y-77433333D01*
X124500000Y-77333333D01*
X124466666Y-77100000D02*
X125166666Y-76933333D01*
X124666666Y-76800000D01*
X125166666Y-76666666D01*
X124466666Y-76500000D01*
X124533333Y-76266666D02*
X124500000Y-76233333D01*
X124466666Y-76166666D01*
X124466666Y-76000000D01*
X124500000Y-75933333D01*
X124533333Y-75900000D01*
X124600000Y-75866666D01*
X124666666Y-75866666D01*
X124766666Y-75900000D01*
X125166666Y-76300000D01*
X125166666Y-75866666D01*
X158883333Y-85950000D02*
X158916666Y-85850000D01*
X158916666Y-85683333D01*
X158883333Y-85616666D01*
X158850000Y-85583333D01*
X158783333Y-85550000D01*
X158716666Y-85550000D01*
X158650000Y-85583333D01*
X158616666Y-85616666D01*
X158583333Y-85683333D01*
X158550000Y-85816666D01*
X158516666Y-85883333D01*
X158483333Y-85916666D01*
X158416666Y-85950000D01*
X158350000Y-85950000D01*
X158283333Y-85916666D01*
X158250000Y-85883333D01*
X158216666Y-85816666D01*
X158216666Y-85650000D01*
X158250000Y-85550000D01*
X158550000Y-85250000D02*
X158550000Y-85016666D01*
X158916666Y-84916666D02*
X158916666Y-85250000D01*
X158216666Y-85250000D01*
X158216666Y-84916666D01*
X158916666Y-84616666D02*
X158216666Y-84616666D01*
X158916666Y-84216666D01*
X158216666Y-84216666D01*
X158883333Y-83916666D02*
X158916666Y-83816666D01*
X158916666Y-83650000D01*
X158883333Y-83583333D01*
X158850000Y-83550000D01*
X158783333Y-83516666D01*
X158716666Y-83516666D01*
X158650000Y-83550000D01*
X158616666Y-83583333D01*
X158583333Y-83650000D01*
X158550000Y-83783333D01*
X158516666Y-83850000D01*
X158483333Y-83883333D01*
X158416666Y-83916666D01*
X158350000Y-83916666D01*
X158283333Y-83883333D01*
X158250000Y-83850000D01*
X158216666Y-83783333D01*
X158216666Y-83616666D01*
X158250000Y-83516666D01*
X158916666Y-82850000D02*
X158916666Y-83250000D01*
X158916666Y-83050000D02*
X158216666Y-83050000D01*
X158316666Y-83116666D01*
X158383333Y-83183333D01*
X158416666Y-83250000D01*
X136116666Y-74516666D02*
X136116666Y-74383333D01*
X136150000Y-74316666D01*
X136216666Y-74250000D01*
X136350000Y-74216666D01*
X136583333Y-74216666D01*
X136716666Y-74250000D01*
X136783333Y-74316666D01*
X136816666Y-74383333D01*
X136816666Y-74516666D01*
X136783333Y-74583333D01*
X136716666Y-74650000D01*
X136583333Y-74683333D01*
X136350000Y-74683333D01*
X136216666Y-74650000D01*
X136150000Y-74583333D01*
X136116666Y-74516666D01*
X136116666Y-73916666D02*
X136683333Y-73916666D01*
X136750000Y-73883333D01*
X136783333Y-73850000D01*
X136816666Y-73783333D01*
X136816666Y-73650000D01*
X136783333Y-73583333D01*
X136750000Y-73550000D01*
X136683333Y-73516666D01*
X136116666Y-73516666D01*
X136116666Y-73283333D02*
X136116666Y-72883333D01*
X136816666Y-73083333D02*
X136116666Y-73083333D01*
X136816666Y-72650000D02*
X136116666Y-72650000D01*
X136116666Y-72383333D01*
X136150000Y-72316666D01*
X136183333Y-72283333D01*
X136250000Y-72250000D01*
X136350000Y-72250000D01*
X136416666Y-72283333D01*
X136450000Y-72316666D01*
X136483333Y-72383333D01*
X136483333Y-72650000D01*
X136116666Y-71950000D02*
X136683333Y-71950000D01*
X136750000Y-71916666D01*
X136783333Y-71883333D01*
X136816666Y-71816666D01*
X136816666Y-71683333D01*
X136783333Y-71616666D01*
X136750000Y-71583333D01*
X136683333Y-71550000D01*
X136116666Y-71550000D01*
X136116666Y-71316666D02*
X136116666Y-70916666D01*
X136816666Y-71116666D02*
X136116666Y-71116666D01*
X136816666Y-70316666D02*
X136816666Y-70716666D01*
X136816666Y-70516666D02*
X136116666Y-70516666D01*
X136216666Y-70583333D01*
X136283333Y-70650000D01*
X136316666Y-70716666D01*
X145321666Y-97233333D02*
X145821666Y-97233333D01*
X145921666Y-97266666D01*
X145988333Y-97333333D01*
X146021666Y-97433333D01*
X146021666Y-97500000D01*
X146021666Y-96533333D02*
X146021666Y-96933333D01*
X146021666Y-96733333D02*
X145321666Y-96733333D01*
X145421666Y-96800000D01*
X145488333Y-96866666D01*
X145521666Y-96933333D01*
X151116666Y-75276666D02*
X150416666Y-75276666D01*
X151083333Y-74976666D02*
X151116666Y-74876666D01*
X151116666Y-74710000D01*
X151083333Y-74643333D01*
X151050000Y-74610000D01*
X150983333Y-74576666D01*
X150916666Y-74576666D01*
X150850000Y-74610000D01*
X150816666Y-74643333D01*
X150783333Y-74710000D01*
X150750000Y-74843333D01*
X150716666Y-74910000D01*
X150683333Y-74943333D01*
X150616666Y-74976666D01*
X150550000Y-74976666D01*
X150483333Y-74943333D01*
X150450000Y-74910000D01*
X150416666Y-74843333D01*
X150416666Y-74676666D01*
X150450000Y-74576666D01*
X151116666Y-74276666D02*
X150416666Y-74276666D01*
X150416666Y-74010000D01*
X150450000Y-73943333D01*
X150483333Y-73910000D01*
X150550000Y-73876666D01*
X150650000Y-73876666D01*
X150716666Y-73910000D01*
X150750000Y-73943333D01*
X150783333Y-74010000D01*
X150783333Y-74276666D01*
X151116666Y-73210000D02*
X151116666Y-73610000D01*
X151116666Y-73410000D02*
X150416666Y-73410000D01*
X150516666Y-73476666D01*
X150583333Y-73543333D01*
X150616666Y-73610000D01*
X127316666Y-82683333D02*
X126616666Y-82683333D01*
X127316666Y-82350000D02*
X126616666Y-82350000D01*
X127316666Y-81950000D01*
X126616666Y-81950000D01*
X127316666Y-81616666D02*
X126616666Y-81616666D01*
X126616666Y-81350000D01*
X126650000Y-81283333D01*
X126683333Y-81250000D01*
X126750000Y-81216666D01*
X126850000Y-81216666D01*
X126916666Y-81250000D01*
X126950000Y-81283333D01*
X126983333Y-81350000D01*
X126983333Y-81616666D01*
X126616666Y-80916666D02*
X127183333Y-80916666D01*
X127250000Y-80883333D01*
X127283333Y-80850000D01*
X127316666Y-80783333D01*
X127316666Y-80650000D01*
X127283333Y-80583333D01*
X127250000Y-80550000D01*
X127183333Y-80516666D01*
X126616666Y-80516666D01*
X126616666Y-80283333D02*
X126616666Y-79883333D01*
X127316666Y-80083333D02*
X126616666Y-80083333D01*
X127316666Y-79283333D02*
X127316666Y-79683333D01*
X127316666Y-79483333D02*
X126616666Y-79483333D01*
X126716666Y-79550000D01*
X126783333Y-79616666D01*
X126816666Y-79683333D01*
X155516666Y-98416666D02*
X155516666Y-97716666D01*
X155683333Y-97716666D01*
X155783333Y-97750000D01*
X155850000Y-97816666D01*
X155883333Y-97883333D01*
X155916666Y-98016666D01*
X155916666Y-98116666D01*
X155883333Y-98250000D01*
X155850000Y-98316666D01*
X155783333Y-98383333D01*
X155683333Y-98416666D01*
X155516666Y-98416666D01*
X156050000Y-98483333D02*
X156583333Y-98483333D01*
X157083333Y-98416666D02*
X156750000Y-98416666D01*
X156750000Y-97716666D01*
X157316666Y-98050000D02*
X157550000Y-98050000D01*
X157650000Y-98416666D02*
X157316666Y-98416666D01*
X157316666Y-97716666D01*
X157650000Y-97716666D01*
X157950000Y-98416666D02*
X157950000Y-97716666D01*
X158116666Y-97716666D01*
X158216666Y-97750000D01*
X158283333Y-97816666D01*
X158316666Y-97883333D01*
X158350000Y-98016666D01*
X158350000Y-98116666D01*
X158316666Y-98250000D01*
X158283333Y-98316666D01*
X158216666Y-98383333D01*
X158116666Y-98416666D01*
X157950000Y-98416666D01*
X159016666Y-98416666D02*
X158616666Y-98416666D01*
X158816666Y-98416666D02*
X158816666Y-97716666D01*
X158750000Y-97816666D01*
X158683333Y-97883333D01*
X158616666Y-97916666D01*
X147783333Y-93150000D02*
X147750000Y-93183333D01*
X147650000Y-93216666D01*
X147583333Y-93216666D01*
X147483333Y-93183333D01*
X147416666Y-93116666D01*
X147383333Y-93050000D01*
X147350000Y-92916666D01*
X147350000Y-92816666D01*
X147383333Y-92683333D01*
X147416666Y-92616666D01*
X147483333Y-92550000D01*
X147583333Y-92516666D01*
X147650000Y-92516666D01*
X147750000Y-92550000D01*
X147783333Y-92583333D01*
X148050000Y-92583333D02*
X148083333Y-92550000D01*
X148150000Y-92516666D01*
X148316666Y-92516666D01*
X148383333Y-92550000D01*
X148416666Y-92583333D01*
X148450000Y-92650000D01*
X148450000Y-92716666D01*
X148416666Y-92816666D01*
X148016666Y-93216666D01*
X148450000Y-93216666D01*
X147883333Y-76000000D02*
X147850000Y-76033333D01*
X147750000Y-76066666D01*
X147683333Y-76066666D01*
X147583333Y-76033333D01*
X147516666Y-75966666D01*
X147483333Y-75900000D01*
X147450000Y-75766666D01*
X147450000Y-75666666D01*
X147483333Y-75533333D01*
X147516666Y-75466666D01*
X147583333Y-75400000D01*
X147683333Y-75366666D01*
X147750000Y-75366666D01*
X147850000Y-75400000D01*
X147883333Y-75433333D01*
X148550000Y-76066666D02*
X148150000Y-76066666D01*
X148350000Y-76066666D02*
X148350000Y-75366666D01*
X148283333Y-75466666D01*
X148216666Y-75533333D01*
X148150000Y-75566666D01*
M02*
