G04 #@! TF.GenerationSoftware,KiCad,Pcbnew,6.0.7-f9a2dced07~116~ubuntu20.04.1*
G04 #@! TF.CreationDate,2022-12-22T17:17:51+01:00*
G04 #@! TF.ProjectId,mimu_phantom,6d696d75-5f70-4686-916e-746f6d2e6b69,rev?*
G04 #@! TF.SameCoordinates,Original*
G04 #@! TF.FileFunction,Copper,L2,Bot*
G04 #@! TF.FilePolarity,Positive*
%FSLAX46Y46*%
G04 Gerber Fmt 4.6, Leading zero omitted, Abs format (unit mm)*
G04 Created by KiCad (PCBNEW 6.0.7-f9a2dced07~116~ubuntu20.04.1) date 2022-12-22 17:17:51*
%MOMM*%
%LPD*%
G01*
G04 APERTURE LIST*
G04 #@! TA.AperFunction,ComponentPad*
%ADD10C,1.600000*%
G04 #@! TD*
G04 #@! TA.AperFunction,ComponentPad*
%ADD11R,1.600000X1.600000*%
G04 #@! TD*
G04 #@! TA.AperFunction,ComponentPad*
%ADD12O,1.600000X1.600000*%
G04 #@! TD*
G04 #@! TA.AperFunction,ComponentPad*
%ADD13R,1.700000X1.700000*%
G04 #@! TD*
G04 #@! TA.AperFunction,ComponentPad*
%ADD14O,1.700000X1.700000*%
G04 #@! TD*
G04 #@! TA.AperFunction,ComponentPad*
%ADD15R,1.000000X1.000000*%
G04 #@! TD*
G04 #@! TA.AperFunction,ComponentPad*
%ADD16O,1.000000X1.000000*%
G04 #@! TD*
G04 #@! TA.AperFunction,ComponentPad*
%ADD17R,1.800000X1.800000*%
G04 #@! TD*
G04 #@! TA.AperFunction,ComponentPad*
%ADD18C,1.800000*%
G04 #@! TD*
G04 #@! TA.AperFunction,ComponentPad*
%ADD19R,1.200000X1.200000*%
G04 #@! TD*
G04 #@! TA.AperFunction,ComponentPad*
%ADD20O,1.200000X1.200000*%
G04 #@! TD*
G04 #@! TA.AperFunction,ViaPad*
%ADD21C,0.800000*%
G04 #@! TD*
G04 #@! TA.AperFunction,Conductor*
%ADD22C,0.500000*%
G04 #@! TD*
G04 #@! TA.AperFunction,Conductor*
%ADD23C,0.750000*%
G04 #@! TD*
G04 #@! TA.AperFunction,Conductor*
%ADD24C,0.250000*%
G04 #@! TD*
G04 APERTURE END LIST*
D10*
X128300000Y-94855113D03*
D11*
X128300000Y-96855113D03*
X116400000Y-93800000D03*
D12*
X116400000Y-96340000D03*
X124020000Y-96340000D03*
X124020000Y-93800000D03*
D13*
X144850000Y-81650000D03*
D14*
X144850000Y-84190000D03*
X144850000Y-86730000D03*
X144850000Y-89270000D03*
D15*
X135010000Y-97750000D03*
D16*
X136280000Y-97750000D03*
X137550000Y-97750000D03*
X138820000Y-97750000D03*
X140090000Y-97750000D03*
D17*
X147500000Y-83800000D03*
D18*
X147500000Y-86340000D03*
X147500000Y-88880000D03*
D19*
X147900000Y-75000000D03*
D20*
X147900000Y-77540000D03*
X145360000Y-75000000D03*
X145360000Y-77540000D03*
X142820000Y-75000000D03*
X142820000Y-77540000D03*
D13*
X127400000Y-91000000D03*
D14*
X127400000Y-88460000D03*
X127400000Y-85920000D03*
D21*
X135800000Y-73800000D03*
X136800500Y-86800000D03*
X134350000Y-92250000D03*
X135500000Y-76100000D03*
X138812701Y-78112701D03*
X138500000Y-86800000D03*
X134350000Y-94700000D03*
X130500000Y-82100000D03*
X142800000Y-81450000D03*
X141177114Y-79424579D03*
X142273959Y-80426041D03*
X131000000Y-95750000D03*
X131000000Y-92250000D03*
X132000000Y-92250000D03*
X132000000Y-96550000D03*
X133100000Y-92250000D03*
X133099905Y-97425335D03*
X134333470Y-83775010D03*
X134923623Y-84582316D03*
X103100000Y-82400000D03*
X109200000Y-82400000D03*
X110800000Y-89550000D03*
X112700000Y-86850000D03*
X107850004Y-88800000D03*
X108600000Y-86600000D03*
X103950000Y-97300000D03*
X108200000Y-94800000D03*
X103300000Y-78600000D03*
X104600000Y-78600000D03*
X119300000Y-78500000D03*
X116500000Y-78500000D03*
X104100000Y-96100000D03*
X117900000Y-78500000D03*
X128800000Y-81700000D03*
X105900000Y-78600000D03*
X109225000Y-89550000D03*
X136900000Y-77550000D03*
X120750000Y-81750000D03*
X129687500Y-93437500D03*
X108600000Y-93400000D03*
X107300000Y-78600000D03*
X129568653Y-74892199D03*
X129360924Y-99389076D03*
X115100000Y-78500000D03*
X112450000Y-80400000D03*
X111350000Y-85150000D03*
X120750000Y-91150000D03*
X108400000Y-90200000D03*
X136599998Y-83141998D03*
X125100000Y-90900000D03*
X118900000Y-84400000D03*
X137749500Y-82100000D03*
X141337500Y-94750000D03*
X134800000Y-87800000D03*
X141200000Y-92300000D03*
X135402557Y-82697443D03*
X132900000Y-76700500D03*
X122700000Y-75700000D03*
X126774500Y-80400000D03*
X123900000Y-80150000D03*
X146275000Y-90775000D03*
D22*
X135800000Y-73800000D02*
X129999500Y-73800000D01*
D23*
X134350000Y-92250000D02*
X134350000Y-94237500D01*
D22*
X135500000Y-76100000D02*
X136800000Y-76100000D01*
X146600000Y-81650000D02*
X147750000Y-80500000D01*
D23*
X134350000Y-94237500D02*
X134350000Y-94700000D01*
D22*
X136800500Y-86800000D02*
X138500000Y-86800000D01*
X136800000Y-76100000D02*
X138812701Y-78112701D01*
X147750000Y-80500000D02*
X147750000Y-77950000D01*
X144850000Y-81650000D02*
X146600000Y-81650000D01*
D24*
X132050000Y-80550000D02*
X137400000Y-80550000D01*
X137400000Y-80550000D02*
X142850000Y-75100000D01*
X130500000Y-82100000D02*
X132050000Y-80550000D01*
X142800000Y-81450000D02*
X145410000Y-78840000D01*
X145410000Y-78840000D02*
X145410000Y-77550000D01*
X141177114Y-77522886D02*
X142514999Y-76185001D01*
X144234999Y-76185001D02*
X144560001Y-75859999D01*
X142514999Y-76185001D02*
X144234999Y-76185001D01*
X141177114Y-79424579D02*
X141177114Y-77522886D01*
X144560001Y-75859999D02*
X145410000Y-75010000D01*
X145035997Y-76185001D02*
X147874999Y-76185001D01*
X144234999Y-78465001D02*
X144234999Y-76985999D01*
X147950000Y-76110000D02*
X147950000Y-75010000D01*
X147874999Y-76185001D02*
X147950000Y-76110000D01*
X144234999Y-76985999D02*
X145035997Y-76185001D01*
X142273959Y-80426041D02*
X144234999Y-78465001D01*
X131000000Y-92250000D02*
X131000000Y-95750000D01*
X132000000Y-96550000D02*
X132000000Y-92250000D01*
X133100000Y-97200000D02*
X133100000Y-92250000D01*
X133099905Y-97425335D02*
X133100000Y-97200000D01*
X142470000Y-89270000D02*
X138800000Y-85600000D01*
X138800000Y-85600000D02*
X134740588Y-85600000D01*
X134198623Y-85058035D02*
X134198623Y-83909857D01*
X134740588Y-85600000D02*
X134198623Y-85058035D01*
X134198623Y-83909857D02*
X134333470Y-83775010D01*
X144850000Y-89270000D02*
X142470000Y-89270000D01*
X139182316Y-84582316D02*
X134923623Y-84582316D01*
X144450000Y-86850000D02*
X141450000Y-86850000D01*
X141450000Y-86850000D02*
X139182316Y-84582316D01*
D22*
X109200000Y-82400000D02*
X103100000Y-82400000D01*
D24*
X112700000Y-86850000D02*
X112700000Y-87650000D01*
X112700000Y-87650000D02*
X110800000Y-89550000D01*
D22*
X108600000Y-86600000D02*
X108600000Y-88050004D01*
X108600000Y-88050004D02*
X107850004Y-88800000D01*
X148850000Y-87650000D02*
X148850000Y-93350000D01*
X129568653Y-75168653D02*
X131950000Y-77550000D01*
X147500000Y-86340000D02*
X148810000Y-87650000D01*
X131950000Y-77550000D02*
X136900000Y-77550000D01*
X140390000Y-84190000D02*
X139341998Y-83141998D01*
X148850000Y-93350000D02*
X143200000Y-99000000D01*
X144850000Y-84190000D02*
X140390000Y-84190000D01*
X129568653Y-74892199D02*
X129568653Y-75168653D01*
X139341998Y-83141998D02*
X136599998Y-83141998D01*
X129750000Y-99000000D02*
X129360924Y-99389076D01*
X143200000Y-99000000D02*
X129750000Y-99000000D01*
X148810000Y-87650000D02*
X148850000Y-87650000D01*
D23*
X125100000Y-90900000D02*
X125100000Y-88220000D01*
X125100000Y-88220000D02*
X127400000Y-85920000D01*
D24*
X129225305Y-84400000D02*
X118900000Y-84400000D01*
X137749500Y-82100000D02*
X137449500Y-81800000D01*
X131825305Y-81800000D02*
X129225305Y-84400000D01*
X137449500Y-81800000D02*
X131825305Y-81800000D01*
X141337500Y-94337500D02*
X141337500Y-94750000D01*
X134800000Y-87800000D02*
X141337500Y-94337500D01*
X140500000Y-92300000D02*
X141200000Y-92300000D01*
X135402557Y-82697443D02*
X134385732Y-82697443D01*
X134385732Y-82697443D02*
X133600000Y-83483175D01*
X133600000Y-83483175D02*
X133600000Y-85400000D01*
X133600000Y-85400000D02*
X140500000Y-92300000D01*
D22*
X129999500Y-73800000D02*
X124600000Y-73800000D01*
X132900000Y-76700500D02*
X129999500Y-73800000D01*
X124600000Y-73800000D02*
X122700000Y-75700000D01*
D24*
X126774500Y-80400000D02*
X124150000Y-80400000D01*
X124150000Y-80400000D02*
X123900000Y-80150000D01*
X146275000Y-85025000D02*
X147500000Y-83800000D01*
X146275000Y-90775000D02*
X146275000Y-85025000D01*
G04 #@! TA.AperFunction,Conductor*
G36*
X123582750Y-73528502D02*
G01*
X123629243Y-73582158D01*
X123639347Y-73652432D01*
X123609853Y-73717012D01*
X123603724Y-73723595D01*
X122543669Y-74783650D01*
X122480772Y-74817801D01*
X122424176Y-74829831D01*
X122424167Y-74829834D01*
X122417712Y-74831206D01*
X122411682Y-74833891D01*
X122411681Y-74833891D01*
X122249278Y-74906197D01*
X122249276Y-74906198D01*
X122243248Y-74908882D01*
X122088747Y-75021134D01*
X121960960Y-75163056D01*
X121865473Y-75328444D01*
X121806458Y-75510072D01*
X121786496Y-75700000D01*
X121806458Y-75889928D01*
X121865473Y-76071556D01*
X121960960Y-76236944D01*
X122088747Y-76378866D01*
X122243248Y-76491118D01*
X122249276Y-76493802D01*
X122249278Y-76493803D01*
X122377438Y-76550863D01*
X122417712Y-76568794D01*
X122511112Y-76588647D01*
X122598056Y-76607128D01*
X122598061Y-76607128D01*
X122604513Y-76608500D01*
X122795487Y-76608500D01*
X122801939Y-76607128D01*
X122801944Y-76607128D01*
X122888888Y-76588647D01*
X122982288Y-76568794D01*
X123022562Y-76550863D01*
X123150722Y-76493803D01*
X123150724Y-76493802D01*
X123156752Y-76491118D01*
X123311253Y-76378866D01*
X123439040Y-76236944D01*
X123534527Y-76071556D01*
X123589387Y-75902714D01*
X123620125Y-75852556D01*
X124877276Y-74595405D01*
X124939588Y-74561379D01*
X124966371Y-74558500D01*
X129633129Y-74558500D01*
X129701250Y-74578502D01*
X129722224Y-74595405D01*
X129866603Y-74739784D01*
X129900629Y-74802096D01*
X129903508Y-74828599D01*
X129917378Y-81069843D01*
X129917978Y-81340023D01*
X129898127Y-81408188D01*
X129885614Y-81424613D01*
X129760960Y-81563056D01*
X129665473Y-81728444D01*
X129606458Y-81910072D01*
X129586496Y-82100000D01*
X129606458Y-82289928D01*
X129665473Y-82471556D01*
X129760960Y-82636944D01*
X129838015Y-82722522D01*
X129868732Y-82786530D01*
X129859967Y-82856983D01*
X129833473Y-82895927D01*
X128999805Y-83729595D01*
X128937493Y-83763621D01*
X128910710Y-83766500D01*
X119608200Y-83766500D01*
X119540079Y-83746498D01*
X119520853Y-83730157D01*
X119520580Y-83730460D01*
X119515668Y-83726037D01*
X119511253Y-83721134D01*
X119356752Y-83608882D01*
X119350724Y-83606198D01*
X119350722Y-83606197D01*
X119188319Y-83533891D01*
X119188318Y-83533891D01*
X119182288Y-83531206D01*
X119088887Y-83511353D01*
X119001944Y-83492872D01*
X119001939Y-83492872D01*
X118995487Y-83491500D01*
X118804513Y-83491500D01*
X118798061Y-83492872D01*
X118798056Y-83492872D01*
X118711113Y-83511353D01*
X118617712Y-83531206D01*
X118611682Y-83533891D01*
X118611681Y-83533891D01*
X118449278Y-83606197D01*
X118449276Y-83606198D01*
X118443248Y-83608882D01*
X118288747Y-83721134D01*
X118284326Y-83726044D01*
X118284325Y-83726045D01*
X118250492Y-83763621D01*
X118160960Y-83863056D01*
X118065473Y-84028444D01*
X118006458Y-84210072D01*
X117986496Y-84400000D01*
X118006458Y-84589928D01*
X118065473Y-84771556D01*
X118160960Y-84936944D01*
X118165378Y-84941851D01*
X118165379Y-84941852D01*
X118247452Y-85033003D01*
X118288747Y-85078866D01*
X118443248Y-85191118D01*
X118449276Y-85193802D01*
X118449278Y-85193803D01*
X118578588Y-85251375D01*
X118617712Y-85268794D01*
X118711113Y-85288647D01*
X118798056Y-85307128D01*
X118798061Y-85307128D01*
X118804513Y-85308500D01*
X118995487Y-85308500D01*
X119001939Y-85307128D01*
X119001944Y-85307128D01*
X119088887Y-85288647D01*
X119182288Y-85268794D01*
X119221412Y-85251375D01*
X119350722Y-85193803D01*
X119350724Y-85193802D01*
X119356752Y-85191118D01*
X119511253Y-85078866D01*
X119515668Y-85073963D01*
X119520580Y-85069540D01*
X119521705Y-85070789D01*
X119575014Y-85037949D01*
X119608200Y-85033500D01*
X126121690Y-85033500D01*
X126189811Y-85053502D01*
X126236304Y-85107158D01*
X126246408Y-85177432D01*
X126225778Y-85230503D01*
X126214743Y-85246680D01*
X126120688Y-85449305D01*
X126060989Y-85664570D01*
X126037251Y-85886695D01*
X126037548Y-85891847D01*
X126037548Y-85891851D01*
X126041991Y-85968899D01*
X126025944Y-86038058D01*
X126005295Y-86065247D01*
X124531454Y-87539088D01*
X124516426Y-87551925D01*
X124505566Y-87559815D01*
X124501145Y-87564725D01*
X124501144Y-87564726D01*
X124461114Y-87609184D01*
X124456573Y-87613969D01*
X124442528Y-87628014D01*
X124440444Y-87630588D01*
X124440441Y-87630591D01*
X124430031Y-87643446D01*
X124425747Y-87648462D01*
X124385717Y-87692920D01*
X124385713Y-87692925D01*
X124381296Y-87697831D01*
X124374791Y-87709097D01*
X124374589Y-87709448D01*
X124363391Y-87725741D01*
X124354953Y-87736161D01*
X124324787Y-87795363D01*
X124321654Y-87801133D01*
X124291740Y-87852945D01*
X124291738Y-87852950D01*
X124288436Y-87858669D01*
X124286395Y-87864949D01*
X124286392Y-87864957D01*
X124284292Y-87871421D01*
X124276728Y-87889683D01*
X124273637Y-87895749D01*
X124273634Y-87895758D01*
X124270638Y-87901637D01*
X124268929Y-87908015D01*
X124253444Y-87965804D01*
X124251578Y-87972106D01*
X124231046Y-88035298D01*
X124230356Y-88041866D01*
X124229645Y-88048628D01*
X124226042Y-88068071D01*
X124222570Y-88081029D01*
X124222225Y-88087619D01*
X124222224Y-88087623D01*
X124221021Y-88110576D01*
X124219543Y-88138789D01*
X124219093Y-88147367D01*
X124218577Y-88153931D01*
X124216500Y-88173694D01*
X124216500Y-88193555D01*
X124216327Y-88200150D01*
X124212850Y-88266493D01*
X124213882Y-88273007D01*
X124214949Y-88279744D01*
X124216500Y-88299456D01*
X124216500Y-90659210D01*
X124210333Y-90698146D01*
X124206458Y-90710072D01*
X124186496Y-90900000D01*
X124206458Y-91089928D01*
X124265473Y-91271556D01*
X124360960Y-91436944D01*
X124488747Y-91578866D01*
X124643248Y-91691118D01*
X124649276Y-91693802D01*
X124649278Y-91693803D01*
X124811681Y-91766109D01*
X124817712Y-91768794D01*
X124911112Y-91788647D01*
X124998056Y-91807128D01*
X124998061Y-91807128D01*
X125004513Y-91808500D01*
X125195487Y-91808500D01*
X125201939Y-91807128D01*
X125201944Y-91807128D01*
X125288887Y-91788647D01*
X125382288Y-91768794D01*
X125388319Y-91766109D01*
X125550722Y-91693803D01*
X125550724Y-91693802D01*
X125556752Y-91691118D01*
X125711253Y-91578866D01*
X125839040Y-91436944D01*
X125934527Y-91271556D01*
X125993542Y-91089928D01*
X126013504Y-90900000D01*
X125993542Y-90710072D01*
X125989667Y-90698146D01*
X125983500Y-90659210D01*
X125983500Y-89195391D01*
X126003502Y-89127270D01*
X126057158Y-89080777D01*
X126127432Y-89070673D01*
X126192012Y-89100167D01*
X126216933Y-89129556D01*
X126299987Y-89265088D01*
X126446250Y-89433938D01*
X126618126Y-89576632D01*
X126811000Y-89689338D01*
X126815823Y-89691180D01*
X126815832Y-89691184D01*
X126834446Y-89698292D01*
X126890949Y-89741279D01*
X126915241Y-89807991D01*
X126899610Y-89877245D01*
X126849019Y-89927055D01*
X126789496Y-89942001D01*
X126535702Y-89942001D01*
X126523442Y-89943209D01*
X126481017Y-89951647D01*
X126458521Y-89960964D01*
X126410356Y-89993147D01*
X126393147Y-90010356D01*
X126360963Y-90058523D01*
X126351647Y-90081014D01*
X126343207Y-90123445D01*
X126342000Y-90135700D01*
X126342000Y-90727885D01*
X126346475Y-90743124D01*
X126347865Y-90744329D01*
X126355548Y-90746000D01*
X128439884Y-90746000D01*
X128455123Y-90741525D01*
X128456328Y-90740135D01*
X128457999Y-90732452D01*
X128457999Y-90135702D01*
X128456791Y-90123442D01*
X128448353Y-90081017D01*
X128439036Y-90058521D01*
X128406853Y-90010356D01*
X128389644Y-89993147D01*
X128341477Y-89960963D01*
X128318986Y-89951647D01*
X128276555Y-89943207D01*
X128264300Y-89942000D01*
X128006552Y-89942000D01*
X127938431Y-89921998D01*
X127891938Y-89868342D01*
X127881834Y-89798068D01*
X127911328Y-89733488D01*
X127951120Y-89702849D01*
X128093346Y-89633173D01*
X128097994Y-89630896D01*
X128279860Y-89501173D01*
X128298349Y-89482749D01*
X128434435Y-89347137D01*
X128438096Y-89343489D01*
X128568453Y-89162077D01*
X128613628Y-89070673D01*
X128665136Y-88966453D01*
X128665137Y-88966451D01*
X128667430Y-88961811D01*
X128699900Y-88854940D01*
X128730865Y-88753023D01*
X128730865Y-88753021D01*
X128732370Y-88748069D01*
X128761529Y-88526590D01*
X128761611Y-88523240D01*
X128763074Y-88463365D01*
X128763074Y-88463361D01*
X128763156Y-88460000D01*
X128744852Y-88237361D01*
X128690431Y-88020702D01*
X128601354Y-87815840D01*
X128543066Y-87725741D01*
X128482822Y-87632617D01*
X128482820Y-87632614D01*
X128480014Y-87628277D01*
X128329670Y-87463051D01*
X128325619Y-87459852D01*
X128325615Y-87459848D01*
X128158414Y-87327800D01*
X128158410Y-87327798D01*
X128154359Y-87324598D01*
X128113053Y-87301796D01*
X128063084Y-87251364D01*
X128048312Y-87181921D01*
X128073428Y-87115516D01*
X128100780Y-87088909D01*
X128178650Y-87033365D01*
X128279860Y-86961173D01*
X128438096Y-86803489D01*
X128443330Y-86796206D01*
X128565435Y-86626277D01*
X128568453Y-86622077D01*
X128576120Y-86606565D01*
X128665136Y-86426453D01*
X128665137Y-86426451D01*
X128667430Y-86421811D01*
X128732370Y-86208069D01*
X128761529Y-85986590D01*
X128762631Y-85941500D01*
X128763074Y-85923365D01*
X128763074Y-85923361D01*
X128763156Y-85920000D01*
X128744852Y-85697361D01*
X128690431Y-85480702D01*
X128601354Y-85275840D01*
X128570366Y-85227940D01*
X128550159Y-85159880D01*
X128569955Y-85091699D01*
X128623470Y-85045045D01*
X128676158Y-85033500D01*
X129146538Y-85033500D01*
X129157721Y-85034027D01*
X129165214Y-85035702D01*
X129173140Y-85035453D01*
X129173141Y-85035453D01*
X129233291Y-85033562D01*
X129237250Y-85033500D01*
X129265161Y-85033500D01*
X129269096Y-85033003D01*
X129269161Y-85032995D01*
X129280998Y-85032062D01*
X129313256Y-85031048D01*
X129317275Y-85030922D01*
X129325194Y-85030673D01*
X129344648Y-85025021D01*
X129364005Y-85021013D01*
X129376235Y-85019468D01*
X129376236Y-85019468D01*
X129384102Y-85018474D01*
X129391473Y-85015555D01*
X129391475Y-85015555D01*
X129425217Y-85002196D01*
X129436447Y-84998351D01*
X129471288Y-84988229D01*
X129471289Y-84988229D01*
X129478898Y-84986018D01*
X129485717Y-84981985D01*
X129485722Y-84981983D01*
X129496333Y-84975707D01*
X129514081Y-84967012D01*
X129532922Y-84959552D01*
X129568692Y-84933564D01*
X129578612Y-84927048D01*
X129609840Y-84908580D01*
X129609843Y-84908578D01*
X129616667Y-84904542D01*
X129630988Y-84890221D01*
X129646022Y-84877380D01*
X129655999Y-84870131D01*
X129662412Y-84865472D01*
X129690603Y-84831395D01*
X129698593Y-84822616D01*
X129710792Y-84810417D01*
X129773104Y-84776391D01*
X129843919Y-84781456D01*
X129900755Y-84824003D01*
X129925566Y-84890523D01*
X129925887Y-84899232D01*
X129950000Y-95750000D01*
X129950000Y-99365500D01*
X129929998Y-99433621D01*
X129876342Y-99480114D01*
X129824000Y-99491500D01*
X100634500Y-99491500D01*
X100566379Y-99471498D01*
X100519886Y-99417842D01*
X100508500Y-99365500D01*
X100508500Y-97703247D01*
X126991500Y-97703247D01*
X126998255Y-97765429D01*
X127049385Y-97901818D01*
X127136739Y-98018374D01*
X127253295Y-98105728D01*
X127389684Y-98156858D01*
X127451866Y-98163613D01*
X129148134Y-98163613D01*
X129210316Y-98156858D01*
X129346705Y-98105728D01*
X129463261Y-98018374D01*
X129550615Y-97901818D01*
X129601745Y-97765429D01*
X129608500Y-97703247D01*
X129608500Y-96006979D01*
X129601745Y-95944797D01*
X129550615Y-95808408D01*
X129463261Y-95691852D01*
X129346705Y-95604498D01*
X129226860Y-95559570D01*
X129170096Y-95516928D01*
X129145396Y-95450367D01*
X129161534Y-95379351D01*
X129222262Y-95272450D01*
X129227256Y-95261234D01*
X129285759Y-95085366D01*
X129288479Y-95073394D01*
X129312039Y-94886897D01*
X129312531Y-94879870D01*
X129312828Y-94858636D01*
X129312533Y-94851607D01*
X129294188Y-94664510D01*
X129291805Y-94652475D01*
X129238233Y-94475037D01*
X129233559Y-94463697D01*
X129178562Y-94360261D01*
X129168702Y-94350180D01*
X129161575Y-94352748D01*
X128389095Y-95125228D01*
X128326783Y-95159254D01*
X128255968Y-95154189D01*
X128210905Y-95125228D01*
X127443121Y-94357444D01*
X127430741Y-94350684D01*
X127424353Y-94355466D01*
X127371997Y-94450699D01*
X127367166Y-94461971D01*
X127311120Y-94638651D01*
X127308570Y-94650645D01*
X127287909Y-94834846D01*
X127287738Y-94847115D01*
X127303248Y-95031818D01*
X127305461Y-95043877D01*
X127356554Y-95222058D01*
X127361066Y-95233455D01*
X127438843Y-95384794D01*
X127452190Y-95454525D01*
X127425720Y-95520402D01*
X127371006Y-95560370D01*
X127253295Y-95604498D01*
X127136739Y-95691852D01*
X127049385Y-95808408D01*
X126998255Y-95944797D01*
X126991500Y-96006979D01*
X126991500Y-97703247D01*
X100508500Y-97703247D01*
X100508500Y-96605975D01*
X115427601Y-96605975D01*
X115456552Y-96706941D01*
X115461067Y-96718345D01*
X115545794Y-96883207D01*
X115552435Y-96893512D01*
X115667568Y-97038772D01*
X115676091Y-97047598D01*
X115817245Y-97167730D01*
X115827317Y-97174730D01*
X115989116Y-97265156D01*
X116000356Y-97270067D01*
X116128768Y-97311790D01*
X116142867Y-97312193D01*
X116146000Y-97305821D01*
X116146000Y-97297564D01*
X116654000Y-97297564D01*
X116657973Y-97311095D01*
X116666188Y-97312276D01*
X116760337Y-97285989D01*
X116771787Y-97281548D01*
X116937226Y-97197979D01*
X116947585Y-97191404D01*
X117093639Y-97077295D01*
X117102527Y-97068831D01*
X117223643Y-96928517D01*
X117230711Y-96918497D01*
X117322262Y-96757337D01*
X117327256Y-96746121D01*
X117372142Y-96611190D01*
X117372643Y-96597097D01*
X117366454Y-96594000D01*
X116672115Y-96594000D01*
X116656876Y-96598475D01*
X116655671Y-96599865D01*
X116654000Y-96607548D01*
X116654000Y-97297564D01*
X116146000Y-97297564D01*
X116146000Y-96612115D01*
X116141525Y-96596876D01*
X116140135Y-96595671D01*
X116132452Y-96594000D01*
X115442282Y-96594000D01*
X115428751Y-96597973D01*
X115427601Y-96605975D01*
X100508500Y-96605975D01*
X100508500Y-96340000D01*
X122706502Y-96340000D01*
X122726457Y-96568087D01*
X122727881Y-96573400D01*
X122727881Y-96573402D01*
X122737031Y-96607548D01*
X122785716Y-96789243D01*
X122788039Y-96794224D01*
X122788039Y-96794225D01*
X122880151Y-96991762D01*
X122880154Y-96991767D01*
X122882477Y-96996749D01*
X122885634Y-97001257D01*
X123002200Y-97167730D01*
X123013802Y-97184300D01*
X123175700Y-97346198D01*
X123180208Y-97349355D01*
X123180211Y-97349357D01*
X123258389Y-97404098D01*
X123363251Y-97477523D01*
X123368233Y-97479846D01*
X123368238Y-97479849D01*
X123565775Y-97571961D01*
X123570757Y-97574284D01*
X123576065Y-97575706D01*
X123576067Y-97575707D01*
X123786598Y-97632119D01*
X123786600Y-97632119D01*
X123791913Y-97633543D01*
X124020000Y-97653498D01*
X124248087Y-97633543D01*
X124253400Y-97632119D01*
X124253402Y-97632119D01*
X124463933Y-97575707D01*
X124463935Y-97575706D01*
X124469243Y-97574284D01*
X124474225Y-97571961D01*
X124671762Y-97479849D01*
X124671767Y-97479846D01*
X124676749Y-97477523D01*
X124781611Y-97404098D01*
X124859789Y-97349357D01*
X124859792Y-97349355D01*
X124864300Y-97346198D01*
X125026198Y-97184300D01*
X125037801Y-97167730D01*
X125154366Y-97001257D01*
X125157523Y-96996749D01*
X125159846Y-96991767D01*
X125159849Y-96991762D01*
X125251961Y-96794225D01*
X125251961Y-96794224D01*
X125254284Y-96789243D01*
X125302970Y-96607548D01*
X125312119Y-96573402D01*
X125312119Y-96573400D01*
X125313543Y-96568087D01*
X125333498Y-96340000D01*
X125313543Y-96111913D01*
X125306600Y-96086000D01*
X125255707Y-95896067D01*
X125255706Y-95896065D01*
X125254284Y-95890757D01*
X125219805Y-95816816D01*
X125159849Y-95688238D01*
X125159846Y-95688233D01*
X125157523Y-95683251D01*
X125026198Y-95495700D01*
X124864300Y-95333802D01*
X124859792Y-95330645D01*
X124859789Y-95330643D01*
X124781611Y-95275902D01*
X124676749Y-95202477D01*
X124671767Y-95200154D01*
X124671762Y-95200151D01*
X124637543Y-95184195D01*
X124584258Y-95137278D01*
X124564797Y-95069001D01*
X124585339Y-95001041D01*
X124637543Y-94955805D01*
X124671762Y-94939849D01*
X124671767Y-94939846D01*
X124676749Y-94937523D01*
X124796188Y-94853891D01*
X124859789Y-94809357D01*
X124859792Y-94809355D01*
X124864300Y-94806198D01*
X125026198Y-94644300D01*
X125030154Y-94638651D01*
X125084098Y-94561611D01*
X125157523Y-94456749D01*
X125159846Y-94451767D01*
X125159849Y-94451762D01*
X125251961Y-94254225D01*
X125251961Y-94254224D01*
X125254284Y-94249243D01*
X125313543Y-94028087D01*
X125317206Y-93986214D01*
X127794820Y-93986214D01*
X127797274Y-93993177D01*
X128287188Y-94483091D01*
X128301132Y-94490705D01*
X128302965Y-94490574D01*
X128309580Y-94486323D01*
X128797834Y-93998069D01*
X128804594Y-93985689D01*
X128799935Y-93979466D01*
X128697924Y-93924309D01*
X128686619Y-93919557D01*
X128509554Y-93864746D01*
X128497541Y-93862280D01*
X128313199Y-93842905D01*
X128300931Y-93842820D01*
X128116345Y-93859618D01*
X128104296Y-93861916D01*
X127926483Y-93914250D01*
X127915108Y-93918845D01*
X127804969Y-93976425D01*
X127794820Y-93986214D01*
X125317206Y-93986214D01*
X125333498Y-93800000D01*
X125313543Y-93571913D01*
X125254284Y-93350757D01*
X125251961Y-93345775D01*
X125159849Y-93148238D01*
X125159846Y-93148233D01*
X125157523Y-93143251D01*
X125026198Y-92955700D01*
X124864300Y-92793802D01*
X124859792Y-92790645D01*
X124859789Y-92790643D01*
X124781611Y-92735902D01*
X124676749Y-92662477D01*
X124671767Y-92660154D01*
X124671762Y-92660151D01*
X124474225Y-92568039D01*
X124474224Y-92568039D01*
X124469243Y-92565716D01*
X124463935Y-92564294D01*
X124463933Y-92564293D01*
X124253402Y-92507881D01*
X124253400Y-92507881D01*
X124248087Y-92506457D01*
X124020000Y-92486502D01*
X123791913Y-92506457D01*
X123786600Y-92507881D01*
X123786598Y-92507881D01*
X123576067Y-92564293D01*
X123576065Y-92564294D01*
X123570757Y-92565716D01*
X123565776Y-92568039D01*
X123565775Y-92568039D01*
X123368238Y-92660151D01*
X123368233Y-92660154D01*
X123363251Y-92662477D01*
X123258389Y-92735902D01*
X123180211Y-92790643D01*
X123180208Y-92790645D01*
X123175700Y-92793802D01*
X123013802Y-92955700D01*
X122882477Y-93143251D01*
X122880154Y-93148233D01*
X122880151Y-93148238D01*
X122788039Y-93345775D01*
X122785716Y-93350757D01*
X122726457Y-93571913D01*
X122706502Y-93800000D01*
X122726457Y-94028087D01*
X122785716Y-94249243D01*
X122788039Y-94254224D01*
X122788039Y-94254225D01*
X122880151Y-94451762D01*
X122880154Y-94451767D01*
X122882477Y-94456749D01*
X122955902Y-94561611D01*
X123009847Y-94638651D01*
X123013802Y-94644300D01*
X123175700Y-94806198D01*
X123180208Y-94809355D01*
X123180211Y-94809357D01*
X123243812Y-94853891D01*
X123363251Y-94937523D01*
X123368233Y-94939846D01*
X123368238Y-94939849D01*
X123402457Y-94955805D01*
X123455742Y-95002722D01*
X123475203Y-95070999D01*
X123454661Y-95138959D01*
X123402457Y-95184195D01*
X123368238Y-95200151D01*
X123368233Y-95200154D01*
X123363251Y-95202477D01*
X123258389Y-95275902D01*
X123180211Y-95330643D01*
X123180208Y-95330645D01*
X123175700Y-95333802D01*
X123013802Y-95495700D01*
X122882477Y-95683251D01*
X122880154Y-95688233D01*
X122880151Y-95688238D01*
X122820195Y-95816816D01*
X122785716Y-95890757D01*
X122784294Y-95896065D01*
X122784293Y-95896067D01*
X122733400Y-96086000D01*
X122726457Y-96111913D01*
X122706502Y-96340000D01*
X100508500Y-96340000D01*
X100508500Y-94648134D01*
X115091500Y-94648134D01*
X115098255Y-94710316D01*
X115149385Y-94846705D01*
X115236739Y-94963261D01*
X115353295Y-95050615D01*
X115489684Y-95101745D01*
X115551866Y-95108500D01*
X116139601Y-95108500D01*
X116207722Y-95128502D01*
X116254215Y-95182158D01*
X116264319Y-95252432D01*
X116234825Y-95317012D01*
X116175176Y-95355374D01*
X116026479Y-95399138D01*
X116015111Y-95403731D01*
X115850846Y-95489607D01*
X115840585Y-95496321D01*
X115696127Y-95612468D01*
X115687368Y-95621046D01*
X115568222Y-95763039D01*
X115561292Y-95773159D01*
X115471998Y-95935585D01*
X115467166Y-95946858D01*
X115428506Y-96068731D01*
X115428202Y-96082831D01*
X115434763Y-96086000D01*
X117358183Y-96086000D01*
X117371714Y-96082027D01*
X117372806Y-96074433D01*
X117338231Y-95959919D01*
X117333560Y-95948586D01*
X117246540Y-95784923D01*
X117239751Y-95774706D01*
X117122603Y-95631067D01*
X117113959Y-95622363D01*
X116971144Y-95504216D01*
X116960973Y-95497356D01*
X116797924Y-95409196D01*
X116786619Y-95404444D01*
X116626455Y-95354865D01*
X116567295Y-95315614D01*
X116538748Y-95250610D01*
X116549876Y-95180491D01*
X116597148Y-95127519D01*
X116663714Y-95108500D01*
X117248134Y-95108500D01*
X117310316Y-95101745D01*
X117446705Y-95050615D01*
X117563261Y-94963261D01*
X117650615Y-94846705D01*
X117701745Y-94710316D01*
X117708500Y-94648134D01*
X117708500Y-92951866D01*
X117701745Y-92889684D01*
X117650615Y-92753295D01*
X117563261Y-92636739D01*
X117446705Y-92549385D01*
X117310316Y-92498255D01*
X117248134Y-92491500D01*
X115551866Y-92491500D01*
X115489684Y-92498255D01*
X115353295Y-92549385D01*
X115236739Y-92636739D01*
X115149385Y-92753295D01*
X115098255Y-92889684D01*
X115091500Y-92951866D01*
X115091500Y-94648134D01*
X100508500Y-94648134D01*
X100508500Y-91864298D01*
X126342001Y-91864298D01*
X126343209Y-91876558D01*
X126351647Y-91918983D01*
X126360964Y-91941479D01*
X126393147Y-91989644D01*
X126410356Y-92006853D01*
X126458523Y-92039037D01*
X126481014Y-92048353D01*
X126523445Y-92056793D01*
X126535700Y-92058000D01*
X127127885Y-92058000D01*
X127143124Y-92053525D01*
X127144329Y-92052135D01*
X127146000Y-92044452D01*
X127146000Y-92039884D01*
X127654000Y-92039884D01*
X127658475Y-92055123D01*
X127659865Y-92056328D01*
X127667548Y-92057999D01*
X128264298Y-92057999D01*
X128276558Y-92056791D01*
X128318983Y-92048353D01*
X128341479Y-92039036D01*
X128389644Y-92006853D01*
X128406853Y-91989644D01*
X128439037Y-91941477D01*
X128448353Y-91918986D01*
X128456793Y-91876555D01*
X128458000Y-91864300D01*
X128458000Y-91272115D01*
X128453525Y-91256876D01*
X128452135Y-91255671D01*
X128444452Y-91254000D01*
X127672115Y-91254000D01*
X127656876Y-91258475D01*
X127655671Y-91259865D01*
X127654000Y-91267548D01*
X127654000Y-92039884D01*
X127146000Y-92039884D01*
X127146000Y-91272115D01*
X127141525Y-91256876D01*
X127140135Y-91255671D01*
X127132452Y-91254000D01*
X126360116Y-91254000D01*
X126344877Y-91258475D01*
X126343672Y-91259865D01*
X126342001Y-91267548D01*
X126342001Y-91864298D01*
X100508500Y-91864298D01*
X100508500Y-88800000D01*
X106936500Y-88800000D01*
X106937190Y-88806565D01*
X106944493Y-88876045D01*
X106956462Y-88989928D01*
X107015477Y-89171556D01*
X107110964Y-89336944D01*
X107115382Y-89341851D01*
X107115383Y-89341852D01*
X107137698Y-89366635D01*
X107238751Y-89478866D01*
X107393252Y-89591118D01*
X107399280Y-89593802D01*
X107399282Y-89593803D01*
X107561685Y-89666109D01*
X107567716Y-89668794D01*
X107661116Y-89688647D01*
X107748060Y-89707128D01*
X107748065Y-89707128D01*
X107754517Y-89708500D01*
X107945491Y-89708500D01*
X107951943Y-89707128D01*
X107951948Y-89707128D01*
X108038892Y-89688647D01*
X108132292Y-89668794D01*
X108138323Y-89666109D01*
X108300726Y-89593803D01*
X108300728Y-89593802D01*
X108306756Y-89591118D01*
X108363350Y-89550000D01*
X109886496Y-89550000D01*
X109887186Y-89556565D01*
X109903011Y-89707128D01*
X109906458Y-89739928D01*
X109965473Y-89921556D01*
X110060960Y-90086944D01*
X110065378Y-90091851D01*
X110065379Y-90091852D01*
X110104860Y-90135700D01*
X110188747Y-90228866D01*
X110343248Y-90341118D01*
X110349276Y-90343802D01*
X110349278Y-90343803D01*
X110511681Y-90416109D01*
X110517712Y-90418794D01*
X110611113Y-90438647D01*
X110698056Y-90457128D01*
X110698061Y-90457128D01*
X110704513Y-90458500D01*
X110895487Y-90458500D01*
X110901939Y-90457128D01*
X110901944Y-90457128D01*
X110988887Y-90438647D01*
X111082288Y-90418794D01*
X111088319Y-90416109D01*
X111250722Y-90343803D01*
X111250724Y-90343802D01*
X111256752Y-90341118D01*
X111411253Y-90228866D01*
X111495140Y-90135700D01*
X111534621Y-90091852D01*
X111534622Y-90091851D01*
X111539040Y-90086944D01*
X111634527Y-89921556D01*
X111693542Y-89739928D01*
X111696990Y-89707128D01*
X111709590Y-89587237D01*
X111710907Y-89574706D01*
X111737920Y-89509050D01*
X111747122Y-89498782D01*
X113092253Y-88153652D01*
X113100539Y-88146112D01*
X113107018Y-88142000D01*
X113153644Y-88092348D01*
X113156398Y-88089507D01*
X113176135Y-88069770D01*
X113178615Y-88066573D01*
X113186320Y-88057551D01*
X113211159Y-88031100D01*
X113216586Y-88025321D01*
X113220405Y-88018375D01*
X113220407Y-88018372D01*
X113226348Y-88007566D01*
X113237199Y-87991047D01*
X113244758Y-87981301D01*
X113249614Y-87975041D01*
X113252759Y-87967772D01*
X113252762Y-87967768D01*
X113267174Y-87934463D01*
X113272391Y-87923813D01*
X113293695Y-87885060D01*
X113298733Y-87865437D01*
X113305137Y-87846734D01*
X113310033Y-87835420D01*
X113310033Y-87835419D01*
X113313181Y-87828145D01*
X113314420Y-87820322D01*
X113314423Y-87820312D01*
X113320099Y-87784476D01*
X113322505Y-87772856D01*
X113331528Y-87737711D01*
X113331528Y-87737710D01*
X113333500Y-87730030D01*
X113333500Y-87709776D01*
X113335051Y-87690065D01*
X113336980Y-87677886D01*
X113338220Y-87670057D01*
X113334059Y-87626038D01*
X113333500Y-87614181D01*
X113333500Y-87552524D01*
X113353502Y-87484403D01*
X113365858Y-87468221D01*
X113439040Y-87386944D01*
X113534527Y-87221556D01*
X113593542Y-87039928D01*
X113601820Y-86961173D01*
X113612814Y-86856565D01*
X113613504Y-86850000D01*
X113607190Y-86789928D01*
X113594232Y-86666635D01*
X113594232Y-86666633D01*
X113593542Y-86660072D01*
X113534527Y-86478444D01*
X113439040Y-86313056D01*
X113344510Y-86208069D01*
X113315675Y-86176045D01*
X113315674Y-86176044D01*
X113311253Y-86171134D01*
X113156752Y-86058882D01*
X113150724Y-86056198D01*
X113150722Y-86056197D01*
X112988319Y-85983891D01*
X112988318Y-85983891D01*
X112982288Y-85981206D01*
X112888887Y-85961353D01*
X112801944Y-85942872D01*
X112801939Y-85942872D01*
X112795487Y-85941500D01*
X112604513Y-85941500D01*
X112598061Y-85942872D01*
X112598056Y-85942872D01*
X112511113Y-85961353D01*
X112417712Y-85981206D01*
X112411682Y-85983891D01*
X112411681Y-85983891D01*
X112249278Y-86056197D01*
X112249276Y-86056198D01*
X112243248Y-86058882D01*
X112088747Y-86171134D01*
X112084326Y-86176044D01*
X112084325Y-86176045D01*
X112055491Y-86208069D01*
X111960960Y-86313056D01*
X111865473Y-86478444D01*
X111806458Y-86660072D01*
X111805768Y-86666633D01*
X111805768Y-86666635D01*
X111792810Y-86789928D01*
X111786496Y-86850000D01*
X111787186Y-86856565D01*
X111798181Y-86961173D01*
X111806458Y-87039928D01*
X111865473Y-87221556D01*
X111951488Y-87370539D01*
X111968226Y-87439532D01*
X111945006Y-87506624D01*
X111931464Y-87522632D01*
X111387514Y-88066581D01*
X110849500Y-88604595D01*
X110787188Y-88638621D01*
X110760405Y-88641500D01*
X110704513Y-88641500D01*
X110698061Y-88642872D01*
X110698056Y-88642872D01*
X110611113Y-88661353D01*
X110517712Y-88681206D01*
X110511682Y-88683891D01*
X110511681Y-88683891D01*
X110349278Y-88756197D01*
X110349276Y-88756198D01*
X110343248Y-88758882D01*
X110188747Y-88871134D01*
X110184326Y-88876044D01*
X110184325Y-88876045D01*
X110081785Y-88989928D01*
X110060960Y-89013056D01*
X110057659Y-89018774D01*
X109972498Y-89166277D01*
X109965473Y-89178444D01*
X109906458Y-89360072D01*
X109905768Y-89366633D01*
X109905768Y-89366635D01*
X109893972Y-89478866D01*
X109886496Y-89550000D01*
X108363350Y-89550000D01*
X108461257Y-89478866D01*
X108562310Y-89366635D01*
X108584625Y-89341852D01*
X108584626Y-89341851D01*
X108589044Y-89336944D01*
X108684531Y-89171556D01*
X108739391Y-89002714D01*
X108770129Y-88952556D01*
X109088911Y-88633774D01*
X109103323Y-88621388D01*
X109114918Y-88612855D01*
X109114923Y-88612850D01*
X109120818Y-88608512D01*
X109125557Y-88602934D01*
X109125560Y-88602931D01*
X109155035Y-88568236D01*
X109161965Y-88560720D01*
X109167661Y-88555024D01*
X109169924Y-88552163D01*
X109169929Y-88552158D01*
X109185293Y-88532738D01*
X109188082Y-88529337D01*
X109230592Y-88479300D01*
X109230594Y-88479298D01*
X109235333Y-88473719D01*
X109238662Y-88467199D01*
X109242028Y-88462152D01*
X109245193Y-88457028D01*
X109249735Y-88451287D01*
X109280637Y-88385168D01*
X109282565Y-88381222D01*
X109312442Y-88322712D01*
X109312443Y-88322710D01*
X109315769Y-88316196D01*
X109317508Y-88309090D01*
X109319609Y-88303440D01*
X109321524Y-88297683D01*
X109324622Y-88291054D01*
X109339491Y-88219569D01*
X109340461Y-88215286D01*
X109344165Y-88200150D01*
X109357808Y-88144394D01*
X109358500Y-88133240D01*
X109358535Y-88133242D01*
X109358775Y-88129270D01*
X109359152Y-88125049D01*
X109360641Y-88117889D01*
X109358546Y-88040462D01*
X109358500Y-88037054D01*
X109358500Y-87136999D01*
X109375381Y-87073999D01*
X109391428Y-87046206D01*
X109434527Y-86971556D01*
X109493542Y-86789928D01*
X109506501Y-86666635D01*
X109512814Y-86606565D01*
X109513504Y-86600000D01*
X109493542Y-86410072D01*
X109434527Y-86228444D01*
X109422764Y-86208069D01*
X109342341Y-86068774D01*
X109339040Y-86063056D01*
X109305044Y-86025299D01*
X109215675Y-85926045D01*
X109215674Y-85926044D01*
X109211253Y-85921134D01*
X109056752Y-85808882D01*
X109050724Y-85806198D01*
X109050722Y-85806197D01*
X108888319Y-85733891D01*
X108888318Y-85733891D01*
X108882288Y-85731206D01*
X108788888Y-85711353D01*
X108701944Y-85692872D01*
X108701939Y-85692872D01*
X108695487Y-85691500D01*
X108504513Y-85691500D01*
X108498061Y-85692872D01*
X108498056Y-85692872D01*
X108411112Y-85711353D01*
X108317712Y-85731206D01*
X108311682Y-85733891D01*
X108311681Y-85733891D01*
X108149278Y-85806197D01*
X108149276Y-85806198D01*
X108143248Y-85808882D01*
X107988747Y-85921134D01*
X107984326Y-85926044D01*
X107984325Y-85926045D01*
X107894957Y-86025299D01*
X107860960Y-86063056D01*
X107857659Y-86068774D01*
X107777237Y-86208069D01*
X107765473Y-86228444D01*
X107706458Y-86410072D01*
X107686496Y-86600000D01*
X107687186Y-86606565D01*
X107693500Y-86666635D01*
X107706458Y-86789928D01*
X107765473Y-86971556D01*
X107808573Y-87046206D01*
X107824619Y-87073999D01*
X107841500Y-87136999D01*
X107841500Y-87683633D01*
X107821498Y-87751754D01*
X107804595Y-87772728D01*
X107693673Y-87883650D01*
X107630776Y-87917801D01*
X107574180Y-87929831D01*
X107574171Y-87929834D01*
X107567716Y-87931206D01*
X107561686Y-87933891D01*
X107561685Y-87933891D01*
X107399282Y-88006197D01*
X107399280Y-88006198D01*
X107393252Y-88008882D01*
X107387911Y-88012762D01*
X107387910Y-88012763D01*
X107362672Y-88031100D01*
X107238751Y-88121134D01*
X107234330Y-88126044D01*
X107234329Y-88126045D01*
X107188463Y-88176985D01*
X107110964Y-88263056D01*
X107015477Y-88428444D01*
X106956462Y-88610072D01*
X106955772Y-88616633D01*
X106955772Y-88616635D01*
X106948703Y-88683891D01*
X106936500Y-88800000D01*
X100508500Y-88800000D01*
X100508500Y-82400000D01*
X102186496Y-82400000D01*
X102206458Y-82589928D01*
X102265473Y-82771556D01*
X102360960Y-82936944D01*
X102488747Y-83078866D01*
X102587843Y-83150864D01*
X102637904Y-83187235D01*
X102643248Y-83191118D01*
X102649276Y-83193802D01*
X102649278Y-83193803D01*
X102811681Y-83266109D01*
X102817712Y-83268794D01*
X102911113Y-83288647D01*
X102998056Y-83307128D01*
X102998061Y-83307128D01*
X103004513Y-83308500D01*
X103195487Y-83308500D01*
X103201939Y-83307128D01*
X103201944Y-83307128D01*
X103288887Y-83288647D01*
X103382288Y-83268794D01*
X103388319Y-83266109D01*
X103550722Y-83193803D01*
X103550724Y-83193802D01*
X103556752Y-83191118D01*
X103562091Y-83187239D01*
X103562098Y-83187235D01*
X103568528Y-83182563D01*
X103642587Y-83158500D01*
X108657413Y-83158500D01*
X108731472Y-83182563D01*
X108737902Y-83187235D01*
X108737909Y-83187239D01*
X108743248Y-83191118D01*
X108749276Y-83193802D01*
X108749278Y-83193803D01*
X108911681Y-83266109D01*
X108917712Y-83268794D01*
X109011113Y-83288647D01*
X109098056Y-83307128D01*
X109098061Y-83307128D01*
X109104513Y-83308500D01*
X109295487Y-83308500D01*
X109301939Y-83307128D01*
X109301944Y-83307128D01*
X109388887Y-83288647D01*
X109482288Y-83268794D01*
X109488319Y-83266109D01*
X109650722Y-83193803D01*
X109650724Y-83193802D01*
X109656752Y-83191118D01*
X109662097Y-83187235D01*
X109712157Y-83150864D01*
X109811253Y-83078866D01*
X109939040Y-82936944D01*
X110034527Y-82771556D01*
X110093542Y-82589928D01*
X110113504Y-82400000D01*
X110093542Y-82210072D01*
X110034527Y-82028444D01*
X109939040Y-81863056D01*
X109811253Y-81721134D01*
X109668527Y-81617437D01*
X109662094Y-81612763D01*
X109662093Y-81612762D01*
X109656752Y-81608882D01*
X109650724Y-81606198D01*
X109650722Y-81606197D01*
X109488319Y-81533891D01*
X109488318Y-81533891D01*
X109482288Y-81531206D01*
X109388887Y-81511353D01*
X109301944Y-81492872D01*
X109301939Y-81492872D01*
X109295487Y-81491500D01*
X109104513Y-81491500D01*
X109098061Y-81492872D01*
X109098056Y-81492872D01*
X109011113Y-81511353D01*
X108917712Y-81531206D01*
X108911682Y-81533891D01*
X108911681Y-81533891D01*
X108749278Y-81606197D01*
X108749276Y-81606198D01*
X108743248Y-81608882D01*
X108737909Y-81612761D01*
X108737902Y-81612765D01*
X108731472Y-81617437D01*
X108657413Y-81641500D01*
X103642587Y-81641500D01*
X103568528Y-81617437D01*
X103562098Y-81612765D01*
X103562091Y-81612761D01*
X103556752Y-81608882D01*
X103550724Y-81606198D01*
X103550722Y-81606197D01*
X103388319Y-81533891D01*
X103388318Y-81533891D01*
X103382288Y-81531206D01*
X103288887Y-81511353D01*
X103201944Y-81492872D01*
X103201939Y-81492872D01*
X103195487Y-81491500D01*
X103004513Y-81491500D01*
X102998061Y-81492872D01*
X102998056Y-81492872D01*
X102911113Y-81511353D01*
X102817712Y-81531206D01*
X102811682Y-81533891D01*
X102811681Y-81533891D01*
X102649278Y-81606197D01*
X102649276Y-81606198D01*
X102643248Y-81608882D01*
X102637907Y-81612762D01*
X102637906Y-81612763D01*
X102631473Y-81617437D01*
X102488747Y-81721134D01*
X102360960Y-81863056D01*
X102265473Y-82028444D01*
X102206458Y-82210072D01*
X102186496Y-82400000D01*
X100508500Y-82400000D01*
X100508500Y-80150000D01*
X122986496Y-80150000D01*
X122987186Y-80156565D01*
X122993500Y-80216635D01*
X123006458Y-80339928D01*
X123065473Y-80521556D01*
X123160960Y-80686944D01*
X123165378Y-80691851D01*
X123165379Y-80691852D01*
X123231486Y-80765271D01*
X123288747Y-80828866D01*
X123443248Y-80941118D01*
X123449276Y-80943802D01*
X123449278Y-80943803D01*
X123611681Y-81016109D01*
X123617712Y-81018794D01*
X123689528Y-81034059D01*
X123798056Y-81057128D01*
X123798061Y-81057128D01*
X123804513Y-81058500D01*
X123995487Y-81058500D01*
X124001940Y-81057128D01*
X124001944Y-81057128D01*
X124057370Y-81045347D01*
X124085093Y-81039454D01*
X124115246Y-81036763D01*
X124122112Y-81036979D01*
X124129943Y-81038219D01*
X124137835Y-81037473D01*
X124173954Y-81034059D01*
X124185811Y-81033500D01*
X126066300Y-81033500D01*
X126134421Y-81053502D01*
X126153647Y-81069843D01*
X126153920Y-81069540D01*
X126158832Y-81073963D01*
X126163247Y-81078866D01*
X126317748Y-81191118D01*
X126323776Y-81193802D01*
X126323778Y-81193803D01*
X126486181Y-81266109D01*
X126492212Y-81268794D01*
X126585612Y-81288647D01*
X126672556Y-81307128D01*
X126672561Y-81307128D01*
X126679013Y-81308500D01*
X126869987Y-81308500D01*
X126876439Y-81307128D01*
X126876444Y-81307128D01*
X126963388Y-81288647D01*
X127056788Y-81268794D01*
X127062819Y-81266109D01*
X127225222Y-81193803D01*
X127225224Y-81193802D01*
X127231252Y-81191118D01*
X127385753Y-81078866D01*
X127422352Y-81038219D01*
X127509121Y-80941852D01*
X127509122Y-80941851D01*
X127513540Y-80936944D01*
X127609027Y-80771556D01*
X127668042Y-80589928D01*
X127688004Y-80400000D01*
X127681690Y-80339928D01*
X127668732Y-80216635D01*
X127668732Y-80216633D01*
X127668042Y-80210072D01*
X127609027Y-80028444D01*
X127513540Y-79863056D01*
X127385753Y-79721134D01*
X127231252Y-79608882D01*
X127225224Y-79606198D01*
X127225222Y-79606197D01*
X127062819Y-79533891D01*
X127062818Y-79533891D01*
X127056788Y-79531206D01*
X126963387Y-79511353D01*
X126876444Y-79492872D01*
X126876439Y-79492872D01*
X126869987Y-79491500D01*
X126679013Y-79491500D01*
X126672561Y-79492872D01*
X126672556Y-79492872D01*
X126585613Y-79511353D01*
X126492212Y-79531206D01*
X126486182Y-79533891D01*
X126486181Y-79533891D01*
X126323778Y-79606197D01*
X126323776Y-79606198D01*
X126317748Y-79608882D01*
X126163247Y-79721134D01*
X126158832Y-79726037D01*
X126153920Y-79730460D01*
X126152795Y-79729211D01*
X126099486Y-79762051D01*
X126066300Y-79766500D01*
X124800377Y-79766500D01*
X124732256Y-79746498D01*
X124691258Y-79703500D01*
X124642341Y-79618774D01*
X124639040Y-79613056D01*
X124511253Y-79471134D01*
X124356752Y-79358882D01*
X124350724Y-79356198D01*
X124350722Y-79356197D01*
X124188319Y-79283891D01*
X124188318Y-79283891D01*
X124182288Y-79281206D01*
X124088887Y-79261353D01*
X124001944Y-79242872D01*
X124001939Y-79242872D01*
X123995487Y-79241500D01*
X123804513Y-79241500D01*
X123798061Y-79242872D01*
X123798056Y-79242872D01*
X123711113Y-79261353D01*
X123617712Y-79281206D01*
X123611682Y-79283891D01*
X123611681Y-79283891D01*
X123449278Y-79356197D01*
X123449276Y-79356198D01*
X123443248Y-79358882D01*
X123288747Y-79471134D01*
X123160960Y-79613056D01*
X123157659Y-79618774D01*
X123074938Y-79762051D01*
X123065473Y-79778444D01*
X123006458Y-79960072D01*
X122986496Y-80150000D01*
X100508500Y-80150000D01*
X100508500Y-73634500D01*
X100528502Y-73566379D01*
X100582158Y-73519886D01*
X100634500Y-73508500D01*
X123514629Y-73508500D01*
X123582750Y-73528502D01*
G37*
G04 #@! TD.AperFunction*
M02*
